<svg width="595" height="842" viewBox="0 0 595 842" fill="none" xmlns="http://www.w3.org/2000/svg">
<rect width="595" height="842" fill="#FEF0EB"/>
<path d="M174.893 61.2401C170.403 56.9219 163.098 56.9196 158.604 61.2356C158.57 61.2674 148.175 71.3039 148.175 71.3039V65.1106C148.175 64.4811 147.643 63.9697 146.989 63.9697C146.334 63.9697 145.803 64.4811 145.803 65.1106V74.0676C145.803 74.6971 146.334 75.2084 146.989 75.2084H156.302C156.956 75.2084 157.488 74.6971 157.488 74.0676C157.488 73.438 156.956 72.9266 156.302 72.9266H149.836L160.27 62.8515L160.272 62.8492C163.84 59.4173 169.644 59.4173 173.212 62.8492C174.94 64.5106 175.892 66.722 175.892 69.072C175.892 71.4221 174.94 73.6335 173.224 75.2835L158.467 89.4746C158.244 89.6905 157.947 89.8086 157.63 89.8086C157.313 89.8086 157.016 89.6905 156.791 89.4746L143.799 76.9789C142.981 76.1926 142.055 75.3016 142.048 75.2948C140.32 73.6335 139.368 71.4221 139.368 69.072C139.368 66.722 140.32 64.5106 142.048 62.8492C144.668 60.3265 149.179 59.5424 152.318 61.0628C152.901 61.3446 153.88 62.0424 153.88 62.0424C154.407 62.4174 155.149 62.3106 155.539 61.8037C155.929 61.2969 155.817 60.5833 155.29 60.2083C155.29 60.2083 154.151 59.3969 153.388 59.0264C149.326 57.0582 143.73 58.0082 140.375 61.2378C138.198 63.331 137 66.1129 137 69.072C137 72.0289 138.196 74.8085 140.367 76.8994C140.391 76.9222 141.197 77.6994 142.126 78.5903L155.118 91.086C155.789 91.7314 156.682 92.0882 157.632 92.0882C158.582 92.0882 159.476 91.7314 160.147 91.086L174.89 76.9062C177.067 74.813 178.265 72.0312 178.265 69.072C178.267 66.1175 177.069 63.3333 174.893 61.2401Z" fill="#FF966E"/>
<path d="M215.282 87.8613C215.736 88.3461 215.963 88.8764 215.963 89.4521C215.963 90.0581 215.721 90.5732 215.236 90.9974C214.782 91.3913 214.298 91.5883 213.783 91.5883C213.117 91.5883 212.587 91.3459 212.193 90.8611L203.246 81.3618L200.521 83.8162V89.4521C200.521 90.0581 200.309 90.5732 199.885 90.9974C199.491 91.4216 198.992 91.6337 198.386 91.6337C197.75 91.6337 197.22 91.4216 196.796 90.9974C196.403 90.5732 196.206 90.0581 196.206 89.4521V60.1816C196.206 59.5756 196.403 59.0605 196.796 58.6363C197.22 58.2121 197.75 58 198.386 58C198.992 58 199.491 58.2121 199.885 58.6363C200.309 59.0605 200.521 59.5756 200.521 60.1816V78.6347L211.648 68.4083C212.163 67.9538 212.693 67.7265 213.238 67.7265C213.753 67.7265 214.222 67.9538 214.646 68.4083C215.07 68.8325 215.282 69.287 215.282 69.7718C215.282 70.3778 214.994 70.9232 214.419 71.408L206.561 78.4075L215.282 87.8613ZM240.162 67.4993C240.797 67.4993 241.312 67.7114 241.706 68.1356C242.13 68.5295 242.342 69.0597 242.342 69.7264V89.4521C242.342 90.0581 242.13 90.5732 241.706 90.9974C241.312 91.4216 240.797 91.6337 240.162 91.6337C239.526 91.6337 239.011 91.4368 238.617 91.0429C238.224 90.6187 238.027 90.0884 238.027 89.4521V88.2704C237.24 89.3309 236.165 90.2399 234.802 90.9974C233.44 91.7246 231.971 92.0882 230.396 92.0882C228.337 92.0882 226.46 91.558 224.765 90.4975C223.099 89.4369 221.782 87.9673 220.813 86.0887C219.874 84.1798 219.405 82.0436 219.405 79.6801C219.405 77.3167 219.874 75.1956 220.813 73.317C221.782 71.408 223.099 69.9233 224.765 68.8628C226.43 67.8023 228.262 67.272 230.26 67.272C231.865 67.272 233.349 67.6053 234.711 68.2719C236.104 68.9385 237.209 69.787 238.027 70.8172V69.7264C238.027 69.09 238.224 68.5598 238.617 68.1356C239.011 67.7114 239.526 67.4993 240.162 67.4993ZM230.896 88.0885C232.319 88.0885 233.576 87.7249 234.666 86.9977C235.786 86.2705 236.649 85.2706 237.255 83.998C237.891 82.7253 238.209 81.2861 238.209 79.6801C238.209 78.1045 237.891 76.6804 237.255 75.4077C236.649 74.1351 235.786 73.1352 234.666 72.408C233.576 71.6504 232.319 71.2717 230.896 71.2717C229.473 71.2717 228.201 71.6353 227.081 72.3625C225.991 73.0897 225.128 74.0896 224.492 75.3623C223.886 76.6349 223.584 78.0742 223.584 79.6801C223.584 81.2861 223.886 82.7253 224.492 83.998C225.128 85.2706 225.991 86.2705 227.081 86.9977C228.201 87.7249 229.473 88.0885 230.896 88.0885ZM260.612 67.272C261.399 67.272 262.081 67.4841 262.656 67.9083C263.231 68.3022 263.519 68.8022 263.519 69.4082C263.519 70.1354 263.322 70.696 262.928 71.0899C262.565 71.4535 262.111 71.6353 261.566 71.6353C261.293 71.6353 260.884 71.5444 260.339 71.3626C259.704 71.1505 259.204 71.0444 258.841 71.0444C257.902 71.0444 256.978 71.3777 256.07 72.0444C255.192 72.6807 254.465 73.5745 253.89 74.726C253.345 75.8471 253.072 77.1046 253.072 78.4984V89.4521C253.072 90.0581 252.86 90.5732 252.437 90.9974C252.043 91.4216 251.528 91.6337 250.892 91.6337C250.256 91.6337 249.742 91.4368 249.348 91.0429C248.954 90.6187 248.758 90.0884 248.758 89.4521V69.9991C248.758 69.393 248.954 68.8779 249.348 68.4537C249.772 68.0295 250.287 67.8174 250.892 67.8174C251.528 67.8174 252.043 68.0295 252.437 68.4537C252.86 68.8779 253.072 69.393 253.072 69.9991V72.3171C253.739 70.8323 254.738 69.6355 256.07 68.7264C257.402 67.7871 258.916 67.3023 260.612 67.272ZM294.816 67.4084C300.115 67.4084 302.765 70.7111 302.765 77.3167V89.4521C302.765 90.0884 302.568 90.6187 302.174 91.0429C301.781 91.4368 301.266 91.6337 300.63 91.6337C299.994 91.6337 299.464 91.4216 299.04 90.9974C298.647 90.5732 298.45 90.0581 298.45 89.4521V77.3621C298.45 73.3927 296.785 71.408 293.454 71.408C292.273 71.408 291.198 71.6807 290.229 72.2262C289.29 72.7413 288.549 73.4533 288.004 74.3624C287.489 75.2714 287.231 76.2713 287.231 77.3621V89.4521C287.231 90.0581 287.02 90.5732 286.596 90.9974C286.202 91.4216 285.687 91.6337 285.051 91.6337C284.416 91.6337 283.901 91.4368 283.507 91.0429C283.113 90.6187 282.917 90.0884 282.917 89.4521V77.3167C282.917 75.5289 282.538 74.1048 281.781 73.0443C281.024 71.9535 279.768 71.408 278.011 71.408C276.225 71.408 274.741 71.9838 273.56 73.1352C272.41 74.2563 271.834 75.6501 271.834 77.3167V89.4521C271.834 90.0581 271.622 90.5732 271.199 90.9974C270.805 91.4216 270.29 91.6337 269.654 91.6337C269.018 91.6337 268.504 91.4368 268.11 91.0429C267.716 90.6187 267.52 90.0884 267.52 89.4521V69.9991C267.52 69.393 267.716 68.8779 268.11 68.4537C268.534 68.0295 269.049 67.8174 269.654 67.8174C270.29 67.8174 270.805 68.0295 271.199 68.4537C271.622 68.8779 271.834 69.393 271.834 69.9991V71.5898C272.622 70.4081 273.666 69.4233 274.968 68.6355C276.301 67.8174 277.739 67.4084 279.283 67.4084C283.038 67.4084 285.475 69.0749 286.596 72.408C287.262 71.1353 288.367 69.9839 289.911 68.9537C291.455 67.9235 293.091 67.4084 294.816 67.4084ZM328.516 67.4993C329.151 67.4993 329.666 67.7114 330.06 68.1356C330.484 68.5295 330.696 69.0597 330.696 69.7264V89.4521C330.696 90.0581 330.484 90.5732 330.06 90.9974C329.666 91.4216 329.151 91.6337 328.516 91.6337C327.88 91.6337 327.365 91.4368 326.971 91.0429C326.578 90.6187 326.381 90.0884 326.381 89.4521V88.2704C325.594 89.3309 324.519 90.2399 323.156 90.9974C321.794 91.7246 320.326 92.0882 318.751 92.0882C316.692 92.0882 314.815 91.558 313.119 90.4975C311.454 89.4369 310.137 87.9673 309.168 86.0887C308.229 84.1798 307.76 82.0436 307.76 79.6801C307.76 77.3167 308.229 75.1956 309.168 73.317C310.137 71.408 311.454 69.9233 313.119 68.8628C314.784 67.8023 316.616 67.272 318.615 67.272C320.22 67.272 321.703 67.6053 323.065 68.2719C324.458 68.9385 325.563 69.787 326.381 70.8172V69.7264C326.381 69.09 326.578 68.5598 326.971 68.1356C327.365 67.7114 327.88 67.4993 328.516 67.4993ZM319.251 88.0885C320.674 88.0885 321.93 87.7249 323.02 86.9977C324.14 86.2705 325.003 85.2706 325.609 83.998C326.245 82.7253 326.563 81.2861 326.563 79.6801C326.563 78.1045 326.245 76.6804 325.609 75.4077C325.003 74.1351 324.14 73.1352 323.02 72.408C321.93 71.6504 320.674 71.2717 319.251 71.2717C317.827 71.2717 316.556 71.6353 315.435 72.3625C314.345 73.0897 313.482 74.0896 312.847 75.3623C312.241 76.6349 311.938 78.0742 311.938 79.6801C311.938 81.2861 312.241 82.7253 312.847 83.998C313.482 85.2706 314.345 86.2705 315.435 86.9977C316.556 87.7249 317.827 88.0885 319.251 88.0885ZM356.552 87.8613C357.006 88.3461 357.233 88.8764 357.233 89.4521C357.233 90.0581 356.991 90.5732 356.506 90.9974C356.052 91.3913 355.568 91.5883 355.053 91.5883C354.387 91.5883 353.857 91.3459 353.463 90.8611L344.516 81.3618L341.791 83.8162V89.4521C341.791 90.0581 341.579 90.5732 341.155 90.9974C340.761 91.4216 340.262 91.6337 339.656 91.6337C339.02 91.6337 338.49 91.4216 338.066 90.9974C337.673 90.5732 337.476 90.0581 337.476 89.4521V60.1816C337.476 59.5756 337.673 59.0605 338.066 58.6363C338.49 58.2121 339.02 58 339.656 58C340.262 58 340.761 58.2121 341.155 58.6363C341.579 59.0605 341.791 59.5756 341.791 60.1816V78.6347L352.918 68.4083C353.433 67.9538 353.963 67.7265 354.508 67.7265C355.023 67.7265 355.492 67.9538 355.916 68.4083C356.34 68.8325 356.552 69.287 356.552 69.7718C356.552 70.3778 356.264 70.9232 355.689 71.408L347.831 78.4075L356.552 87.8613ZM379.798 67.8174C380.434 67.8174 380.948 68.0295 381.342 68.4537C381.766 68.8779 381.978 69.393 381.978 69.9991V82.089C381.978 85.2403 381.1 87.6946 379.343 89.4521C377.618 91.1792 375.165 92.0428 371.986 92.0428C368.836 92.0428 366.399 91.1792 364.673 89.4521C362.947 87.6946 362.084 85.2403 362.084 82.089V69.9991C362.084 69.393 362.281 68.8779 362.675 68.4537C363.099 68.0295 363.613 67.8174 364.219 67.8174C364.855 67.8174 365.37 68.0295 365.763 68.4537C366.187 68.8779 366.399 69.393 366.399 69.9991V82.089C366.399 86.0584 368.261 88.0431 371.986 88.0431C373.833 88.0431 375.241 87.5431 376.21 86.5432C377.178 85.5433 377.663 84.0586 377.663 82.089V69.9991C377.663 69.393 377.86 68.8779 378.253 68.4537C378.677 68.0295 379.192 67.8174 379.798 67.8174ZM400.284 67.272C401.072 67.272 401.753 67.4841 402.328 67.9083C402.903 68.3022 403.191 68.8022 403.191 69.4082C403.191 70.1354 402.994 70.696 402.601 71.0899C402.237 71.4535 401.783 71.6353 401.238 71.6353C400.966 71.6353 400.557 71.5444 400.012 71.3626C399.376 71.1505 398.876 71.0444 398.513 71.0444C397.574 71.0444 396.651 71.3777 395.742 72.0444C394.864 72.6807 394.138 73.5745 393.562 74.726C393.017 75.8471 392.745 77.1046 392.745 78.4984V89.4521C392.745 90.0581 392.533 90.5732 392.109 90.9974C391.715 91.4216 391.2 91.6337 390.565 91.6337C389.929 91.6337 389.414 91.4368 389.02 91.0429C388.627 90.6187 388.43 90.0884 388.43 89.4521V69.9991C388.43 69.393 388.627 68.8779 389.02 68.4537C389.444 68.0295 389.959 67.8174 390.565 67.8174C391.2 67.8174 391.715 68.0295 392.109 68.4537C392.533 68.8779 392.745 69.393 392.745 69.9991V72.3171C393.411 70.8323 394.41 69.6355 395.742 68.7264C397.075 67.7871 398.589 67.3023 400.284 67.272ZM411.281 89.4521C411.281 90.0581 411.069 90.5732 410.645 90.9974C410.251 91.4216 409.736 91.6337 409.101 91.6337C408.495 91.6337 407.98 91.4216 407.556 90.9974C407.163 90.5732 406.966 90.0581 406.966 89.4521V69.7718C406.966 69.1658 407.163 68.6507 407.556 68.2265C407.98 67.8023 408.495 67.5902 409.101 67.5902C409.736 67.5902 410.251 67.8023 410.645 68.2265C411.069 68.6507 411.281 69.1658 411.281 69.7718V89.4521ZM409.101 64.5904C408.222 64.5904 407.587 64.4389 407.193 64.1359C406.83 63.8026 406.648 63.2875 406.648 62.5905V61.8633C406.648 61.1361 406.845 60.621 407.238 60.318C407.662 60.015 408.298 59.8635 409.146 59.8635C409.994 59.8635 410.599 60.0301 410.963 60.3635C411.356 60.6665 411.553 61.1664 411.553 61.8633V62.5905C411.553 63.3178 411.356 63.8329 410.963 64.1359C410.569 64.4389 409.948 64.5904 409.101 64.5904ZM438.376 78.8165C438.345 79.362 438.118 79.8316 437.694 80.2255C437.271 80.5891 436.771 80.7709 436.196 80.7709H420.208C420.42 82.9829 421.253 84.7555 422.706 86.0887C424.19 87.4219 425.991 88.0885 428.111 88.0885C429.564 88.0885 430.745 87.8764 431.654 87.4522C432.562 87.028 433.365 86.4826 434.061 85.816C434.515 85.5433 434.954 85.4069 435.378 85.4069C435.893 85.4069 436.317 85.5887 436.65 85.9524C437.013 86.316 437.195 86.7402 437.195 87.225C437.195 87.8613 436.892 88.437 436.286 88.9521C435.408 89.8308 434.243 90.5732 432.789 91.1792C431.336 91.7852 429.852 92.0882 428.338 92.0882C425.885 92.0882 423.721 91.5731 421.843 90.5429C419.996 89.5127 418.558 88.0734 417.528 86.2251C416.529 84.3767 416.03 82.286 416.03 79.9528C416.03 77.4076 416.544 75.1805 417.574 73.2715C418.634 71.3323 420.011 69.8476 421.707 68.8173C423.433 67.7871 425.28 67.272 427.248 67.272C429.186 67.272 431.003 67.772 432.698 68.7719C434.394 69.7718 435.757 71.1505 436.786 72.9079C437.816 74.6654 438.345 76.6349 438.376 78.8165ZM427.248 71.2717C425.552 71.2717 424.084 71.7565 422.842 72.7261C421.601 73.6654 420.783 75.135 420.39 77.1349H433.788V76.7713C433.637 75.1653 432.91 73.8472 431.608 72.817C430.337 71.7868 428.883 71.2717 427.248 71.2717ZM455.24 67.272C456.027 67.272 456.709 67.4841 457.284 67.9083C457.859 68.3022 458.147 68.8022 458.147 69.4082C458.147 70.1354 457.95 70.696 457.557 71.0899C457.193 71.4535 456.739 71.6353 456.194 71.6353C455.921 71.6353 455.513 71.5444 454.968 71.3626C454.332 71.1505 453.832 71.0444 453.469 71.0444C452.53 71.0444 451.607 71.3777 450.698 72.0444C449.82 72.6807 449.093 73.5745 448.518 74.726C447.973 75.8471 447.701 77.1046 447.701 78.4984V89.4521C447.701 90.0581 447.489 90.5732 447.065 90.9974C446.671 91.4216 446.156 91.6337 445.52 91.6337C444.885 91.6337 444.37 91.4368 443.976 91.0429C443.583 90.6187 443.386 90.0884 443.386 89.4521V69.9991C443.386 69.393 443.583 68.8779 443.976 68.4537C444.4 68.0295 444.915 67.8174 445.52 67.8174C446.156 67.8174 446.671 68.0295 447.065 68.4537C447.489 68.8779 447.701 69.393 447.701 69.9991V72.3171C448.367 70.8323 449.366 69.6355 450.698 68.7264C452.031 67.7871 453.545 67.3023 455.24 67.272Z" fill="#FF966E"/>
<path d="M344.104 97.964L341.872 104H340.936L339.208 99.284L337.492 104H336.556L334.324 97.964H335.344L337.048 102.836L338.812 97.964H339.664L341.404 102.848L343.144 97.964H344.104ZM345.366 97.964H346.338V104H345.366V97.964ZM346.458 95.408V96.512H345.27V95.408H346.458ZM351.033 97.82C351.233 97.82 351.417 97.844 351.585 97.892L351.561 98.78C351.377 98.716 351.165 98.684 350.925 98.684C350.341 98.684 349.905 98.868 349.617 99.236C349.337 99.596 349.197 100.036 349.197 100.556V104H348.225V99.656C348.225 99.032 348.193 98.468 348.129 97.964H349.053L349.149 99.08C349.301 98.672 349.545 98.36 349.881 98.144C350.217 97.928 350.601 97.82 351.033 97.82ZM357.742 104.084C356.726 104.084 355.922 103.824 355.33 103.304L355.654 102.584C355.982 102.84 356.314 103.024 356.65 103.136C356.986 103.248 357.362 103.304 357.778 103.304C358.234 103.304 358.578 103.228 358.81 103.076C359.05 102.916 359.17 102.688 359.17 102.392C359.17 102.152 359.09 101.96 358.93 101.816C358.77 101.672 358.506 101.56 358.138 101.48L357.118 101.24C356.614 101.128 356.222 100.928 355.942 100.64C355.67 100.352 355.534 100.008 355.534 99.608C355.534 99.08 355.746 98.652 356.17 98.324C356.594 97.988 357.154 97.82 357.85 97.82C358.274 97.82 358.674 97.888 359.05 98.024C359.426 98.16 359.742 98.356 359.998 98.612L359.674 99.32C359.106 98.848 358.498 98.612 357.85 98.612C357.418 98.612 357.082 98.696 356.842 98.864C356.61 99.024 356.494 99.252 356.494 99.548C356.494 99.796 356.566 99.992 356.71 100.136C356.862 100.28 357.102 100.392 357.43 100.472L358.45 100.724C359.01 100.852 359.426 101.052 359.698 101.324C359.97 101.588 360.106 101.936 360.106 102.368C360.106 102.888 359.894 103.304 359.47 103.616C359.046 103.928 358.47 104.084 357.742 104.084ZM366.707 100.952H362.279C362.287 101.72 362.463 102.3 362.807 102.692C363.159 103.084 363.667 103.28 364.331 103.28C365.035 103.28 365.683 103.044 366.275 102.572L366.599 103.28C366.335 103.528 365.995 103.724 365.579 103.868C365.171 104.012 364.751 104.084 364.319 104.084C363.375 104.084 362.635 103.808 362.099 103.256C361.563 102.696 361.295 101.932 361.295 100.964C361.295 100.348 361.415 99.804 361.655 99.332C361.895 98.852 362.231 98.48 362.663 98.216C363.095 97.952 363.587 97.82 364.139 97.82C364.939 97.82 365.567 98.084 366.023 98.612C366.479 99.132 366.707 99.852 366.707 100.772V100.952ZM364.151 98.576C363.647 98.576 363.235 98.728 362.915 99.032C362.603 99.336 362.403 99.764 362.315 100.316H365.831C365.783 99.748 365.615 99.316 365.327 99.02C365.047 98.724 364.655 98.576 364.151 98.576ZM371.194 97.82C372.642 97.82 373.366 98.616 373.366 100.208V104H372.394V100.256C372.394 99.696 372.282 99.288 372.058 99.032C371.834 98.768 371.482 98.636 371.002 98.636C370.442 98.636 369.994 98.808 369.658 99.152C369.322 99.496 369.154 99.96 369.154 100.544V104H368.182V95.168H369.154V98.948C369.346 98.58 369.618 98.3 369.97 98.108C370.33 97.916 370.738 97.82 371.194 97.82ZM380.254 100.952H375.826C375.834 101.72 376.01 102.3 376.354 102.692C376.706 103.084 377.214 103.28 377.878 103.28C378.582 103.28 379.23 103.044 379.822 102.572L380.146 103.28C379.882 103.528 379.542 103.724 379.126 103.868C378.718 104.012 378.298 104.084 377.866 104.084C376.922 104.084 376.182 103.808 375.646 103.256C375.11 102.696 374.842 101.932 374.842 100.964C374.842 100.348 374.962 99.804 375.202 99.332C375.442 98.852 375.778 98.48 376.21 98.216C376.642 97.952 377.134 97.82 377.686 97.82C378.486 97.82 379.114 98.084 379.57 98.612C380.026 99.132 380.254 99.852 380.254 100.772V100.952ZM377.698 98.576C377.194 98.576 376.782 98.728 376.462 99.032C376.15 99.336 375.95 99.764 375.862 100.316H379.378C379.33 99.748 379.162 99.316 378.874 99.02C378.594 98.724 378.202 98.576 377.698 98.576ZM384.741 97.82C386.189 97.82 386.913 98.616 386.913 100.208V104H385.941V100.256C385.941 99.696 385.829 99.288 385.605 99.032C385.381 98.768 385.029 98.636 384.549 98.636C383.989 98.636 383.541 98.808 383.205 99.152C382.869 99.496 382.701 99.96 382.701 100.544V104H381.729V99.656C381.729 99.032 381.697 98.468 381.633 97.964H382.557L382.653 99.044C382.837 98.652 383.113 98.352 383.481 98.144C383.849 97.928 384.269 97.82 384.741 97.82ZM399.077 95.456V104H398.093V100.076H392.969V104H391.997V95.456H392.969V99.248H398.093V95.456H399.077ZM401.065 97.964H402.037V104H401.065V97.964ZM402.157 95.408V96.512H400.969V95.408H402.157ZM403.924 95.168H404.896V104H403.924V95.168ZM409.1 95.96C408.78 95.96 408.528 96.052 408.344 96.236C408.168 96.412 408.08 96.72 408.08 97.16V97.964H409.556V98.732H408.08V104H407.108V98.732H405.932V97.964H407.108V97.04C407.108 96.408 407.264 95.932 407.576 95.612C407.896 95.284 408.34 95.12 408.908 95.12C409.188 95.12 409.46 95.156 409.724 95.228V96.056C409.5 95.992 409.292 95.96 409.1 95.96ZM415.82 100.952H411.392C411.4 101.72 411.576 102.3 411.92 102.692C412.272 103.084 412.78 103.28 413.444 103.28C414.148 103.28 414.796 103.044 415.388 102.572L415.712 103.28C415.448 103.528 415.108 103.724 414.692 103.868C414.284 104.012 413.864 104.084 413.432 104.084C412.488 104.084 411.748 103.808 411.212 103.256C410.676 102.696 410.408 101.932 410.408 100.964C410.408 100.348 410.528 99.804 410.768 99.332C411.008 98.852 411.344 98.48 411.776 98.216C412.208 97.952 412.7 97.82 413.252 97.82C414.052 97.82 414.68 98.084 415.136 98.612C415.592 99.132 415.82 99.852 415.82 100.772V100.952ZM413.264 98.576C412.76 98.576 412.348 98.728 412.028 99.032C411.716 99.336 411.516 99.764 411.428 100.316H414.944C414.896 99.748 414.728 99.316 414.44 99.02C414.16 98.724 413.768 98.576 413.264 98.576ZM425.74 97.964V104H424.78V102.908C424.604 103.284 424.336 103.576 423.976 103.784C423.624 103.984 423.212 104.084 422.74 104.084C422.204 104.084 421.732 103.956 421.324 103.7C420.924 103.444 420.612 103.084 420.388 102.62C420.172 102.148 420.064 101.6 420.064 100.976C420.064 100.352 420.176 99.804 420.4 99.332C420.624 98.852 420.936 98.48 421.336 98.216C421.744 97.952 422.212 97.82 422.74 97.82C423.212 97.82 423.624 97.924 423.976 98.132C424.328 98.34 424.596 98.632 424.78 99.008V97.964H425.74ZM422.932 103.28C423.524 103.28 423.98 103.08 424.3 102.68C424.62 102.272 424.78 101.696 424.78 100.952C424.78 100.208 424.62 99.636 424.3 99.236C423.98 98.836 423.524 98.636 422.932 98.636C422.34 98.636 421.876 98.844 421.54 99.26C421.212 99.668 421.048 100.24 421.048 100.976C421.048 101.712 421.212 102.28 421.54 102.68C421.868 103.08 422.332 103.28 422.932 103.28ZM430.632 97.82C432.08 97.82 432.804 98.616 432.804 100.208V104H431.832V100.256C431.832 99.696 431.72 99.288 431.496 99.032C431.272 98.768 430.92 98.636 430.44 98.636C429.88 98.636 429.432 98.808 429.096 99.152C428.76 99.496 428.592 99.96 428.592 100.544V104H427.62V99.656C427.62 99.032 427.588 98.468 427.524 97.964H428.448L428.544 99.044C428.728 98.652 429.004 98.352 429.372 98.144C429.74 97.928 430.16 97.82 430.632 97.82ZM439.955 95.168V104H438.995V102.908C438.819 103.284 438.551 103.576 438.191 103.784C437.839 103.984 437.427 104.084 436.955 104.084C436.427 104.084 435.959 103.952 435.551 103.688C435.151 103.424 434.839 103.056 434.615 102.584C434.391 102.104 434.279 101.552 434.279 100.928C434.279 100.304 434.387 99.76 434.603 99.296C434.827 98.824 435.143 98.46 435.551 98.204C435.959 97.948 436.427 97.82 436.955 97.82C437.427 97.82 437.839 97.924 438.191 98.132C438.543 98.332 438.807 98.616 438.983 98.984V95.168H439.955ZM437.147 103.28C437.739 103.28 438.195 103.08 438.515 102.68C438.835 102.272 438.995 101.696 438.995 100.952C438.995 100.216 438.835 99.648 438.515 99.248C438.195 98.84 437.739 98.636 437.147 98.636C436.555 98.636 436.091 98.836 435.755 99.236C435.427 99.636 435.263 100.2 435.263 100.928C435.263 101.672 435.427 102.252 435.755 102.668C436.091 103.076 436.555 103.28 437.147 103.28ZM446.886 100.952H442.458C442.466 101.72 442.642 102.3 442.986 102.692C443.338 103.084 443.846 103.28 444.51 103.28C445.214 103.28 445.862 103.044 446.454 102.572L446.778 103.28C446.514 103.528 446.174 103.724 445.758 103.868C445.35 104.012 444.93 104.084 444.498 104.084C443.554 104.084 442.814 103.808 442.278 103.256C441.742 102.696 441.474 101.932 441.474 100.964C441.474 100.348 441.594 99.804 441.834 99.332C442.074 98.852 442.41 98.48 442.842 98.216C443.274 97.952 443.766 97.82 444.318 97.82C445.118 97.82 445.746 98.084 446.202 98.612C446.658 99.132 446.886 99.852 446.886 100.772V100.952ZM444.33 98.576C443.826 98.576 443.414 98.728 443.094 99.032C442.782 99.336 442.582 99.764 442.494 100.316H446.01C445.962 99.748 445.794 99.316 445.506 99.02C445.226 98.724 444.834 98.576 444.33 98.576ZM451.17 97.82C451.37 97.82 451.554 97.844 451.722 97.892L451.698 98.78C451.514 98.716 451.302 98.684 451.062 98.684C450.478 98.684 450.042 98.868 449.754 99.236C449.474 99.596 449.334 100.036 449.334 100.556V104H448.362V99.656C448.362 99.032 448.33 98.468 448.266 97.964H449.19L449.286 99.08C449.438 98.672 449.682 98.36 450.018 98.144C450.354 97.928 450.738 97.82 451.17 97.82ZM454.691 104.084C453.675 104.084 452.871 103.824 452.279 103.304L452.603 102.584C452.931 102.84 453.263 103.024 453.599 103.136C453.935 103.248 454.311 103.304 454.727 103.304C455.183 103.304 455.527 103.228 455.759 103.076C455.999 102.916 456.119 102.688 456.119 102.392C456.119 102.152 456.039 101.96 455.879 101.816C455.719 101.672 455.455 101.56 455.087 101.48L454.067 101.24C453.563 101.128 453.171 100.928 452.891 100.64C452.619 100.352 452.483 100.008 452.483 99.608C452.483 99.08 452.695 98.652 453.119 98.324C453.543 97.988 454.103 97.82 454.799 97.82C455.223 97.82 455.623 97.888 455.999 98.024C456.375 98.16 456.691 98.356 456.947 98.612L456.623 99.32C456.055 98.848 455.447 98.612 454.799 98.612C454.367 98.612 454.031 98.696 453.791 98.864C453.559 99.024 453.443 99.252 453.443 99.548C453.443 99.796 453.515 99.992 453.659 100.136C453.811 100.28 454.051 100.392 454.379 100.472L455.399 100.724C455.959 100.852 456.375 101.052 456.647 101.324C456.919 101.588 457.055 101.936 457.055 102.368C457.055 102.888 456.843 103.304 456.419 103.616C455.995 103.928 455.419 104.084 454.691 104.084Z" fill="#FF966E"/>
<circle cx="232" cy="501" r="40" fill="white"/>
<path d="M248.731 487.141C244.379 482.955 237.298 482.953 232.941 487.136C232.909 487.167 222.833 496.896 222.833 496.896V490.893C222.833 490.282 222.317 489.787 221.683 489.787C221.048 489.787 220.533 490.282 220.533 490.893V499.575C220.533 500.185 221.048 500.681 221.683 500.681H230.71C231.345 500.681 231.86 500.185 231.86 499.575C231.86 498.965 231.345 498.469 230.71 498.469H224.443L234.556 488.703L234.559 488.701C238.018 485.374 243.644 485.374 247.103 488.701C248.777 490.311 249.7 492.455 249.7 494.733C249.7 497.011 248.777 499.154 247.114 500.754L232.809 514.51C232.593 514.719 232.305 514.834 231.998 514.834C231.691 514.834 231.402 514.719 231.185 514.51L218.59 502.397C217.798 501.635 216.9 500.771 216.893 500.765C215.218 499.154 214.295 497.011 214.295 494.733C214.295 492.455 215.218 490.311 216.893 488.701C219.433 486.255 223.806 485.495 226.848 486.969C227.414 487.242 228.362 487.918 228.362 487.918C228.873 488.282 229.592 488.178 229.97 487.687C230.348 487.196 230.241 486.504 229.73 486.141C229.73 486.141 228.626 485.354 227.886 484.995C223.948 483.087 218.524 484.008 215.271 487.139C213.161 489.168 212 491.864 212 494.733C212 497.599 213.159 500.293 215.264 502.32C215.287 502.342 216.068 503.096 216.969 503.959L229.563 516.072C230.213 516.698 231.079 517.043 232 517.043C232.921 517.043 233.787 516.698 234.437 516.072L248.729 502.327C250.839 500.298 252 497.601 252 494.733C252.002 491.869 250.841 489.17 248.731 487.141Z" fill="#FEF0EB"/>
<circle cx="509" cy="409" r="15" fill="white"/>
<circle cx="70" cy="134" r="30" fill="white"/>
<circle cx="450.5" cy="421.5" r="7.5" fill="white"/>
<circle cx="62.5" cy="468.5" r="7.5" fill="white"/>
<circle cx="158" cy="655" r="112" fill="white"/>
<g clip-path="url(#clip0_685_402)">
<path d="M248 646.417C248 679.121 219.096 706.69 179.657 715.154C173.251 716.525 166.744 717.371 160.2 717.684C159.882 717.7 159.564 717.716 159.243 717.727C157.54 717.797 155.824 717.833 154.095 717.834C151.09 717.834 148.119 717.727 145.185 717.515C143.557 717.399 141.942 717.252 140.342 717.073C124.774 715.335 110.447 710.692 98.3461 703.89C96.8341 703.041 95.3577 702.158 93.9169 701.241C91.2786 699.569 88.7315 697.759 86.2863 695.818C70.1225 682.992 83.5988 655.616 92.0229 638.381C114.76 591.864 102.234 575 154.095 575C205.957 575 248 606.973 248 646.417Z" fill="#FFEEC4"/>
<path d="M210.833 604.442C194.714 604.154 194.717 580.307 210.834 580.021C226.952 580.309 226.95 604.157 210.833 604.442Z" fill="white"/>
<path d="M180.35 639.981C164.231 639.693 164.234 615.845 180.351 615.56C196.469 615.847 196.466 639.695 180.35 639.981Z" fill="white"/>
<path d="M212.147 676.068C196.029 675.781 196.031 651.933 212.148 651.647C228.266 651.935 228.264 675.783 212.147 676.068Z" fill="white"/>
<path d="M210.833 604.442C194.714 604.154 194.717 580.307 210.834 580.021C226.952 580.309 226.95 604.157 210.833 604.442ZM210.833 580.761C195.691 581.032 195.694 603.434 210.834 603.702C225.975 603.432 225.973 581.029 210.833 580.761Z" fill="#E6E6E6"/>
<path d="M140.285 716.903C140.248 716.788 140.223 716.67 140.21 716.55L135.528 689.975C135.521 689.907 135.51 689.839 135.496 689.772C135.397 689.287 135.15 688.845 134.789 688.506C134.428 688.166 133.971 687.946 133.479 687.875L106.784 687.99C106.279 687.915 105.763 688.002 105.311 688.24C104.859 688.477 104.496 688.852 104.273 689.31C103.839 690.211 103.414 691.125 102.998 692.051C101.313 695.784 99.7624 699.73 98.3459 703.89C110.447 710.692 124.773 715.335 140.341 717.073L140.285 716.903Z" fill="#2F2E41"/>
<path d="M166.344 645.79C166.279 646.077 166.236 646.369 166.216 646.663L143.239 659.859L137.655 656.659L131.701 664.418L141.035 671.041C141.789 671.576 142.697 671.853 143.622 671.831C144.548 671.809 145.441 671.488 146.168 670.917L169.862 652.308C170.931 652.702 172.095 652.763 173.2 652.482C174.305 652.201 175.297 651.592 176.046 650.736C176.795 649.879 177.264 648.817 177.391 647.689C177.518 646.561 177.297 645.421 176.757 644.421C176.217 643.421 175.385 642.608 174.37 642.091C173.355 641.573 172.206 641.376 171.076 641.524C169.945 641.673 168.887 642.161 168.042 642.923C167.197 643.684 166.605 644.684 166.344 645.79V645.79Z" fill="#FFB8B8"/>
<path d="M142.925 658.541C142.855 658.203 142.713 657.885 142.509 657.606C142.304 657.328 142.042 657.097 141.74 656.929L131.197 651.06C129.796 649.983 128.023 649.504 126.268 649.727C124.512 649.95 122.917 650.856 121.833 652.248C120.748 653.64 120.261 655.403 120.48 657.151C120.699 658.899 121.605 660.49 123 661.574L131.406 670.264C131.646 670.512 131.937 670.706 132.259 670.832C132.58 670.958 132.926 671.014 133.271 670.995C133.617 670.976 133.954 670.884 134.26 670.724C134.567 670.564 134.835 670.34 135.046 670.067L136.683 667.953L137.242 667.233L142.472 660.485C142.663 660.239 142.803 659.957 142.884 659.657C142.986 659.293 143 658.911 142.925 658.541Z" fill="#8C95E3"/>
<path d="M127.659 640.643C132.79 635.536 132.79 627.255 127.659 622.147C122.529 617.04 114.211 617.04 109.08 622.147C103.95 627.255 103.95 635.536 109.08 640.643C114.211 645.751 122.529 645.751 127.659 640.643Z" fill="#FFB8B8"/>
<path d="M134.98 680.898C135.508 680.113 138.862 674.812 137.593 668.598C137.5 668.137 137.383 667.682 137.243 667.233C136.645 665.363 135.69 663.625 134.43 662.115C134.446 661.699 134.441 661.289 134.416 660.881V660.879C134.231 658.048 133.025 655.379 131.019 653.363C129.014 651.348 126.344 650.121 123.503 649.91L108.81 648.798C106.919 648.645 105.018 648.951 103.272 649.691C101.526 650.43 99.9872 651.581 98.7872 653.045C98.5109 653.378 98.2521 653.726 98.0119 654.086C98.0116 654.086 98.0113 654.086 98.011 654.086C98.0107 654.086 98.0105 654.086 98.0103 654.087C98.0101 654.087 98.0099 654.087 98.0098 654.087C98.0097 654.088 98.0096 654.088 98.0096 654.088C97.0832 655.48 96.4685 657.054 96.2072 658.704C95.9459 660.353 96.0442 662.039 96.4953 663.647L96.6204 664.195L98.1869 671.034L100.806 682.476L102.998 692.051L103.23 693.061C103.352 693.59 103.651 694.061 104.077 694.4C104.503 694.738 105.032 694.923 105.577 694.924C105.708 694.924 105.838 694.914 105.968 694.892L134.398 690.252C134.799 690.188 135.178 690.023 135.496 689.772C135.688 689.62 135.856 689.441 135.994 689.24C136.18 688.973 136.308 688.671 136.371 688.353C136.435 688.035 136.432 687.707 136.363 687.39L134.98 680.898Z" fill="#8C95E3"/>
<path d="M79.0279 719.52C78.5457 718.835 78.2201 718.054 78.0742 717.23C77.9283 716.407 77.9655 715.561 78.1832 714.753C78.401 713.946 78.794 713.195 79.3346 712.555C79.8751 711.915 80.5501 711.401 81.3119 711.048L97.4993 661.501L106.88 665.932L89.1686 714.176C89.6784 715.49 89.6865 716.943 89.1914 718.262C88.6963 719.581 87.7325 720.674 86.4825 721.332C85.2325 721.991 83.7833 722.17 82.4093 721.836C81.0354 721.502 79.8323 720.678 79.0279 719.52V719.52Z" fill="#FFB8B8"/>
<path d="M106.77 649.796C105.036 649.277 103.169 649.431 101.544 650.227C99.9187 651.022 98.6567 652.401 98.0117 654.086C98.0114 654.086 98.0111 654.086 98.0109 654.086C98.0106 654.086 98.0103 654.086 98.0101 654.087C98.0099 654.087 98.0098 654.087 98.0096 654.087C98.0095 654.088 98.0095 654.088 98.0095 654.088C97.9503 654.24 97.8958 654.398 97.8481 654.557L96.477 657.452L92.3343 666.201C92.1759 666.534 92.0917 666.898 92.0873 667.266C92.083 667.635 92.1586 668 92.309 668.337C92.4595 668.674 92.6812 668.975 92.9591 669.219C93.2369 669.463 93.5644 669.644 93.919 669.75L94.7263 669.992L98.1868 671.034L104.328 672.881L106.375 673.496C106.729 673.603 107.103 673.632 107.469 673.582C107.836 673.532 108.188 673.404 108.501 673.206C108.814 673.009 109.08 672.746 109.281 672.437C109.483 672.128 109.615 671.779 109.669 671.414L111.561 658.638C112.098 656.833 111.896 654.89 110.998 653.233C110.101 651.576 108.58 650.341 106.77 649.796Z" fill="#8C95E3"/>
<path d="M130.433 626.639C125.752 630.716 118.565 631.663 112.98 628.938C115.489 631.901 120.254 646.528 120.254 646.528C120.254 646.528 106.8 645.12 104.899 644.716C93.6728 642.326 97.7536 613.38 109.716 613.526C111.742 613.551 113.514 613.795 114.862 615.301C115.757 612.803 118.603 611.331 121.26 611.522C123.917 611.712 126.32 613.301 128.03 615.335C129.393 616.982 130.378 618.907 130.914 620.973C131.449 623.04 131.523 625.199 131.13 627.297L130.433 626.639Z" fill="#2F2E41"/>
<path d="M180.35 639.981C164.231 639.693 164.234 615.845 180.351 615.56C196.469 615.848 196.467 639.695 180.35 639.981ZM180.35 616.3C165.208 616.57 165.211 638.973 180.351 639.241C195.492 638.97 195.49 616.568 180.35 616.3Z" fill="#E6E6E6"/>
<path d="M212.147 676.068C196.029 675.781 196.031 651.933 212.148 651.647C228.266 651.935 228.264 675.783 212.147 676.068ZM212.147 652.387C197.005 652.658 197.008 675.06 212.148 675.328C227.289 675.058 227.287 652.655 212.147 652.387V652.387Z" fill="#E6E6E6"/>
<path d="M213.453 585.972C210.429 586.059 204.549 584.983 204.546 589.624C204.633 592.634 203.552 598.488 208.214 598.491C211.238 598.405 217.118 599.481 217.121 594.84C217.034 591.829 218.115 585.975 213.453 585.972Z" fill="#58B893"/>
<path d="M214.239 589.624C213.221 589.636 213.225 588.045 214.242 588.062C215.26 588.05 215.256 589.641 214.239 589.624Z" fill="white"/>
<path d="M210.833 590.145C213.553 590.105 213.553 594.358 210.833 594.318C208.114 594.358 208.114 590.105 210.833 590.145ZM210.833 589.102C206.755 589.043 206.754 595.421 210.834 595.361C214.913 595.421 214.912 589.042 210.833 589.102V589.102Z" fill="white"/>
<path d="M190.006 665.917C189.933 665.919 189.86 665.899 189.798 665.86C189.736 665.821 189.687 665.765 189.657 665.698C189.627 665.632 189.617 665.557 189.63 665.485C189.642 665.413 189.676 665.346 189.726 665.293L190.964 663.992C191.002 663.951 191.023 663.896 191.022 663.84C191.02 663.784 190.996 663.731 190.955 663.692L189.641 662.454C189.604 662.419 189.575 662.378 189.555 662.333C189.534 662.287 189.523 662.238 189.522 662.188C189.52 662.139 189.529 662.089 189.547 662.042C189.564 661.996 189.591 661.953 189.626 661.917C189.695 661.845 189.79 661.802 189.891 661.799C189.992 661.796 190.089 661.832 190.163 661.901L191.931 663.546C191.966 663.578 191.994 663.617 192.014 663.661C192.033 663.704 192.044 663.751 192.046 663.798C192.047 663.846 192.039 663.893 192.022 663.937C192.004 663.982 191.979 664.022 191.946 664.056L190.264 665.803C190.196 665.873 190.104 665.914 190.006 665.917V665.917Z" fill="#CCCCCC"/>
<path d="M188.655 664.022C188.614 664.059 188.562 664.08 188.507 664.082L184.384 664.195C184.354 664.196 184.324 664.191 184.296 664.18C184.268 664.17 184.243 664.154 184.221 664.133C184.199 664.113 184.182 664.088 184.169 664.061C184.157 664.034 184.151 664.005 184.15 663.975C184.149 663.945 184.154 663.916 184.165 663.888C184.175 663.86 184.191 663.835 184.212 663.813C184.233 663.792 184.257 663.774 184.284 663.762C184.312 663.75 184.341 663.743 184.371 663.743L188.494 663.629C188.541 663.628 188.586 663.641 188.625 663.666C188.664 663.691 188.694 663.728 188.711 663.77C188.729 663.813 188.733 663.86 188.722 663.905C188.712 663.95 188.689 663.991 188.655 664.022V664.022Z" fill="#CCCCCC"/>
<path d="M158.174 629.829C158.101 629.831 158.028 629.812 157.966 629.773C157.904 629.734 157.855 629.678 157.825 629.611C157.795 629.544 157.785 629.47 157.798 629.398C157.81 629.326 157.844 629.259 157.894 629.206L159.132 627.904C159.17 627.863 159.191 627.809 159.19 627.753C159.188 627.697 159.164 627.643 159.123 627.605L157.809 626.366C157.772 626.332 157.743 626.291 157.723 626.245C157.702 626.2 157.691 626.151 157.69 626.101C157.688 626.051 157.697 626.001 157.715 625.955C157.732 625.908 157.759 625.866 157.794 625.83C157.863 625.757 157.958 625.715 158.059 625.712C158.159 625.708 158.257 625.745 158.331 625.813L160.099 627.458C160.134 627.491 160.162 627.53 160.182 627.573C160.201 627.617 160.212 627.663 160.214 627.711C160.215 627.758 160.207 627.806 160.19 627.85C160.172 627.894 160.147 627.935 160.113 627.969L158.432 629.716C158.364 629.786 158.272 629.827 158.174 629.829V629.829Z" fill="#CCCCCC"/>
<path d="M156.823 627.935C156.782 627.972 156.73 627.993 156.675 627.994L152.552 628.107C152.522 628.108 152.492 628.103 152.464 628.093C152.436 628.082 152.411 628.066 152.389 628.046C152.367 628.025 152.35 628.001 152.337 627.974C152.325 627.947 152.319 627.917 152.318 627.887C152.317 627.858 152.322 627.828 152.333 627.8C152.343 627.773 152.359 627.747 152.38 627.726C152.401 627.704 152.425 627.687 152.452 627.675C152.48 627.662 152.509 627.656 152.539 627.655L156.662 627.542C156.709 627.541 156.754 627.553 156.793 627.579C156.832 627.604 156.862 627.64 156.879 627.683C156.897 627.726 156.901 627.773 156.89 627.818C156.88 627.863 156.857 627.903 156.823 627.935V627.935Z" fill="#CCCCCC"/>
<path d="M188.642 594.291C188.568 594.293 188.496 594.273 188.434 594.234C188.372 594.195 188.323 594.139 188.293 594.072C188.263 594.005 188.253 593.931 188.266 593.859C188.278 593.787 188.311 593.72 188.362 593.667L189.599 592.366C189.638 592.325 189.659 592.27 189.657 592.214C189.656 592.158 189.632 592.105 189.591 592.066L188.276 590.827C188.24 590.793 188.211 590.752 188.19 590.707C188.17 590.661 188.159 590.612 188.157 590.562C188.156 590.512 188.164 590.463 188.182 590.416C188.2 590.37 188.227 590.327 188.262 590.291V590.291C188.331 590.218 188.426 590.176 188.527 590.173C188.627 590.17 188.725 590.206 188.799 590.275L190.567 591.92C190.602 591.952 190.63 591.991 190.65 592.035C190.669 592.078 190.68 592.125 190.681 592.172C190.683 592.22 190.674 592.267 190.657 592.311C190.64 592.356 190.614 592.396 190.581 592.43L188.9 594.177C188.832 594.247 188.739 594.288 188.642 594.291V594.291Z" fill="#CCCCCC"/>
<path d="M187.291 592.396C187.25 592.433 187.198 592.454 187.143 592.456L183.02 592.569C182.99 592.57 182.96 592.565 182.932 592.554C182.904 592.544 182.879 592.528 182.857 592.507C182.835 592.487 182.818 592.462 182.805 592.435C182.793 592.408 182.787 592.379 182.786 592.349C182.785 592.319 182.79 592.29 182.801 592.262C182.811 592.234 182.827 592.209 182.848 592.187C182.869 592.165 182.893 592.148 182.92 592.136C182.948 592.124 182.977 592.117 183.007 592.116L187.13 592.003C187.177 592.002 187.222 592.015 187.261 592.04C187.3 592.065 187.33 592.102 187.347 592.144C187.365 592.187 187.369 592.234 187.358 592.279C187.348 592.324 187.325 592.365 187.291 592.396V592.396Z" fill="#CCCCCC"/>
<path d="M184.42 709.658C183.354 711.862 181.616 713.646 179.657 715.154C173.251 716.525 166.744 717.371 160.2 717.684C159.882 717.7 159.564 717.716 159.243 717.727C157.54 717.797 155.824 717.833 154.095 717.834C151.09 717.834 148.119 717.727 145.185 717.515C145.073 716.843 145.058 716.158 145.139 715.482C145.464 712.836 147.481 710.405 150.098 709.843C152.715 709.282 155.698 710.837 156.492 713.381C156.931 708.474 157.433 703.362 160.055 699.184C162.426 695.401 166.535 692.694 170.989 692.21C173.607 691.938 176.248 692.42 178.599 693.597C178.815 693.706 179.029 693.819 179.24 693.937C180.652 694.733 181.897 695.791 182.908 697.054C185.686 700.553 186.366 705.642 184.42 709.658Z" fill="white"/>
<path d="M179.24 693.937C179.246 693.996 179.236 694.056 179.211 694.11C179.186 694.165 179.148 694.212 179.1 694.247C171.208 700.643 164.767 708.631 160.2 717.684C159.882 717.7 159.564 717.716 159.243 717.727C159.648 716.91 160.068 716.101 160.503 715.301C162.763 711.156 165.421 707.239 168.44 703.605C171.459 699.968 174.83 696.636 178.504 693.656C178.533 693.632 178.565 693.613 178.599 693.597C178.663 693.57 178.733 693.557 178.802 693.56C178.872 693.563 178.94 693.582 179.002 693.614C179.063 693.647 179.116 693.693 179.158 693.748C179.199 693.804 179.227 693.869 179.24 693.937V693.937Z" fill="#F2F2F2"/>
<path fill-rule="evenodd" clip-rule="evenodd" d="M187.108 627.81C187.109 629.425 186.53 630.988 185.476 632.217C184.422 633.445 182.963 634.259 181.36 634.513V629.773H182.947L183.25 627.81H181.36C181.297 626.176 181.233 625.259 183.329 625.478V623.81C180.189 623.122 178.88 624.707 179.232 627.81H177.502V629.773H179.232V634.51C171.088 633.263 172.045 620.997 180.294 621.028C181.189 621.028 182.075 621.203 182.901 621.544C183.728 621.885 184.479 622.384 185.112 623.014C185.745 623.644 186.247 624.391 186.589 625.214C186.932 626.037 187.108 626.919 187.108 627.81V627.81Z" fill="#58B893"/>
<path d="M215.778 659C216.102 659 216.413 659.129 216.642 659.358C216.871 659.587 217 659.898 217 660.222V668.778C217 669.102 216.871 669.413 216.642 669.642C216.413 669.871 216.102 670 215.778 670H207.222C206.898 670 206.587 669.871 206.358 669.642C206.129 669.413 206 669.102 206 668.778V660.222C206 659.898 206.129 659.587 206.358 659.358C206.587 659.129 206.898 659 207.222 659H215.778ZM215.472 668.472V665.233C215.472 664.705 215.262 664.198 214.889 663.825C214.515 663.451 214.008 663.241 213.48 663.241C212.961 663.241 212.356 663.559 212.062 664.036V663.357H210.357V668.472H212.062V665.459C212.062 664.989 212.441 664.604 212.912 664.604C213.139 664.604 213.356 664.694 213.517 664.854C213.677 665.015 213.767 665.233 213.767 665.459V668.472H215.472ZM208.371 662.398C208.643 662.398 208.905 662.29 209.097 662.097C209.29 661.905 209.398 661.643 209.398 661.371C209.398 660.803 208.939 660.338 208.371 660.338C208.097 660.338 207.835 660.447 207.641 660.641C207.447 660.835 207.338 661.097 207.338 661.371C207.338 661.939 207.803 662.398 208.371 662.398ZM209.221 668.472V663.357H207.528V668.472H209.221Z" fill="#58B893"/>
</g>
<defs>
<clipPath id="clip0_685_402">
<rect width="170" height="147" fill="white" transform="translate(78 575)"/>
</clipPath>
</defs>
</svg>
