<svg width="534" height="149" viewBox="0 0 534 149" fill="none" xmlns="http://www.w3.org/2000/svg">
<g clip-path="url(#clip0_705_405)">
<rect width="534" height="149" rx="5" fill="#58B893" fill-opacity="0.25"/>
<ellipse cx="450.157" cy="66" rx="89.8318" ry="90" fill="white"/>
<g clip-path="url(#clip1_705_405)">
<path d="M456.977 40.0682C460.619 37.3725 465.747 36.3391 469.76 38.4421C465.243 40.4071 461.565 43.9094 459.377 48.3296C458.54 50.0373 457.785 52.024 456.057 52.8133C454.982 53.3044 453.713 53.2096 452.6 52.813C451.486 52.4164 450.496 51.7428 449.519 51.0762L449.226 51.0409C450.964 46.8515 453.334 42.7639 456.977 40.0682Z" fill="#58B893" fill-opacity="0.25"/>
<path d="M469.727 38.5317C465.981 38.6493 462.367 39.9465 459.398 42.2392C458.75 42.7214 458.183 43.3029 457.715 43.9622C457.281 44.6193 457.03 45.3808 456.989 46.1678C456.936 46.9008 456.967 47.6567 456.737 48.364C456.613 48.7243 456.416 49.0545 456.156 49.3328C455.897 49.6112 455.582 49.8315 455.231 49.9793C454.368 50.3702 453.416 50.427 452.483 50.4502C451.447 50.4759 450.371 50.4862 449.429 50.9748C449.315 51.0341 449.23 50.8531 449.343 50.794C450.983 49.9438 452.898 50.4985 454.621 49.9925C455.424 49.7564 456.162 49.2762 456.485 48.4726C456.767 47.77 456.736 46.9905 456.784 46.2478C456.813 45.4795 457.029 44.73 457.414 44.0648C457.846 43.3837 458.39 42.7813 459.024 42.2833C460.433 41.1393 462.013 40.2244 463.706 39.5721C465.633 38.8169 467.676 38.3976 469.745 38.3325C469.873 38.3285 469.855 38.5277 469.727 38.5317V38.5317Z" fill="white"/>
<path d="M460.311 41.4446C459.994 40.8934 459.884 40.2475 459.999 39.6222C460.114 38.9969 460.448 38.433 460.939 38.0312C461.039 37.9502 461.169 38.1018 461.069 38.1828C460.611 38.5562 460.3 39.0815 460.194 39.664C460.088 40.2464 460.194 40.8477 460.491 41.3592C460.556 41.4705 460.375 41.5552 460.311 41.4446V41.4446Z" fill="white"/>
<path d="M456.967 45.7926C458.217 46.1425 459.552 46.0077 460.707 45.4151C460.821 45.3563 460.906 45.5372 460.792 45.5959C459.589 46.2103 458.199 46.3477 456.9 45.9808C456.776 45.9457 456.844 45.7577 456.967 45.7926V45.7926Z" fill="white"/>
<path d="M465.624 39.0818C465.702 39.3206 465.838 39.5363 466.02 39.7094C466.202 39.8826 466.424 40.0078 466.666 40.0738C466.79 40.1073 466.722 40.2953 466.598 40.262C466.331 40.1878 466.086 40.0493 465.885 39.8584C465.684 39.6676 465.532 39.4302 465.444 39.1671C465.433 39.1431 465.432 39.1159 465.441 39.0912C465.45 39.0664 465.468 39.046 465.491 39.0341C465.515 39.0229 465.543 39.0216 465.567 39.0306C465.592 39.0395 465.613 39.0579 465.624 39.0818H465.624Z" fill="white"/>
<path d="M472.941 53.4688C472.863 53.4501 472.785 53.4314 472.705 53.4138C471.653 53.168 470.583 53.0082 469.505 52.936C469.422 52.9291 469.337 52.9234 469.254 52.9189C466.656 52.7727 464.053 53.1111 461.577 53.9169C460.593 54.2385 459.634 54.6347 458.709 55.102C457.432 55.7474 456.099 56.5491 454.724 56.7289C454.581 56.7492 454.436 56.7607 454.292 56.7632L449.206 51.4016C449.2 51.3836 449.194 51.3667 449.188 51.3486L448.975 51.1439C449.021 51.1164 449.07 51.089 449.116 51.0615C449.142 51.0455 449.17 51.0307 449.197 51.0146C449.215 51.0043 449.233 50.9941 449.249 50.9837C449.255 50.9803 449.261 50.9769 449.265 50.9746C449.281 50.9643 449.297 50.9563 449.311 50.9472C449.581 50.7929 449.852 50.6402 450.125 50.4892C450.126 50.488 450.126 50.488 450.129 50.4881C452.209 49.3427 454.404 48.3612 456.677 47.7447C456.746 47.7262 456.815 47.7064 456.886 47.6904C457.912 47.4182 458.959 47.2305 460.016 47.1291C460.595 47.0755 461.176 47.0513 461.757 47.0566C463.259 47.073 464.75 47.3261 466.173 47.8065C469.011 48.7646 471.511 50.6212 472.841 53.2658C472.875 53.3334 472.908 53.4 472.941 53.4688Z" fill="#58B893" fill-opacity="0.25"/>
<path d="M472.862 53.5214C469.8 51.3555 466.134 50.2112 462.386 50.2512C461.579 50.2454 460.777 50.3671 460.007 50.6119C459.266 50.8745 458.608 51.3313 458.102 51.9349C457.619 52.4881 457.189 53.11 456.581 53.536C456.266 53.7494 455.91 53.8938 455.535 53.9596C455.161 54.0254 454.777 54.0111 454.408 53.9178C453.484 53.7092 452.69 53.1803 451.931 52.636C451.088 52.0317 450.223 51.3906 449.177 51.2125C449.05 51.1909 449.091 50.9952 449.217 51.0167C451.037 51.3266 452.233 52.9248 453.912 53.5599C454.696 53.8563 455.574 53.9178 456.314 53.4709C456.962 53.0802 457.406 52.4392 457.89 51.8748C458.375 51.2788 458.998 50.8108 459.705 50.5117C460.459 50.2285 461.256 50.076 462.061 50.0607C463.874 49.9972 465.685 50.2197 467.429 50.7199C469.422 51.2797 471.304 52.177 472.995 53.3729C473.1 53.447 472.966 53.595 472.862 53.5214L472.862 53.5214Z" fill="white"/>
<path d="M463.593 50.1672C463.671 49.5362 463.971 48.9539 464.439 48.5241C464.907 48.0943 465.512 47.8451 466.146 47.8209C466.274 47.8164 466.287 48.016 466.158 48.0205C465.568 48.0419 465.004 48.2741 464.57 48.6752C464.135 49.0763 463.858 49.6199 463.788 50.2079C463.773 50.3356 463.577 50.2942 463.593 50.1672H463.593Z" fill="white"/>
<path d="M458.31 51.622C459.097 52.655 460.244 53.3528 461.523 53.5761C461.649 53.5982 461.608 53.7939 461.482 53.7719C460.152 53.537 458.96 52.8084 458.143 51.7316C458.065 51.629 458.233 51.5199 458.31 51.622V51.622Z" fill="white"/>
<path d="M469.255 51.4856C469.174 51.7233 469.153 51.9776 469.194 52.2255C469.235 52.4734 469.337 52.7072 469.49 52.9059C469.569 53.0075 469.402 53.1165 469.323 53.0155C469.155 52.7952 469.042 52.5369 468.996 52.2631C468.95 51.9893 468.972 51.7084 469.059 51.4449C469.066 51.4193 469.081 51.3971 469.103 51.3827C469.125 51.3683 469.152 51.3628 469.177 51.3673C469.203 51.3728 469.226 51.3884 469.24 51.4105C469.255 51.4326 469.26 51.4596 469.255 51.4856V51.4856Z" fill="white"/>
<path d="M456.016 44.0786H455.622V33.261C455.622 32.4388 455.46 31.6246 455.146 30.865C454.832 30.1054 454.372 29.4152 453.791 28.8338C453.211 28.2524 452.522 27.7912 451.764 27.4766C451.006 27.1619 450.193 27 449.372 27H426.497C425.676 27 424.863 27.1619 424.105 27.4766C423.347 27.7912 422.658 28.2524 422.078 28.8338C421.497 29.4152 421.037 30.1054 420.723 30.865C420.409 31.6246 420.247 32.4387 420.247 33.261V92.6075C420.247 94.268 420.906 95.8605 422.078 97.0346C423.25 98.2088 424.839 98.8684 426.497 98.8684H449.372C451.03 98.8684 452.619 98.2088 453.791 97.0346C454.963 95.8605 455.622 94.268 455.622 92.6075V51.7788H456.016V44.0786Z" fill="#3F3D56"/>
<path d="M449.625 28.6289H446.639C446.776 28.9662 446.828 29.3322 446.791 29.6945C446.754 30.0569 446.629 30.4046 446.426 30.7069C446.223 31.0093 445.949 31.257 445.628 31.4283C445.307 31.5996 444.949 31.6892 444.586 31.6892H431.48C431.117 31.6892 430.759 31.5996 430.438 31.4283C430.117 31.257 429.843 31.0093 429.64 30.7069C429.437 30.4046 429.312 30.0569 429.275 29.6945C429.238 29.3322 429.29 28.9662 429.428 28.6289H426.639C425.401 28.6289 424.214 29.1215 423.339 29.9984C422.463 30.8752 421.972 32.0645 421.972 33.3045V92.5639C421.972 93.1779 422.092 93.7859 422.327 94.3532C422.561 94.9205 422.905 95.4359 423.339 95.8701C423.772 96.3043 424.286 96.6487 424.853 96.8836C425.419 97.1186 426.026 97.2396 426.639 97.2396H449.625C450.237 97.2396 450.844 97.1186 451.41 96.8837C451.977 96.6487 452.491 96.3043 452.925 95.8701C453.358 95.4359 453.702 94.9205 453.936 94.3532C454.171 93.786 454.291 93.178 454.291 92.5639V92.5639V33.3045C454.291 32.0645 453.8 30.8752 452.925 29.9984C452.049 29.1215 450.862 28.6289 449.625 28.6289Z" fill="white"/>
<path d="M438.573 78.2032C436.881 78.2047 435.204 77.8719 433.64 77.2237C432.076 76.5754 430.655 75.6245 429.458 74.4254C428.261 73.2263 427.312 71.8024 426.665 70.2354C426.018 68.6683 425.686 66.9888 425.687 65.293C425.685 62.9117 426.341 60.5763 427.582 58.5458C428.824 56.5152 430.603 54.8689 432.721 53.7893C434.257 53.0066 435.933 52.5396 437.652 52.4161C439.371 52.2925 441.096 52.5148 442.728 53.0698C445.617 54.0563 448.063 56.0383 449.631 58.6628C451.198 61.2873 451.784 64.3839 451.285 67.401C450.787 70.4182 449.235 73.1601 446.907 75.1383C444.579 77.1165 441.626 78.2026 438.573 78.2032L438.573 78.2032ZM438.573 52.8892C436.618 52.8834 434.691 53.3467 432.951 54.2402C431.43 55.0164 430.086 56.0991 429.003 57.4203C427.92 58.7416 427.122 60.2729 426.657 61.9182C426.193 63.5634 426.073 65.2871 426.306 66.9809C426.538 68.6747 427.117 70.3021 428.007 71.761C428.897 73.2199 430.078 74.4787 431.477 75.4584C432.875 76.4381 434.461 77.1176 436.134 77.4541C437.807 77.7907 439.532 77.7771 441.199 77.4142C442.867 77.0513 444.442 76.3469 445.825 75.3453C446.493 74.8619 447.112 74.3123 447.67 73.7047C449.304 71.9337 450.387 69.7238 450.786 67.3457C451.186 64.9676 450.884 62.5244 449.919 60.3153C448.953 58.1062 447.366 56.2272 445.351 54.9082C443.336 53.5892 440.98 52.8875 438.573 52.8892V52.8892Z" fill="#F0F0F0"/>
<path d="M410.651 53.8357C411.005 53.8801 411.345 54.0017 411.646 54.1919C411.948 54.3821 412.204 54.6362 412.397 54.9365C412.591 55.2367 412.716 55.5757 412.764 55.9295C412.812 56.2834 412.782 56.6435 412.676 56.9846L416.958 60.5575L415.425 63.6937L409.45 58.563C408.89 58.347 408.428 57.9326 408.152 57.3984C407.877 56.8643 407.807 56.2474 407.955 55.6647C408.103 55.082 408.459 54.574 408.956 54.2369C409.453 53.8998 410.056 53.757 410.651 53.8357L410.651 53.8357Z" fill="#FFB6B6"/>
<path d="M450.637 68.7357C450.551 67.811 450.196 66.1486 449.895 65.5339C448.969 63.1058 442.986 61.1102 442.183 60.8529L441.979 58.5831L433.666 57.687L432.612 60.5897L429.631 61.7102C429.428 61.7859 429.245 61.9054 429.094 62.0604C428.943 62.2153 428.828 62.4018 428.758 62.6064V62.6064L426.083 63.381L423.444 64.1455L414.273 57.6718L413.841 57.9553L410.947 59.8471L410.5 60.1391L422.367 70.8655L426.775 69.8293L430.09 69.0479L430.373 70.1989L429.641 74.2424C431.763 76.3699 434.573 77.6701 437.566 77.9098C440.56 78.1495 443.54 77.313 445.973 75.5503L447.856 73.8762C449.169 72.4543 450.138 70.7493 450.688 68.8927L450.637 68.7357Z" fill="#FF966E"/>
<path d="M440.435 55.8306C443.573 54.7897 445.274 51.3972 444.235 48.2533C443.196 45.1094 439.81 43.4046 436.672 44.4455C433.534 45.4864 431.832 48.8789 432.871 52.0228C433.91 55.1667 437.297 56.8715 440.435 55.8306Z" fill="#FFB6B6"/>
<path d="M433.826 43.302C434.408 42.4695 435.281 41.8868 436.272 41.6696C437.252 41.4677 438.272 41.6551 439.116 42.1923C440.034 41.8217 441.025 41.5758 441.997 41.7008C442.97 41.8258 443.924 42.3702 444.374 43.2671C444.469 43.4994 444.583 43.723 444.717 43.9352C445.114 44.4653 445.851 44.534 446.502 44.5595C446.173 44.7518 445.844 44.9441 445.514 45.1363C445.842 45.2894 446.17 45.4426 446.498 45.5957C446.052 45.7665 445.606 45.9372 445.159 46.108C446.198 47.023 446.45 48.6516 446.056 50.0169C445.684 51.3096 444.83 52.3978 443.876 53.3294C443.69 52.6343 443.895 51.8806 444.031 51.1609C444.175 50.4005 444.198 49.5113 443.666 48.9744C443.308 48.6122 442.782 48.5028 442.286 48.415C439.785 47.9718 437.261 47.6715 434.725 47.5155C434.386 47.4685 434.04 47.5039 433.717 47.6186C433.1 47.8933 432.853 48.6476 432.674 49.3165C432.588 48.1425 432.657 46.9622 432.877 45.806C433.046 44.9211 433.313 44.0354 433.826 43.302Z" fill="#2F2E41"/>
<path d="M441.605 84.2857H434.531C434.285 84.2857 434.049 84.1879 433.875 84.0138C433.702 83.8398 433.604 83.6037 433.604 83.3575C433.604 83.1113 433.702 82.8752 433.875 82.7012C434.049 82.5271 434.285 82.4293 434.531 82.4293H441.605C441.851 82.4293 442.087 82.5271 442.26 82.7012C442.434 82.8752 442.532 83.1113 442.532 83.3575C442.532 83.6037 442.434 83.8398 442.26 84.0138C442.087 84.1879 441.851 84.2857 441.605 84.2857V84.2857Z" fill="#8C95E3"/>
<path d="M418.39 34.6153H398.931C398.752 34.6151 398.58 34.5435 398.453 34.4163C398.326 34.2892 398.255 34.1169 398.255 33.9372C398.255 33.7576 398.326 33.5853 398.453 33.4581C398.58 33.331 398.752 33.2594 398.931 33.2592H418.39C418.57 33.2592 418.742 33.3306 418.869 33.4578C418.996 33.5849 419.067 33.7574 419.067 33.9372C419.067 34.1171 418.996 34.2896 418.869 34.4167C418.742 34.5439 418.57 34.6153 418.39 34.6153V34.6153Z" fill="#8C95E3"/>
<path d="M429.626 38.9462H398.931C398.751 38.9462 398.579 38.8748 398.452 38.7477C398.325 38.6205 398.254 38.448 398.254 38.2682C398.254 38.0884 398.325 37.9159 398.452 37.7887C398.579 37.6616 398.751 37.5901 398.931 37.5901H429.626C429.805 37.5901 429.977 37.6616 430.104 37.7887C430.231 37.9159 430.303 38.0884 430.303 38.2682C430.303 38.448 430.231 38.6205 430.104 38.7477C429.977 38.8748 429.805 38.9462 429.626 38.9462Z" fill="#8C95E3"/>
<path d="M423.727 43.0264H398.931C398.751 43.0264 398.579 42.9549 398.452 42.8278C398.325 42.7006 398.254 42.5282 398.254 42.3483C398.254 42.1685 398.325 41.996 398.452 41.8689C398.579 41.7417 398.751 41.6703 398.931 41.6703H423.727C423.907 41.6703 424.079 41.7417 424.206 41.8689C424.333 41.996 424.404 42.1685 424.404 42.3483C424.404 42.5282 424.333 42.7006 424.206 42.8278C424.079 42.9549 423.907 43.0264 423.727 43.0264V43.0264Z" fill="#CACACA"/>
<path d="M412.913 47.0916H398.931C398.751 47.0916 398.579 47.0201 398.452 46.893C398.325 46.7658 398.254 46.5934 398.254 46.4135C398.254 46.2337 398.325 46.0612 398.452 45.9341C398.579 45.8069 398.751 45.7355 398.931 45.7355H412.913C413.093 45.7355 413.265 45.8069 413.392 45.9341C413.519 46.0612 413.59 46.2337 413.59 46.4135C413.59 46.5934 413.519 46.7658 413.392 46.893C413.265 47.0201 413.093 47.0916 412.913 47.0916V47.0916Z" fill="#CACACA"/>
<path d="M420.638 51.1564H398.931C398.752 51.1561 398.58 51.0845 398.453 50.9574C398.326 50.8303 398.255 50.658 398.255 50.4783C398.255 50.2987 398.326 50.1264 398.453 49.9993C398.58 49.8721 398.752 49.8006 398.931 49.8003H420.638C420.817 49.8006 420.989 49.8721 421.115 49.9993C421.242 50.1264 421.313 50.2987 421.313 50.4783C421.313 50.658 421.242 50.8303 421.115 50.9574C420.989 51.0845 420.817 51.1561 420.638 51.1564V51.1564Z" fill="#CACACA"/>
<path d="M481.813 117.494L480.069 117.494L479.239 110.754L481.813 110.754L481.813 117.494Z" fill="#9F616A"/>
<path d="M482.499 119.912L475.84 119.912V119.827C475.84 119.139 476.113 118.478 476.6 117.991C477.086 117.504 477.745 117.231 478.432 117.231H478.432L479.649 116.306L481.918 117.231L482.499 117.231L482.499 119.912Z" fill="#2F2E41"/>
<path d="M480.797 85.8174L480.027 76.421L479.423 72.8941L482.806 72.1455L483.929 76.974L482.951 86.0781C483.148 86.3204 483.269 86.6162 483.297 86.9276C483.325 87.2389 483.26 87.5516 483.109 87.8255C482.959 88.0994 482.73 88.322 482.452 88.4646C482.175 88.6072 481.861 88.6633 481.551 88.6258C481.241 88.5883 480.95 88.4589 480.714 88.2541C480.478 88.0494 480.309 87.7786 480.227 87.4767C480.146 87.1748 480.157 86.8555 480.259 86.5598C480.36 86.2641 480.547 86.0056 480.797 85.8174H480.797Z" fill="#9F616A"/>
<path d="M472.548 117.494L470.804 117.494L469.974 110.754L472.549 110.754L472.548 117.494Z" fill="#9F616A"/>
<path d="M469.757 87.9475L468.984 89.2874C468.984 89.2874 468.134 89.5199 468.412 92.2945C468.69 95.0691 468.702 111.508 470.046 113.531L470.289 115.268L472.827 115.511L472.891 113.969L475.917 92.5564C475.917 92.5564 477.699 113.577 479.174 114.091L479.706 115.843L482.032 115.844L481.895 113.78L482.045 87.7303L469.757 87.9475Z" fill="#2F2E41"/>
<path d="M468.907 89.1853L468.854 89.1716C470.45 83.1913 469.989 75.4475 468.862 67.132L468.862 67.0976L472.936 63.3594H476.473L479.98 65.6267C482.247 66.7623 482.762 69.1671 482.767 69.1914L482.771 69.2085L481.382 74.0661L482.428 88.1142L482.429 88.1305L482.423 88.1457C482.085 89.0059 481.177 88.8834 480.126 88.7415C479.077 88.5998 475.212 89.8956 474.026 89.8956C471.71 89.8956 469.073 89.2279 468.907 89.1853Z" fill="#58B893"/>
<path d="M479.246 67.52L480.765 66.8577L482.767 69.317L484.39 77.1978L478.832 76.354L479.246 67.52Z" fill="#58B893"/>
<path d="M455.872 82.0521L462.819 75.6923L465.234 73.0552L467.895 75.2779L464.77 79.1224L456.985 83.9187C456.914 84.2233 456.755 84.4998 456.526 84.7127C456.298 84.9257 456.011 85.0652 455.702 85.1136C455.394 85.1619 455.078 85.1168 454.796 84.9841C454.513 84.8513 454.277 84.6369 454.117 84.3685C453.957 84.1 453.881 83.7898 453.898 83.4776C453.915 83.1655 454.025 82.8656 454.214 82.6166C454.403 82.3676 454.662 82.1808 454.957 82.0802C455.253 81.9796 455.571 81.9698 455.872 82.0521L455.872 82.0521Z" fill="#9F616A"/>
<path d="M462.668 75.7615L464.592 73.2583C464.608 73.2224 466.204 69.6485 467.588 68.0957C469.007 66.5028 470.125 67.3174 470.136 67.3262L470.164 67.3472L470.241 73.2295L464.913 79.6073L462.668 75.7615Z" fill="#58B893"/>
<path d="M477.555 59.8384C477.841 58.0673 476.641 56.3986 474.873 56.1112C473.105 55.8238 471.44 57.0265 471.153 58.7976C470.866 60.5687 472.067 62.2374 473.834 62.5248C475.602 62.8122 477.268 61.6094 477.555 59.8384Z" fill="#9F616A"/>
<path d="M471.389 58.8357C471.389 58.8357 471.363 57.6936 471.219 57.1883C471.075 56.6829 470.787 56.2497 470.931 56.2497C471.075 56.2497 471.147 55.8888 471.147 55.8888C471.147 55.8888 471.291 55.8166 471.363 55.8888C471.435 55.961 471.507 55.3834 471.507 55.3834C471.507 55.3834 471.579 55.1668 471.651 55.3112C471.724 55.4556 471.724 55.3834 471.796 55.1668C471.868 54.9502 472.228 54.8058 472.228 54.8058C472.228 54.8058 473.597 54.878 473.813 54.5893C474.029 54.3005 476.479 54.5171 476.984 54.878C477.488 55.239 479.722 56.5385 479.362 57.6214C479.002 58.7044 477.964 61.1978 477.704 61.4477C477.294 61.843 477.009 61.9856 475.064 62.3733C474.684 62.4491 472.741 61.2044 472.741 60.9879C472.741 60.7713 472.975 60.0844 472.599 59.9902C472.03 59.8476 471.966 60.5684 471.822 60.3518C471.677 60.1352 471.389 58.8357 471.389 58.8357Z" fill="#2F2E41"/>
<path d="M473.235 119.912L466.576 119.912V119.827C466.576 119.139 466.849 118.478 467.335 117.991C467.821 117.504 468.48 117.231 469.168 117.231H469.168L470.384 116.306L472.653 117.231L473.235 117.231L473.235 119.912Z" fill="#2F2E41"/>
<path d="M507.848 120.039H398.815C398.762 120.039 398.71 120.018 398.673 119.98C398.635 119.943 398.614 119.892 398.614 119.838C398.614 119.785 398.635 119.734 398.673 119.696C398.71 119.658 398.762 119.637 398.815 119.637H507.848C507.901 119.637 507.952 119.658 507.99 119.696C508.027 119.734 508.049 119.785 508.049 119.838C508.049 119.892 508.027 119.943 507.99 119.98C507.952 120.018 507.901 120.039 507.848 120.039V120.039Z" fill="#CACACA"/>
</g>
</g>
<defs>
<clipPath id="clip0_705_405">
<rect width="534" height="149" fill="white"/>
</clipPath>
<clipPath id="clip1_705_405">
<rect width="109.794" height="93.0392" fill="white" transform="translate(398.254 27)"/>
</clipPath>
</defs>
</svg>
