<svg width="534" height="149" viewBox="0 0 534 149" fill="none" xmlns="http://www.w3.org/2000/svg">
<g clip-path="url(#clip0_705_404)">
<rect width="534" height="149" rx="5" fill="#58B893" fill-opacity="0.25"/>
<circle cx="451" cy="68" r="90" fill="white"/>
<g clip-path="url(#clip1_705_404)">
<path d="M428.812 105.168C424.889 105.168 420.972 105.098 417.061 104.958C411.473 104.757 405.695 104.549 400.324 101.571C396.566 99.4869 393.239 96.1439 390.701 91.9027C389.004 89.028 387.76 85.9094 387.013 82.6563C385.618 76.7336 385.666 70.5626 387.151 64.6621C387.672 62.639 388.39 60.6719 389.294 58.7889C393.211 50.678 400.355 45.2334 408.894 43.8513C408.965 43.8421 409.036 43.8406 409.107 43.8467C409.145 43.8488 409.184 43.851 409.223 43.8493L409.273 43.8334C409.402 43.7886 409.534 43.7546 409.668 43.7319C422.838 41.7712 436.761 45.7383 449.93 55.2038C460.112 62.5235 473.607 66.465 491.184 67.2537L491.434 67.2667C496.327 67.5478 501.06 69.5651 505.122 73.101C509.131 76.5908 512.142 81.2468 513.828 86.566C514.035 87.2145 514.225 87.8896 514.392 88.5723C514.548 89.2068 514.537 89.8708 514.36 90.4998C514.184 91.1288 513.847 91.7013 513.383 92.1616V92.1629L513.34 92.2079C513.234 92.3127 513.123 92.4132 513.01 92.5067L512.877 92.6166C511.753 93.5419 510.866 94.2729 509.804 94.8406C509.096 95.2167 508.343 95.5011 507.563 95.6869C503.279 96.7312 498.929 97.6994 494.634 98.5648C486.292 100.247 477.73 101.634 469.186 102.689C455.791 104.34 442.308 105.168 428.812 105.168V105.168ZM409.007 44.134C408.981 44.1337 408.955 44.1355 408.929 44.1393C400.469 45.5086 393.393 50.8997 389.515 58.9303C388.619 60.7946 387.909 62.7422 387.393 64.7453C385.921 70.5935 385.874 76.7096 387.256 82.5797C387.997 85.8017 389.229 88.8905 390.909 91.7377C393.422 95.9373 396.715 99.2469 400.433 101.308C405.756 104.261 411.507 104.467 417.069 104.667C434.465 105.288 451.883 104.53 469.159 102.4C477.697 101.346 486.254 99.9594 494.59 98.2784C498.883 97.4136 503.23 96.4461 507.51 95.4024C508.272 95.2213 509.007 94.9439 509.698 94.5769C510.738 94.0207 511.617 93.2966 512.73 92.3801L512.863 92.2704C512.96 92.1899 513.056 92.1038 513.148 92.0144L513.174 91.9868C514.088 91.0653 514.444 89.8496 514.149 88.6514V88.6512C513.984 87.9757 513.796 87.3079 513.591 86.6661C510.147 75.8 501.238 68.1209 491.422 67.5572L491.173 67.5441C483.144 67.1838 476.118 66.1858 469.694 64.4927C462.026 62.4717 455.331 59.4293 449.796 55.4504C436.677 46.0211 422.813 42.0689 409.701 44.0202C409.578 44.0413 409.458 44.0726 409.34 44.1136L409.25 44.1389C409.198 44.1412 409.147 44.1406 409.095 44.1371C409.065 44.1355 409.036 44.134 409.007 44.134H409.007Z" fill="#2D3CB9"/>
<path d="M426.607 61.2326C426.243 60.8842 425.872 58.9413 425.408 58.7441C425.755 59.51 425.503 59.7128 425.501 60.5533C425.506 61.0306 425.45 61.5066 425.336 61.97H417.482V55.8408C417.482 55.29 417.59 54.7447 417.801 54.2359C418.012 53.7271 418.321 53.2648 418.71 52.8754C419.1 52.4859 419.562 52.177 420.071 51.9663C420.58 51.7555 421.125 51.6471 421.676 51.6471C421.886 51.6512 422.095 51.6818 422.297 51.7381C422.972 51.9203 423.587 52.2769 424.081 52.772C424.575 53.2671 424.93 53.8833 425.11 54.5589C425.709 56.7473 426.661 60.39 426.607 61.2326Z" fill="#2F2E41"/>
<path d="M417.943 68.7727L417.947 63.9954L415.138 64.2463L416.129 67.2594L415.666 74.8328C415.441 74.8833 415.235 74.9981 415.074 75.1634C414.914 75.3286 414.804 75.537 414.76 75.7632C414.716 75.9895 414.738 76.2238 414.824 76.4375C414.911 76.6513 415.058 76.8352 415.247 76.967C415.436 77.0988 415.659 77.1727 415.89 77.1797C416.12 77.1866 416.348 77.1264 416.545 77.0063C416.741 76.8862 416.899 76.7115 416.998 76.5034C417.097 76.2952 417.134 76.0627 417.103 75.8342L417.943 68.7727Z" fill="#FFB6B6"/>
<path d="M423.469 102.912L424.604 102.912L425.144 98.5356H423.469L423.469 102.912Z" fill="#FFB6B6"/>
<path d="M423.085 102.352L424.879 102.245V103.013L426.584 104.191C426.668 104.249 426.731 104.333 426.765 104.429C426.798 104.526 426.8 104.631 426.769 104.729C426.739 104.827 426.678 104.912 426.595 104.973C426.513 105.033 426.413 105.066 426.311 105.066H424.176L423.808 104.306L423.664 105.066H422.859L423.085 102.352Z" fill="#2F2E41"/>
<path d="M416.909 102.912L418.044 102.912L418.584 98.5356H416.909L416.909 102.912Z" fill="#FFB6B6"/>
<path d="M416.525 102.352L418.319 102.245V103.013L420.024 104.191C420.108 104.249 420.171 104.333 420.205 104.429C420.238 104.526 420.24 104.631 420.209 104.729C420.179 104.827 420.118 104.912 420.035 104.973C419.953 105.033 419.853 105.066 419.751 105.066H417.616L417.248 104.306L417.104 105.066H416.299L416.525 102.352Z" fill="#2F2E41"/>
<path d="M422.459 58.8362L420.109 58.8823L418.45 60.6335L417.12 60.8286C416.518 60.9168 415.965 61.2089 415.553 61.656C415.141 62.1031 414.894 62.6782 414.855 63.285L415.086 64.5507H416.468L417.268 69.2467C416.957 70.0391 416.936 70.6646 417.574 70.9103L419.556 74.6431L425.409 72.0163C425.705 71.5061 425.8 70.9935 425.497 70.4951L425.915 63.3064H427.322C427.322 61.9619 426.868 60.8284 425.531 60.6788C425.001 60.6214 424.468 60.5909 423.934 60.5874L422.459 58.8362Z" fill="#FF966E"/>
<path d="M425.408 72.0163C425.408 72.0163 419.694 73.0302 417.574 70.9103C417.574 70.9103 417.359 71.2756 417.035 71.8816C416.941 72.0558 416.761 72.1739 416.652 72.385C416.554 72.5768 416.299 72.8126 416.192 73.0302C416.105 73.2053 416.244 73.434 416.154 73.6231C415.068 75.9002 413.8 79.1122 414.072 81.2332C414.247 82.6009 414.609 85.7836 414.991 89.202C415.02 89.469 414.779 89.8121 414.809 90.0813C414.837 90.3352 415.137 90.5151 415.165 90.7695C415.184 90.9385 414.975 91.1108 414.993 91.2795C415.014 91.4646 415.262 91.6461 415.283 91.8305C415.805 96.5505 416.284 100.957 416.284 100.957H418.957L419.461 90.8928L419.049 87.2241L420.017 79.8045L421.353 86.8554L421.525 90.8237L422.937 101.142H425.408V91.1532L425.593 90.6343L425.408 89.9688L425.593 89.2518L425.408 88.4709V72.0163Z" fill="#2F2E41"/>
<path d="M423.18 57.4733C422.816 57.9569 422.298 58.3021 421.712 58.4521C421.126 58.602 420.505 58.5478 419.954 58.2983C419.402 58.0488 418.952 57.6188 418.678 57.0793C418.403 56.5398 418.321 55.9229 418.443 55.3302C418.566 54.7374 418.887 54.2042 419.354 53.8183C419.82 53.4325 420.404 53.2169 421.009 53.2073C421.615 53.1976 422.205 53.3943 422.684 53.7651C423.162 54.1358 423.5 54.6585 423.642 55.247C423.65 55.2789 423.656 55.3107 423.662 55.3436C423.737 55.7125 423.733 56.0931 423.65 56.4602C423.567 56.8273 423.407 57.1726 423.18 57.4733V57.4733Z" fill="#FFB6B6"/>
<path d="M422.625 55.9532C422.568 55.6695 422.426 55.4104 422.216 55.2112C422.236 55.483 422.199 55.7561 422.105 56.0122C421.404 56.0742 420.701 55.9348 420.077 55.6103C419.606 55.2914 419.008 55.3191 418.312 55.6103C418.311 55.2714 418.378 54.9358 418.508 54.6227C418.638 54.3095 418.828 54.025 419.067 53.7854C419.307 53.5457 419.591 53.3556 419.905 53.226C420.218 53.0963 420.553 53.0296 420.892 53.0296H421.353C422.037 53.0297 422.694 53.3017 423.178 53.7856C423.662 54.2696 423.934 54.9259 423.934 55.6103C423.508 55.7629 423.071 55.8776 422.625 55.9532V55.9532Z" fill="#2F2E41"/>
<path d="M402.463 88.8454C406.558 88.8454 409.877 85.526 409.877 81.4314C409.877 77.3367 406.558 74.0173 402.463 74.0173C398.369 74.0173 395.049 77.3367 395.049 81.4314C395.049 85.526 398.369 88.8454 402.463 88.8454Z" fill="#FFF0EB"/>
<path d="M449.71 54.8281C453.804 54.8281 457.124 51.5087 457.124 47.414C457.124 43.3194 453.804 40 449.71 40C445.615 40 442.296 43.3194 442.296 47.414C442.296 51.5087 445.615 54.8281 449.71 54.8281Z" fill="#FFF0EB"/>
<path d="M508.586 90.0085C512.681 90.0085 516 86.6891 516 82.5944C516 78.4997 512.681 75.1804 508.586 75.1804C504.491 75.1804 501.172 78.4997 501.172 82.5944C501.172 86.6891 504.491 90.0085 508.586 90.0085Z" fill="#FFF0EB"/>
<path d="M463.084 48.2226V65.0345C463.084 65.3837 462.946 65.7188 462.701 65.967C462.455 66.2152 462.122 66.3565 461.772 66.3602C461.767 66.3607 461.763 66.3609 461.758 66.3608H459.801C458.235 66.3608 456.734 65.7388 455.627 64.6318C454.52 63.5247 453.898 62.0233 453.898 60.4577V48.2226C453.898 47.8708 454.038 47.5335 454.286 47.2848C454.535 47.036 454.872 46.8963 455.224 46.8963H456.017C455.65 47.9678 460.635 48.4189 460.909 46.8963H461.758C462.11 46.8963 462.447 47.036 462.696 47.2848C462.944 47.5335 463.084 47.8708 463.084 48.2226V48.2226Z" fill="#58B893"/>
<path d="M457.277 45.6391C457.278 45.5931 457.296 45.5489 457.328 45.5163C457.361 45.4837 457.405 45.4654 457.451 45.4653H458.633C458.679 45.4655 458.723 45.4838 458.756 45.5164C458.788 45.549 458.807 45.5931 458.807 45.6391C458.807 45.6852 458.788 45.7293 458.756 45.7619C458.723 45.7945 458.679 45.8128 458.633 45.813H457.451C457.405 45.8129 457.361 45.7946 457.328 45.762C457.296 45.7294 457.278 45.6852 457.277 45.6391V45.6391Z" fill="#3F3D56"/>
<path d="M462.164 68.4932H454.689C454.109 68.4925 453.553 68.2619 453.143 67.8518C452.733 67.4418 452.503 66.8858 452.502 66.3059V54.5537C452.461 54.5242 452.427 54.4854 452.404 54.4404C452.381 54.3955 452.369 54.3457 452.369 54.2951V53.1132C452.369 53.0627 452.381 53.0129 452.404 52.9679C452.427 52.9229 452.461 52.8841 452.502 52.8547V52.5374C452.461 52.508 452.427 52.4692 452.404 52.4242C452.381 52.3792 452.369 52.3294 452.369 52.2789V51.0969C452.369 51.0464 452.381 50.9966 452.404 50.9516C452.427 50.9067 452.461 50.8678 452.502 50.8384V50.2651C452.451 50.2378 452.409 50.1974 452.379 50.148C452.35 50.0985 452.335 50.0421 452.335 49.9845V48.8026C452.335 48.7451 452.35 48.6886 452.379 48.6391C452.409 48.5897 452.451 48.5492 452.502 48.522V46.951C452.503 46.3711 452.733 45.8151 453.143 45.4051C453.553 44.995 454.109 44.7644 454.689 44.7637H462.164C462.744 44.7644 463.3 44.995 463.71 45.4051C464.12 45.8151 464.35 46.3711 464.351 46.951V50.3754C464.39 50.4001 464.423 50.4343 464.445 50.475C464.468 50.5156 464.48 50.5613 464.48 50.6078V52.8615C464.48 52.908 464.468 52.9537 464.445 52.9943C464.423 53.035 464.39 53.0692 464.351 53.0939V66.3059C464.35 66.8858 464.12 67.4417 463.71 67.8518C463.3 68.2619 462.744 68.4925 462.164 68.4932V68.4932ZM454.689 45.0545C454.186 45.055 453.704 45.255 453.349 45.6106C452.993 45.9661 452.793 46.4482 452.793 46.951V48.7693L452.653 48.7747C452.646 48.775 452.639 48.778 452.634 48.7832C452.629 48.7884 452.626 48.7953 452.625 48.8026V49.9845C452.626 49.9918 452.629 49.9987 452.634 50.0039C452.639 50.0091 452.646 50.0121 452.653 50.0124L452.793 50.0178V51.0425L452.682 51.0698C452.676 51.0713 452.671 51.0747 452.667 51.0796C452.663 51.0845 452.66 51.0906 452.66 51.0969V52.2789C452.66 52.2852 452.663 52.2913 452.667 52.2962C452.671 52.3011 452.676 52.3046 452.682 52.306L452.793 52.3333V53.0588L452.682 53.0861C452.676 53.0875 452.671 53.091 452.667 53.0959C452.663 53.1008 452.66 53.1069 452.66 53.1132V54.2951C452.66 54.3014 452.663 54.3075 452.667 54.3124C452.671 54.3173 452.676 54.3208 452.682 54.3223L452.793 54.3496V66.3059C452.793 66.8087 452.993 67.2908 453.349 67.6463C453.704 68.0019 454.186 68.2019 454.689 68.2024H462.164C462.667 68.2018 463.149 68.0018 463.504 67.6463C463.86 67.2908 464.06 66.8087 464.06 66.3059V52.8449H464.189V50.6244H464.06V46.951C464.06 46.4482 463.86 45.9661 463.504 45.6106C463.149 45.255 462.667 45.0551 462.164 45.0545L454.689 45.0545Z" fill="#3F3D56"/>
<path d="M459.294 45.813C459.39 45.813 459.468 45.7351 459.468 45.6391C459.468 45.5432 459.39 45.4653 459.294 45.4653C459.198 45.4653 459.12 45.5432 459.12 45.6391C459.12 45.7351 459.198 45.813 459.294 45.813Z" fill="#3F3D56"/>
<path d="M421.483 79.3094H402.034C401.757 79.3086 401.493 79.1986 401.297 79.0033C401.102 78.808 400.992 78.5434 400.991 78.2672V68.7904C400.992 68.5142 401.102 68.2495 401.297 68.0542C401.493 67.8589 401.757 67.7489 402.034 67.7481H421.483C421.759 67.7488 422.023 67.8588 422.219 68.0541C422.414 68.2494 422.524 68.5141 422.525 68.7903V78.267C422.524 78.5432 422.414 78.8079 422.219 79.0032C422.024 79.1985 421.759 79.3086 421.483 79.3094Z" fill="white"/>
<path d="M421.483 79.3094H402.034C401.757 79.3086 401.493 79.1986 401.297 79.0033C401.102 78.808 400.992 78.5434 400.991 78.2672V68.7904C400.992 68.5142 401.102 68.2495 401.297 68.0542C401.493 67.8589 401.757 67.7489 402.034 67.7481H421.483C421.759 67.7488 422.023 67.8588 422.219 68.0541C422.414 68.2494 422.524 68.5141 422.525 68.7903V78.267C422.524 78.5432 422.414 78.8079 422.219 79.0032C422.024 79.1985 421.759 79.3086 421.483 79.3094ZM402.034 68.0389C401.834 68.0394 401.644 68.1188 401.503 68.2597C401.362 68.4005 401.283 68.5914 401.282 68.7906V78.267C401.283 78.4662 401.362 78.6571 401.503 78.7979C401.644 78.9387 401.835 79.0181 402.034 79.0186H421.482C421.682 79.0181 421.873 78.9387 422.013 78.7978C422.154 78.657 422.234 78.4661 422.234 78.2669V68.7904C422.234 68.5913 422.154 68.4004 422.013 68.2596C421.872 68.1188 421.682 68.0394 421.482 68.0389L402.034 68.0389Z" fill="#3F3D56"/>
<path d="M412.801 77.9089C408.965 77.9089 404.965 77.8722 403.473 77.8484C403.276 77.8444 403.089 77.7638 402.952 77.6237C402.814 77.4837 402.737 77.2954 402.736 77.099V69.2544C402.736 69.1841 402.764 69.1167 402.814 69.0669C402.863 69.0171 402.931 68.989 403.001 68.9888H420.515C420.585 68.9889 420.653 69.0168 420.702 69.0664C420.752 69.1161 420.78 69.1834 420.78 69.2537V74.5761C420.777 75.445 420.434 76.2779 419.823 76.8962C419.213 77.5146 418.385 77.8691 417.516 77.8837C416.125 77.9018 414.478 77.9089 412.801 77.9089Z" fill="#58B893"/>
<path d="M419.475 74.0872H403.65C403.517 74.0868 403.388 74.0456 403.28 73.9693C403.172 73.8929 403.09 73.7851 403.045 73.6604L401.253 68.6354C401.219 68.5385 401.208 68.4347 401.222 68.3327C401.236 68.2308 401.274 68.1337 401.333 68.0496C401.393 67.9654 401.471 67.8967 401.562 67.8493C401.654 67.8018 401.755 67.7769 401.858 67.7767L421.639 67.7491C421.733 67.749 421.826 67.7696 421.911 67.8093C421.997 67.849 422.072 67.9069 422.132 67.9789C422.193 68.051 422.237 68.1354 422.261 68.2263C422.285 68.3171 422.289 68.4122 422.273 68.5048L422.288 68.5112L422.231 68.6437L422.231 68.6451L420.065 73.6976C420.016 73.8133 419.934 73.9119 419.829 73.9811C419.724 74.0504 419.601 74.0873 419.475 74.0872V74.0872ZM421.64 68.0399L401.858 68.0674C401.802 68.0675 401.747 68.0812 401.697 68.1072C401.647 68.1332 401.604 68.1708 401.571 68.2169C401.539 68.2629 401.518 68.3161 401.51 68.372C401.503 68.4278 401.508 68.4847 401.527 68.5378L403.318 73.5626C403.343 73.6309 403.388 73.69 403.447 73.7318C403.507 73.7736 403.578 73.7962 403.65 73.7964H419.475C419.544 73.7965 419.611 73.7763 419.669 73.7384C419.726 73.7004 419.771 73.6465 419.798 73.5832L421.964 68.5305L422.07 68.5762L421.964 68.5305C421.987 68.477 421.996 68.4186 421.991 68.3606C421.986 68.3026 421.966 68.2467 421.934 68.1981C421.902 68.1495 421.858 68.1096 421.807 68.082C421.756 68.0543 421.698 68.0399 421.64 68.0399V68.0399Z" fill="#3F3D56"/>
<path d="M411.729 75.181C412.413 75.181 412.968 74.6262 412.968 73.9418C412.968 73.2574 412.413 72.7026 411.729 72.7026C411.044 72.7026 410.49 73.2574 410.49 73.9418C410.49 74.6262 411.044 75.181 411.729 75.181Z" fill="white"/>
<path d="M458.539 64.4233C459.223 64.4233 459.778 63.8685 459.778 63.1842C459.778 62.4998 459.223 61.945 458.539 61.945C457.854 61.945 457.3 62.4998 457.3 63.1842C457.3 63.8685 457.854 64.4233 458.539 64.4233Z" fill="white"/>
<path d="M505.407 81.1581L502.097 77.8901C501.935 77.7297 501.744 77.6028 501.534 77.5165C501.324 77.4302 501.098 77.3862 500.871 77.3871H500.859C500.63 77.3878 500.404 77.4338 500.193 77.5227C499.982 77.6115 499.79 77.7413 499.63 77.9046C498.889 78.6537 498.468 79.6605 498.455 80.7134C498.442 81.7664 498.837 82.7835 499.558 83.5509C499.593 83.5887 499.63 83.6251 499.666 83.6614C499.867 83.8615 500.089 84.0394 500.329 84.192C500.983 84.6148 501.746 84.8386 502.525 84.836H502.55C503.085 84.8342 503.614 84.7264 504.107 84.5188C504.6 84.3112 505.046 84.0079 505.421 83.6265C505.746 83.297 505.927 82.852 505.924 82.3893C505.921 81.9266 505.735 81.4838 505.407 81.1581V81.1581ZM505.215 83.4215C504.6 84.0407 503.791 84.429 502.924 84.5212C502.056 84.6133 501.183 84.4036 500.452 83.9274C500.243 83.7891 500.048 83.6309 499.869 83.455C499.156 82.7505 498.752 81.7917 498.746 80.7892C498.739 79.7868 499.132 78.8229 499.836 78.1096C499.97 77.9732 500.13 77.8647 500.306 77.7906C500.482 77.7165 500.671 77.6781 500.862 77.6778H500.871C501.06 77.6772 501.248 77.7138 501.423 77.7857C501.598 77.8575 501.757 77.9631 501.892 78.0965L505.202 81.366C505.476 81.637 505.631 82.0056 505.633 82.391C505.636 82.7764 505.485 83.1471 505.215 83.4215V83.4215Z" fill="#3F3D56"/>
<path d="M494.546 70.4325L491.236 67.163C490.91 66.8398 490.469 66.6589 490.01 66.66H490C489.771 66.661 489.544 66.7073 489.332 66.7964C489.121 66.8854 488.929 67.0155 488.769 67.179C488.157 67.8004 487.76 68.6015 487.637 69.4648C487.513 70.3281 487.669 71.2083 488.083 71.9763L488.084 71.9778C488.254 72.2919 488.466 72.5819 488.713 72.8399C488.741 72.8718 488.773 72.9038 488.805 72.9358C489.565 73.6903 490.593 74.1127 491.665 74.1104H491.691C492.226 74.1082 492.755 74 493.247 73.7922C493.74 73.5843 494.187 73.2809 494.562 72.8995C494.723 72.7364 494.85 72.5433 494.936 72.3311C495.023 72.1189 495.066 71.8917 495.065 71.6626C495.063 71.4336 495.017 71.207 494.928 70.9959C494.839 70.7849 494.709 70.5934 494.546 70.4325V70.4325ZM494.354 72.6959C494.006 73.0499 493.591 73.3315 493.134 73.5243C492.677 73.7172 492.186 73.8176 491.689 73.8197H491.665C490.919 73.8194 490.19 73.5987 489.57 73.1853C488.95 72.772 488.465 72.1845 488.178 71.4966C487.891 70.8088 487.813 70.0513 487.955 69.3196C488.098 68.5878 488.453 67.9144 488.977 67.384C489.248 67.11 489.616 66.9547 490.002 66.9523C490.387 66.9498 490.758 67.1004 491.032 67.3709L494.342 70.6389C494.616 70.9104 494.771 71.2794 494.773 71.665C494.776 72.0506 494.625 72.4214 494.354 72.6959L494.354 72.6959Z" fill="#3F3D56"/>
<path d="M505.618 82.1855L501.969 78.5812C501.73 78.3454 501.407 78.2141 501.071 78.2162C500.735 78.2183 500.413 78.3536 500.177 78.5923C499.881 78.891 499.647 79.2451 499.489 79.6342C499.33 80.0234 499.249 80.44 499.252 80.8603C499.254 81.2806 499.339 81.6963 499.502 82.0837C499.665 82.471 499.903 82.8224 500.202 83.1177C500.501 83.4131 500.856 83.6466 501.245 83.8049C501.634 83.9632 502.051 84.0432 502.471 84.0404C502.892 84.0376 503.307 83.9519 503.695 83.7883C504.082 83.6248 504.433 83.3865 504.728 83.0871L505.618 82.1855Z" fill="#58B893"/>
<path d="M494.758 71.4593L491.109 67.855C490.869 67.6191 490.546 67.4879 490.21 67.49C489.874 67.492 489.553 67.6273 489.317 67.8661C489.021 68.1648 488.787 68.5188 488.628 68.908C488.47 69.2972 488.389 69.7138 488.391 70.1341C488.394 70.5544 488.479 70.9701 488.642 71.3574C488.805 71.7447 489.043 72.0961 489.342 72.3915C489.641 72.6868 489.996 72.9203 490.385 73.0786C490.774 73.237 491.191 73.317 491.611 73.3141C492.031 73.3113 492.447 73.2256 492.834 73.0621C493.221 72.8985 493.573 72.6602 493.868 72.3609L494.758 71.4593Z" fill="#58B893"/>
<path d="M501.608 84.4304L501.521 84.6601C501.111 84.5046 500.714 84.3485 500.329 84.192C493.514 81.411 490.26 78.1561 488.084 71.9778L488.083 71.9763C487.979 71.6856 487.879 71.388 487.782 71.0837L488.011 71.0096C488.088 71.3022 488.2 71.5844 488.346 71.8498C488.465 72.1886 488.587 72.5186 488.713 72.8398C490.759 78.0544 493.775 81.0345 499.558 83.5509C499.849 83.6774 500.147 83.8029 500.452 83.9274C500.807 84.1584 501.197 84.3284 501.608 84.4304V84.4304Z" fill="#3F3D56"/>
<path d="M491.175 73.8458L490.971 74.0527L498.521 81.51L498.725 81.3031L491.175 73.8458Z" fill="#3F3D56"/>
<path d="M427.252 67.6666L427.256 62.8893L424.447 63.1402L425.438 66.1533L421.841 71.6069C421.616 71.6573 421.411 71.7722 421.25 71.9374C421.089 72.1026 420.98 72.311 420.935 72.5373C420.891 72.7635 420.913 72.9978 421 73.2115C421.086 73.4253 421.233 73.6093 421.422 73.741C421.611 73.8728 421.835 73.9467 422.065 73.9537C422.296 73.9607 422.523 73.9004 422.72 73.7804C422.917 73.6603 423.074 73.4855 423.174 73.2774C423.273 73.0693 423.309 72.8368 423.279 72.6083L427.252 67.6666Z" fill="#FFB6B6"/>
</g>
</g>
<defs>
<clipPath id="clip0_705_404">
<rect width="534" height="149" fill="white"/>
</clipPath>
<clipPath id="clip1_705_404">
<rect width="130" height="65.1683" fill="white" transform="translate(386 40)"/>
</clipPath>
</defs>
</svg>
