<svg width="534" height="150" viewBox="0 0 534 150" fill="none" xmlns="http://www.w3.org/2000/svg">
<g clip-path="url(#clip0_705_407)">
<rect width="534" height="150" rx="5" fill="#58B893" fill-opacity="0.25"/>
<ellipse cx="450.157" cy="84" rx="89.8318" ry="90" fill="white"/>
<g clip-path="url(#clip1_705_407)">
<path d="M490.836 51.2264H477.348C476.214 51.2264 475.291 50.3022 475.291 49.1663V35.6523C475.291 34.5164 476.214 33.5922 477.348 33.5922H490.836C491.97 33.5922 492.893 34.5164 492.893 35.6523V49.1663C492.893 50.3022 491.97 51.2264 490.836 51.2264ZM477.348 33.9218C476.394 33.9218 475.62 34.6966 475.62 35.6523V49.1663C475.62 50.122 476.394 50.8967 477.348 50.8967H486.796C489.981 50.8967 492.564 48.3097 492.564 45.1185V35.6523C492.564 34.6966 491.79 33.9218 490.836 33.9218H477.348Z" fill="#F2F2F2"/>
<path d="M490.836 51.2264H477.348C476.214 51.2264 475.291 50.3022 475.291 49.1663V35.6523C475.291 34.5164 476.214 33.5922 477.348 33.5922H490.836C491.97 33.5922 492.893 34.5164 492.893 35.6523V49.1663C492.893 50.3022 491.97 51.2264 490.836 51.2264Z" fill="#FF966E"/>
<path d="M484.01 30.6257C485.009 30.6257 485.819 29.8141 485.819 28.8129C485.819 27.8116 485.009 27 484.01 27C483.01 27 482.2 27.8116 482.2 28.8129C482.2 29.8141 483.01 30.6257 484.01 30.6257Z" fill="#FFF0EB"/>
<path d="M473.158 77.8775H459.669C458.535 77.8775 457.613 76.9534 457.613 75.8175V62.3035C457.613 61.1675 458.535 60.2434 459.669 60.2434H473.158C474.291 60.2434 475.214 61.1675 475.214 62.3035V75.8175C475.214 76.9534 474.291 77.8775 473.158 77.8775ZM459.669 60.573C458.715 60.573 457.942 61.3478 457.942 62.3035V75.8175C457.942 76.7732 458.715 77.5479 459.669 77.5479H459.669C468.072 77.5479 474.885 70.7228 474.885 62.3035V62.3035C474.885 61.3478 474.111 60.573 473.158 60.573H459.669V60.573Z" fill="#FFF0EB"/>
<path d="M466.331 57.2769C467.33 57.2769 468.14 56.4653 468.14 55.4641C468.14 54.4629 467.33 53.6512 466.331 53.6512C465.332 53.6512 464.521 54.4629 464.521 55.4641C464.521 56.4653 465.332 57.2769 466.331 57.2769Z" fill="#FFF0EB"/>
<path d="M466.882 68.1502C466.276 68.3117 465.57 67.9 465.442 67.2742C465.309 66.624 465.884 65.9175 466.545 65.9127C467.215 65.9078 467.795 66.5848 467.686 67.2458C467.617 67.6652 467.358 68.0307 467.124 68.3737C466.862 68.7559 466.589 69.1298 466.307 69.4972C465.67 70.3282 464.99 71.1253 464.312 71.9226C464.167 72.0924 464.268 72.3247 464.486 72.3446L468.346 72.6985C468.662 72.7274 468.66 72.2328 468.346 72.204L464.486 71.8502L464.661 72.2722C465.408 71.3937 466.154 70.5138 466.85 69.5932C467.183 69.1529 467.519 68.706 467.806 68.2333C468.058 67.8173 468.249 67.3427 468.176 66.8484C468.05 65.9961 467.205 65.3116 466.342 65.4358C465.485 65.5592 464.825 66.4372 464.948 67.296C465.084 68.2382 466.111 68.8672 467.014 68.627C467.32 68.5453 467.19 68.0683 466.882 68.1502V68.1502Z" fill="#8C95E3"/>
<path d="M503.996 94.4052H490.507C489.374 94.4052 488.451 93.481 488.451 92.3451V78.8311C488.451 77.6952 489.374 76.7711 490.507 76.7711H503.996C505.13 76.7711 506.052 77.6952 506.052 78.8311V92.3451C506.052 93.481 505.13 94.4052 503.996 94.4052ZM490.507 77.1007C489.553 77.1007 488.78 77.8754 488.78 78.8311V92.3451C488.78 93.3008 489.553 94.0756 490.507 94.0756H490.507C498.911 94.0756 505.723 87.2504 505.723 78.8311V78.8311C505.723 77.8754 504.95 77.1007 503.996 77.1007H490.507Z" fill="#FFF0EB"/>
<path d="M497.17 73.8046C498.169 73.8046 498.979 72.993 498.979 71.9917C498.979 70.9905 498.169 70.1789 497.17 70.1789C496.17 70.1789 495.36 70.9905 495.36 71.9917C495.36 72.993 496.17 73.8046 497.17 73.8046Z" fill="#FFF0EB"/>
<path d="M495.753 82.6979C496.598 82.2677 497.721 82.5825 498.029 83.5314C498.161 83.9382 498.118 84.3887 497.851 84.7328C497.578 85.0855 497.153 85.2756 496.71 85.2313V85.7257C497.262 85.7614 497.816 85.961 498.205 86.3678C498.558 86.7376 498.735 87.299 498.593 87.7991C498.454 88.2839 497.991 88.6444 497.488 88.6705C496.988 88.6966 496.492 88.3753 496.305 87.9098C496.187 87.6186 495.71 87.7458 495.829 88.0412C496.249 89.0834 497.53 89.5096 498.451 88.8169C499.39 88.1101 499.295 86.7191 498.485 85.9492C498.005 85.4931 497.361 85.2734 496.71 85.2313C496.39 85.2105 496.399 85.6945 496.71 85.7257C497.298 85.7846 497.878 85.4989 498.236 85.0367C498.595 84.5723 498.685 83.9571 498.505 83.4C498.096 82.1363 496.638 81.6932 495.504 82.271C495.221 82.4152 495.47 82.8419 495.753 82.6979V82.6979Z" fill="#8C95E3"/>
<path d="M422.241 95.5588H408.753C407.619 95.5588 406.696 94.6347 406.696 93.4988V79.9848C406.696 78.8489 407.619 77.9247 408.753 77.9247H422.241C423.375 77.9247 424.297 78.8489 424.297 79.9848V93.4988C424.297 94.6347 423.375 95.5588 422.241 95.5588V95.5588Z" fill="#3F3D56"/>
<path d="M417.15 80.1584C417.973 79.7275 418.292 78.7096 417.862 77.885C417.819 77.8019 417.768 77.7255 417.714 77.653L419.949 62.5978L416.644 62.6191L415.265 77.3985C414.694 77.8988 414.514 78.7418 414.881 79.4455C415.311 80.2701 416.327 80.5893 417.15 80.1584H417.15Z" fill="#FFB6B6"/>
<path d="M417.692 52.0896C417.692 52.0896 416.704 51.8204 416.56 53.9887C416.445 55.7246 414.719 66.301 415.201 68.6675C414.585 68.9522 414.213 69.6266 414.341 70.3267L419.331 69.8773C420.016 68.9699 420.02 67.9535 419.627 67.7412L420.028 64.6247L422.345 54.4728L418.409 52.2716L417.692 52.0896V52.0896Z" fill="#8C95E3"/>
<path d="M420.965 118.747L422.861 118.746L423.764 111.417L420.964 111.417L420.965 118.747Z" fill="#FFB6B6"/>
<path d="M423.492 118.918V117.629L422.994 117.66L420.964 117.78L420.495 117.809L420.135 122.123L420.116 122.355H421.463L421.506 122.125L421.702 121.081L422.207 122.125L422.317 122.355H425.888C426.101 122.355 426.295 122.271 426.438 122.133C426.593 121.987 426.689 121.78 426.689 121.55C426.84 120.845 423.871 119.321 423.492 118.918H423.492Z" fill="#2F2E41"/>
<path d="M412.638 116.564L414.757 116.983L416.731 110.226L414.603 109.505L412.638 116.564Z" fill="#FFB6B6"/>
<path d="M415.026 117.41L415.372 116.169L414.884 116.064L412.896 115.633L412.436 115.535L410.933 119.593L410.852 119.811L412.149 120.174L412.253 119.964L412.721 119.011L412.927 120.153L412.972 120.404L416.411 121.365C416.617 121.423 416.826 121.394 417 121.3C417.189 121.201 417.338 121.027 417.399 120.806C417.734 120.167 415.283 117.9 415.026 117.41V117.41Z" fill="#2F2E41"/>
<path d="M430.358 77.4419L430.407 76.9279L428.298 71.1337L419.308 72.8704C419.308 72.8704 414.674 78.5889 415.705 82.3738C415.984 83.4003 416.581 95.4994 416.402 95.8885C412.261 104.849 413.417 111.17 413.417 111.17C413.417 111.17 414.726 112.313 416.968 112.88C417.553 113.028 422.001 92.9257 422.001 92.9257C422.001 92.9257 421.805 94.1802 421.532 96.0876C420.688 101.98 419.362 113.843 420.54 114.457C422.099 115.27 423.591 115.119 423.591 115.119C423.591 115.119 428.453 100.483 427.423 97.0421" fill="#2F2E41"/>
<path d="M425.942 52.5447L423.166 49.5531L421.055 49.4301L418.211 52.3799L417.156 55.3598V55.3599C415.976 58.2327 415.706 61.3999 416.383 64.4317L418.003 71.6852C418.003 71.6852 418.252 72.5399 417.599 72.6426C416.945 72.7453 417.023 74.0052 417.023 74.0052C417.023 74.0052 417.156 75.0972 416.522 75.1933C415.887 75.2895 414.194 75.2895 415.675 77.1976C417.156 79.1058 428.873 71.8888 428.873 71.8888L428.93 62.9429C428.93 62.9429 432.23 58.502 428.676 55.9585L425.942 52.5447V52.5447Z" fill="#8C95E3"/>
<path d="M432.934 84.0225H419.445C418.311 84.0225 417.389 83.0984 417.389 81.9624V68.4484C417.389 67.3125 418.311 66.3884 419.445 66.3884H432.934C434.067 66.3884 434.99 67.3125 434.99 68.4484V81.9624C434.99 83.0984 434.067 84.0225 432.934 84.0225Z" fill="#58B893"/>
<path d="M430.885 77.3763C431.506 76.6848 431.451 75.6195 430.76 74.9969C430.691 74.9343 430.617 74.8803 430.541 74.8314L427.395 59.9403L424.305 61.1151L428.157 75.4484C427.796 76.117 427.921 76.9698 428.51 77.501C429.2 78.1236 430.263 78.0678 430.885 77.3763H430.885Z" fill="#FFB6B6"/>
<path d="M424.646 52.4665C424.646 52.4665 425.578 52.0435 426.064 54.1615C426.452 55.8571 429.833 66.0248 429.731 68.438C430.385 68.6211 430.86 69.2277 430.844 69.9393L425.845 70.2895C425.026 69.5025 424.861 68.4995 425.215 68.2275L424.325 65.2143L420.429 55.5595L423.966 52.7603L424.646 52.4665V52.4665Z" fill="#8C95E3"/>
<path d="M429.69 119.781C430.03 119.803 430.218 119.38 429.961 119.133L429.935 119.031C429.939 119.023 429.942 119.015 429.945 119.007C430.289 118.186 431.454 118.191 431.795 119.014C432.097 119.743 432.482 120.474 432.577 121.246C432.619 121.587 432.6 121.934 432.525 122.268C433.234 120.717 433.606 119.023 433.606 117.32C433.606 116.892 433.583 116.464 433.535 116.038C433.496 115.688 433.442 115.341 433.372 114.998C432.992 113.139 432.171 111.369 430.986 109.89C430.417 109.578 429.942 109.091 429.655 108.507C429.552 108.296 429.471 108.069 429.433 107.838C429.498 107.847 429.677 106.858 429.629 106.797C429.719 106.66 429.881 106.592 429.979 106.458C430.47 105.791 431.146 105.907 431.499 106.813C432.252 107.194 432.26 107.826 431.797 108.434C431.503 108.821 431.462 109.344 431.204 109.758C431.231 109.792 431.258 109.825 431.285 109.86C431.772 110.485 432.193 111.158 432.548 111.865C432.448 111.079 432.596 110.133 432.849 109.523C433.136 108.828 433.676 108.243 434.15 107.642C434.72 106.92 435.889 107.235 435.99 108.15C435.991 108.159 435.992 108.168 435.993 108.177C435.922 108.216 435.853 108.259 435.786 108.303C435.401 108.558 435.534 109.156 435.99 109.227L436 109.228C435.975 109.483 435.931 109.735 435.867 109.983C436.476 112.342 435.162 113.202 433.285 113.24C433.243 113.261 433.203 113.283 433.161 113.303C433.351 113.839 433.503 114.39 433.616 114.948C433.717 115.44 433.787 115.939 433.826 116.439C433.875 117.07 433.871 117.705 433.818 118.335L433.821 118.312C433.956 117.618 434.332 116.97 434.878 116.521C435.692 115.851 436.841 115.605 437.719 115.067C438.141 114.807 438.683 115.142 438.609 115.633L438.605 115.657C438.475 115.71 438.347 115.771 438.224 115.841C438.153 115.881 438.084 115.923 438.017 115.968C437.632 116.223 437.765 116.82 438.221 116.891L438.231 116.892C438.239 116.893 438.245 116.894 438.253 116.896C438.028 117.429 437.716 117.924 437.325 118.351C436.944 120.41 435.309 120.606 433.56 120.006H433.559C433.367 120.84 433.088 121.656 432.729 122.433H429.765C429.754 122.4 429.744 122.366 429.735 122.333C430.009 122.35 430.285 122.334 430.555 122.284C430.335 122.013 430.115 121.741 429.895 121.471C429.89 121.465 429.886 121.46 429.881 121.455C429.77 121.316 429.657 121.179 429.546 121.041L429.546 121.04C429.539 120.616 429.59 120.192 429.69 119.781L429.69 119.781V119.781Z" fill="#B7E1D2"/>
<path d="M406.39 120.111C406.05 120.132 405.862 119.709 406.119 119.463L406.145 119.361C406.141 119.353 406.138 119.344 406.134 119.336C405.791 118.515 404.626 118.521 404.285 119.343C403.983 120.073 403.598 120.804 403.503 121.576C403.46 121.916 403.48 122.263 403.555 122.597C402.846 121.047 402.473 119.353 402.473 117.65C402.473 117.222 402.497 116.794 402.545 116.367C402.584 116.018 402.638 115.671 402.708 115.327C403.087 113.469 403.909 111.698 405.093 110.22C405.663 109.908 406.138 109.421 406.425 108.836C406.528 108.625 406.608 108.399 406.647 108.168C406.582 108.176 406.402 107.187 406.451 107.127C406.361 106.989 406.199 106.921 406.101 106.787C405.61 106.121 404.934 106.237 404.581 107.143C403.828 107.524 403.82 108.156 404.283 108.764C404.577 109.151 404.617 109.674 404.876 110.088C404.849 110.122 404.821 110.155 404.795 110.189C404.308 110.815 403.886 111.488 403.531 112.195C403.632 111.409 403.484 110.463 403.231 109.853C402.943 109.158 402.404 108.572 401.93 107.971C401.36 107.25 400.19 107.565 400.09 108.48C400.089 108.488 400.088 108.497 400.087 108.506C400.158 108.546 400.227 108.588 400.294 108.633C400.679 108.888 400.546 109.486 400.09 109.556L400.08 109.558C400.105 109.812 400.149 110.065 400.212 110.313C399.604 112.672 400.918 113.531 402.795 113.57C402.837 113.591 402.877 113.612 402.919 113.633C402.728 114.169 402.576 114.719 402.464 115.277C402.363 115.77 402.293 116.268 402.253 116.768C402.205 117.4 402.209 118.034 402.262 118.664L402.259 118.642C402.124 117.948 401.748 117.3 401.202 116.85C400.388 116.181 399.239 115.934 398.361 115.396C397.939 115.137 397.397 115.472 397.471 115.963L397.474 115.986C397.605 116.039 397.733 116.101 397.856 116.17C397.926 116.21 397.995 116.252 398.063 116.297C398.448 116.552 398.315 117.15 397.859 117.22L397.848 117.222C397.841 117.223 397.835 117.224 397.827 117.225C398.051 117.758 398.364 118.253 398.755 118.68C399.136 120.74 400.771 120.935 402.52 120.335H402.521C402.712 121.17 402.992 121.985 403.351 122.762H406.315C406.326 122.729 406.335 122.695 406.345 122.662C406.071 122.679 405.795 122.663 405.525 122.613C405.745 122.343 405.965 122.071 406.185 121.8C406.19 121.795 406.194 121.789 406.198 121.784C406.31 121.646 406.423 121.508 406.534 121.37L406.534 121.37C406.541 120.945 406.49 120.522 406.39 120.111L406.39 120.111V120.111Z" fill="#B7E1D2"/>
<path d="M396.258 122.5C396.258 122.609 396.345 122.696 396.454 122.696H438.119C438.228 122.696 438.315 122.609 438.315 122.5C438.315 122.391 438.228 122.304 438.119 122.304H396.454C396.345 122.304 396.258 122.391 396.258 122.5Z" fill="#CCCCCC"/>
<path d="M423.151 47.4743C425.371 47.4743 427.171 45.6713 427.171 43.4471C427.171 41.223 425.371 39.4199 423.151 39.4199C420.931 39.4199 419.131 41.223 419.131 43.4471C419.131 45.6713 420.931 47.4743 423.151 47.4743Z" fill="#FFB6B6"/>
<path d="M426.911 43.2899C426.923 43.2899 426.951 43.2899 427.003 43.2916C427.157 43.3015 426.949 43.2932 426.911 43.2899Z" fill="#2F2E41"/>
<path d="M429.051 42.9059C429.021 42.9785 428.924 43.0378 428.788 43.0856C428.528 42.7543 428.191 42.4857 427.806 42.3192C427.979 42.6011 428.12 42.901 428.225 43.2141C427.852 43.2685 427.436 43.2916 427.168 43.2932C427.103 43.2932 427.047 43.2932 427.003 43.2916C426.937 43.1746 426.832 42.9851 426.742 42.7889C426.733 43.3246 425.988 44.9034 426.049 46.2383C426.123 47.8353 426.207 49.5773 426.207 49.5773C425.939 49.6448 425.615 49.6926 425.245 49.7223C424.837 48.9724 424.534 48.1336 424.371 47.2832C424.353 47.1925 424.338 47.1019 424.323 47.0112C424.289 47.1151 424.256 47.2205 424.228 47.3277C424.105 47.7726 424.032 48.2522 424.009 48.7499C423.993 49.0779 423.999 49.4108 424.024 49.7487C421.994 50.1623 419.484 50.1195 417.668 49.1092C417.729 48.9428 417.775 48.7714 417.804 48.5967C417.903 48.0231 417.107 47.9424 416.577 48.2934C416.048 47.7611 415.646 47.0854 415.429 46.2399C418.89 44.7188 415.246 42.8466 417.92 40.1488C417.597 37.8052 424.055 37.1279 425.305 39.211C425.579 39.0034 426.429 39.0133 426.791 39.1649C427.153 39.3165 427.432 39.5719 427.705 39.8192C427.888 39.9872 427.803 40.3218 427.686 40.5723C428.26 40.2971 429.541 41.7276 429.051 42.9059V42.9059Z" fill="#2F2E41"/>
</g>
</g>
<defs>
<clipPath id="clip0_705_407">
<rect width="534" height="150" fill="white"/>
</clipPath>
<clipPath id="clip1_705_407">
<rect width="109.794" height="95.7624" fill="white" transform="translate(396.258 27)"/>
</clipPath>
</defs>
</svg>
