<svg width="20" height="22" viewBox="0 0 20 22" fill="none" xmlns="http://www.w3.org/2000/svg">
<path fill-rule="evenodd" clip-rule="evenodd" d="M12.0125 0H2.01245C0.912451 0 0.0124512 0.9 0.0124512 2V20C0.0124512 21.1 0.912451 22 2.01245 22H12.0125C13.1125 22 14.0125 21.1 14.0125 20V2C14.0125 0.9 13.1125 0 12.0125 0ZM17.1125 7.7L18.1125 6.7C20.6125 9.1 20.6125 12.9 18.1125 15.2L17.1125 14.2C18.9125 12.3 18.9125 9.5 17.1125 7.7ZM15.0125 9.8L16.0125 8.8C17.2125 10.1 17.2125 11.9 16.0125 13.1L15.0125 12.1C15.5125 11.4 15.5125 10.5 15.0125 9.8ZM2.01245 19H12.0125V3H2.01245V19Z" fill="#FF966E"/>
</svg>
