<svg width="535" height="241" viewBox="0 0 535 241" fill="none" xmlns="http://www.w3.org/2000/svg">
<rect y="12" width="535" height="229" fill="#FEF0EB"/>
<circle cx="108" cy="124" r="90" fill="white"/>
<circle cx="446" cy="25" r="25" fill="white"/>
<g clip-path="url(#clip0_533_404)">
<path opacity="0.3" d="M172.185 141.491C170.881 145.031 168.152 148.227 165.222 151.255C162.647 153.917 159.893 156.489 156.959 158.972C156.145 159.661 155.319 160.342 154.48 161.013L153.897 161.478C153.38 161.89 152.855 162.299 152.32 162.704L152.257 162.753C151.738 163.151 151.215 163.545 150.687 163.935C148.962 165.214 147.137 166.484 145.121 167.537C144.434 167.896 143.725 168.23 142.991 168.53C142.594 168.693 142.188 168.846 141.775 168.988C141.097 169.22 140.4 169.423 139.673 169.59C139.552 169.618 139.429 169.645 139.307 169.671C138.562 169.829 137.808 169.944 137.047 170.023C134.256 170.311 131.373 170.1 128.578 169.606C127.181 169.359 125.805 169.042 124.475 168.68C124.311 168.636 124.149 168.591 123.985 168.551C119.453 167.272 115.199 165.535 110.635 164.314C109.063 163.893 107.459 163.535 105.825 163.241C105.028 163.099 104.227 162.969 103.42 162.854C101.523 162.588 99.6012 162.409 97.6716 162.318C95.0697 162.19 92.3831 162.245 89.9071 162.758C89.5773 162.826 89.2517 162.903 88.9303 162.988C88.5226 163.096 88.1226 163.218 87.7301 163.357C86.6722 163.742 85.6426 164.22 84.6507 164.787C84.4549 164.895 84.2613 165.005 84.0678 165.116C83.4608 165.465 82.8619 165.822 82.2538 166.168C81.1594 166.814 80.0204 167.359 78.848 167.799C78.2058 168.027 77.5528 168.216 76.8919 168.362C75.1432 168.757 73.2823 168.914 71.4133 168.924C70.5121 168.924 69.6097 168.902 68.7175 168.849H68.69C68.3854 168.831 68.0797 168.81 67.7739 168.785C66.3813 168.677 64.9934 168.512 63.626 168.286C58.941 167.511 54.4976 166.045 50.9235 163.81C46.069 160.776 42.9861 156.252 43.4487 151.732C43.7808 148.476 45.8434 145.452 47.8005 142.491C51.4411 136.979 54.8515 131.341 56.646 125.398C58.1015 120.575 58.5356 115.475 61.8853 111.139C62.9583 109.751 64.3303 108.485 65.9279 107.375C67.122 106.55 68.3736 105.836 69.6704 105.24C71.1359 104.563 72.6437 104.008 74.1813 103.58C75.5139 103.207 76.8644 102.92 78.2261 102.722C78.9659 102.613 79.7149 102.529 80.4684 102.473C81.0486 102.427 81.6315 102.398 82.2171 102.386H82.3076C82.6657 102.378 83.0237 102.378 83.3818 102.386C85.9927 102.432 88.5964 102.708 91.1691 103.212C92.7793 103.515 94.3757 103.888 95.9389 104.297C96.8718 104.541 97.7964 104.796 98.7126 105.063C98.992 105.145 99.2714 105.228 99.5474 105.312C106.066 107.282 111.801 110.003 118.081 112.236C118.113 112.248 118.145 112.26 118.176 112.269C119.465 112.716 120.774 113.087 122.098 113.38C123.07 113.6 124.064 113.789 125.075 113.956C126.623 114.215 128.205 114.419 129.798 114.594L130.149 114.633C132.487 114.892 134.845 115.084 137.135 115.309C137.948 115.389 138.755 115.472 139.549 115.568C140.053 115.624 140.553 115.685 141.047 115.748C141.402 115.795 141.758 115.841 142.115 115.891C142.471 115.94 142.847 115.991 143.214 116.044C143.452 116.078 143.689 116.113 143.927 116.15C145.37 116.366 146.81 116.608 148.233 116.884C149.099 117.052 149.96 117.233 150.811 117.428C151.427 117.57 152.038 117.719 152.643 117.875C153.092 117.99 153.538 118.111 153.979 118.237C157.564 119.254 160.92 120.588 163.812 122.388C171.32 127.051 174.68 134.723 172.185 141.491Z" fill="#FFC539"/>
<path opacity="0.6" d="M71.5307 89.7352C72.9105 89.7352 74.0291 88.4727 74.0291 86.9152C74.0291 85.3576 72.9105 84.095 71.5307 84.095C70.1508 84.095 69.0322 85.3576 69.0322 86.9152C69.0322 88.4727 70.1508 89.7352 71.5307 89.7352Z" fill="#FFC539"/>
<path opacity="0.6" d="M122.145 83.6402C123.525 83.6402 124.643 82.3776 124.643 80.8201C124.643 79.2626 123.525 78 122.145 78C120.765 78 119.646 79.2626 119.646 80.8201C119.646 82.3776 120.765 83.6402 122.145 83.6402Z" fill="#FFC539"/>
<path opacity="0.6" d="M152.166 89.9171C153.524 89.9171 154.624 88.6545 154.624 87.097C154.624 85.5395 153.524 84.277 152.166 84.277C150.808 84.277 149.708 85.5395 149.708 87.097C149.708 88.6545 150.808 89.9171 152.166 89.9171Z" fill="#FFC539"/>
<path opacity="0.6" d="M47.1507 98.3774C49.443 98.3774 51.3013 96.2799 51.3013 93.6924C51.3013 91.105 49.443 89.0074 47.1507 89.0074C44.8583 89.0074 43 91.105 43 93.6924C43 96.2799 44.8583 98.3774 47.1507 98.3774Z" fill="#FFC539"/>
<path opacity="0.6" d="M51.0997 121.484C53.3921 121.484 55.2504 119.386 55.2504 116.799C55.2504 114.212 53.3921 112.114 51.0997 112.114C48.8074 112.114 46.9491 114.212 46.9491 116.799C46.9491 119.386 48.8074 121.484 51.0997 121.484Z" fill="#FFC539"/>
<path opacity="0.6" d="M162.563 113.024C164.856 113.024 166.714 110.926 166.714 108.339C166.714 105.751 164.856 103.654 162.563 103.654C160.27 103.654 158.412 105.751 158.412 108.339C158.412 110.926 160.27 113.024 162.563 113.024Z" fill="#FFC539"/>
<path d="M83.5856 108.948C83.6061 109.34 83.5858 109.734 83.5249 110.122C83.2959 111.32 82.3271 112.143 81.3893 112.767C80.4514 113.391 79.4208 113.982 78.8632 115.036C78.191 116.309 78.4051 118.021 79.1941 119.21C79.9831 120.399 81.2336 121.107 82.5206 121.402C84.868 121.948 87.4388 121.182 89.1988 119.35C90.9588 117.519 91.8417 114.657 91.4099 111.998C90.455 112.149 89.6042 111.2 89.295 110.171C88.9858 109.141 89.0499 108.026 88.9297 106.946C88.9209 106.764 88.8722 106.586 88.7877 106.43C88.6538 106.221 88.4167 106.136 88.1957 106.068C87.0918 105.726 85.2345 104.978 84.0906 105.264C83.0599 105.53 83.5684 107.973 83.5856 108.948Z" fill="#BE6F72"/>
<path opacity="0.1" d="M83.5856 108.948C83.6061 109.34 83.5858 109.734 83.5249 110.122C83.2959 111.32 82.3271 112.143 81.3893 112.767C80.4514 113.391 79.4208 113.982 78.8632 115.036C78.191 116.309 78.4051 118.021 79.1941 119.21C79.9831 120.399 81.2336 121.107 82.5206 121.402C84.868 121.948 87.4388 121.182 89.1988 119.35C90.9588 117.519 91.8417 114.657 91.4099 111.998C90.455 112.149 89.6042 111.2 89.295 110.171C88.9858 109.141 89.0499 108.026 88.9297 106.946C88.9209 106.764 88.8722 106.586 88.7877 106.43C88.6538 106.221 88.4167 106.136 88.1957 106.068C87.0918 105.726 85.2345 104.978 84.0906 105.264C83.0599 105.53 83.5684 107.973 83.5856 108.948Z" fill="black"/>
<path d="M82.2515 166.149C81.16 166.793 80.0239 167.336 78.8546 167.773C78.2141 168.001 77.5628 168.188 76.9037 168.334C76.8571 167.345 76.9049 166.352 77.0465 165.375C77.1355 164.812 77.2669 164.255 77.3011 163.685C77.3496 162.862 77.1934 162.04 76.85 161.312C78.1224 161.117 79.3309 160.797 80.6091 160.891L80.6901 160.897C80.8421 160.902 80.9925 160.934 81.1356 160.992C81.3322 161.099 81.4993 161.265 81.6188 161.47C81.6845 161.571 81.7452 161.677 81.8004 161.786C82.1613 162.488 82.2984 163.299 82.3269 164.134C82.3404 164.807 82.3152 165.48 82.2515 166.149Z" fill="#BE6F72"/>
<path d="M88.9393 163.016C88.5336 163.122 88.1355 163.243 87.745 163.378C86.6923 163.758 85.6677 164.229 84.6807 164.786C84.6166 164.44 84.5852 164.087 84.5872 163.733C85.1689 163.285 85.8252 162.973 86.5173 162.814C87.2094 162.656 87.9229 162.653 88.6156 162.809C88.7083 162.821 88.7963 162.861 88.8709 162.923C88.8979 162.95 88.921 162.981 88.9393 163.016Z" fill="#BE6F72"/>
<path d="M90.8622 156.485C90.7845 157.331 90.6703 158.18 90.4053 158.976C90.1186 159.83 89.6525 160.658 89.7119 161.57C89.7382 161.966 89.857 162.396 89.8741 162.788C89.5451 162.856 89.2203 162.933 88.8997 163.018C88.493 163.126 88.094 163.25 87.7026 163.387C86.6473 163.774 85.6203 164.253 84.6309 164.82C84.4355 164.929 84.2425 165.039 84.0494 165.15C83.9694 165.138 83.8906 165.124 83.8107 165.107C83.2395 164.989 82.6386 164.7 82.3154 164.182C82.2414 164.063 82.1832 163.932 82.1428 163.794C81.9566 163.164 82.1508 162.378 81.7636 161.879L81.7453 161.897L81.7316 161.907C81.5195 162.125 81.2865 162.315 81.0371 162.474C80.4693 162.837 79.8403 163.063 79.1909 163.134C78.5415 163.204 77.8861 163.119 77.2674 162.885C77.0223 162.791 76.7855 162.67 76.5603 162.526C76.0371 162.188 75.5322 161.62 75.5733 160.941C75.5962 160.564 75.787 160.201 75.7355 159.827C75.6978 159.559 75.5425 159.337 75.4259 159.1C74.6617 157.547 75.5733 155.55 75.0935 153.863C75.0821 153.823 75.0695 153.783 75.057 153.744C75.0216 153.634 74.9816 153.528 74.9427 153.422C74.8445 153.174 74.7349 152.931 74.648 152.678C74.5757 152.464 74.5185 152.245 74.4767 152.021C74.3688 151.372 74.3305 150.711 74.3625 150.052C74.3625 148.314 74.6366 146.534 75.0273 144.86C75.097 144.562 75.1747 144.142 75.2775 143.684C75.3776 143.201 75.5129 142.728 75.6818 142.27C75.9103 141.675 76.221 141.2 76.646 141.088C77.2857 140.918 78.2635 141.277 78.9123 141.365L81.4769 141.711L86.6048 142.406C87.4901 142.527 88.42 142.665 89.1499 143.229C89.1979 143.267 89.2447 143.306 89.2915 143.347C89.4844 143.519 89.6571 143.718 89.8056 143.94C89.8582 144.016 89.9084 144.096 89.9564 144.178C90.1228 144.466 90.2643 144.772 90.3791 145.092C91.0153 146.823 91.0302 148.755 91.0347 150.63C91.0347 152.587 91.0404 154.542 90.8622 156.485Z" fill="#3F3D56"/>
<path opacity="0.1" d="M81.0415 162.421C80.8861 161.749 80.5582 160.776 80.5098 160.511C80.3477 159.623 80.2301 158.725 80.1577 157.821C80.0299 156.212 79.7998 153.945 80.3062 152.414C80.7814 152.698 81.1991 153.503 81.419 154.052C82.2153 156.043 81.3188 158.488 82.0668 160.502C82.1227 160.623 82.1575 160.755 82.1692 160.89C82.1562 161.062 82.1013 161.226 82.0105 161.366L81.7584 161.835L81.0415 162.421Z" fill="black"/>
<path d="M97.553 101.004C98.394 99.4563 99.5457 97.9342 99.4737 96.1244C99.4474 95.4794 99.2601 94.8486 99.1172 94.2165C98.7079 92.3872 98.6809 90.4755 99.0384 88.6325C100.451 88.3761 101.898 88.7419 103.079 89.6541C103.452 89.9456 103.807 90.3081 103.971 90.7867C104.123 91.2278 104.098 91.7193 104.07 92.1914C104.008 93.2762 103.922 94.4333 103.33 95.2872C103.146 95.5542 102.92 95.78 102.74 96.0496C102.479 96.4366 102.326 96.9087 102.176 97.3692L100.234 103.335C99.2532 106.342 98.1906 109.487 96.031 111.567C95.9785 111.618 94.4314 109.137 94.3034 108.888C93.7858 107.868 94.012 107.437 94.6382 106.583C95.8734 104.895 96.5441 102.858 97.553 101.004Z" fill="#BE6F72"/>
<path d="M75.238 151.959C75.2313 152.405 75.1979 152.85 75.1379 153.292C75.1172 153.455 75.093 153.616 75.0642 153.778C74.6718 156.078 73.6947 158.266 73.0112 160.508C72.11 163.466 71.7142 166.033 71.4 168.971C70.4943 168.971 69.5874 168.949 68.691 168.896H68.6633C68.3572 168.878 68.0499 168.857 67.7427 168.831C68.02 166.091 67.5125 163.217 68.0085 160.474C68.2087 159.37 68.5506 158.299 68.7565 157.2C68.82 156.876 68.8681 156.55 68.9004 156.221C68.9292 155.908 68.9441 155.583 69.0696 155.301C69.081 155.274 69.0941 155.248 69.1087 155.223C69.2189 155.028 69.3556 154.853 69.5138 154.706C70.916 153.325 72.6311 152.406 74.4693 152.052C74.7305 152.012 74.9848 151.979 75.238 151.959Z" fill="#FBBEBE"/>
<path opacity="0.1" d="M75.238 151.959C75.2313 152.405 75.1979 152.85 75.1379 153.292C75.1172 153.455 75.093 153.616 75.0642 153.778C74.6718 156.078 73.6947 158.266 73.0112 160.508C72.11 163.466 71.7142 166.033 71.4 168.971C70.4943 168.971 69.5874 168.949 68.691 168.896H68.6633C68.3572 168.878 68.0499 168.857 67.7427 168.831C68.02 166.091 67.5125 163.217 68.0085 160.474C68.2087 159.37 68.5506 158.299 68.7565 157.2C68.82 156.876 68.8681 156.55 68.9004 156.221C68.9292 155.908 68.9441 155.583 69.0696 155.301C69.081 155.274 69.0941 155.248 69.1087 155.223C69.2189 155.028 69.3556 154.853 69.5138 154.706C70.916 153.325 72.6311 152.406 74.4693 152.052C74.7305 152.012 74.9848 151.979 75.238 151.959Z" fill="black"/>
<path d="M69.4347 157.839C69.4162 158.557 69.3638 159.274 69.2778 159.985C68.972 162.893 68.9148 165.928 68.7052 168.88C68.4005 168.861 68.0947 168.841 67.789 168.815C66.3963 168.708 65.0082 168.543 63.6407 168.316C63.7461 167.651 63.8522 166.986 63.9592 166.322C64.0897 165.507 64.2203 164.683 64.1825 163.857C64.1469 163.075 63.9614 162.314 63.8137 161.548C63.4988 159.907 63.3223 158.137 62.8035 156.59C62.533 155.722 62.1011 154.929 61.5369 154.264C63.6831 153.313 65.7457 153.259 68.0512 153.36C68.2149 153.35 68.3775 153.395 68.5185 153.489C68.6278 153.596 68.709 153.734 68.7533 153.89C69.0997 154.829 69.3172 155.824 69.3981 156.838C69.4256 157.17 69.4379 157.505 69.4347 157.839Z" fill="#FBBEBE"/>
<path d="M86.7229 108.293C89.1933 108.293 91.1959 106.033 91.1959 103.244C91.1959 100.456 89.1933 98.1955 86.7229 98.1955C84.2525 98.1955 82.2499 100.456 82.2499 103.244C82.2499 106.033 84.2525 108.293 86.7229 108.293Z" fill="#BE6F72"/>
<path d="M87.6296 115.048C88.2009 113.946 88.7014 112.571 89.8005 112.265C90.4209 112.091 91.0664 112.328 91.6708 112.562C91.8459 112.609 92.0049 112.713 92.1278 112.862C92.2171 113.022 92.265 113.207 92.2661 113.396C92.4575 115.673 92.451 117.965 92.2467 120.241C92.1016 121.851 91.857 123.454 91.8136 125.072C91.7531 127.315 92.0799 129.558 91.9724 131.799C91.8913 133.497 91.5623 135.165 91.2355 136.825L89.8645 143.772C89.8399 143.987 89.7637 144.191 89.6439 144.36C89.5284 144.48 89.39 144.568 89.2395 144.618C87.255 145.411 85.1453 145.725 83.0469 145.539C80.9484 145.354 78.9077 144.672 77.0566 143.54C76.5619 143.233 76.0683 142.878 75.7461 142.353C75.2891 141.609 75.2469 140.625 75.3954 139.734C75.5439 138.843 75.865 138.003 76.0809 137.128C76.4145 135.772 76.4934 134.357 76.5688 132.952C76.6693 131.103 76.7698 129.242 76.595 127.399C76.475 126.129 76.2249 124.879 76.0364 123.62C75.7587 121.723 75.5975 119.805 75.5542 117.883C75.5256 116.735 75.5725 115.46 76.2751 114.632C76.6179 114.229 77.0749 113.986 77.5399 113.79C78.3203 113.465 79.192 113.274 79.9804 113.571C80.7688 113.868 81.404 114.803 81.2178 115.718C81.132 116.143 80.8887 116.515 80.8293 116.946C80.7504 117.517 81.0178 118.092 81.4006 118.478C83.4594 120.58 86.6025 117.042 87.6296 115.048Z" fill="#E3E8F4"/>
<path d="M87.7853 109.861C88.4137 109.601 89.0965 109.556 89.7475 109.732C90.162 109.843 90.6098 110.04 90.9921 109.832C91.1311 109.757 91.2459 109.634 91.386 109.564C91.7649 109.376 92.2563 109.607 92.5915 109.334C92.8028 109.162 92.8717 108.849 92.9429 108.564C93.2877 107.206 93.9942 106 94.9671 105.109C94.8465 106.101 94.7593 107.23 95.3414 107.988C95.6066 108.332 95.9786 108.548 96.3552 108.716C96.896 108.957 97.4896 109.118 98.0603 108.986C98.6309 108.854 99.1648 108.368 99.2555 107.72C99.236 108.694 98.4127 109.374 98.1819 110.314C98.0947 110.666 98.1027 111.039 98.0419 111.399C97.8869 112.317 97.3048 113.054 96.7961 113.794C95.1716 116.173 94.1339 118.993 93.7879 121.968C93.7644 122.322 93.6987 122.669 93.5927 123.003C93.4802 123.259 93.3529 123.506 93.2115 123.742C92.37 125.343 92.6294 127.363 92.9153 129.191C93.362 132.056 93.8074 134.862 94.5307 137.653C94.6548 138.13 94.7948 138.628 95.1106 138.976C95.0107 140.105 93.9992 140.62 93.0898 141.107C92.192 141.589 91.3637 142.221 90.6328 142.981C90.371 143.252 90.1126 143.557 90.0173 143.944C89.9278 144.307 89.9921 144.707 89.8773 145.06C89.7625 145.413 89.3032 145.666 89.1011 145.369C88.8485 144.305 89.2802 143.192 89.2607 142.09C89.247 141.346 89.0311 140.623 89.0001 139.88C88.9703 139.038 89.1907 138.212 89.4249 137.413C90.0771 135.187 90.8647 132.983 91.0909 130.654C91.3171 128.325 90.8945 125.782 89.4272 124.12C87.6854 122.139 86.7187 119.453 84.8518 117.634C84.5555 117.346 84.2202 116.987 84.2696 116.55C84.3037 116.358 84.379 116.178 84.489 116.025C85.1296 115.006 85.9816 114.175 86.6704 113.2C87.3594 112.225 87.9105 111.103 87.7853 109.861Z" fill="#3F3D56"/>
<path d="M81.7081 111.944C81.5936 112.074 81.5145 112.253 81.3816 112.364C81.2265 112.473 81.0495 112.535 80.8673 112.544C80.1932 112.66 79.5133 112.729 78.8317 112.751C78.2589 112.751 77.6643 112.693 77.1133 112.871C76.3447 113.117 75.7307 113.805 75.3458 114.596C74.9609 115.386 74.7787 116.281 74.631 117.172C74.3052 119.134 74.1308 121.125 74.1097 123.121C75.054 122.269 75.8955 121.281 76.6128 120.181C77.1626 119.337 77.661 118.403 78.4456 117.839C78.8064 117.58 79.212 117.409 79.5751 117.156C80.3323 116.628 80.857 115.775 81.361 114.952C81.7322 114.341 82.8056 113.149 82.8903 112.417C82.9625 111.719 82.109 111.378 81.7081 111.944Z" fill="#3F3D56"/>
<path d="M85.6857 99.8039C85.827 99.9002 85.9623 100.007 86.0908 100.124C86.8677 100.739 87.9078 100.625 88.8472 100.485C89.1356 100.444 89.432 100.397 89.6791 100.226C90.0762 99.948 90.2627 99.3771 90.2238 98.849C90.1848 98.3209 89.9503 97.8343 89.6642 97.4217C89.2852 96.8756 88.8125 96.4225 88.2746 96.0898C87.7366 95.757 87.1447 95.5515 86.5347 95.4857C86.2189 95.4388 85.8977 95.4775 85.5976 95.5986C85.228 95.7712 84.9499 96.1267 84.609 96.3642C83.6031 97.0649 82.0539 96.7534 81.405 97.872C80.9302 98.6972 81.2689 99.8182 81.0446 100.767C80.8776 101.475 80.3959 102.12 80.4885 102.843C80.54 103.232 80.7551 103.572 80.9268 103.92C81.3209 104.719 81.5033 105.631 81.452 106.545C81.8925 106.898 82.507 106.349 82.6294 105.754C82.7518 105.16 82.6111 104.527 82.7152 103.928C82.8995 102.875 83.7187 102.103 84.0883 101.138C84.3538 100.446 84.7863 99.2784 85.6857 99.8039Z" fill="#3F3D56"/>
<path d="M74.8277 111.289C74.7934 111.523 74.7718 111.782 74.8871 111.981C75.1154 112.367 75.6384 112.228 76.0495 112.286C76.6901 112.375 77.1628 113.059 77.2873 113.778C77.4118 114.496 77.2633 115.228 77.1012 115.934C76.7343 117.534 76.2973 119.111 75.7903 120.665C74.4269 120.484 72.9916 119.892 72.2677 118.58C71.6099 117.386 71.6773 115.864 71.2594 114.54C70.9659 113.608 70.4395 112.796 69.9188 112C70.7558 112.118 71.3542 111.039 71.4032 110.088C71.4524 109.138 71.1874 108.173 71.3679 107.244C71.4101 107.024 74.7089 107.718 75.0298 107.969C75.957 108.695 74.9739 110.282 74.8277 111.289Z" fill="#FBBEBE"/>
<path opacity="0.1" d="M74.8277 111.289C74.7934 111.523 74.7718 111.782 74.8871 111.981C75.1154 112.367 75.6384 112.228 76.0495 112.286C76.6901 112.375 77.1628 113.059 77.2873 113.778C77.4118 114.496 77.2633 115.228 77.1012 115.934C76.7343 117.534 76.2973 119.111 75.7903 120.665C74.4269 120.484 72.9916 119.892 72.2677 118.58C71.6099 117.386 71.6773 115.864 71.2594 114.54C70.9659 113.608 70.4395 112.796 69.9188 112C70.7558 112.118 71.3542 111.039 71.4032 110.088C71.4524 109.138 71.1874 108.173 71.3679 107.244C71.4101 107.024 74.7089 107.718 75.0298 107.969C75.957 108.695 74.9739 110.282 74.8277 111.289Z" fill="black"/>
<path d="M74.0695 109.749C76.5399 109.749 78.5425 107.488 78.5425 104.7C78.5425 101.911 76.5399 99.6511 74.0695 99.6511C71.5991 99.6511 69.5964 101.911 69.5964 104.7C69.5964 107.488 71.5991 109.749 74.0695 109.749Z" fill="#FBBEBE"/>
<path d="M72.7032 110.538C72.866 110.252 72.5886 109.852 72.7158 109.543C72.7915 109.357 72.9828 109.277 73.1307 109.156C73.3161 108.986 73.464 108.77 73.5628 108.525C74.2586 107.019 74.4693 105.288 74.1587 103.627C74.0533 103.069 73.9593 102.329 74.412 102.078C74.5374 102.015 74.675 101.988 74.8119 102.001C75.6279 102.03 76.4164 102.646 77.2083 102.428C77.4786 102.345 77.72 102.171 77.9002 101.93C78.0805 101.688 78.1909 101.391 78.2168 101.077C78.2684 100.243 77.7137 99.5277 77.1682 98.9663C76.186 97.9493 74.6893 97.7234 73.3554 97.6989L70.8742 97.6524C70.0799 97.6369 69.1895 97.6654 68.6371 98.3068C67.8418 99.2296 68.2417 100.74 68.1272 102.019C68.0297 103.04 67.5763 103.975 66.8665 104.619C66.3519 105.081 65.6437 105.523 65.6529 106.261C65.6529 106.519 65.7514 106.754 65.8144 106.998C66.0677 107.963 65.8259 109.031 65.34 109.876C64.8541 110.722 64.1435 111.372 63.4067 111.941C63.0124 112.245 62.6044 112.536 62.2927 112.948C61.9509 113.424 61.748 114.006 61.7116 114.617C61.6626 115.083 61.7478 115.555 61.9546 115.963C62.4394 116.835 63.6026 116.963 64.3991 116.457C65.1956 115.951 65.6815 114.994 66.0035 114.031C66.1961 113.459 66.392 112.805 66.8848 112.548C67.5083 112.221 68.2371 112.738 68.6429 113.364C69.0485 113.99 69.2984 114.754 69.8175 115.262C70.6312 116.06 72.0156 115.931 72.7032 114.994C73.1949 114.321 73.3037 113.391 73.2763 112.52C73.2626 111.81 73.0632 111.121 72.7032 110.538Z" fill="#3F3D56"/>
<path d="M74.3406 117.161C73.8302 117.283 73.2969 117.012 72.9173 116.607C72.5377 116.201 72.2819 115.678 72.0158 115.172C71.3412 113.895 70.5678 112.687 69.7047 111.563C68.9523 110.586 67.9052 109.593 66.788 109.895C66.414 110.016 66.0669 110.226 65.7695 110.508C64.7845 111.387 64.0136 112.532 63.5287 113.837C63.0439 115.142 62.861 116.564 62.9973 117.971C63.0845 118.793 63.283 119.598 63.3655 120.424C63.4211 121.106 63.4373 121.79 63.4137 122.474C63.3827 124.556 63.3197 126.758 62.323 128.512C60.778 131.224 59.9511 134.463 58.8167 137.423C58.2043 139.023 57.8373 140.726 57.4771 142.421C57.2638 143.427 57.0508 144.432 56.8383 145.436L55.4505 152.01C55.3071 152.688 55.1637 153.399 55.3151 154.076C55.5445 155.089 56.3898 155.796 57.281 156.085C58.1721 156.373 59.1161 156.324 60.0417 156.333C61.8126 156.352 63.5972 156.6 65.2591 157.292C65.734 157.49 66.2077 157.726 66.7135 157.772C67.2193 157.82 67.7228 157.671 68.1964 157.464C69.4891 156.901 70.597 155.915 71.7876 155.117C72.5312 154.613 73.3144 154.186 74.1273 153.843C74.5356 153.671 74.9738 153.508 75.2548 153.132C75.4669 152.85 75.5622 152.48 75.6321 152.119C76.0198 150.083 75.7594 147.974 75.6321 145.898C75.5048 143.821 74.4026 141.627 75.3144 139.816C75.4979 139.45 75.717 139.099 75.8111 138.694C75.9349 138.164 75.8306 137.595 75.9349 137.06C76.0118 136.665 76.1964 136.31 76.3225 135.931C76.5428 135.265 76.5726 134.539 76.5703 133.827C76.5651 132.265 76.4191 130.707 76.1345 129.178C75.7732 127.241 76.9683 125.326 77.653 123.496C77.8985 122.841 78.246 122.222 78.3481 121.521C78.4398 120.888 78.3217 120.244 78.2334 119.609C78.1016 118.627 78.0478 117.633 78.0728 116.639C78.0946 115.748 78.1784 114.84 77.9891 113.973C77.7999 113.107 77.2596 112.266 76.4832 112.088C76.3961 112.059 76.3045 112.052 76.2148 112.068C76.1252 112.084 76.0398 112.122 75.9647 112.18C75.8751 112.279 75.8119 112.404 75.7824 112.541C75.5301 113.412 75.5793 114.349 75.4383 115.253C75.2972 116.157 75.1321 116.97 74.3406 117.161Z" fill="#8C95E3"/>
<path d="M63.5348 122.671C63.5816 122.312 63.4346 121.835 63.1157 121.848C62.8218 121.861 62.6908 122.28 62.692 122.615C62.6931 122.951 62.733 123.335 62.5245 123.571C62.34 123.78 62.0347 123.773 61.8206 123.943C61.745 124.004 61.6835 124.085 61.6413 124.179C61.5991 124.273 61.5773 124.378 61.5779 124.483C61.5779 124.663 61.6497 124.836 61.6543 125.016C61.6589 125.196 61.5529 125.404 61.3957 125.393C61.315 125.547 61.2813 125.727 61.3001 125.905C61.3188 126.083 61.3889 126.249 61.4993 126.377C61.5814 126.468 61.6884 126.546 61.7158 126.673C61.7244 126.762 61.7183 126.852 61.6976 126.938C61.6498 127.295 61.8661 127.694 62.1816 127.732C62.0051 127.876 62.0404 128.213 62.2022 128.38C62.3639 128.547 62.5963 128.58 62.8138 128.58C63.3076 128.577 63.7959 128.462 64.2501 128.242C64.4058 128.183 64.5433 128.075 64.6466 127.931C64.6945 127.856 64.7175 127.765 64.7114 127.672C64.7053 127.58 64.6706 127.494 64.6136 127.428C64.8345 127.469 65.0999 127.493 65.2446 127.298C65.4462 127.026 65.2298 126.623 65.0168 126.36C65.1051 126.346 65.1876 126.301 65.2541 126.234C65.3206 126.166 65.368 126.077 65.3906 125.979C65.4132 125.881 65.4099 125.777 65.3811 125.681C65.3523 125.585 65.2992 125.5 65.2286 125.438C65.1557 125.377 65.0566 125.324 65.0464 125.222C65.0361 125.119 65.1124 125.053 65.1443 124.963C65.2172 124.759 65.0509 124.552 64.8903 124.429C64.5099 124.141 63.9495 124.146 63.6112 123.856C63.2729 123.566 63.4859 123.059 63.5348 122.671Z" fill="#BE6F72"/>
<path d="M87.1571 103.108C86.8779 103.14 86.5969 103.147 86.3166 103.13C86.2688 103.125 86.2209 103.14 86.1832 103.173C86.1455 103.207 86.121 103.255 86.1149 103.308L85.5787 107.809C85.5375 108.135 85.418 108.443 85.2329 108.7C85.0803 108.904 84.9668 109.142 84.8996 109.397C84.8323 109.653 84.8128 109.921 84.842 110.185V117.829C84.842 117.829 84.8075 118.848 85.5073 118.848C86.3448 118.966 87.1923 118.966 88.0299 118.848C88.0299 118.848 88.5902 118.73 88.5902 117.789V110.262C88.633 110 88.6242 109.73 88.5645 109.472C88.5047 109.213 88.3955 108.972 88.2443 108.766C88.0654 108.508 87.9497 108.203 87.9089 107.879L87.3519 103.285C87.3456 103.234 87.322 103.187 87.2858 103.154C87.2496 103.121 87.2036 103.105 87.1571 103.108Z" fill="#3F3D56"/>
<path opacity="0.1" d="M87.1571 103.108C86.8779 103.14 86.5969 103.147 86.3166 103.13C86.2688 103.125 86.2209 103.14 86.1832 103.173C86.1455 103.207 86.121 103.255 86.1149 103.308L85.5787 107.809C85.5375 108.135 85.418 108.443 85.2329 108.7C85.0803 108.904 84.9668 109.142 84.8996 109.397C84.8323 109.653 84.8128 109.921 84.842 110.185V117.829C84.842 117.829 84.8075 118.848 85.5073 118.848C86.3448 118.966 87.1923 118.966 88.0299 118.848C88.0299 118.848 88.5902 118.73 88.5902 117.789V110.262C88.633 110 88.6242 109.73 88.5645 109.472C88.5047 109.213 88.3955 108.972 88.2443 108.766C88.0654 108.508 87.9497 108.203 87.9089 107.879L87.3519 103.285C87.3456 103.234 87.322 103.187 87.2858 103.154C87.2496 103.121 87.2036 103.105 87.1571 103.108Z" fill="black"/>
<path d="M87.1864 110.295H86.3399C85.639 110.295 85.0707 110.936 85.0707 111.727V115.321C85.0707 116.112 85.639 116.753 86.3399 116.753H87.1864C87.8875 116.753 88.4557 116.112 88.4557 115.321V111.727C88.4557 110.936 87.8875 110.295 87.1864 110.295Z" fill="#FFC539"/>
<path d="M98.4655 83.5729C98.2183 83.7249 97.9607 83.8548 97.6952 83.9612C97.6491 83.9766 97.6103 84.0114 97.5867 84.0582C97.5632 84.1051 97.5568 84.1604 97.5691 84.2123L98.6262 88.6134C98.7018 88.9329 98.6986 89.2693 98.617 89.5869C98.5457 89.842 98.5223 90.1108 98.5482 90.3765C98.574 90.6423 98.6486 90.8991 98.7673 91.1311L101.407 98.2091C101.407 98.2091 101.726 99.1669 102.375 98.8641C103.192 98.6105 103.977 98.2425 104.711 97.769C104.711 97.769 105.189 97.4169 104.865 96.547L102.266 89.5777C102.215 89.3161 102.114 89.07 101.969 88.8564C101.825 88.6427 101.641 88.4666 101.43 88.3403C101.176 88.1792 100.963 87.9468 100.813 87.6659L98.7118 83.6531C98.688 83.6067 98.649 83.5724 98.6031 83.5575C98.5572 83.5425 98.5079 83.548 98.4655 83.5729Z" fill="#3F3D56"/>
<path d="M100.966 90.2645L100.187 90.6313C99.5419 90.9349 99.2372 91.771 99.5064 92.4987L100.729 95.8052C100.998 96.5329 101.74 96.8767 102.385 96.573L103.163 96.2063C103.808 95.9026 104.113 95.0666 103.844 94.3388L102.621 91.0323C102.352 90.3046 101.611 89.9609 100.966 90.2645Z" fill="#FFC539"/>
<path d="M66.3528 110.701C65.1205 111.274 64.6332 113.058 64.9222 114.525C65.211 115.992 66.0811 117.215 66.9294 118.379L69.3071 121.653C69.9639 122.559 70.6827 123.512 71.6846 123.828C73.1497 124.29 74.6148 123.237 75.8815 122.284C79.6627 119.44 83.7045 117.064 87.9369 115.198C88.3506 115.017 88.7748 114.833 89.1153 114.509C89.8215 113.839 90.0198 112.603 89.6266 111.663C89.2334 110.722 88.3174 110.11 87.3946 110.102C86.4718 110.094 85.5742 110.645 85.0193 111.479C84.7544 111.876 84.5608 112.33 84.3051 112.734C83.6586 113.749 82.6497 114.376 81.6627 114.943C79.2828 116.314 76.8329 117.524 74.3259 118.566C73.8673 118.755 73.3503 118.935 72.9181 118.685C72.6533 118.531 72.4745 118.24 72.314 117.956C71.5827 116.656 71.001 115.257 70.583 113.791C70.27 112.691 70.0167 111.493 69.2646 110.711C68.1985 109.604 66.268 109.869 65.469 111.229C65.469 111.229 64.5324 112.775 65.1056 113.422C65.6788 114.07 66.3528 110.701 66.3528 110.701Z" fill="#FBBEBE"/>
<path d="M130.586 105.364C130.753 105.865 130.757 106.414 130.733 106.949C130.703 107.602 130.558 108.367 130.02 108.616C129.67 108.775 129.237 108.655 128.925 108.895C128.548 109.183 128.566 109.805 128.624 110.313C128.786 111.709 128.968 113.157 129.643 114.337C130.006 114.97 130.497 115.498 130.995 116.002C131.988 117.01 133.077 117.995 134.381 118.331C134.593 118.399 134.817 118.409 135.033 118.362C135.247 118.288 135.441 118.155 135.598 117.975C136.354 117.194 136.743 116.079 137.247 115.068C137.603 114.345 138.027 113.65 138.228 112.854C138.393 112.157 138.382 111.423 138.196 110.734C138.01 110.044 137.658 109.427 137.177 108.951C136.954 108.736 136.706 108.556 136.49 108.333C135.924 107.755 135.594 106.926 135.459 106.08C135.324 105.235 135.345 104.364 135.41 103.502C134.265 103.403 133.128 103.559 132.011 103.81C131.514 103.922 130.814 103.974 130.365 104.241C129.858 104.544 130.447 104.932 130.586 105.364Z" fill="#FBBEBE"/>
<path opacity="0.1" d="M130.586 105.364C130.753 105.865 130.757 106.414 130.733 106.949C130.703 107.602 130.558 108.367 130.02 108.616C129.67 108.775 129.237 108.655 128.925 108.895C128.548 109.183 128.566 109.805 128.624 110.313C128.786 111.709 128.968 113.157 129.643 114.337C130.006 114.97 130.497 115.498 130.995 116.002C131.988 117.01 133.077 117.995 134.381 118.331C134.593 118.399 134.817 118.409 135.033 118.362C135.247 118.288 135.441 118.155 135.598 117.975C136.354 117.194 136.743 116.079 137.247 115.068C137.603 114.345 138.027 113.65 138.228 112.854C138.393 112.157 138.382 111.423 138.196 110.734C138.01 110.044 137.658 109.427 137.177 108.951C136.954 108.736 136.706 108.556 136.49 108.333C135.924 107.755 135.594 106.926 135.459 106.08C135.324 105.235 135.345 104.364 135.41 103.502C134.265 103.403 133.128 103.559 132.011 103.81C131.514 103.922 130.814 103.974 130.365 104.241C129.858 104.544 130.447 104.932 130.586 105.364Z" fill="black"/>
<path d="M124.17 109.166C122.311 108.446 121.423 105.632 119.476 105.316C119.169 105.266 118.854 105.285 118.553 105.205C117.432 104.905 116.951 103.441 116.626 102.193C115.534 98.0324 114.107 93.9611 112.081 90.2726C111.226 88.7207 109.873 87.4455 109.256 85.7461C109.115 85.3581 109.043 84.9158 108.787 84.6093C108.532 84.3028 107.986 84.2588 107.847 84.6494C107.808 84.7877 107.8 84.9345 107.822 85.0775L107.956 86.6876L105.627 86.451C105.412 86.4095 105.191 86.4272 104.982 86.5026C104.758 86.6296 104.579 86.8402 104.475 87.0989C103.688 88.7711 104.527 90.962 105.917 92.0199C107.54 93.255 109.858 93.4425 110.937 95.2855C111.578 96.3822 111.591 97.7932 112.013 99.0179C112.215 99.6038 112.509 100.142 112.744 100.71C113.192 101.792 113.42 102.969 113.767 104.097C114.264 105.709 115.001 107.212 115.734 108.706C116.3 109.86 116.88 111.034 117.749 111.916C118.322 112.495 118.995 112.925 119.668 113.339C121.324 114.36 123.276 115.343 125.03 114.56C125.131 112.793 124.738 110.823 124.17 109.166Z" fill="#FBBEBE"/>
<path d="M129.864 164.752C129.723 166.446 128.814 167.978 128.602 169.608C127.202 169.359 125.823 169.041 124.489 168.677C124.325 168.633 124.162 168.588 123.998 168.548C124.753 166.213 124.096 163.598 124.295 161.111C124.315 160.873 124.342 160.634 124.379 160.398C126.109 159.731 127.671 158.841 129.484 159.101C129.52 159.516 129.557 159.933 129.592 160.348C129.665 161.177 129.737 162.005 129.808 162.833C129.881 163.469 129.9 164.112 129.864 164.752Z" fill="#FBBEBE"/>
<path d="M141.81 169.024C141.132 169.257 140.436 169.461 139.71 169.628C139.589 169.656 139.466 169.684 139.344 169.71C138.6 169.868 137.847 169.983 137.086 170.063C137.008 168.261 135.942 166.604 135.786 164.754C135.754 164.294 135.758 163.832 135.799 163.374C135.812 163.192 135.828 163.011 135.843 162.829L136.166 159.1C136.423 159.063 136.682 159.049 136.941 159.057C138.428 159.097 139.782 159.827 141.256 160.396C141.366 161.183 141.404 161.98 141.37 162.776C141.314 164.801 141.027 166.85 141.691 168.708C141.729 168.813 141.769 168.917 141.81 169.024Z" fill="#FBBEBE"/>
<path d="M122.444 140.691C122.645 142.452 121.846 144.138 121.499 145.87C121.27 147.015 121.239 148.194 121.208 149.369L121.027 156.408C121.009 157.111 120.992 157.829 121.183 158.503C121.566 159.857 122.746 160.771 123.974 161.096C125.202 161.422 126.487 161.256 127.739 161.071C128.352 160.979 128.992 160.872 129.5 160.473C130.199 159.924 130.504 158.947 130.768 158.035L131.512 155.461C132.369 157.633 132.007 160.008 132.52 162.312C132.553 162.526 132.632 162.727 132.749 162.898C132.966 163.169 133.323 163.211 133.648 163.238C135.895 163.416 138.174 163.592 140.386 163.108C140.993 162.979 141.628 162.77 142.048 162.256C142.537 161.658 142.621 160.778 142.615 159.967C142.585 157.176 141.689 154.484 141.489 151.702C141.403 150.511 141.446 149.312 141.407 148.117C141.378 147.217 141.303 146.321 141.184 145.431C141.146 145.023 141.047 144.626 140.891 144.256C140.546 143.533 139.832 143.14 139.155 142.835C133.897 140.431 128.115 140.454 122.444 140.691Z" fill="#8C95E3"/>
<path d="M132.138 106.019C134.853 106.019 137.054 103.514 137.054 100.424C137.054 97.3344 134.853 94.8296 132.138 94.8296C129.423 94.8296 127.222 97.3344 127.222 100.424C127.222 103.514 129.423 106.019 132.138 106.019Z" fill="#FBBEBE"/>
<path d="M136.45 110.225C136.085 111.129 135.509 112.034 134.651 112.265C133.863 112.478 133.028 112.05 132.447 111.413C131.866 110.775 131.486 109.948 131.083 109.156C130.79 108.576 130.463 107.992 129.966 107.627C129.287 107.131 128.41 107.144 127.609 107.29C126.808 107.436 126.013 107.697 125.199 107.638C124.186 107.562 123.153 106.991 122.197 107.371C122.507 108.933 122.396 110.65 122.36 112.25C122.366 112.497 122.335 112.744 122.268 112.979C122.185 113.199 122.072 113.403 121.934 113.584L121.016 114.917C122.001 115.747 122.852 116.831 123.196 118.161C123.391 118.918 123.331 119.722 123.324 120.511C123.302 122.826 123.748 125.133 123.607 127.443C123.442 130.148 122.483 132.705 121.988 135.359C121.564 137.638 121.484 139.98 121.751 142.288C126.895 144.294 132.194 145.32 137.632 145.656C138.592 145.716 139.63 145.725 140.418 145.103C141.073 144.586 141.441 143.7 141.565 142.808C141.691 141.916 141.604 141.009 141.517 140.112C141.281 137.685 141.045 135.259 140.809 132.833C140.675 131.453 140.541 130.064 140.628 128.68C140.693 127.646 140.882 126.631 141.069 125.619L142.216 119.406C142.38 118.523 142.546 117.633 142.871 116.81C143.136 116.138 143.505 115.517 143.799 114.863C144.149 114.079 144.39 113.238 144.514 112.372C144.564 112.12 144.561 111.859 144.505 111.609C144.382 111.185 144.007 110.93 143.658 110.722C141.523 109.459 139.236 108.555 136.868 108.04C136.708 108.801 136.739 109.515 136.45 110.225Z" fill="#E3E8F4"/>
<path d="M135.988 106.462C136.563 105.226 137.638 104.359 138.263 103.151C138.608 102.466 138.8 101.698 138.825 100.912C138.85 100.126 138.705 99.3444 138.403 98.6344C138.183 98.1311 137.885 97.6691 137.713 97.1426C137.521 96.5438 137.502 95.8844 137.281 95.2985C136.976 94.4959 136.315 93.9178 135.597 93.5849C134.878 93.2519 134.102 93.1319 133.328 93.0158L130.715 92.6208C130.337 92.5641 129.945 92.5073 129.577 92.6208C129.209 92.7345 128.866 93.0713 128.836 93.4997C128.801 94.0068 129.197 94.4791 129.105 94.9772C129.072 95.1528 128.98 95.3308 129.033 95.5011C129.08 95.615 129.161 95.7064 129.263 95.7593C129.883 96.1464 130.623 96.1812 131.295 96.4341C131.966 96.6871 132.64 97.322 132.573 98.1117C132.536 98.5363 132.292 98.9776 132.458 99.3583C132.616 99.7106 133.032 99.7751 133.365 99.8848C134.44 100.235 135.194 101.543 135.038 102.788C134.99 103.175 134.865 103.546 134.84 103.934C134.756 105.294 134.947 105.683 135.937 106.474L135.988 106.462Z" fill="#3F3D56"/>
<path d="M142.641 112.358C142.646 112.615 142.605 112.871 142.519 113.11C142.161 113.968 141.065 113.914 140.339 114.401C139.436 115.007 139.236 116.361 139.154 117.541C139.06 118.877 138.995 120.232 139.238 121.542C139.481 122.852 140.066 124.13 141.043 124.898C142.233 125.828 143.85 125.86 145.208 125.294C146.566 124.727 147.7 123.631 148.684 122.434C149.618 121.298 150.454 120.032 150.955 118.59C151.044 118.332 151.122 118.058 151.05 117.8C150.944 117.413 150.568 117.238 150.264 117.026C149.551 116.542 149.077 115.698 148.83 114.806C148.583 113.914 148.542 112.966 148.534 112.03C148.525 111.058 148.522 109.996 147.972 109.246C147.422 108.496 146.468 108.286 145.598 108.293C144.887 108.293 142.919 108.37 142.434 109.068C142.036 109.649 142.67 111.526 142.641 112.358Z" fill="#BE6F72"/>
<path opacity="0.1" d="M142.641 112.358C142.646 112.615 142.605 112.871 142.519 113.11C142.161 113.968 141.065 113.914 140.339 114.401C139.436 115.007 139.236 116.361 139.154 117.541C139.06 118.877 138.995 120.232 139.238 121.542C139.481 122.852 140.066 124.13 141.043 124.898C142.233 125.828 143.85 125.86 145.208 125.294C146.566 124.727 147.7 123.631 148.684 122.434C149.618 121.298 150.454 120.032 150.955 118.59C151.044 118.332 151.122 118.058 151.05 117.8C150.944 117.413 150.568 117.238 150.264 117.026C149.551 116.542 149.077 115.698 148.83 114.806C148.583 113.914 148.542 112.966 148.534 112.03C148.525 111.058 148.522 109.996 147.972 109.246C147.422 108.496 146.468 108.286 145.598 108.293C144.887 108.293 142.919 108.37 142.434 109.068C142.036 109.649 142.67 111.526 142.641 112.358Z" fill="black"/>
<path d="M136.562 146.989C136.597 147.186 136.679 147.368 136.8 147.516C136.913 147.617 137.044 147.687 137.185 147.722C140.934 148.966 144.94 148.47 148.821 147.962C148.29 146.132 147.755 144.282 147.608 142.363C147.486 140.78 147.623 139.133 147.127 137.648C146.981 137.209 138.458 139.231 137.618 139.395C137.187 139.479 136.691 139.451 136.386 139.837C136.018 140.305 135.988 141.419 135.949 142.001C135.839 143.685 136.146 145.38 136.562 146.989Z" fill="#BE6F72"/>
<path d="M145.096 167.546C144.41 167.906 143.703 168.242 142.97 168.543C142.574 168.707 142.169 168.86 141.756 169.003C141.08 169.236 140.386 169.44 139.66 169.608C139.246 168.416 138.832 167.225 138.418 166.033C138.113 165.155 137.808 164.274 137.553 163.377C137.375 162.766 137.23 162.142 137.117 161.511C136.742 159.364 136.84 157.146 137.4 155.052C138.984 155.391 140.532 155.612 142.091 155.868C142.925 155.998 143.76 156.151 144.605 156.332C144.672 156.957 144.732 157.582 144.785 158.208C144.868 159.173 144.936 160.139 144.988 161.105C145.105 163.25 145.14 165.397 145.096 167.546Z" fill="#BE6F72"/>
<path opacity="0.1" d="M145.096 167.546C144.41 167.906 143.703 168.242 142.97 168.543C142.574 168.707 142.169 168.86 141.756 169.003C141.08 169.236 140.386 169.44 139.66 169.608C139.246 168.416 138.832 167.225 138.418 166.033C138.113 165.155 137.808 164.274 137.553 163.377C137.375 162.766 137.23 162.142 137.117 161.511C136.742 159.364 136.84 157.146 137.4 155.052C138.984 155.391 140.532 155.612 142.091 155.868C142.925 155.998 143.76 156.151 144.605 156.332C144.672 156.957 144.732 157.582 144.785 158.208C144.868 159.173 144.936 160.139 144.988 161.105C145.105 163.25 145.14 165.397 145.096 167.546Z" fill="black"/>
<path d="M153.898 161.956C153.908 162.696 153.72 163.452 153.547 164.179C153.534 164.23 153.523 164.28 153.511 164.332C153.098 164.187 152.742 163.886 152.503 163.481C152.379 163.26 152.288 163.019 152.232 162.766C151.715 163.163 151.193 163.555 150.667 163.944C148.945 165.217 147.125 166.481 145.114 167.527C144.429 167.885 143.721 168.217 142.989 168.516C142.837 167.916 142.692 167.312 142.555 166.704C142.405 166.078 142.288 165.443 142.203 164.802C142.036 163.346 142.165 161.867 142.582 160.476L142.634 160.308C142.828 159.689 143.079 159.096 143.382 158.535C143.666 158.021 144.23 158.107 144.804 158.278C145.065 158.354 145.329 158.445 145.569 158.502C147.062 158.854 148.612 158.49 150.138 158.586C150.866 158.627 151.578 158.832 152.234 159.187C152.969 159.602 153.56 160.238 153.793 161.116C153.826 161.242 153.85 161.371 153.868 161.502C153.887 161.652 153.897 161.803 153.898 161.956Z" fill="#BE6F72"/>
<path d="M126.36 102.435C123.999 99.8434 121.316 97.6472 118.57 95.5936C117.856 95.086 117.169 94.5309 116.512 93.9313C115.827 93.2834 115.229 92.5229 114.5 91.9399C113.772 91.3568 112.871 90.9565 111.996 91.1482C111.121 91.34 110.344 92.2884 110.472 93.2809C110.586 94.1541 111.279 94.7528 111.92 95.2542C113.132 96.2038 114.349 97.1562 115.667 97.9012C116.126 98.1364 116.57 98.4047 116.997 98.7045C117.818 99.3315 118.416 100.259 119.037 101.131C121.38 104.43 124.251 107.199 127.498 109.294C127.536 109.32 128.889 106.012 128.832 105.583C128.706 104.597 126.982 103.119 126.36 102.435Z" fill="#BE6F72"/>
<path d="M146.598 144.144C144.771 144.274 143.019 144.972 141.233 145.417C139.446 145.862 137.504 146.034 135.845 145.157L136.854 152.954C136.91 153.388 136.969 153.832 136.885 154.259C136.809 154.666 136.609 155.05 136.626 155.467C136.653 156.126 137.199 156.589 137.713 156.894C139.208 157.788 140.883 158.225 142.573 158.162C142.448 158.733 142.292 159.298 142.167 159.868C143.008 160.892 144.386 160.961 145.588 161.286C146.505 161.531 147.365 161.956 148.264 162.256C149.35 162.619 150.478 162.797 151.611 162.784C152.375 162.775 153.186 162.654 153.779 162.114C154.509 161.449 154.736 160.317 154.895 159.271C154.983 158.687 155.065 158.096 155.009 157.507C154.95 156.829 154.718 156.188 154.489 155.56L152.919 151.246C152.634 150.467 152.346 149.677 152.002 148.926C150.879 146.495 149.016 143.974 146.598 144.144Z" fill="#3F3D56"/>
<path d="M148.022 117.372C148.158 116.97 148.408 116.63 148.734 116.406C149.06 116.182 149.443 116.087 149.822 116.135C150.281 116.207 150.689 116.49 151.083 116.767L153.272 118.307C153.635 118.551 153.984 118.821 154.314 119.116C155.824 120.527 156.407 122.847 156.573 125.05C156.739 127.253 156.573 129.493 156.961 131.66C156.038 132.524 155.013 133.254 154.089 134.116C153.605 134.566 153.115 135.02 152.749 135.6C152.457 136.056 152.25 136.578 151.946 137.022C151.449 137.722 150.727 138.174 149.937 138.28C150.437 138.608 150.718 139.245 150.853 139.88C150.989 140.514 151.025 141.172 151.176 141.806C151.382 142.668 151.809 143.455 151.95 144.334C152.049 144.94 152.006 145.562 152.041 146.177C152.22 149.359 154.436 152.141 154.293 155.325C153.246 154.897 152.257 154.31 151.351 153.582C150.943 153.253 150.548 152.896 150.162 152.541L147.242 149.872C145.822 148.58 144.388 147.259 143.259 145.637C142.55 144.618 141.972 143.492 141.262 142.476C140.551 141.46 139.676 140.538 138.59 140.111C138.431 140.381 138.148 140.569 137.988 140.839C137.96 140.881 137.938 140.928 137.922 140.978C137.903 141.099 137.916 141.223 137.96 141.335C138.088 141.857 138.165 142.394 138.189 142.936L138.261 143.908C138.288 144.165 138.288 144.425 138.261 144.683C138.152 145.514 137.469 146.158 136.732 146.288C136.625 146.314 136.515 146.31 136.41 146.276C136.205 146.199 136.091 145.954 136.029 145.722C135.739 144.618 136.184 143.454 136.22 142.305C136.225 142.014 136.216 141.722 136.193 141.432L136.124 140.286C135.459 140.129 135.076 139.323 134.899 138.583C134.422 136.584 133.941 134.515 134.218 132.468C134.291 131.92 134.42 131.365 134.333 130.817C134.218 130.084 133.75 129.49 133.504 128.8C132.701 126.55 134.406 124.108 134.248 121.693C134.181 120.678 133.611 119.797 133.267 118.856C133.089 118.308 132.858 117.783 132.578 117.292C132.228 116.727 131.754 116.275 131.295 115.82C129.875 114.416 128.528 112.92 127.261 111.341C126.611 111.265 126.001 110.95 125.525 110.444C125.222 110.121 124.973 109.695 124.966 109.226C124.957 108.757 125.265 108.265 125.681 108.24C125.924 108.226 126.151 108.361 126.388 108.421C127.131 108.604 127.878 107.988 128.21 107.214C128.541 106.44 128.541 105.55 128.535 104.692C128.898 104.619 129.272 104.653 129.62 104.79C129.968 104.928 130.279 105.164 130.522 105.476C131.035 106.104 131.368 106.887 131.772 107.608C131.936 107.928 132.147 108.215 132.395 108.457C132.947 108.951 133.741 109.044 134.222 109.62C134.467 109.915 134.602 110.305 134.825 110.62C135.454 111.508 136.604 111.616 137.463 112.2C138.321 112.785 138.919 113.852 139.869 114.198C140.214 114.327 140.588 114.344 140.929 114.488C141.715 114.817 142.196 115.759 142.305 116.696C142.414 117.633 142.228 118.58 142.04 119.502L141.598 121.662C141.501 122.14 141.427 122.715 141.74 123.056C141.888 123.194 142.061 123.292 142.247 123.344C143.05 123.639 143.944 123.928 144.698 123.511C145.055 123.312 145.335 122.976 145.59 122.632C146.709 121.146 147.453 119.2 148.022 117.372Z" fill="#2D3CB9"/>
<path d="M157.072 161.268C156.912 162.446 156.33 163.604 155.376 164.143C154.805 164.458 154.145 164.508 153.54 164.285C153.122 164.14 152.761 163.839 152.519 163.433C152.394 163.213 152.301 162.972 152.245 162.719C152.245 162.706 152.239 162.692 152.237 162.679C152.15 162.223 152.114 161.758 152.129 161.293C152.129 160.571 152.167 159.85 152.245 159.132C152.309 158.529 152.416 157.931 152.564 157.346C152.779 156.511 153.089 155.707 153.373 154.9C153.521 154.476 153.663 154.05 153.78 153.614C153.85 153.357 153.911 153.091 153.959 152.823L153.976 152.727C153.986 152.673 153.994 152.619 154.002 152.565C154.117 151.831 154.151 151.072 154.448 150.409C155.141 148.853 156.492 149.251 156.697 150.686C156.713 150.797 156.722 150.909 156.724 151.022C156.755 152.838 156.108 154.612 156.404 156.434C156.487 156.879 156.592 157.318 156.718 157.75C156.822 158.148 156.916 158.55 156.987 158.959C157.133 159.718 157.161 160.499 157.072 161.268Z" fill="#BE6F72"/>
<path d="M157.638 141.027C157.669 141.775 157.638 142.533 157.771 143.268C158.081 145.004 159.258 146.54 159.128 148.305C159.096 148.735 158.955 149.197 158.623 149.41C158.291 149.622 157.743 149.605 157.633 150.033C157.603 150.152 157.619 150.282 157.585 150.4C157.512 150.651 157.241 150.758 157.013 150.752C156.784 150.746 156.555 150.66 156.318 150.682C155.489 150.761 155.185 152.018 154.446 152.449C153.948 152.739 153.302 152.579 152.891 152.15C152.48 151.721 152.301 151.053 152.333 150.419C152.357 149.941 152.491 149.48 152.561 149.008C152.691 148.167 152.623 147.306 152.556 146.456C152.456 145.211 152.353 143.951 151.992 142.77C151.822 142.213 151.595 141.681 151.447 141.116C151.237 140.317 151.189 139.476 151.167 138.643C151.122 136.89 151.229 135.016 152.153 133.606C152.847 132.549 153.843 131.69 154.628 130.712C155.12 130.099 155.262 129.907 155.806 130.427C156.253 130.853 156.721 131.441 156.771 132.019C156.909 133.5 156.771 134.956 157.016 136.464C157.261 137.972 157.574 139.479 157.638 141.027Z" fill="#2D3CB9"/>
<path d="M145.799 112.569C149.026 112.569 151.642 109.616 151.642 105.974C151.642 102.331 149.026 99.3781 145.799 99.3781C142.572 99.3781 139.956 102.331 139.956 105.974C139.956 109.616 142.572 112.569 145.799 112.569Z" fill="#BE6F72"/>
<path d="M151.127 118.549C151.254 118.346 151.406 118.128 151.623 118.085C151.787 118.072 151.95 118.11 152.095 118.198L153.627 118.922C154.04 118.148 154.285 117.273 154.338 116.371C154.37 115.817 154.331 115.255 154.425 114.71C154.564 113.902 154.987 113.178 155.085 112.362C155.163 111.703 155.022 111.041 154.938 110.384C154.678 108.354 154.957 106.283 154.808 104.239C154.659 102.195 153.934 100.005 152.324 99.0668C151.868 98.8086 151.376 98.6536 150.902 98.4496C149.844 97.9939 148.897 97.2643 147.852 96.7712C146.808 96.2779 145.58 96.0519 144.568 96.6188C143.554 97.1856 142.965 98.7802 143.623 99.8209C143.84 100.163 144.157 100.406 144.46 100.652C145.077 101.152 145.706 101.769 145.849 102.614C146.105 104.133 144.709 105.325 144.315 106.811C144.17 107.391 144.157 108.004 144.278 108.592C144.447 109.472 144.863 110.304 144.848 111.205C144.837 112.193 144.314 113.087 144.216 114.07C144.181 114.43 144.202 114.796 144.163 115.155C144.093 115.628 143.968 116.089 143.794 116.527C142.882 119.109 141.957 121.719 140.601 124.04C142.053 124.068 143.488 123.688 144.778 122.935C144.593 123.93 144.237 124.875 143.732 125.716C144.893 125.564 146.009 125.123 147.001 124.425C146.761 125.401 146.412 126.338 145.963 127.215C146.002 127.14 146.72 126.957 146.852 126.872C147.124 126.697 147.343 126.432 147.479 126.114C147.867 125.329 148.109 124.382 148.468 123.566C149.236 121.817 150.125 120.14 151.127 118.549Z" fill="#3F3D56"/>
<path d="M106.822 79.0012C106.543 79.0329 106.262 79.0402 105.982 79.0233C105.934 79.0174 105.886 79.0329 105.848 79.0664C105.811 79.0998 105.786 79.1487 105.78 79.2023L105.244 83.7283C105.203 84.0568 105.083 84.3667 104.898 84.6249C104.746 84.8304 104.632 85.0691 104.565 85.326C104.498 85.5829 104.478 85.8526 104.507 86.1185V93.8066C104.507 93.8066 104.473 94.8317 105.173 94.8317C106.01 94.9501 106.858 94.9501 107.695 94.8317C107.695 94.8317 108.255 94.7124 108.255 93.7664V86.1963C108.298 85.9322 108.289 85.6608 108.229 85.4009C108.17 85.141 108.06 84.8988 107.91 84.6911C107.731 84.4319 107.615 84.1246 107.574 83.7997L107.017 79.179C107.011 79.127 106.987 79.0797 106.951 79.0467C106.915 79.0137 106.869 78.9974 106.822 79.0012Z" fill="#3F3D56"/>
<path d="M106.852 86.2784H106.005C105.304 86.2784 104.736 86.9196 104.736 87.7106V91.305C104.736 92.096 105.304 92.7372 106.005 92.7372H106.852C107.553 92.7372 108.121 92.096 108.121 91.305V87.7106C108.121 86.9196 107.553 86.2784 106.852 86.2784Z" fill="#FFC539"/>
<path d="M114.752 85.6421C114.479 85.6736 114.204 85.6809 113.929 85.664C113.883 85.6582 113.836 85.6736 113.799 85.7069C113.762 85.7401 113.738 85.7887 113.732 85.842L113.207 90.3422C113.167 90.6688 113.05 90.9769 112.869 91.2336C112.719 91.438 112.608 91.6752 112.542 91.9307C112.477 92.1861 112.457 92.4544 112.486 92.7187V100.363C112.486 100.363 112.452 101.382 113.137 101.382C113.957 101.5 114.786 101.5 115.606 101.382C115.606 101.382 116.154 101.263 116.154 100.323V92.7961C116.196 92.5334 116.187 92.2636 116.129 92.0051C116.07 91.7467 115.964 91.506 115.816 91.2995C115.641 91.0417 115.528 90.7362 115.487 90.4131L114.943 85.8188C114.936 85.7671 114.913 85.7202 114.878 85.6873C114.843 85.6545 114.797 85.6383 114.752 85.6421Z" fill="#3F3D56"/>
<path d="M114.75 92.8282H113.903C113.203 92.8282 112.635 93.4695 112.635 94.2605V97.8548C112.635 98.6459 113.203 99.2871 113.903 99.2871H114.75C115.451 99.2871 116.019 98.6459 116.019 97.8548V94.2605C116.019 93.4695 115.451 92.8282 114.75 92.8282Z" fill="#FFC539"/>
</g>
<circle cx="483.5" cy="60.5" r="7.5" fill="white"/>
<defs>
<clipPath id="clip0_533_404">
<rect width="130" height="92.7439" fill="white" transform="translate(43 78)"/>
</clipPath>
</defs>
</svg>
