<svg width="180" height="34" viewBox="0 0 180 34" fill="none" xmlns="http://www.w3.org/2000/svg">
<path d="M21.1204 1.80596C18.6179 -0.600928 14.5465 -0.602198 12.0414 1.80342C12.0229 1.82116 6.22877 7.41526 6.22877 7.41526V3.96329C6.22877 3.61239 5.93244 3.32735 5.56756 3.32735C5.20272 3.32735 4.90636 3.61239 4.90636 3.96329V8.95568C4.90636 9.30658 5.20272 9.59159 5.56756 9.59159H10.7584C11.1233 9.59159 11.4197 9.30658 11.4197 8.95568C11.4197 8.60479 11.1233 8.31975 10.7584 8.31975H7.15475L12.9699 2.70411L12.9713 2.70284C14.9601 0.789998 18.1951 0.789998 20.1839 2.70284C21.1468 3.62886 21.6776 4.86144 21.6776 6.17129C21.6776 7.48114 21.1468 8.71373 20.1905 9.6334L11.965 17.5432C11.8411 17.6636 11.6752 17.7294 11.4987 17.7294C11.3222 17.7294 11.1562 17.6636 11.0311 17.5432L3.78942 10.5784C3.33368 10.1401 2.81737 9.64353 2.81342 9.63973C1.85059 8.71373 1.31978 7.48114 1.31978 6.17129C1.31978 4.86144 1.85059 3.62886 2.81342 2.70284C4.27414 1.29671 6.78856 0.859672 8.53775 1.70715C8.86306 1.86423 9.40838 2.25313 9.40838 2.25313C9.7021 2.46215 10.1157 2.40261 10.333 2.12012C10.5503 1.83763 10.4884 1.43986 10.1947 1.23084C10.1947 1.23084 9.55984 0.778598 9.1344 0.572112C6.87022 -0.524922 3.75124 0.00459243 1.88088 1.80469C0.667794 2.9714 0 4.52193 0 6.17129C0 7.81938 0.666476 9.36866 1.87693 10.5341C1.8901 10.5468 2.33925 10.98 2.85689 11.4766L10.0986 18.4414C10.4726 18.8011 10.9705 19 11.5 19C12.0295 19 12.5274 18.8011 12.9014 18.4414L21.1191 10.5379C22.3322 9.37118 23 7.82066 23 6.17129C23.0013 4.52449 22.3335 2.97266 21.1204 1.80596Z" fill="#FF966E"/>
<path d="M43.6326 16.644C43.8857 16.9142 44.0123 17.2098 44.0123 17.5307C44.0123 17.8684 43.8773 18.1556 43.6072 18.392C43.3541 18.6116 43.084 18.7213 42.7971 18.7213C42.4258 18.7213 42.1305 18.5862 41.9111 18.316L36.9239 13.0213L35.405 14.3893V17.5307C35.405 17.8684 35.2868 18.1556 35.0506 18.392C34.8312 18.6284 34.5527 18.7467 34.2151 18.7467C33.8607 18.7467 33.5654 18.6284 33.3291 18.392C33.1097 18.1556 33 17.8684 33 17.5307V1.216C33 0.878222 33.1097 0.591111 33.3291 0.354667C33.5654 0.118222 33.8607 0 34.2151 0C34.5527 0 34.8312 0.118222 35.0506 0.354667C35.2868 0.591111 35.405 0.878222 35.405 1.216V11.5013L41.6073 5.80133C41.8942 5.548 42.1896 5.42133 42.4934 5.42133C42.7803 5.42133 43.0419 5.548 43.2781 5.80133C43.5144 6.03778 43.6326 6.29111 43.6326 6.56133C43.6326 6.89911 43.4722 7.20311 43.1516 7.47333L38.772 11.3747L43.6326 16.644ZM57.4999 5.29467C57.8544 5.29467 58.1413 5.41289 58.3607 5.64933C58.597 5.86889 58.7151 6.16444 58.7151 6.536V17.5307C58.7151 17.8684 58.597 18.1556 58.3607 18.392C58.1413 18.6284 57.8544 18.7467 57.4999 18.7467C57.1455 18.7467 56.8586 18.6369 56.6392 18.4173C56.4198 18.1809 56.3101 17.8853 56.3101 17.5307V16.872C55.8713 17.4631 55.2722 17.9698 54.5127 18.392C53.7532 18.7973 52.9347 19 52.0571 19C50.9095 19 49.8631 18.7044 48.918 18.1133C47.9897 17.5222 47.2556 16.7031 46.7155 15.656C46.1923 14.592 45.9307 13.4013 45.9307 12.084C45.9307 10.7667 46.1923 9.58444 46.7155 8.53733C47.2556 7.47333 47.9897 6.64578 48.918 6.05467C49.8462 5.46356 50.8673 5.168 51.9811 5.168C52.8756 5.168 53.7026 5.35378 54.4621 5.72533C55.2384 6.09689 55.8544 6.56978 56.3101 7.144V6.536C56.3101 6.18133 56.4198 5.88578 56.6392 5.64933C56.8586 5.41289 57.1455 5.29467 57.4999 5.29467ZM52.3356 16.7707C53.1288 16.7707 53.8292 16.568 54.4368 16.1627C55.0612 15.7573 55.5422 15.2 55.8797 14.4907C56.2342 13.7813 56.4114 12.9791 56.4114 12.084C56.4114 11.2058 56.2342 10.412 55.8797 9.70267C55.5422 8.99333 55.0612 8.436 54.4368 8.03067C53.8292 7.60844 53.1288 7.39733 52.3356 7.39733C51.5423 7.39733 50.8335 7.6 50.2091 8.00533C49.6015 8.41067 49.1205 8.968 48.7661 9.67733C48.4285 10.3867 48.2598 11.1889 48.2598 12.084C48.2598 12.9791 48.4285 13.7813 48.7661 14.4907C49.1205 15.2 49.6015 15.7573 50.2091 16.1627C50.8335 16.568 51.5423 16.7707 52.3356 16.7707ZM68.8985 5.168C69.3373 5.168 69.717 5.28622 70.0377 5.52267C70.3584 5.74222 70.5187 6.02089 70.5187 6.35867C70.5187 6.764 70.409 7.07644 70.1896 7.296C69.9871 7.49867 69.7339 7.6 69.4301 7.6C69.2782 7.6 69.0504 7.54933 68.7466 7.448C68.3922 7.32978 68.1137 7.27067 67.9112 7.27067C67.388 7.27067 66.8733 7.45644 66.3669 7.828C65.8775 8.18267 65.4725 8.68089 65.1518 9.32267C64.848 9.94756 64.6961 10.6484 64.6961 11.4253V17.5307C64.6961 17.8684 64.578 18.1556 64.3417 18.392C64.1223 18.6284 63.8354 18.7467 63.481 18.7467C63.1266 18.7467 62.8396 18.6369 62.6202 18.4173C62.4008 18.1809 62.2911 17.8853 62.2911 17.5307V6.688C62.2911 6.35022 62.4008 6.06311 62.6202 5.82667C62.8565 5.59022 63.1434 5.472 63.481 5.472C63.8354 5.472 64.1223 5.59022 64.3417 5.82667C64.578 6.06311 64.6961 6.35022 64.6961 6.688V7.98C65.0674 7.15244 65.6244 6.48533 66.3669 5.97867C67.1095 5.45511 67.9534 5.18489 68.8985 5.168ZM87.9633 5.244C90.9168 5.244 92.3936 7.08489 92.3936 10.7667V17.5307C92.3936 17.8853 92.2839 18.1809 92.0645 18.4173C91.8451 18.6369 91.5582 18.7467 91.2037 18.7467C90.8493 18.7467 90.554 18.6284 90.3177 18.392C90.0983 18.1556 89.9886 17.8684 89.9886 17.5307V10.792C89.9886 8.57956 89.0603 7.47333 87.2039 7.47333C86.5457 7.47333 85.9465 7.62533 85.4065 7.92933C84.8833 8.21644 84.4698 8.61333 84.166 9.12C83.8791 9.62667 83.7356 10.184 83.7356 10.792V17.5307C83.7356 17.8684 83.6175 18.1556 83.3812 18.392C83.1618 18.6284 82.8749 18.7467 82.5205 18.7467C82.1661 18.7467 81.8792 18.6369 81.6597 18.4173C81.4403 18.1809 81.3307 17.8853 81.3307 17.5307V10.7667C81.3307 9.77022 81.1197 8.97644 80.6978 8.38533C80.2758 7.77733 79.5754 7.47333 78.5966 7.47333C77.6008 7.47333 76.7738 7.79422 76.1156 8.436C75.4743 9.06089 75.1536 9.83778 75.1536 10.7667V17.5307C75.1536 17.8684 75.0355 18.1556 74.7992 18.392C74.5798 18.6284 74.2929 18.7467 73.9385 18.7467C73.5841 18.7467 73.2972 18.6369 73.0778 18.4173C72.8584 18.1809 72.7487 17.8853 72.7487 17.5307V6.688C72.7487 6.35022 72.8584 6.06311 73.0778 5.82667C73.314 5.59022 73.601 5.472 73.9385 5.472C74.2929 5.472 74.5798 5.59022 74.7992 5.82667C75.0355 6.06311 75.1536 6.35022 75.1536 6.688V7.57467C75.5924 6.916 76.1747 6.36711 76.9004 5.928C77.643 5.472 78.4447 5.244 79.3054 5.244C81.3982 5.244 82.7568 6.17289 83.3812 8.03067C83.7525 7.32133 84.3685 6.67956 85.2293 6.10533C86.09 5.53111 87.0013 5.244 87.9633 5.244ZM106.746 5.29467C107.101 5.29467 107.388 5.41289 107.607 5.64933C107.843 5.86889 107.962 6.16444 107.962 6.536V17.5307C107.962 17.8684 107.843 18.1556 107.607 18.392C107.388 18.6284 107.101 18.7467 106.746 18.7467C106.392 18.7467 106.105 18.6369 105.886 18.4173C105.666 18.1809 105.557 17.8853 105.557 17.5307V16.872C105.118 17.4631 104.519 17.9698 103.759 18.392C103 18.7973 102.181 19 101.304 19C100.156 19 99.1099 18.7044 98.1647 18.1133C97.2365 17.5222 96.5024 16.7031 95.9623 15.656C95.4391 14.592 95.1775 13.4013 95.1775 12.084C95.1775 10.7667 95.4391 9.58444 95.9623 8.53733C96.5024 7.47333 97.2365 6.64578 98.1647 6.05467C99.093 5.46356 100.114 5.168 101.228 5.168C102.122 5.168 102.949 5.35378 103.709 5.72533C104.485 6.09689 105.101 6.56978 105.557 7.144V6.536C105.557 6.18133 105.666 5.88578 105.886 5.64933C106.105 5.41289 106.392 5.29467 106.746 5.29467ZM101.582 16.7707C102.376 16.7707 103.076 16.568 103.683 16.1627C104.308 15.7573 104.789 15.2 105.126 14.4907C105.481 13.7813 105.658 12.9791 105.658 12.084C105.658 11.2058 105.481 10.412 105.126 9.70267C104.789 8.99333 104.308 8.436 103.683 8.03067C103.076 7.60844 102.376 7.39733 101.582 7.39733C100.789 7.39733 100.08 7.6 99.4558 8.00533C98.8483 8.41067 98.3673 8.968 98.0129 9.67733C97.6753 10.3867 97.5065 11.1889 97.5065 12.084C97.5065 12.9791 97.6753 13.7813 98.0129 14.4907C98.3673 15.2 98.8483 15.7573 99.4558 16.1627C100.08 16.568 100.789 16.7707 101.582 16.7707ZM122.373 16.644C122.626 16.9142 122.753 17.2098 122.753 17.5307C122.753 17.8684 122.618 18.1556 122.348 18.392C122.095 18.6116 121.825 18.7213 121.538 18.7213C121.167 18.7213 120.871 18.5862 120.652 18.316L115.665 13.0213L114.146 14.3893V17.5307C114.146 17.8684 114.028 18.1556 113.791 18.392C113.572 18.6284 113.293 18.7467 112.956 18.7467C112.601 18.7467 112.306 18.6284 112.07 18.392C111.85 18.1556 111.741 17.8684 111.741 17.5307V1.216C111.741 0.878222 111.85 0.591111 112.07 0.354667C112.306 0.118222 112.601 0 112.956 0C113.293 0 113.572 0.118222 113.791 0.354667C114.028 0.591111 114.146 0.878222 114.146 1.216V11.5013L120.348 5.80133C120.635 5.548 120.93 5.42133 121.234 5.42133C121.521 5.42133 121.783 5.548 122.019 5.80133C122.255 6.03778 122.373 6.29111 122.373 6.56133C122.373 6.89911 122.213 7.20311 121.892 7.47333L117.513 11.3747L122.373 16.644ZM135.33 5.472C135.684 5.472 135.971 5.59022 136.191 5.82667C136.427 6.06311 136.545 6.35022 136.545 6.688V13.4267C136.545 15.1831 136.056 16.5511 135.077 17.5307C134.115 18.4933 132.748 18.9747 130.976 18.9747C129.22 18.9747 127.862 18.4933 126.9 17.5307C125.938 16.5511 125.457 15.1831 125.457 13.4267V6.688C125.457 6.35022 125.566 6.06311 125.786 5.82667C126.022 5.59022 126.309 5.472 126.647 5.472C127.001 5.472 127.288 5.59022 127.507 5.82667C127.744 6.06311 127.862 6.35022 127.862 6.688V13.4267C127.862 15.6391 128.9 16.7453 130.976 16.7453C132.005 16.7453 132.79 16.4667 133.33 15.9093C133.87 15.352 134.14 14.5244 134.14 13.4267V6.688C134.14 6.35022 134.25 6.06311 134.469 5.82667C134.705 5.59022 134.992 5.472 135.33 5.472ZM146.749 5.168C147.187 5.168 147.567 5.28622 147.888 5.52267C148.209 5.74222 148.369 6.02089 148.369 6.35867C148.369 6.764 148.259 7.07644 148.04 7.296C147.837 7.49867 147.584 7.6 147.28 7.6C147.128 7.6 146.901 7.54933 146.597 7.448C146.242 7.32978 145.964 7.27067 145.761 7.27067C145.238 7.27067 144.723 7.45644 144.217 7.828C143.728 8.18267 143.323 8.68089 143.002 9.32267C142.698 9.94756 142.546 10.6484 142.546 11.4253V17.5307C142.546 17.8684 142.428 18.1556 142.192 18.392C141.972 18.6284 141.686 18.7467 141.331 18.7467C140.977 18.7467 140.69 18.6369 140.47 18.4173C140.251 18.1809 140.141 17.8853 140.141 17.5307V6.688C140.141 6.35022 140.251 6.06311 140.47 5.82667C140.707 5.59022 140.994 5.472 141.331 5.472C141.686 5.472 141.972 5.59022 142.192 5.82667C142.428 6.06311 142.546 6.35022 142.546 6.688V7.98C142.918 7.15244 143.474 6.48533 144.217 5.97867C144.96 5.45511 145.804 5.18489 146.749 5.168ZM152.878 17.5307C152.878 17.8684 152.76 18.1556 152.523 18.392C152.304 18.6284 152.017 18.7467 151.663 18.7467C151.325 18.7467 151.038 18.6284 150.802 18.392C150.583 18.1556 150.473 17.8684 150.473 17.5307V6.56133C150.473 6.22356 150.583 5.93644 150.802 5.7C151.038 5.46356 151.325 5.34533 151.663 5.34533C152.017 5.34533 152.304 5.46356 152.523 5.7C152.76 5.93644 152.878 6.22356 152.878 6.56133V17.5307ZM151.663 3.67333C151.173 3.67333 150.819 3.58889 150.599 3.42C150.397 3.23422 150.296 2.94711 150.296 2.55867V2.15333C150.296 1.748 150.405 1.46089 150.625 1.292C150.861 1.12311 151.215 1.03867 151.688 1.03867C152.161 1.03867 152.498 1.13156 152.701 1.31733C152.92 1.48622 153.03 1.76489 153.03 2.15333V2.55867C153.03 2.964 152.92 3.25111 152.701 3.42C152.481 3.58889 152.135 3.67333 151.663 3.67333ZM167.98 11.6027C167.963 11.9067 167.837 12.1684 167.6 12.388C167.364 12.5907 167.085 12.692 166.765 12.692H157.854C157.972 13.9249 158.436 14.9129 159.246 15.656C160.073 16.3991 161.077 16.7707 162.259 16.7707C163.069 16.7707 163.727 16.6524 164.233 16.416C164.74 16.1796 165.187 15.8756 165.575 15.504C165.828 15.352 166.073 15.276 166.309 15.276C166.596 15.276 166.832 15.3773 167.018 15.58C167.221 15.7827 167.322 16.0191 167.322 16.2893C167.322 16.644 167.153 16.9649 166.815 17.252C166.326 17.7418 165.676 18.1556 164.866 18.4933C164.056 18.8311 163.229 19 162.385 19C161.018 19 159.811 18.7129 158.765 18.1387C157.736 17.5644 156.934 16.7622 156.36 15.732C155.803 14.7018 155.525 13.5364 155.525 12.236C155.525 10.8173 155.812 9.576 156.385 8.512C156.976 7.43111 157.744 6.60356 158.689 6.02933C159.651 5.45511 160.681 5.168 161.778 5.168C162.858 5.168 163.87 5.44667 164.816 6.004C165.761 6.56133 166.52 7.32978 167.094 8.30933C167.668 9.28889 167.963 10.3867 167.98 11.6027ZM161.778 7.39733C160.833 7.39733 160.014 7.66756 159.322 8.208C158.63 8.73156 158.174 9.55067 157.955 10.6653H165.423V10.4627C165.339 9.56756 164.934 8.83289 164.208 8.25867C163.499 7.68444 162.689 7.39733 161.778 7.39733ZM177.38 5.168C177.819 5.168 178.198 5.28622 178.519 5.52267C178.84 5.74222 179 6.02089 179 6.35867C179 6.764 178.89 7.07644 178.671 7.296C178.468 7.49867 178.215 7.6 177.911 7.6C177.76 7.6 177.532 7.54933 177.228 7.448C176.873 7.32978 176.595 7.27067 176.393 7.27067C175.869 7.27067 175.355 7.45644 174.848 7.828C174.359 8.18267 173.954 8.68089 173.633 9.32267C173.329 9.94756 173.177 10.6484 173.177 11.4253V17.5307C173.177 17.8684 173.059 18.1556 172.823 18.392C172.604 18.6284 172.317 18.7467 171.962 18.7467C171.608 18.7467 171.321 18.6369 171.102 18.4173C170.882 18.1809 170.772 17.8853 170.772 17.5307V6.688C170.772 6.35022 170.882 6.06311 171.102 5.82667C171.338 5.59022 171.625 5.472 171.962 5.472C172.317 5.472 172.604 5.59022 172.823 5.82667C173.059 6.06311 173.177 6.35022 173.177 6.688V7.98C173.549 7.15244 174.106 6.48533 174.848 5.97867C175.591 5.45511 176.435 5.18489 177.38 5.168Z" fill="#FF966E"/>
<path d="M49.12 23.296H46.144V22.456H53.092V23.296H50.116V31H49.12V23.296ZM58.3396 24.964V31H57.3916V29.956C57.1996 30.324 56.9316 30.604 56.5876 30.796C56.2436 30.988 55.8556 31.084 55.4236 31.084C54.7116 31.084 54.1716 30.884 53.8036 30.484C53.4356 30.084 53.2516 29.492 53.2516 28.708V24.964H54.2236V28.684C54.2236 29.228 54.3356 29.628 54.5596 29.884C54.7836 30.14 55.1236 30.268 55.5796 30.268C56.1156 30.268 56.5476 30.096 56.8756 29.752C57.2036 29.4 57.3676 28.94 57.3676 28.372V24.964H58.3396ZM62.7453 31.084C62.1613 31.084 61.6493 30.956 61.2093 30.7C60.7773 30.444 60.4413 30.084 60.2013 29.62C59.9693 29.148 59.8533 28.6 59.8533 27.976C59.8533 27.352 59.9733 26.804 60.2133 26.332C60.4533 25.852 60.7933 25.48 61.2333 25.216C61.6813 24.952 62.2013 24.82 62.7933 24.82C63.2013 24.82 63.5933 24.892 63.9693 25.036C64.3533 25.172 64.6693 25.364 64.9173 25.612L64.5933 26.332C64.2893 26.092 63.9933 25.916 63.7053 25.804C63.4253 25.692 63.1373 25.636 62.8413 25.636C62.2253 25.636 61.7413 25.844 61.3893 26.26C61.0373 26.668 60.8613 27.24 60.8613 27.976C60.8613 28.704 61.0333 29.272 61.3773 29.68C61.7293 30.08 62.2173 30.28 62.8413 30.28C63.1373 30.28 63.4253 30.224 63.7053 30.112C63.9933 30 64.2893 29.824 64.5933 29.584L64.9173 30.304C64.6613 30.544 64.3373 30.736 63.9453 30.88C63.5613 31.016 63.1613 31.084 62.7453 31.084ZM70.2228 31L67.1268 28.096V31H66.1548V22.168H67.1268V27.736L69.9708 24.976H71.2068L68.1828 27.868L71.4948 31H70.2228ZM79.0265 24.82C80.3625 24.82 81.0305 25.616 81.0305 27.208V31H80.0585V27.256C80.0585 26.688 79.9585 26.276 79.7585 26.02C79.5665 25.764 79.2505 25.636 78.8105 25.636C78.2985 25.636 77.8985 25.808 77.6105 26.152C77.3225 26.496 77.1785 26.964 77.1785 27.556V31H76.2065V27.256C76.2065 26.696 76.1065 26.288 75.9065 26.032C75.7065 25.768 75.3865 25.636 74.9465 25.636C74.4345 25.636 74.0305 25.808 73.7345 26.152C73.4465 26.496 73.3025 26.964 73.3025 27.556V31H72.3305V26.656C72.3305 26.032 72.2985 25.468 72.2345 24.964H73.1585L73.2545 26.02C73.4225 25.636 73.6705 25.34 73.9985 25.132C74.3345 24.924 74.7225 24.82 75.1625 24.82C75.6425 24.82 76.0345 24.916 76.3385 25.108C76.6425 25.3 76.8665 25.596 77.0105 25.996C77.1945 25.636 77.4625 25.352 77.8145 25.144C78.1745 24.928 78.5785 24.82 79.0265 24.82ZM88.1934 24.964V31H87.2334V29.908C87.0574 30.284 86.7894 30.576 86.4294 30.784C86.0774 30.984 85.6654 31.084 85.1934 31.084C84.6574 31.084 84.1854 30.956 83.7774 30.7C83.3774 30.444 83.0654 30.084 82.8414 29.62C82.6254 29.148 82.5174 28.6 82.5174 27.976C82.5174 27.352 82.6294 26.804 82.8534 26.332C83.0774 25.852 83.3894 25.48 83.7894 25.216C84.1974 24.952 84.6654 24.82 85.1934 24.82C85.6654 24.82 86.0774 24.924 86.4294 25.132C86.7814 25.34 87.0494 25.632 87.2334 26.008V24.964H88.1934ZM85.3854 30.28C85.9774 30.28 86.4334 30.08 86.7534 29.68C87.0734 29.272 87.2334 28.696 87.2334 27.952C87.2334 27.208 87.0734 26.636 86.7534 26.236C86.4334 25.836 85.9774 25.636 85.3854 25.636C84.7934 25.636 84.3294 25.844 83.9934 26.26C83.6654 26.668 83.5014 27.24 83.5014 27.976C83.5014 28.712 83.6654 29.28 83.9934 29.68C84.3214 30.08 84.7854 30.28 85.3854 30.28ZM93.0847 24.82C94.5327 24.82 95.2567 25.616 95.2567 27.208V31H94.2847V27.256C94.2847 26.696 94.1727 26.288 93.9487 26.032C93.7247 25.768 93.3727 25.636 92.8927 25.636C92.3327 25.636 91.8847 25.808 91.5487 26.152C91.2127 26.496 91.0447 26.96 91.0447 27.544V31H90.0727V26.656C90.0727 26.032 90.0407 25.468 89.9767 24.964H90.9007L90.9967 26.044C91.1807 25.652 91.4567 25.352 91.8247 25.144C92.1927 24.928 92.6127 24.82 93.0847 24.82ZM100.161 27.376H103.557V28.18H100.161V27.376ZM109.791 25.732V29.032C109.791 29.48 109.883 29.796 110.067 29.98C110.251 30.156 110.511 30.244 110.847 30.244C111.071 30.244 111.287 30.208 111.495 30.136V30.964C111.247 31.044 110.967 31.084 110.655 31.084C110.079 31.084 109.627 30.924 109.299 30.604C108.979 30.276 108.819 29.796 108.819 29.164V25.732H107.643V24.964H108.819V23.416L109.791 23.068V24.964H111.519V25.732H109.791ZM117.742 27.952H113.314C113.322 28.72 113.498 29.3 113.842 29.692C114.194 30.084 114.702 30.28 115.366 30.28C116.07 30.28 116.718 30.044 117.31 29.572L117.634 30.28C117.37 30.528 117.03 30.724 116.614 30.868C116.206 31.012 115.786 31.084 115.354 31.084C114.41 31.084 113.67 30.808 113.134 30.256C112.598 29.696 112.33 28.932 112.33 27.964C112.33 27.348 112.45 26.804 112.69 26.332C112.93 25.852 113.266 25.48 113.698 25.216C114.13 24.952 114.622 24.82 115.174 24.82C115.974 24.82 116.602 25.084 117.058 25.612C117.514 26.132 117.742 26.852 117.742 27.772V27.952ZM115.186 25.576C114.682 25.576 114.27 25.728 113.95 26.032C113.638 26.336 113.438 26.764 113.35 27.316H116.866C116.818 26.748 116.65 26.316 116.362 26.02C116.082 25.724 115.69 25.576 115.186 25.576ZM124.533 24.964V31H123.573V29.908C123.397 30.284 123.129 30.576 122.769 30.784C122.417 30.984 122.005 31.084 121.533 31.084C120.997 31.084 120.525 30.956 120.117 30.7C119.717 30.444 119.405 30.084 119.181 29.62C118.965 29.148 118.857 28.6 118.857 27.976C118.857 27.352 118.969 26.804 119.193 26.332C119.417 25.852 119.729 25.48 120.129 25.216C120.537 24.952 121.005 24.82 121.533 24.82C122.005 24.82 122.417 24.924 122.769 25.132C123.121 25.34 123.389 25.632 123.573 26.008V24.964H124.533ZM121.725 30.28C122.317 30.28 122.773 30.08 123.093 29.68C123.413 29.272 123.573 28.696 123.573 27.952C123.573 27.208 123.413 26.636 123.093 26.236C122.773 25.836 122.317 25.636 121.725 25.636C121.133 25.636 120.669 25.844 120.333 26.26C120.005 26.668 119.841 27.24 119.841 27.976C119.841 28.712 120.005 29.28 120.333 29.68C120.661 30.08 121.125 30.28 121.725 30.28ZM133.109 24.82C134.445 24.82 135.113 25.616 135.113 27.208V31H134.141V27.256C134.141 26.688 134.041 26.276 133.841 26.02C133.649 25.764 133.333 25.636 132.893 25.636C132.381 25.636 131.981 25.808 131.693 26.152C131.405 26.496 131.261 26.964 131.261 27.556V31H130.289V27.256C130.289 26.696 130.189 26.288 129.989 26.032C129.789 25.768 129.469 25.636 129.029 25.636C128.517 25.636 128.113 25.808 127.817 26.152C127.529 26.496 127.385 26.964 127.385 27.556V31H126.413V26.656C126.413 26.032 126.381 25.468 126.317 24.964H127.241L127.337 26.02C127.505 25.636 127.753 25.34 128.081 25.132C128.417 24.924 128.805 24.82 129.245 24.82C129.725 24.82 130.117 24.916 130.421 25.108C130.725 25.3 130.949 25.596 131.093 25.996C131.277 25.636 131.545 25.352 131.897 25.144C132.257 24.928 132.661 24.82 133.109 24.82ZM142.275 24.964V31H141.315V29.908C141.139 30.284 140.871 30.576 140.511 30.784C140.159 30.984 139.747 31.084 139.275 31.084C138.739 31.084 138.267 30.956 137.859 30.7C137.459 30.444 137.147 30.084 136.923 29.62C136.707 29.148 136.599 28.6 136.599 27.976C136.599 27.352 136.711 26.804 136.935 26.332C137.159 25.852 137.471 25.48 137.871 25.216C138.279 24.952 138.747 24.82 139.275 24.82C139.747 24.82 140.159 24.924 140.511 25.132C140.863 25.34 141.131 25.632 141.315 26.008V24.964H142.275ZM139.467 30.28C140.059 30.28 140.515 30.08 140.835 29.68C141.155 29.272 141.315 28.696 141.315 27.952C141.315 27.208 141.155 26.636 140.835 26.236C140.515 25.836 140.059 25.636 139.467 25.636C138.875 25.636 138.411 25.844 138.075 26.26C137.747 26.668 137.583 27.24 137.583 27.976C137.583 28.712 137.747 29.28 138.075 29.68C138.403 30.08 138.867 30.28 139.467 30.28ZM147.167 24.82C148.615 24.82 149.339 25.616 149.339 27.208V31H148.367V27.256C148.367 26.696 148.255 26.288 148.031 26.032C147.807 25.768 147.455 25.636 146.975 25.636C146.415 25.636 145.967 25.808 145.631 26.152C145.295 26.496 145.127 26.96 145.127 27.544V31H144.155V26.656C144.155 26.032 144.123 25.468 144.059 24.964H144.983L145.079 26.044C145.263 25.652 145.539 25.352 145.907 25.144C146.275 24.928 146.695 24.82 147.167 24.82ZM156.49 24.964V31H155.53V29.908C155.354 30.284 155.086 30.576 154.726 30.784C154.374 30.984 153.962 31.084 153.49 31.084C152.954 31.084 152.482 30.956 152.074 30.7C151.674 30.444 151.362 30.084 151.138 29.62C150.922 29.148 150.814 28.6 150.814 27.976C150.814 27.352 150.926 26.804 151.15 26.332C151.374 25.852 151.686 25.48 152.086 25.216C152.494 24.952 152.962 24.82 153.49 24.82C153.962 24.82 154.374 24.924 154.726 25.132C155.078 25.34 155.346 25.632 155.53 26.008V24.964H156.49ZM153.682 30.28C154.274 30.28 154.73 30.08 155.05 29.68C155.37 29.272 155.53 28.696 155.53 27.952C155.53 27.208 155.37 26.636 155.05 26.236C154.73 25.836 154.274 25.636 153.682 25.636C153.09 25.636 152.626 25.844 152.29 26.26C151.962 26.668 151.798 27.24 151.798 27.976C151.798 28.712 151.962 29.28 152.29 29.68C152.618 30.08 153.082 30.28 153.682 30.28ZM158.37 22.168H159.342V31H158.37V22.168ZM166.533 24.964L163.713 31.552C163.417 32.24 163.045 32.744 162.597 33.064C162.149 33.384 161.597 33.604 160.941 33.724L160.737 32.968C161.305 32.84 161.733 32.668 162.021 32.452C162.317 32.244 162.561 31.92 162.753 31.48L162.993 30.94L160.437 24.964H161.457L163.497 29.944L165.561 24.964H166.533ZM169.539 31.084C168.523 31.084 167.719 30.824 167.127 30.304L167.451 29.584C167.779 29.84 168.111 30.024 168.447 30.136C168.783 30.248 169.159 30.304 169.575 30.304C170.031 30.304 170.375 30.228 170.607 30.076C170.847 29.916 170.967 29.688 170.967 29.392C170.967 29.152 170.887 28.96 170.727 28.816C170.567 28.672 170.303 28.56 169.935 28.48L168.915 28.24C168.411 28.128 168.019 27.928 167.739 27.64C167.467 27.352 167.331 27.008 167.331 26.608C167.331 26.08 167.543 25.652 167.967 25.324C168.391 24.988 168.951 24.82 169.646 24.82C170.071 24.82 170.471 24.888 170.847 25.024C171.223 25.16 171.539 25.356 171.795 25.612L171.471 26.32C170.903 25.848 170.295 25.612 169.646 25.612C169.215 25.612 168.879 25.696 168.639 25.864C168.407 26.024 168.291 26.252 168.291 26.548C168.291 26.796 168.363 26.992 168.507 27.136C168.659 27.28 168.899 27.392 169.227 27.472L170.247 27.724C170.807 27.852 171.223 28.052 171.495 28.324C171.767 28.588 171.903 28.936 171.903 29.368C171.903 29.888 171.691 30.304 171.267 30.616C170.843 30.928 170.267 31.084 169.539 31.084ZM178.504 27.952H174.076C174.084 28.72 174.26 29.3 174.604 29.692C174.956 30.084 175.464 30.28 176.128 30.28C176.832 30.28 177.48 30.044 178.072 29.572L178.396 30.28C178.132 30.528 177.792 30.724 177.376 30.868C176.968 31.012 176.548 31.084 176.116 31.084C175.172 31.084 174.432 30.808 173.896 30.256C173.36 29.696 173.092 28.932 173.092 27.964C173.092 27.348 173.212 26.804 173.452 26.332C173.692 25.852 174.028 25.48 174.46 25.216C174.892 24.952 175.384 24.82 175.936 24.82C176.736 24.82 177.364 25.084 177.82 25.612C178.276 26.132 178.504 26.852 178.504 27.772V27.952ZM175.948 25.576C175.444 25.576 175.032 25.728 174.712 26.032C174.4 26.336 174.2 26.764 174.112 27.316H177.628C177.58 26.748 177.412 26.316 177.124 26.02C176.844 25.724 176.452 25.576 175.948 25.576Z" fill="#FF966E"/>
</svg>
