<svg width="97" height="10" viewBox="0 0 97 10" fill="none" xmlns="http://www.w3.org/2000/svg">
<path d="M11.9376 0.950503C10.5231 -0.316278 8.22196 -0.316946 6.80598 0.949171C6.79555 0.958505 3.52061 3.90277 3.52061 3.90277V2.08594C3.52061 1.90126 3.35312 1.75124 3.14688 1.75124C2.94067 1.75124 2.77316 1.90126 2.77316 2.08594V4.71352C2.77316 4.8982 2.94067 5.04821 3.14688 5.04821H6.08086C6.28708 5.04821 6.45459 4.8982 6.45459 4.71352C6.45459 4.52884 6.28708 4.37881 6.08086 4.37881H4.04399L7.33084 1.42321L7.33158 1.42255C8.45574 0.415788 10.2842 0.415788 11.4083 1.42255C11.9525 1.90992 12.2526 2.55865 12.2526 3.24805C12.2526 3.93744 11.9525 4.58617 11.412 5.07021L6.76281 9.23326C6.69282 9.29661 6.59901 9.33127 6.49925 9.33127C6.3995 9.33127 6.30569 9.29661 6.23497 9.23326L2.14185 5.56759C1.88425 5.33691 1.59243 5.07554 1.5902 5.07354C1.04599 4.58617 0.745962 3.93744 0.745962 3.24805C0.745962 2.55865 1.04599 1.90992 1.5902 1.42255C2.41582 0.68248 3.83701 0.452459 4.82569 0.898499C5.00956 0.981174 5.31778 1.18586 5.31778 1.18586C5.4838 1.29587 5.71756 1.26453 5.8404 1.11585C5.96324 0.967171 5.92824 0.757819 5.76222 0.64781C5.76222 0.64781 5.40339 0.409789 5.16292 0.301112C3.88317 -0.276275 2.12027 0.00241707 1.06311 0.949837C0.377449 1.56389 0 2.37996 0 3.24805C0 4.11546 0.376704 4.93087 1.06087 5.54425C1.06832 5.55093 1.32218 5.77895 1.61476 6.0403L5.70788 9.70598C5.91932 9.89532 6.20072 10 6.5 10C6.79928 10 7.08068 9.89532 7.29212 9.70598L11.9369 5.54626C12.6225 4.9322 13 4.11614 13 3.24805C13.0007 2.38131 12.6233 1.56456 11.9376 0.950503Z" fill="black"/>
<path d="M22.8261 8.76C22.9648 8.90222 23.0341 9.05778 23.0341 9.22667C23.0341 9.40444 22.9601 9.55556 22.8122 9.68C22.6735 9.79556 22.5255 9.85333 22.3683 9.85333C22.1648 9.85333 22.003 9.78222 21.8828 9.64L19.1501 6.85333L18.3178 7.57333V9.22667C18.3178 9.40444 18.2531 9.55556 18.1236 9.68C18.0034 9.80444 17.8508 9.86667 17.6658 9.86667C17.4716 9.86667 17.3098 9.80444 17.1803 9.68C17.0601 9.55556 17 9.40444 17 9.22667V0.64C17 0.462222 17.0601 0.311111 17.1803 0.186667C17.3098 0.0622222 17.4716 0 17.6658 0C17.8508 0 18.0034 0.0622222 18.1236 0.186667C18.2531 0.311111 18.3178 0.462222 18.3178 0.64V6.05333L21.7163 3.05333C21.8735 2.92 22.0354 2.85333 22.2018 2.85333C22.359 2.85333 22.5024 2.92 22.6319 3.05333C22.7613 3.17778 22.8261 3.31111 22.8261 3.45333C22.8261 3.63111 22.7382 3.79111 22.5625 3.93333L20.1627 5.98667L22.8261 8.76ZM30.4246 2.78667C30.6188 2.78667 30.776 2.84889 30.8963 2.97333C31.0257 3.08889 31.0905 3.24444 31.0905 3.44V9.22667C31.0905 9.40444 31.0257 9.55556 30.8963 9.68C30.776 9.80444 30.6188 9.86667 30.4246 9.86667C30.2304 9.86667 30.0732 9.80889 29.953 9.69333C29.8328 9.56889 29.7727 9.41333 29.7727 9.22667V8.88C29.5322 9.19111 29.2039 9.45778 28.7878 9.68C28.3716 9.89333 27.9231 10 27.4422 10C26.8134 10 26.24 9.84444 25.7222 9.53333C25.2135 9.22222 24.8113 8.79111 24.5153 8.24C24.2287 7.68 24.0853 7.05333 24.0853 6.36C24.0853 5.66667 24.2287 5.04444 24.5153 4.49333C24.8113 3.93333 25.2135 3.49778 25.7222 3.18667C26.2308 2.87556 26.7903 2.72 27.4006 2.72C27.8908 2.72 28.3439 2.81778 28.76 3.01333C29.1854 3.20889 29.523 3.45778 29.7727 3.76V3.44C29.7727 3.25333 29.8328 3.09778 29.953 2.97333C30.0732 2.84889 30.2304 2.78667 30.4246 2.78667ZM27.5948 8.82667C28.0295 8.82667 28.4133 8.72 28.7462 8.50667C29.0883 8.29333 29.3519 8 29.5368 7.62667C29.731 7.25333 29.8282 6.83111 29.8282 6.36C29.8282 5.89778 29.731 5.48 29.5368 5.10667C29.3519 4.73333 29.0883 4.44 28.7462 4.22667C28.4133 4.00444 28.0295 3.89333 27.5948 3.89333C27.1602 3.89333 26.7718 4 26.4296 4.21333C26.0967 4.42667 25.8331 4.72 25.6389 5.09333C25.454 5.46667 25.3615 5.88889 25.3615 6.36C25.3615 6.83111 25.454 7.25333 25.6389 7.62667C25.8331 8 26.0967 8.29333 26.4296 8.50667C26.7718 8.72 27.1602 8.82667 27.5948 8.82667ZM36.6704 2.72C36.9109 2.72 37.1189 2.78222 37.2946 2.90667C37.4703 3.02222 37.5582 3.16889 37.5582 3.34667C37.5582 3.56 37.4981 3.72444 37.3779 3.84C37.2669 3.94667 37.1282 4 36.9617 4C36.8785 4 36.7536 3.97333 36.5872 3.92C36.393 3.85778 36.2404 3.82667 36.1294 3.82667C35.8427 3.82667 35.5607 3.92444 35.2833 4.12C35.0151 4.30667 34.7931 4.56889 34.6174 4.90667C34.451 5.23556 34.3677 5.60444 34.3677 6.01333V9.22667C34.3677 9.40444 34.303 9.55556 34.1735 9.68C34.0533 9.80444 33.8961 9.86667 33.7019 9.86667C33.5077 9.86667 33.3505 9.80889 33.2303 9.69333C33.11 9.56889 33.0499 9.41333 33.0499 9.22667V3.52C33.0499 3.34222 33.11 3.19111 33.2303 3.06667C33.3597 2.94222 33.5169 2.88 33.7019 2.88C33.8961 2.88 34.0533 2.94222 34.1735 3.06667C34.303 3.19111 34.3677 3.34222 34.3677 3.52V4.2C34.5712 3.76444 34.8764 3.41333 35.2833 3.14667C35.6902 2.87111 36.1525 2.72889 36.6704 2.72ZM47.1169 2.76C48.7352 2.76 49.5444 3.72889 49.5444 5.66667V9.22667C49.5444 9.41333 49.4843 9.56889 49.3641 9.69333C49.2439 9.80889 49.0867 9.86667 48.8925 9.86667C48.6983 9.86667 48.5364 9.80444 48.407 9.68C48.2867 9.55556 48.2266 9.40444 48.2266 9.22667V5.68C48.2266 4.51556 47.718 3.93333 46.7007 3.93333C46.3401 3.93333 46.0118 4.01333 45.7159 4.17333C45.4292 4.32444 45.2026 4.53333 45.0362 4.8C44.8789 5.06667 44.8003 5.36 44.8003 5.68V9.22667C44.8003 9.40444 44.7356 9.55556 44.6061 9.68C44.4859 9.80444 44.3287 9.86667 44.1345 9.86667C43.9403 9.86667 43.7831 9.80889 43.6629 9.69333C43.5427 9.56889 43.4825 9.41333 43.4825 9.22667V5.66667C43.4825 5.14222 43.3669 4.72444 43.1358 4.41333C42.9046 4.09333 42.5208 3.93333 41.9844 3.93333C41.4388 3.93333 40.9857 4.10222 40.625 4.44C40.2736 4.76889 40.0979 5.17778 40.0979 5.66667V9.22667C40.0979 9.40444 40.0332 9.55556 39.9037 9.68C39.7835 9.80444 39.6263 9.86667 39.432 9.86667C39.2378 9.86667 39.0806 9.80889 38.9604 9.69333C38.8402 9.56889 38.7801 9.41333 38.7801 9.22667V3.52C38.7801 3.34222 38.8402 3.19111 38.9604 3.06667C39.0899 2.94222 39.2471 2.88 39.432 2.88C39.6263 2.88 39.7835 2.94222 39.9037 3.06667C40.0332 3.19111 40.0979 3.34222 40.0979 3.52V3.98667C40.3383 3.64 40.6574 3.35111 41.055 3.12C41.4619 2.88 41.9012 2.76 42.3728 2.76C43.5195 2.76 44.264 3.24889 44.6061 4.22667C44.8096 3.85333 45.1471 3.51556 45.6188 3.21333C46.0904 2.91111 46.5898 2.76 47.1169 2.76ZM57.409 2.78667C57.6032 2.78667 57.7604 2.84889 57.8807 2.97333C58.0101 3.08889 58.0749 3.24444 58.0749 3.44V9.22667C58.0749 9.40444 58.0101 9.55556 57.8807 9.68C57.7604 9.80444 57.6032 9.86667 57.409 9.86667C57.2148 9.86667 57.0576 9.80889 56.9374 9.69333C56.8172 9.56889 56.7571 9.41333 56.7571 9.22667V8.88C56.5166 9.19111 56.1883 9.45778 55.7722 9.68C55.356 9.89333 54.9077 10 54.4268 10C53.7979 10 53.2246 9.84444 52.7067 9.53333C52.1981 9.22222 51.7958 8.79111 51.4999 8.24C51.2132 7.68 51.0699 7.05333 51.0699 6.36C51.0699 5.66667 51.2132 5.04444 51.4999 4.49333C51.7958 3.93333 52.1981 3.49778 52.7067 3.18667C53.2153 2.87556 53.7748 2.72 54.3852 2.72C54.8753 2.72 55.3283 2.81778 55.7444 3.01333C56.1698 3.20889 56.5074 3.45778 56.7571 3.76V3.44C56.7571 3.25333 56.8172 3.09778 56.9374 2.97333C57.0576 2.84889 57.2148 2.78667 57.409 2.78667ZM54.5794 8.82667C55.014 8.82667 55.3976 8.72 55.7306 8.50667C56.0727 8.29333 56.3363 8 56.5212 7.62667C56.7154 7.25333 56.8125 6.83111 56.8125 6.36C56.8125 5.89778 56.7154 5.48 56.5212 5.10667C56.3363 4.73333 56.0727 4.44 55.7306 4.22667C55.3976 4.00444 55.014 3.89333 54.5794 3.89333C54.1447 3.89333 53.7563 4 53.4142 4.21333C53.0812 4.42667 52.8177 4.72 52.6235 5.09333C52.4385 5.46667 52.3461 5.88889 52.3461 6.36C52.3461 6.83111 52.4385 7.25333 52.6235 7.62667C52.8177 8 53.0812 8.29333 53.4142 8.50667C53.7563 8.72 54.1447 8.82667 54.5794 8.82667ZM65.9716 8.76C66.1103 8.90222 66.1797 9.05778 66.1797 9.22667C66.1797 9.40444 66.1057 9.55556 65.9578 9.68C65.819 9.79556 65.6711 9.85333 65.5139 9.85333C65.3104 9.85333 65.1486 9.78222 65.0284 9.64L62.2957 6.85333L61.4634 7.57333V9.22667C61.4634 9.40444 61.3986 9.55556 61.2692 9.68C61.1489 9.80444 60.9964 9.86667 60.8114 9.86667C60.6172 9.86667 60.4554 9.80444 60.3259 9.68C60.2057 9.55556 60.1456 9.40444 60.1456 9.22667V0.64C60.1456 0.462222 60.2057 0.311111 60.3259 0.186667C60.4554 0.0622222 60.6172 0 60.8114 0C60.9964 0 61.1489 0.0622222 61.2692 0.186667C61.3986 0.311111 61.4634 0.462222 61.4634 0.64V6.05333L64.8619 3.05333C65.0191 2.92 65.1809 2.85333 65.3474 2.85333C65.5046 2.85333 65.648 2.92 65.7774 3.05333C65.9069 3.17778 65.9716 3.31111 65.9716 3.45333C65.9716 3.63111 65.8838 3.79111 65.7081 3.93333L63.3083 5.98667L65.9716 8.76ZM73.0712 2.88C73.2654 2.88 73.4226 2.94222 73.5428 3.06667C73.6723 3.19111 73.737 3.34222 73.737 3.52V7.06667C73.737 7.99111 73.4688 8.71111 72.9325 9.22667C72.4053 9.73333 71.6563 9.98667 70.6853 9.98667C69.7235 9.98667 68.9791 9.73333 68.4519 9.22667C67.9248 8.71111 67.6613 7.99111 67.6613 7.06667V3.52C67.6613 3.34222 67.7214 3.19111 67.8416 3.06667C67.9711 2.94222 68.1283 2.88 68.3132 2.88C68.5074 2.88 68.6646 2.94222 68.7849 3.06667C68.9143 3.19111 68.9791 3.34222 68.9791 3.52V7.06667C68.9791 8.23111 69.5478 8.81333 70.6853 8.81333C71.2494 8.81333 71.6794 8.66667 71.9753 8.37333C72.2712 8.08 72.4192 7.64444 72.4192 7.06667V3.52C72.4192 3.34222 72.4793 3.19111 72.5995 3.06667C72.729 2.94222 72.8862 2.88 73.0712 2.88ZM79.328 2.72C79.5685 2.72 79.7765 2.78222 79.9522 2.90667C80.1279 3.02222 80.2158 3.16889 80.2158 3.34667C80.2158 3.56 80.1557 3.72444 80.0355 3.84C79.9245 3.94667 79.7858 4 79.6193 4C79.5361 4 79.4112 3.97333 79.2448 3.92C79.0506 3.85778 78.898 3.82667 78.787 3.82667C78.5003 3.82667 78.2183 3.92444 77.9409 4.12C77.6727 4.30667 77.4507 4.56889 77.275 4.90667C77.1086 5.23556 77.0253 5.60444 77.0253 6.01333V9.22667C77.0253 9.40444 76.9606 9.55556 76.8311 9.68C76.7109 9.80444 76.5537 9.86667 76.3595 9.86667C76.1653 9.86667 76.0081 9.80889 75.8879 9.69333C75.7676 9.56889 75.7075 9.41333 75.7075 9.22667V3.52C75.7075 3.34222 75.7676 3.19111 75.8879 3.06667C76.0173 2.94222 76.1745 2.88 76.3595 2.88C76.5537 2.88 76.7109 2.94222 76.8311 3.06667C76.9606 3.19111 77.0253 3.34222 77.0253 3.52V4.2C77.2288 3.76444 77.534 3.41333 77.9409 3.14667C78.3478 2.87111 78.8101 2.72889 79.328 2.72ZM82.6865 9.22667C82.6865 9.40444 82.6217 9.55556 82.4923 9.68C82.372 9.80444 82.2148 9.86667 82.0206 9.86667C81.8357 9.86667 81.6785 9.80444 81.549 9.68C81.4288 9.55556 81.3687 9.40444 81.3687 9.22667V3.45333C81.3687 3.27556 81.4288 3.12444 81.549 3C81.6785 2.87556 81.8357 2.81333 82.0206 2.81333C82.2148 2.81333 82.372 2.87556 82.4923 3C82.6217 3.12444 82.6865 3.27556 82.6865 3.45333V9.22667ZM82.0206 1.93333C81.7525 1.93333 81.5583 1.88889 81.438 1.8C81.3271 1.70222 81.2716 1.55111 81.2716 1.34667V1.13333C81.2716 0.92 81.3317 0.768889 81.4519 0.68C81.5814 0.591111 81.7756 0.546667 82.0345 0.546667C82.2934 0.546667 82.4784 0.595556 82.5894 0.693333C82.7096 0.782222 82.7697 0.928889 82.7697 1.13333V1.34667C82.7697 1.56 82.7096 1.71111 82.5894 1.8C82.4691 1.88889 82.2796 1.93333 82.0206 1.93333ZM90.9616 6.10667C90.9524 6.26667 90.883 6.40444 90.7536 6.52C90.6241 6.62667 90.4715 6.68 90.2958 6.68H85.413C85.4777 7.32889 85.732 7.84889 86.1759 8.24C86.6291 8.63111 87.1793 8.82667 87.8267 8.82667C88.2705 8.82667 88.6312 8.76444 88.9086 8.64C89.1861 8.51555 89.4311 8.35556 89.6438 8.16C89.7825 8.08 89.9166 8.04 90.0461 8.04C90.2033 8.04 90.3328 8.09333 90.4345 8.2C90.5455 8.30667 90.601 8.43111 90.601 8.57333C90.601 8.76 90.5085 8.92889 90.3235 9.08C90.0554 9.33778 89.6993 9.55555 89.2554 9.73333C88.8115 9.91111 88.3584 10 87.896 10C87.147 10 86.4857 9.84889 85.9124 9.54667C85.3483 9.24444 84.909 8.82222 84.5946 8.28C84.2894 7.73778 84.1368 7.12444 84.1368 6.44C84.1368 5.69333 84.294 5.04 84.6085 4.48C84.9321 3.91111 85.3529 3.47556 85.8708 3.17333C86.3979 2.87111 86.962 2.72 87.5631 2.72C88.155 2.72 88.7098 2.86667 89.2277 3.16C89.7456 3.45333 90.1617 3.85778 90.4761 4.37333C90.7905 4.88889 90.9524 5.46667 90.9616 6.10667ZM87.5631 3.89333C87.0452 3.89333 86.5967 4.03556 86.2176 4.32C85.8384 4.59556 85.5887 5.02667 85.4685 5.61333H89.5606V5.50667C89.5144 5.03556 89.2924 4.64889 88.8948 4.34667C88.5064 4.04444 88.0625 3.89333 87.5631 3.89333ZM96.1122 2.72C96.3527 2.72 96.5607 2.78222 96.7364 2.90667C96.9121 3.02222 97 3.16889 97 3.34667C97 3.56 96.9399 3.72444 96.8197 3.84C96.7087 3.94667 96.57 4 96.4035 4C96.3203 4 96.1954 3.97333 96.029 3.92C95.8348 3.85778 95.6822 3.82667 95.5712 3.82667C95.2846 3.82667 95.0025 3.92444 94.7251 4.12C94.4569 4.30667 94.2349 4.56889 94.0592 4.90667C93.8928 5.23556 93.8095 5.60444 93.8095 6.01333V9.22667C93.8095 9.40444 93.7448 9.55556 93.6153 9.68C93.4951 9.80444 93.3379 9.86667 93.1437 9.86667C92.9495 9.86667 92.7923 9.80889 92.6721 9.69333C92.5519 9.56889 92.4917 9.41333 92.4917 9.22667V3.52C92.4917 3.34222 92.5519 3.19111 92.6721 3.06667C92.8015 2.94222 92.9588 2.88 93.1437 2.88C93.3379 2.88 93.4951 2.94222 93.6153 3.06667C93.7448 3.19111 93.8095 3.34222 93.8095 3.52V4.2C94.013 3.76444 94.3182 3.41333 94.7251 3.14667C95.132 2.87111 95.5943 2.72889 96.1122 2.72Z" fill="black"/>
</svg>
