<svg width="80" height="80" viewBox="0 0 80 80" fill="none" xmlns="http://www.w3.org/2000/svg">
<circle cx="40" cy="40" r="40" fill="white"/>
<path d="M56.7312 26.1408C52.3789 21.9549 45.2983 21.9527 40.9415 26.1364C40.9094 26.1672 30.8326 35.8961 30.8326 35.8961V29.8927C30.8326 29.2824 30.3173 28.7867 29.6827 28.7867C29.0482 28.7867 28.5328 29.2824 28.5328 29.8927V38.5751C28.5328 39.1854 29.0482 39.681 29.6827 39.681H38.7103C39.3449 39.681 39.8603 39.1854 39.8603 38.5751C39.8603 37.9649 39.3449 37.4691 38.7103 37.4691H32.443L42.5564 27.7028L42.5587 27.7006C46.0177 24.3739 51.6436 24.3739 55.1025 27.7006C56.777 29.3111 57.7002 31.4547 57.7002 33.7327C57.7002 36.0107 56.777 38.1543 55.114 39.7537L40.8086 53.5099C40.5933 53.7192 40.3046 53.8337 39.9977 53.8337C39.6908 53.8337 39.4021 53.7192 39.1845 53.5099L26.5903 41.3973C25.7977 40.635 24.8998 39.7714 24.8929 39.7647C23.2184 38.1543 22.2953 36.0107 22.2953 33.7327C22.2953 31.4547 23.2184 29.3111 24.8929 27.7006C27.4333 25.2551 31.8062 24.4951 34.8483 25.969C35.414 26.2421 36.3624 26.9185 36.3624 26.9185C36.8732 27.282 37.5925 27.1785 37.9705 26.6872C38.3484 26.1959 38.2407 25.5041 37.7299 25.1406C37.7299 25.1406 36.6258 24.3541 35.8859 23.995C31.9482 22.0871 26.5239 23.008 23.2711 26.1386C21.1614 28.1677 20 30.8642 20 33.7327C20 36.5989 21.1591 39.2933 23.2642 41.3201C23.2871 41.3422 24.0683 42.0957 24.9685 42.9593L37.5627 55.0719C38.2133 55.6976 39.0791 56.0435 40 56.0435C40.9209 56.0435 41.7867 55.6976 42.4373 55.0719L56.7289 41.3268C58.8386 39.2977 60 36.6011 60 33.7327C60.0023 30.8687 58.8409 28.1699 56.7312 26.1408Z" fill="#FEF0EB"/>
</svg>
