<svg width="322" height="49" viewBox="0 0 322 49" fill="none" xmlns="http://www.w3.org/2000/svg">
<path d="M37.8925 3.2401C33.4026 -1.07814 26.0982 -1.08041 21.6036 3.23556C21.5705 3.26737 11.1751 13.3039 11.1751 13.3039V7.1106C11.1751 6.48106 10.6435 5.96966 9.98886 5.96966C9.3343 5.96966 8.80259 6.48106 8.80259 7.1106V16.0676C8.80259 16.6971 9.3343 17.2084 9.98886 17.2084H19.3019C19.9565 17.2084 20.4882 16.6971 20.4882 16.0676C20.4882 15.438 19.9565 14.9266 19.3019 14.9266H12.8365L23.2696 4.85149L23.272 4.84921C26.8403 1.41735 32.6441 1.41735 36.2124 4.84921C37.9398 6.51059 38.8921 8.722 38.8921 11.072C38.8921 13.4221 37.9398 15.6335 36.2242 17.2835L21.4666 31.4746C21.2444 31.6905 20.9466 31.8086 20.63 31.8086C20.3133 31.8086 20.0156 31.6905 19.7911 31.4746L6.79866 18.9789C5.98102 18.1926 5.0547 17.3016 5.04761 17.2948C3.32017 15.6335 2.36784 13.4221 2.36784 11.072C2.36784 8.722 3.32017 6.51059 5.04761 4.84921C7.6683 2.32645 12.1795 1.54235 15.3177 3.06283C15.9014 3.34465 16.8797 4.04239 16.8797 4.04239C17.4067 4.41739 18.1487 4.31057 18.5386 3.80375C18.9286 3.29692 18.8175 2.58327 18.2905 2.20827C18.2905 2.20827 17.1515 1.3969 16.3882 1.02644C12.326 -0.941772 6.73016 0.00823937 3.37453 3.23783C1.1981 5.33104 0 8.11287 0 11.072C0 14.0289 1.19574 16.8085 3.36744 18.8994C3.39107 18.9222 4.19689 19.6994 5.12559 20.5903L18.118 33.086C18.7891 33.7314 19.6824 34.0882 20.6323 34.0882C21.5823 34.0882 22.4756 33.7314 23.1467 33.086L37.8902 18.9062C40.0666 16.813 41.2647 14.0312 41.2647 11.072C41.2671 8.11746 40.069 5.33331 37.8925 3.2401Z" fill="#FF966E"/>
<path d="M78.282 29.8613C78.7362 30.3461 78.9633 30.8764 78.9633 31.4521C78.9633 32.0581 78.721 32.5732 78.2366 32.9974C77.7824 33.3913 77.2979 33.5883 76.7831 33.5883C76.117 33.5883 75.5871 33.3459 75.1935 32.8611L66.2459 23.3618L63.5208 25.8162V31.4521C63.5208 32.0581 63.3088 32.5732 62.8849 32.9974C62.4913 33.4216 61.9916 33.6337 61.3861 33.6337C60.7502 33.6337 60.2203 33.4216 59.7964 32.9974C59.4027 32.5732 59.2059 32.0581 59.2059 31.4521V2.18165C59.2059 1.57563 59.4027 1.06052 59.7964 0.636314C60.2203 0.212105 60.7502 0 61.3861 0C61.9916 0 62.4913 0.212105 62.8849 0.636314C63.3088 1.06052 63.5208 1.57563 63.5208 2.18165V20.6347L74.6484 10.4083C75.1632 9.95376 75.6931 9.72651 76.2381 9.72651C76.7529 9.72651 77.2222 9.95376 77.6461 10.4083C78.07 10.8325 78.282 11.287 78.282 11.7718C78.282 12.3778 77.9943 12.9232 77.419 13.408L69.5615 20.4075L78.282 29.8613ZM103.162 9.49925C103.798 9.49925 104.312 9.71136 104.706 10.1356C105.13 10.5295 105.342 11.0597 105.342 11.7264V31.4521C105.342 32.0581 105.13 32.5732 104.706 32.9974C104.312 33.4216 103.798 33.6337 103.162 33.6337C102.526 33.6337 102.011 33.4368 101.617 33.0429C101.224 32.6187 101.027 32.0884 101.027 31.4521V30.2704C100.24 31.3309 99.1648 32.2399 97.8023 32.9974C96.4397 33.7246 94.9711 34.0882 93.3966 34.0882C91.3376 34.0882 89.4603 33.558 87.7646 32.4975C86.0993 31.4369 84.7821 29.9673 83.8132 28.0887C82.8745 26.1798 82.4052 24.0436 82.4052 21.6801C82.4052 19.3167 82.8745 17.1956 83.8132 15.317C84.7821 13.408 86.0993 11.9233 87.7646 10.8628C89.43 9.80226 91.2619 9.272 93.2603 9.272C94.8652 9.272 96.3488 9.60531 97.7114 10.2719C99.1043 10.9385 100.209 11.787 101.027 12.8172V11.7264C101.027 11.09 101.224 10.5598 101.617 10.1356C102.011 9.71136 102.526 9.49925 103.162 9.49925ZM93.8962 30.0885C95.3193 30.0885 96.5759 29.7249 97.666 28.9977C98.7863 28.2705 99.6493 27.2706 100.255 25.998C100.891 24.7253 101.209 23.2861 101.209 21.6801C101.209 20.1045 100.891 18.6804 100.255 17.4077C99.6493 16.1351 98.7863 15.1352 97.666 14.408C96.5759 13.6504 95.3193 13.2717 93.8962 13.2717C92.4731 13.2717 91.2013 13.6353 90.081 14.3625C88.9909 15.0897 88.128 16.0896 87.4921 17.3623C86.8865 18.6349 86.5837 20.0742 86.5837 21.6801C86.5837 23.2861 86.8865 24.7253 87.4921 25.998C88.128 27.2706 88.9909 28.2705 90.081 28.9977C91.2013 29.7249 92.4731 30.0885 93.8962 30.0885ZM123.612 9.272C124.399 9.272 125.081 9.4841 125.656 9.90831C126.231 10.3022 126.519 10.8022 126.519 11.4082C126.519 12.1354 126.322 12.696 125.928 13.0899C125.565 13.4535 125.111 13.6353 124.566 13.6353C124.293 13.6353 123.885 13.5444 123.34 13.3626C122.704 13.1505 122.204 13.0444 121.841 13.0444C120.902 13.0444 119.979 13.3777 119.07 14.0444C118.192 14.6807 117.465 15.5745 116.89 16.726C116.345 17.8471 116.072 19.1046 116.072 20.4984V31.4521C116.072 32.0581 115.861 32.5732 115.437 32.9974C115.043 33.4216 114.528 33.6337 113.892 33.6337C113.257 33.6337 112.742 33.4368 112.348 33.0429C111.954 32.6187 111.758 32.0884 111.758 31.4521V11.9991C111.758 11.393 111.954 10.8779 112.348 10.4537C112.772 10.0295 113.287 9.81741 113.892 9.81741C114.528 9.81741 115.043 10.0295 115.437 10.4537C115.861 10.8779 116.072 11.393 116.072 11.9991V14.3171C116.739 12.8323 117.738 11.6355 119.07 10.7264C120.402 9.78711 121.916 9.3023 123.612 9.272ZM157.817 9.40835C163.116 9.40835 165.765 12.7111 165.765 19.3167V31.4521C165.765 32.0884 165.568 32.6187 165.175 33.0429C164.781 33.4368 164.266 33.6337 163.63 33.6337C162.994 33.6337 162.465 33.4216 162.041 32.9974C161.647 32.5732 161.45 32.0581 161.45 31.4521V19.3621C161.45 15.3927 159.785 13.408 156.454 13.408C155.273 13.408 154.198 13.6807 153.229 14.2262C152.291 14.7413 151.549 15.4533 151.004 16.3624C150.489 17.2714 150.232 18.2713 150.232 19.3621V31.4521C150.232 32.0581 150.02 32.5732 149.596 32.9974C149.202 33.4216 148.687 33.6337 148.052 33.6337C147.416 33.6337 146.901 33.4368 146.507 33.0429C146.114 32.6187 145.917 32.0884 145.917 31.4521V19.3167C145.917 17.5289 145.538 16.1048 144.781 15.0443C144.024 13.9535 142.768 13.408 141.012 13.408C139.225 13.408 137.741 13.9838 136.56 15.1352C135.41 16.2563 134.835 17.6501 134.835 19.3167V31.4521C134.835 32.0581 134.623 32.5732 134.199 32.9974C133.805 33.4216 133.29 33.6337 132.654 33.6337C132.019 33.6337 131.504 33.4368 131.11 33.0429C130.717 32.6187 130.52 32.0884 130.52 31.4521V11.9991C130.52 11.393 130.717 10.8779 131.11 10.4537C131.534 10.0295 132.049 9.81741 132.654 9.81741C133.29 9.81741 133.805 10.0295 134.199 10.4537C134.623 10.8779 134.835 11.393 134.835 11.9991V13.5898C135.622 12.4081 136.666 11.4233 137.968 10.6355C139.301 9.81741 140.739 9.40835 142.283 9.40835C146.038 9.40835 148.475 11.0749 149.596 14.408C150.262 13.1353 151.367 11.9839 152.911 10.9537C154.456 9.92346 156.091 9.40835 157.817 9.40835ZM191.516 9.49925C192.152 9.49925 192.666 9.71136 193.06 10.1356C193.484 10.5295 193.696 11.0597 193.696 11.7264V31.4521C193.696 32.0581 193.484 32.5732 193.06 32.9974C192.666 33.4216 192.152 33.6337 191.516 33.6337C190.88 33.6337 190.365 33.4368 189.971 33.0429C189.578 32.6187 189.381 32.0884 189.381 31.4521V30.2704C188.594 31.3309 187.519 32.2399 186.156 32.9974C184.794 33.7246 183.326 34.0882 181.751 34.0882C179.692 34.0882 177.815 33.558 176.119 32.4975C174.454 31.4369 173.137 29.9673 172.168 28.0887C171.229 26.1798 170.76 24.0436 170.76 21.6801C170.76 19.3167 171.229 17.1956 172.168 15.317C173.137 13.408 174.454 11.9233 176.119 10.8628C177.785 9.80226 179.616 9.272 181.615 9.272C183.22 9.272 184.703 9.60531 186.065 10.2719C187.458 10.9385 188.564 11.787 189.381 12.8172V11.7264C189.381 11.09 189.578 10.5598 189.971 10.1356C190.365 9.71136 190.88 9.49925 191.516 9.49925ZM182.251 30.0885C183.674 30.0885 184.93 29.7249 186.02 28.9977C187.14 28.2705 188.003 27.2706 188.609 25.998C189.245 24.7253 189.563 23.2861 189.563 21.6801C189.563 20.1045 189.245 18.6804 188.609 17.4077C188.003 16.1351 187.14 15.1352 186.02 14.408C184.93 13.6504 183.674 13.2717 182.251 13.2717C180.828 13.2717 179.556 13.6353 178.436 14.3625C177.345 15.0897 176.483 16.0896 175.847 17.3623C175.241 18.6349 174.938 20.0742 174.938 21.6801C174.938 23.2861 175.241 24.7253 175.847 25.998C176.483 27.2706 177.345 28.2705 178.436 28.9977C179.556 29.7249 180.828 30.0885 182.251 30.0885ZM219.552 29.8613C220.006 30.3461 220.233 30.8764 220.233 31.4521C220.233 32.0581 219.991 32.5732 219.507 32.9974C219.052 33.3913 218.568 33.5883 218.053 33.5883C217.387 33.5883 216.857 33.3459 216.463 32.8611L207.516 23.3618L204.791 25.8162V31.4521C204.791 32.0581 204.579 32.5732 204.155 32.9974C203.761 33.4216 203.262 33.6337 202.656 33.6337C202.02 33.6337 201.49 33.4216 201.066 32.9974C200.673 32.5732 200.476 32.0581 200.476 31.4521V2.18165C200.476 1.57563 200.673 1.06052 201.066 0.636314C201.49 0.212105 202.02 0 202.656 0C203.262 0 203.761 0.212105 204.155 0.636314C204.579 1.06052 204.791 1.57563 204.791 2.18165V20.6347L215.918 10.4083C216.433 9.95376 216.963 9.72651 217.508 9.72651C218.023 9.72651 218.492 9.95376 218.916 10.4083C219.34 10.8325 219.552 11.287 219.552 11.7718C219.552 12.3778 219.264 12.9232 218.689 13.408L210.832 20.4075L219.552 29.8613ZM242.798 9.81741C243.434 9.81741 243.948 10.0295 244.342 10.4537C244.766 10.8779 244.978 11.393 244.978 11.9991V24.089C244.978 27.2403 244.1 29.6946 242.344 31.4521C240.618 33.1792 238.165 34.0428 234.986 34.0428C231.837 34.0428 229.399 33.1792 227.673 31.4521C225.947 29.6946 225.084 27.2403 225.084 24.089V11.9991C225.084 11.393 225.281 10.8779 225.675 10.4537C226.099 10.0295 226.613 9.81741 227.219 9.81741C227.855 9.81741 228.37 10.0295 228.763 10.4537C229.187 10.8779 229.399 11.393 229.399 11.9991V24.089C229.399 28.0584 231.261 30.0431 234.986 30.0431C236.833 30.0431 238.241 29.5431 239.21 28.5432C240.179 27.5433 240.663 26.0586 240.663 24.089V11.9991C240.663 11.393 240.86 10.8779 241.254 10.4537C241.677 10.0295 242.192 9.81741 242.798 9.81741ZM263.284 9.272C264.072 9.272 264.753 9.4841 265.328 9.90831C265.904 10.3022 266.191 10.8022 266.191 11.4082C266.191 12.1354 265.994 12.696 265.601 13.0899C265.237 13.4535 264.783 13.6353 264.238 13.6353C263.966 13.6353 263.557 13.5444 263.012 13.3626C262.376 13.1505 261.876 13.0444 261.513 13.0444C260.574 13.0444 259.651 13.3777 258.742 14.0444C257.864 14.6807 257.138 15.5745 256.562 16.726C256.017 17.8471 255.745 19.1046 255.745 20.4984V31.4521C255.745 32.0581 255.533 32.5732 255.109 32.9974C254.715 33.4216 254.201 33.6337 253.565 33.6337C252.929 33.6337 252.414 33.4368 252.02 33.0429C251.627 32.6187 251.43 32.0884 251.43 31.4521V11.9991C251.43 11.393 251.627 10.8779 252.02 10.4537C252.444 10.0295 252.959 9.81741 253.565 9.81741C254.201 9.81741 254.715 10.0295 255.109 10.4537C255.533 10.8779 255.745 11.393 255.745 11.9991V14.3171C256.411 12.8323 257.41 11.6355 258.742 10.7264C260.075 9.78711 261.589 9.3023 263.284 9.272ZM274.281 31.4521C274.281 32.0581 274.069 32.5732 273.645 32.9974C273.251 33.4216 272.737 33.6337 272.101 33.6337C271.495 33.6337 270.98 33.4216 270.556 32.9974C270.163 32.5732 269.966 32.0581 269.966 31.4521V11.7718C269.966 11.1658 270.163 10.6507 270.556 10.2265C270.98 9.80226 271.495 9.59016 272.101 9.59016C272.737 9.59016 273.251 9.80226 273.645 10.2265C274.069 10.6507 274.281 11.1658 274.281 11.7718V31.4521ZM272.101 6.59039C271.223 6.59039 270.587 6.43889 270.193 6.13588C269.83 5.80257 269.648 5.28746 269.648 4.59055V3.86333C269.648 3.13612 269.845 2.62101 270.239 2.318C270.662 2.01499 271.298 1.86349 272.146 1.86349C272.994 1.86349 273.6 2.03014 273.963 2.36345C274.357 2.66646 274.553 3.16642 274.553 3.86333V4.59055C274.553 5.31776 274.357 5.83288 273.963 6.13588C273.569 6.43889 272.949 6.59039 272.101 6.59039ZM301.376 20.8165C301.346 21.362 301.119 21.8316 300.695 22.2255C300.271 22.5891 299.771 22.7709 299.196 22.7709H283.208C283.42 24.9829 284.253 26.7555 285.706 28.0887C287.19 29.4219 288.992 30.0885 291.111 30.0885C292.565 30.0885 293.745 29.8764 294.654 29.4522C295.562 29.028 296.365 28.4826 297.061 27.816C297.515 27.5433 297.954 27.4069 298.378 27.4069C298.893 27.4069 299.317 27.5887 299.65 27.9524C300.013 28.316 300.195 28.7402 300.195 29.225C300.195 29.8613 299.892 30.437 299.287 30.9521C298.409 31.8308 297.243 32.5732 295.789 33.1792C294.336 33.7852 292.852 34.0882 291.338 34.0882C288.886 34.0882 286.721 33.5731 284.843 32.5429C282.996 31.5127 281.558 30.0734 280.529 28.2251C279.529 26.3767 279.03 24.286 279.03 21.9528C279.03 19.4076 279.544 17.1805 280.574 15.2715C281.634 13.3323 283.011 11.8476 284.707 10.8173C286.433 9.78711 288.28 9.272 290.248 9.272C292.186 9.272 294.003 9.77196 295.699 10.7719C297.394 11.7718 298.757 13.1505 299.786 14.9079C300.816 16.6654 301.346 18.6349 301.376 20.8165ZM290.248 13.2717C288.553 13.2717 287.084 13.7565 285.843 14.7261C284.601 15.6654 283.784 17.135 283.39 19.1349H296.789V18.7713C296.637 17.1653 295.91 15.8472 294.608 14.817C293.337 13.7868 291.883 13.2717 290.248 13.2717ZM318.24 9.272C319.028 9.272 319.709 9.4841 320.284 9.90831C320.859 10.3022 321.147 10.8022 321.147 11.4082C321.147 12.1354 320.95 12.696 320.557 13.0899C320.193 13.4535 319.739 13.6353 319.194 13.6353C318.922 13.6353 318.513 13.5444 317.968 13.3626C317.332 13.1505 316.832 13.0444 316.469 13.0444C315.53 13.0444 314.607 13.3777 313.698 14.0444C312.82 14.6807 312.094 15.5745 311.518 16.726C310.973 17.8471 310.701 19.1046 310.701 20.4984V31.4521C310.701 32.0581 310.489 32.5732 310.065 32.9974C309.671 33.4216 309.156 33.6337 308.521 33.6337C307.885 33.6337 307.37 33.4368 306.976 33.0429C306.583 32.6187 306.386 32.0884 306.386 31.4521V11.9991C306.386 11.393 306.583 10.8779 306.976 10.4537C307.4 10.0295 307.915 9.81741 308.521 9.81741C309.156 9.81741 309.671 10.0295 310.065 10.4537C310.489 10.8779 310.701 11.393 310.701 11.9991V14.3171C311.367 12.8323 312.366 11.6355 313.698 10.7264C315.031 9.78711 316.545 9.3023 318.24 9.272Z" fill="#FF966E"/>
<path d="M207.104 39.964L204.872 46H203.936L202.208 41.284L200.492 46H199.556L197.324 39.964H198.344L200.048 44.836L201.812 39.964H202.664L204.404 44.848L206.144 39.964H207.104ZM208.366 39.964H209.338V46H208.366V39.964ZM209.458 37.408V38.512H208.27V37.408H209.458ZM214.033 39.82C214.233 39.82 214.417 39.844 214.585 39.892L214.561 40.78C214.377 40.716 214.165 40.684 213.925 40.684C213.341 40.684 212.905 40.868 212.617 41.236C212.337 41.596 212.197 42.036 212.197 42.556V46H211.225V41.656C211.225 41.032 211.193 40.468 211.129 39.964H212.053L212.149 41.08C212.301 40.672 212.545 40.36 212.881 40.144C213.217 39.928 213.601 39.82 214.033 39.82ZM220.742 46.084C219.726 46.084 218.922 45.824 218.33 45.304L218.654 44.584C218.982 44.84 219.314 45.024 219.65 45.136C219.986 45.248 220.362 45.304 220.778 45.304C221.234 45.304 221.578 45.228 221.81 45.076C222.05 44.916 222.17 44.688 222.17 44.392C222.17 44.152 222.09 43.96 221.93 43.816C221.77 43.672 221.506 43.56 221.138 43.48L220.118 43.24C219.614 43.128 219.222 42.928 218.942 42.64C218.67 42.352 218.534 42.008 218.534 41.608C218.534 41.08 218.746 40.652 219.17 40.324C219.594 39.988 220.154 39.82 220.85 39.82C221.274 39.82 221.674 39.888 222.05 40.024C222.426 40.16 222.742 40.356 222.998 40.612L222.674 41.32C222.106 40.848 221.498 40.612 220.85 40.612C220.418 40.612 220.082 40.696 219.842 40.864C219.61 41.024 219.494 41.252 219.494 41.548C219.494 41.796 219.566 41.992 219.71 42.136C219.862 42.28 220.102 42.392 220.43 42.472L221.45 42.724C222.01 42.852 222.426 43.052 222.698 43.324C222.97 43.588 223.106 43.936 223.106 44.368C223.106 44.888 222.894 45.304 222.47 45.616C222.046 45.928 221.47 46.084 220.742 46.084ZM229.707 42.952H225.279C225.287 43.72 225.463 44.3 225.807 44.692C226.159 45.084 226.667 45.28 227.331 45.28C228.035 45.28 228.683 45.044 229.275 44.572L229.599 45.28C229.335 45.528 228.995 45.724 228.579 45.868C228.171 46.012 227.751 46.084 227.319 46.084C226.375 46.084 225.635 45.808 225.099 45.256C224.563 44.696 224.295 43.932 224.295 42.964C224.295 42.348 224.415 41.804 224.655 41.332C224.895 40.852 225.231 40.48 225.663 40.216C226.095 39.952 226.587 39.82 227.139 39.82C227.939 39.82 228.567 40.084 229.023 40.612C229.479 41.132 229.707 41.852 229.707 42.772V42.952ZM227.151 40.576C226.647 40.576 226.235 40.728 225.915 41.032C225.603 41.336 225.403 41.764 225.315 42.316H228.831C228.783 41.748 228.615 41.316 228.327 41.02C228.047 40.724 227.655 40.576 227.151 40.576ZM234.194 39.82C235.642 39.82 236.366 40.616 236.366 42.208V46H235.394V42.256C235.394 41.696 235.282 41.288 235.058 41.032C234.834 40.768 234.482 40.636 234.002 40.636C233.442 40.636 232.994 40.808 232.658 41.152C232.322 41.496 232.154 41.96 232.154 42.544V46H231.182V37.168H232.154V40.948C232.346 40.58 232.618 40.3 232.97 40.108C233.33 39.916 233.738 39.82 234.194 39.82ZM243.254 42.952H238.826C238.834 43.72 239.01 44.3 239.354 44.692C239.706 45.084 240.214 45.28 240.878 45.28C241.582 45.28 242.23 45.044 242.822 44.572L243.146 45.28C242.882 45.528 242.542 45.724 242.126 45.868C241.718 46.012 241.298 46.084 240.866 46.084C239.922 46.084 239.182 45.808 238.646 45.256C238.11 44.696 237.842 43.932 237.842 42.964C237.842 42.348 237.962 41.804 238.202 41.332C238.442 40.852 238.778 40.48 239.21 40.216C239.642 39.952 240.134 39.82 240.686 39.82C241.486 39.82 242.114 40.084 242.57 40.612C243.026 41.132 243.254 41.852 243.254 42.772V42.952ZM240.698 40.576C240.194 40.576 239.782 40.728 239.462 41.032C239.15 41.336 238.95 41.764 238.862 42.316H242.378C242.33 41.748 242.162 41.316 241.874 41.02C241.594 40.724 241.202 40.576 240.698 40.576ZM247.741 39.82C249.189 39.82 249.913 40.616 249.913 42.208V46H248.941V42.256C248.941 41.696 248.829 41.288 248.605 41.032C248.381 40.768 248.029 40.636 247.549 40.636C246.989 40.636 246.541 40.808 246.205 41.152C245.869 41.496 245.701 41.96 245.701 42.544V46H244.729V41.656C244.729 41.032 244.697 40.468 244.633 39.964H245.557L245.653 41.044C245.837 40.652 246.113 40.352 246.481 40.144C246.849 39.928 247.269 39.82 247.741 39.82ZM262.077 37.456V46H261.093V42.076H255.969V46H254.997V37.456H255.969V41.248H261.093V37.456H262.077ZM264.065 39.964H265.037V46H264.065V39.964ZM265.157 37.408V38.512H263.969V37.408H265.157ZM266.924 37.168H267.896V46H266.924V37.168ZM272.1 37.96C271.78 37.96 271.528 38.052 271.344 38.236C271.168 38.412 271.08 38.72 271.08 39.16V39.964H272.556V40.732H271.08V46H270.108V40.732H268.932V39.964H270.108V39.04C270.108 38.408 270.264 37.932 270.576 37.612C270.896 37.284 271.34 37.12 271.908 37.12C272.188 37.12 272.46 37.156 272.724 37.228V38.056C272.5 37.992 272.292 37.96 272.1 37.96ZM278.82 42.952H274.392C274.4 43.72 274.576 44.3 274.92 44.692C275.272 45.084 275.78 45.28 276.444 45.28C277.148 45.28 277.796 45.044 278.388 44.572L278.712 45.28C278.448 45.528 278.108 45.724 277.692 45.868C277.284 46.012 276.864 46.084 276.432 46.084C275.488 46.084 274.748 45.808 274.212 45.256C273.676 44.696 273.408 43.932 273.408 42.964C273.408 42.348 273.528 41.804 273.768 41.332C274.008 40.852 274.344 40.48 274.776 40.216C275.208 39.952 275.7 39.82 276.252 39.82C277.052 39.82 277.68 40.084 278.136 40.612C278.592 41.132 278.82 41.852 278.82 42.772V42.952ZM276.264 40.576C275.76 40.576 275.348 40.728 275.028 41.032C274.716 41.336 274.516 41.764 274.428 42.316H277.944C277.896 41.748 277.728 41.316 277.44 41.02C277.16 40.724 276.768 40.576 276.264 40.576ZM288.74 39.964V46H287.78V44.908C287.604 45.284 287.336 45.576 286.976 45.784C286.624 45.984 286.212 46.084 285.74 46.084C285.204 46.084 284.732 45.956 284.324 45.7C283.924 45.444 283.612 45.084 283.388 44.62C283.172 44.148 283.064 43.6 283.064 42.976C283.064 42.352 283.176 41.804 283.4 41.332C283.624 40.852 283.936 40.48 284.336 40.216C284.744 39.952 285.212 39.82 285.74 39.82C286.212 39.82 286.624 39.924 286.976 40.132C287.328 40.34 287.596 40.632 287.78 41.008V39.964H288.74ZM285.932 45.28C286.524 45.28 286.98 45.08 287.3 44.68C287.62 44.272 287.78 43.696 287.78 42.952C287.78 42.208 287.62 41.636 287.3 41.236C286.98 40.836 286.524 40.636 285.932 40.636C285.34 40.636 284.876 40.844 284.54 41.26C284.212 41.668 284.048 42.24 284.048 42.976C284.048 43.712 284.212 44.28 284.54 44.68C284.868 45.08 285.332 45.28 285.932 45.28ZM293.632 39.82C295.08 39.82 295.804 40.616 295.804 42.208V46H294.832V42.256C294.832 41.696 294.72 41.288 294.496 41.032C294.272 40.768 293.92 40.636 293.44 40.636C292.88 40.636 292.432 40.808 292.096 41.152C291.76 41.496 291.592 41.96 291.592 42.544V46H290.62V41.656C290.62 41.032 290.588 40.468 290.524 39.964H291.448L291.544 41.044C291.728 40.652 292.004 40.352 292.372 40.144C292.74 39.928 293.16 39.82 293.632 39.82ZM302.955 37.168V46H301.995V44.908C301.819 45.284 301.551 45.576 301.191 45.784C300.839 45.984 300.427 46.084 299.955 46.084C299.427 46.084 298.959 45.952 298.551 45.688C298.151 45.424 297.839 45.056 297.615 44.584C297.391 44.104 297.279 43.552 297.279 42.928C297.279 42.304 297.387 41.76 297.603 41.296C297.827 40.824 298.143 40.46 298.551 40.204C298.959 39.948 299.427 39.82 299.955 39.82C300.427 39.82 300.839 39.924 301.191 40.132C301.543 40.332 301.807 40.616 301.983 40.984V37.168H302.955ZM300.147 45.28C300.739 45.28 301.195 45.08 301.515 44.68C301.835 44.272 301.995 43.696 301.995 42.952C301.995 42.216 301.835 41.648 301.515 41.248C301.195 40.84 300.739 40.636 300.147 40.636C299.555 40.636 299.091 40.836 298.755 41.236C298.427 41.636 298.263 42.2 298.263 42.928C298.263 43.672 298.427 44.252 298.755 44.668C299.091 45.076 299.555 45.28 300.147 45.28ZM309.886 42.952H305.458C305.466 43.72 305.642 44.3 305.986 44.692C306.338 45.084 306.846 45.28 307.51 45.28C308.214 45.28 308.862 45.044 309.454 44.572L309.778 45.28C309.514 45.528 309.174 45.724 308.758 45.868C308.35 46.012 307.93 46.084 307.498 46.084C306.554 46.084 305.814 45.808 305.278 45.256C304.742 44.696 304.474 43.932 304.474 42.964C304.474 42.348 304.594 41.804 304.834 41.332C305.074 40.852 305.41 40.48 305.842 40.216C306.274 39.952 306.766 39.82 307.318 39.82C308.118 39.82 308.746 40.084 309.202 40.612C309.658 41.132 309.886 41.852 309.886 42.772V42.952ZM307.33 40.576C306.826 40.576 306.414 40.728 306.094 41.032C305.782 41.336 305.582 41.764 305.494 42.316H309.01C308.962 41.748 308.794 41.316 308.506 41.02C308.226 40.724 307.834 40.576 307.33 40.576ZM314.17 39.82C314.37 39.82 314.554 39.844 314.722 39.892L314.698 40.78C314.514 40.716 314.302 40.684 314.062 40.684C313.478 40.684 313.042 40.868 312.754 41.236C312.474 41.596 312.334 42.036 312.334 42.556V46H311.362V41.656C311.362 41.032 311.33 40.468 311.266 39.964H312.19L312.286 41.08C312.438 40.672 312.682 40.36 313.018 40.144C313.354 39.928 313.738 39.82 314.17 39.82ZM317.691 46.084C316.675 46.084 315.871 45.824 315.279 45.304L315.603 44.584C315.931 44.84 316.263 45.024 316.599 45.136C316.935 45.248 317.311 45.304 317.727 45.304C318.183 45.304 318.527 45.228 318.759 45.076C318.999 44.916 319.119 44.688 319.119 44.392C319.119 44.152 319.039 43.96 318.879 43.816C318.719 43.672 318.455 43.56 318.087 43.48L317.067 43.24C316.563 43.128 316.171 42.928 315.891 42.64C315.619 42.352 315.483 42.008 315.483 41.608C315.483 41.08 315.695 40.652 316.119 40.324C316.543 39.988 317.103 39.82 317.799 39.82C318.223 39.82 318.623 39.888 318.999 40.024C319.375 40.16 319.691 40.356 319.947 40.612L319.623 41.32C319.055 40.848 318.447 40.612 317.799 40.612C317.367 40.612 317.031 40.696 316.791 40.864C316.559 41.024 316.443 41.252 316.443 41.548C316.443 41.796 316.515 41.992 316.659 42.136C316.811 42.28 317.051 42.392 317.379 42.472L318.399 42.724C318.959 42.852 319.375 43.052 319.647 43.324C319.919 43.588 320.055 43.936 320.055 44.368C320.055 44.888 319.843 45.304 319.419 45.616C318.995 45.928 318.419 46.084 317.691 46.084Z" fill="#FF966E"/>
</svg>
