<svg width="593" height="841" viewBox="0 0 593 841" fill="none" xmlns="http://www.w3.org/2000/svg">
<rect x="-2" width="595" height="841" fill="white"/>
<rect x="28" y="58" width="535" height="153" fill="#FEF0EB"/>
<path d="M49.1204 16.806C46.6179 14.3991 42.5465 14.3978 40.0414 16.8034C40.0229 16.8212 34.2288 22.4153 34.2288 22.4153V18.9633C34.2288 18.6124 33.9324 18.3274 33.5676 18.3274C33.2027 18.3274 32.9064 18.6124 32.9064 18.9633V23.9557C32.9064 24.3066 33.2027 24.5916 33.5676 24.5916H38.7584C39.1233 24.5916 39.4197 24.3066 39.4197 23.9557C39.4197 23.6048 39.1233 23.3197 38.7584 23.3197H35.1547L40.9699 17.7041L40.9713 17.7028C42.9601 15.79 46.1951 15.79 48.1839 17.7028C49.1468 18.6289 49.6776 19.8614 49.6776 21.1713C49.6776 22.4811 49.1468 23.7137 48.1905 24.6334L39.965 32.5432C39.8411 32.6636 39.6752 32.7294 39.4987 32.7294C39.3222 32.7294 39.1562 32.6636 39.0311 32.5432L31.7894 25.5784C31.3337 25.1401 30.8174 24.6435 30.8134 24.6397C29.8506 23.7137 29.3198 22.4811 29.3198 21.1713C29.3198 19.8614 29.8506 18.6289 30.8134 17.7028C32.2741 16.2967 34.7886 15.8597 36.5378 16.7071C36.8631 16.8642 37.4084 17.2531 37.4084 17.2531C37.7021 17.4622 38.1157 17.4026 38.333 17.1201C38.5503 16.8376 38.4884 16.4399 38.1947 16.2308C38.1947 16.2308 37.5598 15.7786 37.1344 15.5721C34.8702 14.4751 31.7512 15.0046 29.8809 16.8047C28.6678 17.9714 28 19.5219 28 21.1713C28 22.8194 28.6665 24.3687 29.8769 25.5341C29.8901 25.5468 30.3393 25.98 30.8569 26.4766L38.0986 33.4414C38.4726 33.8011 38.9705 34 39.5 34C40.0295 34 40.5274 33.8011 40.9014 33.4414L49.1191 25.5379C50.3322 24.3712 51 22.8207 51 21.1713C51.0013 19.5245 50.3335 17.9727 49.1204 16.806Z" fill="#FF966E"/>
<path d="M71.6326 31.644C71.8857 31.9142 72.0123 32.2098 72.0123 32.5307C72.0123 32.8684 71.8773 33.1556 71.6072 33.392C71.3541 33.6116 71.084 33.7213 70.7971 33.7213C70.4258 33.7213 70.1305 33.5862 69.9111 33.316L64.9239 28.0213L63.405 29.3893V32.5307C63.405 32.8684 63.2868 33.1556 63.0506 33.392C62.8312 33.6284 62.5527 33.7467 62.2151 33.7467C61.8607 33.7467 61.5654 33.6284 61.3291 33.392C61.1097 33.1556 61 32.8684 61 32.5307V16.216C61 15.8782 61.1097 15.5911 61.3291 15.3547C61.5654 15.1182 61.8607 15 62.2151 15C62.5527 15 62.8312 15.1182 63.0506 15.3547C63.2868 15.5911 63.405 15.8782 63.405 16.216V26.5013L69.6073 20.8013C69.8942 20.548 70.1896 20.4213 70.4934 20.4213C70.7803 20.4213 71.0419 20.548 71.2781 20.8013C71.5144 21.0378 71.6326 21.2911 71.6326 21.5613C71.6326 21.8991 71.4722 22.2031 71.1516 22.4733L66.772 26.3747L71.6326 31.644ZM85.4999 20.2947C85.8544 20.2947 86.1413 20.4129 86.3607 20.6493C86.597 20.8689 86.7151 21.1644 86.7151 21.536V32.5307C86.7151 32.8684 86.597 33.1556 86.3607 33.392C86.1413 33.6284 85.8544 33.7467 85.4999 33.7467C85.1455 33.7467 84.8586 33.6369 84.6392 33.4173C84.4198 33.1809 84.3101 32.8853 84.3101 32.5307V31.872C83.8713 32.4631 83.2722 32.9698 82.5127 33.392C81.7532 33.7973 80.9347 34 80.0571 34C78.9095 34 77.8631 33.7044 76.918 33.1133C75.9897 32.5222 75.2556 31.7031 74.7155 30.656C74.1923 29.592 73.9307 28.4013 73.9307 27.084C73.9307 25.7667 74.1923 24.5844 74.7155 23.5373C75.2556 22.4733 75.9897 21.6458 76.918 21.0547C77.8462 20.4636 78.8673 20.168 79.9811 20.168C80.8756 20.168 81.7026 20.3538 82.4621 20.7253C83.2384 21.0969 83.8544 21.5698 84.3101 22.144V21.536C84.3101 21.1813 84.4198 20.8858 84.6392 20.6493C84.8586 20.4129 85.1455 20.2947 85.4999 20.2947ZM80.3356 31.7707C81.1288 31.7707 81.8292 31.568 82.4368 31.1627C83.0612 30.7573 83.5422 30.2 83.8797 29.4907C84.2342 28.7813 84.4114 27.9791 84.4114 27.084C84.4114 26.2058 84.2342 25.412 83.8797 24.7027C83.5422 23.9933 83.0612 23.436 82.4368 23.0307C81.8292 22.6084 81.1288 22.3973 80.3356 22.3973C79.5423 22.3973 78.8335 22.6 78.2091 23.0053C77.6015 23.4107 77.1205 23.968 76.7661 24.6773C76.4285 25.3867 76.2598 26.1889 76.2598 27.084C76.2598 27.9791 76.4285 28.7813 76.7661 29.4907C77.1205 30.2 77.6015 30.7573 78.2091 31.1627C78.8335 31.568 79.5423 31.7707 80.3356 31.7707ZM96.8985 20.168C97.3373 20.168 97.717 20.2862 98.0377 20.5227C98.3584 20.7422 98.5187 21.0209 98.5187 21.3587C98.5187 21.764 98.409 22.0764 98.1896 22.296C97.9871 22.4987 97.7339 22.6 97.4301 22.6C97.2782 22.6 97.0504 22.5493 96.7466 22.448C96.3922 22.3298 96.1137 22.2707 95.9112 22.2707C95.388 22.2707 94.8733 22.4564 94.3669 22.828C93.8775 23.1827 93.4725 23.6809 93.1518 24.3227C92.848 24.9476 92.6961 25.6484 92.6961 26.4253V32.5307C92.6961 32.8684 92.578 33.1556 92.3417 33.392C92.1223 33.6284 91.8354 33.7467 91.481 33.7467C91.1266 33.7467 90.8396 33.6369 90.6202 33.4173C90.4008 33.1809 90.2911 32.8853 90.2911 32.5307V21.688C90.2911 21.3502 90.4008 21.0631 90.6202 20.8267C90.8565 20.5902 91.1434 20.472 91.481 20.472C91.8354 20.472 92.1223 20.5902 92.3417 20.8267C92.578 21.0631 92.6961 21.3502 92.6961 21.688V22.98C93.0674 22.1524 93.6244 21.4853 94.3669 20.9787C95.1095 20.4551 95.9534 20.1849 96.8985 20.168ZM115.963 20.244C118.917 20.244 120.394 22.0849 120.394 25.7667V32.5307C120.394 32.8853 120.284 33.1809 120.064 33.4173C119.845 33.6369 119.558 33.7467 119.204 33.7467C118.849 33.7467 118.554 33.6284 118.318 33.392C118.098 33.1556 117.989 32.8684 117.989 32.5307V25.792C117.989 23.5796 117.06 22.4733 115.204 22.4733C114.546 22.4733 113.947 22.6253 113.406 22.9293C112.883 23.2164 112.47 23.6133 112.166 24.12C111.879 24.6267 111.736 25.184 111.736 25.792V32.5307C111.736 32.8684 111.617 33.1556 111.381 33.392C111.162 33.6284 110.875 33.7467 110.52 33.7467C110.166 33.7467 109.879 33.6369 109.66 33.4173C109.44 33.1809 109.331 32.8853 109.331 32.5307V25.7667C109.331 24.7702 109.12 23.9764 108.698 23.3853C108.276 22.7773 107.575 22.4733 106.597 22.4733C105.601 22.4733 104.774 22.7942 104.116 23.436C103.474 24.0609 103.154 24.8378 103.154 25.7667V32.5307C103.154 32.8684 103.036 33.1556 102.799 33.392C102.58 33.6284 102.293 33.7467 101.938 33.7467C101.584 33.7467 101.297 33.6369 101.078 33.4173C100.858 33.1809 100.749 32.8853 100.749 32.5307V21.688C100.749 21.3502 100.858 21.0631 101.078 20.8267C101.314 20.5902 101.601 20.472 101.938 20.472C102.293 20.472 102.58 20.5902 102.799 20.8267C103.036 21.0631 103.154 21.3502 103.154 21.688V22.5747C103.592 21.916 104.175 21.3671 104.9 20.928C105.643 20.472 106.445 20.244 107.305 20.244C109.398 20.244 110.757 21.1729 111.381 23.0307C111.753 22.3213 112.369 21.6796 113.229 21.1053C114.09 20.5311 115.001 20.244 115.963 20.244ZM134.746 20.2947C135.101 20.2947 135.388 20.4129 135.607 20.6493C135.843 20.8689 135.962 21.1644 135.962 21.536V32.5307C135.962 32.8684 135.843 33.1556 135.607 33.392C135.388 33.6284 135.101 33.7467 134.746 33.7467C134.392 33.7467 134.105 33.6369 133.886 33.4173C133.666 33.1809 133.557 32.8853 133.557 32.5307V31.872C133.118 32.4631 132.519 32.9698 131.759 33.392C131 33.7973 130.181 34 129.304 34C128.156 34 127.11 33.7044 126.165 33.1133C125.237 32.5222 124.502 31.7031 123.962 30.656C123.439 29.592 123.178 28.4013 123.178 27.084C123.178 25.7667 123.439 24.5844 123.962 23.5373C124.502 22.4733 125.237 21.6458 126.165 21.0547C127.093 20.4636 128.114 20.168 129.228 20.168C130.122 20.168 130.949 20.3538 131.709 20.7253C132.485 21.0969 133.101 21.5698 133.557 22.144V21.536C133.557 21.1813 133.666 20.8858 133.886 20.6493C134.105 20.4129 134.392 20.2947 134.746 20.2947ZM129.582 31.7707C130.376 31.7707 131.076 31.568 131.683 31.1627C132.308 30.7573 132.789 30.2 133.126 29.4907C133.481 28.7813 133.658 27.9791 133.658 27.084C133.658 26.2058 133.481 25.412 133.126 24.7027C132.789 23.9933 132.308 23.436 131.683 23.0307C131.076 22.6084 130.376 22.3973 129.582 22.3973C128.789 22.3973 128.08 22.6 127.456 23.0053C126.848 23.4107 126.367 23.968 126.013 24.6773C125.675 25.3867 125.507 26.1889 125.507 27.084C125.507 27.9791 125.675 28.7813 126.013 29.4907C126.367 30.2 126.848 30.7573 127.456 31.1627C128.08 31.568 128.789 31.7707 129.582 31.7707ZM150.373 31.644C150.626 31.9142 150.753 32.2098 150.753 32.5307C150.753 32.8684 150.618 33.1556 150.348 33.392C150.095 33.6116 149.825 33.7213 149.538 33.7213C149.167 33.7213 148.871 33.5862 148.652 33.316L143.665 28.0213L142.146 29.3893V32.5307C142.146 32.8684 142.028 33.1556 141.791 33.392C141.572 33.6284 141.293 33.7467 140.956 33.7467C140.601 33.7467 140.306 33.6284 140.07 33.392C139.85 33.1556 139.741 32.8684 139.741 32.5307V16.216C139.741 15.8782 139.85 15.5911 140.07 15.3547C140.306 15.1182 140.601 15 140.956 15C141.293 15 141.572 15.1182 141.791 15.3547C142.028 15.5911 142.146 15.8782 142.146 16.216V26.5013L148.348 20.8013C148.635 20.548 148.93 20.4213 149.234 20.4213C149.521 20.4213 149.783 20.548 150.019 20.8013C150.255 21.0378 150.373 21.2911 150.373 21.5613C150.373 21.8991 150.213 22.2031 149.892 22.4733L145.513 26.3747L150.373 31.644ZM163.33 20.472C163.684 20.472 163.971 20.5902 164.191 20.8267C164.427 21.0631 164.545 21.3502 164.545 21.688V28.4267C164.545 30.1831 164.056 31.5511 163.077 32.5307C162.115 33.4933 160.748 33.9747 158.976 33.9747C157.22 33.9747 155.862 33.4933 154.9 32.5307C153.938 31.5511 153.457 30.1831 153.457 28.4267V21.688C153.457 21.3502 153.567 21.0631 153.786 20.8267C154.022 20.5902 154.309 20.472 154.647 20.472C155.001 20.472 155.288 20.5902 155.507 20.8267C155.744 21.0631 155.862 21.3502 155.862 21.688V28.4267C155.862 30.6391 156.9 31.7453 158.976 31.7453C160.005 31.7453 160.79 31.4667 161.33 30.9093C161.87 30.352 162.14 29.5244 162.14 28.4267V21.688C162.14 21.3502 162.25 21.0631 162.469 20.8267C162.705 20.5902 162.992 20.472 163.33 20.472ZM174.749 20.168C175.187 20.168 175.567 20.2862 175.888 20.5227C176.209 20.7422 176.369 21.0209 176.369 21.3587C176.369 21.764 176.259 22.0764 176.04 22.296C175.837 22.4987 175.584 22.6 175.28 22.6C175.128 22.6 174.901 22.5493 174.597 22.448C174.242 22.3298 173.964 22.2707 173.761 22.2707C173.238 22.2707 172.723 22.4564 172.217 22.828C171.728 23.1827 171.323 23.6809 171.002 24.3227C170.698 24.9476 170.546 25.6484 170.546 26.4253V32.5307C170.546 32.8684 170.428 33.1556 170.192 33.392C169.972 33.6284 169.686 33.7467 169.331 33.7467C168.977 33.7467 168.69 33.6369 168.47 33.4173C168.251 33.1809 168.141 32.8853 168.141 32.5307V21.688C168.141 21.3502 168.251 21.0631 168.47 20.8267C168.707 20.5902 168.994 20.472 169.331 20.472C169.686 20.472 169.972 20.5902 170.192 20.8267C170.428 21.0631 170.546 21.3502 170.546 21.688V22.98C170.918 22.1524 171.474 21.4853 172.217 20.9787C172.96 20.4551 173.804 20.1849 174.749 20.168ZM180.878 32.5307C180.878 32.8684 180.76 33.1556 180.523 33.392C180.304 33.6284 180.017 33.7467 179.663 33.7467C179.325 33.7467 179.038 33.6284 178.802 33.392C178.583 33.1556 178.473 32.8684 178.473 32.5307V21.5613C178.473 21.2236 178.583 20.9364 178.802 20.7C179.038 20.4636 179.325 20.3453 179.663 20.3453C180.017 20.3453 180.304 20.4636 180.523 20.7C180.76 20.9364 180.878 21.2236 180.878 21.5613V32.5307ZM179.663 18.6733C179.173 18.6733 178.819 18.5889 178.599 18.42C178.397 18.2342 178.296 17.9471 178.296 17.5587V17.1533C178.296 16.748 178.405 16.4609 178.625 16.292C178.861 16.1231 179.215 16.0387 179.688 16.0387C180.161 16.0387 180.498 16.1316 180.701 16.3173C180.92 16.4862 181.03 16.7649 181.03 17.1533V17.5587C181.03 17.964 180.92 18.2511 180.701 18.42C180.481 18.5889 180.135 18.6733 179.663 18.6733ZM195.98 26.6027C195.963 26.9067 195.837 27.1684 195.6 27.388C195.364 27.5907 195.085 27.692 194.765 27.692H185.854C185.972 28.9249 186.436 29.9129 187.246 30.656C188.073 31.3991 189.077 31.7707 190.259 31.7707C191.069 31.7707 191.727 31.6524 192.233 31.416C192.74 31.1796 193.187 30.8756 193.575 30.504C193.828 30.352 194.073 30.276 194.309 30.276C194.596 30.276 194.832 30.3773 195.018 30.58C195.221 30.7827 195.322 31.0191 195.322 31.2893C195.322 31.644 195.153 31.9649 194.815 32.252C194.326 32.7418 193.676 33.1556 192.866 33.4933C192.056 33.8311 191.229 34 190.385 34C189.018 34 187.811 33.7129 186.765 33.1387C185.736 32.5644 184.934 31.7622 184.36 30.732C183.803 29.7018 183.525 28.5364 183.525 27.236C183.525 25.8173 183.812 24.576 184.385 23.512C184.976 22.4311 185.744 21.6036 186.689 21.0293C187.651 20.4551 188.681 20.168 189.778 20.168C190.858 20.168 191.87 20.4467 192.816 21.004C193.761 21.5613 194.52 22.3298 195.094 23.3093C195.668 24.2889 195.963 25.3867 195.98 26.6027ZM189.778 22.3973C188.833 22.3973 188.014 22.6676 187.322 23.208C186.63 23.7316 186.174 24.5507 185.955 25.6653H193.423V25.4627C193.339 24.5676 192.934 23.8329 192.208 23.2587C191.499 22.6844 190.689 22.3973 189.778 22.3973ZM205.38 20.168C205.819 20.168 206.198 20.2862 206.519 20.5227C206.84 20.7422 207 21.0209 207 21.3587C207 21.764 206.89 22.0764 206.671 22.296C206.468 22.4987 206.215 22.6 205.911 22.6C205.76 22.6 205.532 22.5493 205.228 22.448C204.873 22.3298 204.595 22.2707 204.393 22.2707C203.869 22.2707 203.355 22.4564 202.848 22.828C202.359 23.1827 201.954 23.6809 201.633 24.3227C201.329 24.9476 201.177 25.6484 201.177 26.4253V32.5307C201.177 32.8684 201.059 33.1556 200.823 33.392C200.604 33.6284 200.317 33.7467 199.962 33.7467C199.608 33.7467 199.321 33.6369 199.102 33.4173C198.882 33.1809 198.772 32.8853 198.772 32.5307V21.688C198.772 21.3502 198.882 21.0631 199.102 20.8267C199.338 20.5902 199.625 20.472 199.962 20.472C200.317 20.472 200.604 20.5902 200.823 20.8267C201.059 21.0631 201.177 21.3502 201.177 21.688V22.98C201.549 22.1524 202.106 21.4853 202.848 20.9787C203.591 20.4551 204.435 20.1849 205.38 20.168Z" fill="#FF966E"/>
<path d="M77.12 38.296H74.144V37.456H81.092V38.296H78.116V46H77.12V38.296ZM86.3396 39.964V46H85.3916V44.956C85.1996 45.324 84.9316 45.604 84.5876 45.796C84.2436 45.988 83.8556 46.084 83.4236 46.084C82.7116 46.084 82.1716 45.884 81.8036 45.484C81.4356 45.084 81.2516 44.492 81.2516 43.708V39.964H82.2236V43.684C82.2236 44.228 82.3356 44.628 82.5596 44.884C82.7836 45.14 83.1236 45.268 83.5796 45.268C84.1156 45.268 84.5476 45.096 84.8756 44.752C85.2036 44.4 85.3676 43.94 85.3676 43.372V39.964H86.3396ZM90.7453 46.084C90.1613 46.084 89.6493 45.956 89.2093 45.7C88.7773 45.444 88.4413 45.084 88.2013 44.62C87.9693 44.148 87.8533 43.6 87.8533 42.976C87.8533 42.352 87.9733 41.804 88.2133 41.332C88.4533 40.852 88.7933 40.48 89.2333 40.216C89.6813 39.952 90.2013 39.82 90.7933 39.82C91.2013 39.82 91.5933 39.892 91.9693 40.036C92.3533 40.172 92.6693 40.364 92.9173 40.612L92.5933 41.332C92.2893 41.092 91.9933 40.916 91.7053 40.804C91.4253 40.692 91.1373 40.636 90.8413 40.636C90.2253 40.636 89.7413 40.844 89.3893 41.26C89.0373 41.668 88.8613 42.24 88.8613 42.976C88.8613 43.704 89.0333 44.272 89.3773 44.68C89.7293 45.08 90.2173 45.28 90.8413 45.28C91.1373 45.28 91.4253 45.224 91.7053 45.112C91.9933 45 92.2893 44.824 92.5933 44.584L92.9173 45.304C92.6613 45.544 92.3373 45.736 91.9453 45.88C91.5613 46.016 91.1613 46.084 90.7453 46.084ZM98.2228 46L95.1268 43.096V46H94.1548V37.168H95.1268V42.736L97.9708 39.976H99.2068L96.1828 42.868L99.4948 46H98.2228ZM107.027 39.82C108.363 39.82 109.031 40.616 109.031 42.208V46H108.059V42.256C108.059 41.688 107.959 41.276 107.759 41.02C107.567 40.764 107.251 40.636 106.811 40.636C106.299 40.636 105.899 40.808 105.611 41.152C105.323 41.496 105.179 41.964 105.179 42.556V46H104.207V42.256C104.207 41.696 104.107 41.288 103.907 41.032C103.707 40.768 103.387 40.636 102.947 40.636C102.435 40.636 102.031 40.808 101.735 41.152C101.447 41.496 101.303 41.964 101.303 42.556V46H100.331V41.656C100.331 41.032 100.299 40.468 100.235 39.964H101.159L101.255 41.02C101.423 40.636 101.671 40.34 101.999 40.132C102.335 39.924 102.723 39.82 103.163 39.82C103.643 39.82 104.035 39.916 104.339 40.108C104.643 40.3 104.867 40.596 105.011 40.996C105.195 40.636 105.463 40.352 105.815 40.144C106.175 39.928 106.579 39.82 107.027 39.82ZM116.193 39.964V46H115.233V44.908C115.057 45.284 114.789 45.576 114.429 45.784C114.077 45.984 113.665 46.084 113.193 46.084C112.657 46.084 112.185 45.956 111.777 45.7C111.377 45.444 111.065 45.084 110.841 44.62C110.625 44.148 110.517 43.6 110.517 42.976C110.517 42.352 110.629 41.804 110.853 41.332C111.077 40.852 111.389 40.48 111.789 40.216C112.197 39.952 112.665 39.82 113.193 39.82C113.665 39.82 114.077 39.924 114.429 40.132C114.781 40.34 115.049 40.632 115.233 41.008V39.964H116.193ZM113.385 45.28C113.977 45.28 114.433 45.08 114.753 44.68C115.073 44.272 115.233 43.696 115.233 42.952C115.233 42.208 115.073 41.636 114.753 41.236C114.433 40.836 113.977 40.636 113.385 40.636C112.793 40.636 112.329 40.844 111.993 41.26C111.665 41.668 111.501 42.24 111.501 42.976C111.501 43.712 111.665 44.28 111.993 44.68C112.321 45.08 112.785 45.28 113.385 45.28ZM121.085 39.82C122.533 39.82 123.257 40.616 123.257 42.208V46H122.285V42.256C122.285 41.696 122.173 41.288 121.949 41.032C121.725 40.768 121.373 40.636 120.893 40.636C120.333 40.636 119.885 40.808 119.549 41.152C119.213 41.496 119.045 41.96 119.045 42.544V46H118.073V41.656C118.073 41.032 118.041 40.468 117.977 39.964H118.901L118.997 41.044C119.181 40.652 119.457 40.352 119.825 40.144C120.193 39.928 120.613 39.82 121.085 39.82ZM128.161 42.376H131.557V43.18H128.161V42.376ZM137.791 40.732V44.032C137.791 44.48 137.883 44.796 138.067 44.98C138.251 45.156 138.511 45.244 138.847 45.244C139.071 45.244 139.287 45.208 139.495 45.136V45.964C139.247 46.044 138.967 46.084 138.655 46.084C138.079 46.084 137.627 45.924 137.299 45.604C136.979 45.276 136.819 44.796 136.819 44.164V40.732H135.643V39.964H136.819V38.416L137.791 38.068V39.964H139.519V40.732H137.791ZM145.742 42.952H141.314C141.322 43.72 141.498 44.3 141.842 44.692C142.194 45.084 142.702 45.28 143.366 45.28C144.07 45.28 144.718 45.044 145.31 44.572L145.634 45.28C145.37 45.528 145.03 45.724 144.614 45.868C144.206 46.012 143.786 46.084 143.354 46.084C142.41 46.084 141.67 45.808 141.134 45.256C140.598 44.696 140.33 43.932 140.33 42.964C140.33 42.348 140.45 41.804 140.69 41.332C140.93 40.852 141.266 40.48 141.698 40.216C142.13 39.952 142.622 39.82 143.174 39.82C143.974 39.82 144.602 40.084 145.058 40.612C145.514 41.132 145.742 41.852 145.742 42.772V42.952ZM143.186 40.576C142.682 40.576 142.27 40.728 141.95 41.032C141.638 41.336 141.438 41.764 141.35 42.316H144.866C144.818 41.748 144.65 41.316 144.362 41.02C144.082 40.724 143.69 40.576 143.186 40.576ZM152.533 39.964V46H151.573V44.908C151.397 45.284 151.129 45.576 150.769 45.784C150.417 45.984 150.005 46.084 149.533 46.084C148.997 46.084 148.525 45.956 148.117 45.7C147.717 45.444 147.405 45.084 147.181 44.62C146.965 44.148 146.857 43.6 146.857 42.976C146.857 42.352 146.969 41.804 147.193 41.332C147.417 40.852 147.729 40.48 148.129 40.216C148.537 39.952 149.005 39.82 149.533 39.82C150.005 39.82 150.417 39.924 150.769 40.132C151.121 40.34 151.389 40.632 151.573 41.008V39.964H152.533ZM149.725 45.28C150.317 45.28 150.773 45.08 151.093 44.68C151.413 44.272 151.573 43.696 151.573 42.952C151.573 42.208 151.413 41.636 151.093 41.236C150.773 40.836 150.317 40.636 149.725 40.636C149.133 40.636 148.669 40.844 148.333 41.26C148.005 41.668 147.841 42.24 147.841 42.976C147.841 43.712 148.005 44.28 148.333 44.68C148.661 45.08 149.125 45.28 149.725 45.28ZM161.109 39.82C162.445 39.82 163.113 40.616 163.113 42.208V46H162.141V42.256C162.141 41.688 162.041 41.276 161.841 41.02C161.649 40.764 161.333 40.636 160.893 40.636C160.381 40.636 159.981 40.808 159.693 41.152C159.405 41.496 159.261 41.964 159.261 42.556V46H158.289V42.256C158.289 41.696 158.189 41.288 157.989 41.032C157.789 40.768 157.469 40.636 157.029 40.636C156.517 40.636 156.113 40.808 155.817 41.152C155.529 41.496 155.385 41.964 155.385 42.556V46H154.413V41.656C154.413 41.032 154.381 40.468 154.317 39.964H155.241L155.337 41.02C155.505 40.636 155.753 40.34 156.081 40.132C156.417 39.924 156.805 39.82 157.245 39.82C157.725 39.82 158.117 39.916 158.421 40.108C158.725 40.3 158.949 40.596 159.093 40.996C159.277 40.636 159.545 40.352 159.897 40.144C160.257 39.928 160.661 39.82 161.109 39.82ZM170.275 39.964V46H169.315V44.908C169.139 45.284 168.871 45.576 168.511 45.784C168.159 45.984 167.747 46.084 167.275 46.084C166.739 46.084 166.267 45.956 165.859 45.7C165.459 45.444 165.147 45.084 164.923 44.62C164.707 44.148 164.599 43.6 164.599 42.976C164.599 42.352 164.711 41.804 164.935 41.332C165.159 40.852 165.471 40.48 165.871 40.216C166.279 39.952 166.747 39.82 167.275 39.82C167.747 39.82 168.159 39.924 168.511 40.132C168.863 40.34 169.131 40.632 169.315 41.008V39.964H170.275ZM167.467 45.28C168.059 45.28 168.515 45.08 168.835 44.68C169.155 44.272 169.315 43.696 169.315 42.952C169.315 42.208 169.155 41.636 168.835 41.236C168.515 40.836 168.059 40.636 167.467 40.636C166.875 40.636 166.411 40.844 166.075 41.26C165.747 41.668 165.583 42.24 165.583 42.976C165.583 43.712 165.747 44.28 166.075 44.68C166.403 45.08 166.867 45.28 167.467 45.28ZM175.167 39.82C176.615 39.82 177.339 40.616 177.339 42.208V46H176.367V42.256C176.367 41.696 176.255 41.288 176.031 41.032C175.807 40.768 175.455 40.636 174.975 40.636C174.415 40.636 173.967 40.808 173.631 41.152C173.295 41.496 173.127 41.96 173.127 42.544V46H172.155V41.656C172.155 41.032 172.123 40.468 172.059 39.964H172.983L173.079 41.044C173.263 40.652 173.539 40.352 173.907 40.144C174.275 39.928 174.695 39.82 175.167 39.82ZM184.49 39.964V46H183.53V44.908C183.354 45.284 183.086 45.576 182.726 45.784C182.374 45.984 181.962 46.084 181.49 46.084C180.954 46.084 180.482 45.956 180.074 45.7C179.674 45.444 179.362 45.084 179.138 44.62C178.922 44.148 178.814 43.6 178.814 42.976C178.814 42.352 178.926 41.804 179.15 41.332C179.374 40.852 179.686 40.48 180.086 40.216C180.494 39.952 180.962 39.82 181.49 39.82C181.962 39.82 182.374 39.924 182.726 40.132C183.078 40.34 183.346 40.632 183.53 41.008V39.964H184.49ZM181.682 45.28C182.274 45.28 182.73 45.08 183.05 44.68C183.37 44.272 183.53 43.696 183.53 42.952C183.53 42.208 183.37 41.636 183.05 41.236C182.73 40.836 182.274 40.636 181.682 40.636C181.09 40.636 180.626 40.844 180.29 41.26C179.962 41.668 179.798 42.24 179.798 42.976C179.798 43.712 179.962 44.28 180.29 44.68C180.618 45.08 181.082 45.28 181.682 45.28ZM186.37 37.168H187.342V46H186.37V37.168ZM194.533 39.964L191.713 46.552C191.417 47.24 191.045 47.744 190.597 48.064C190.149 48.384 189.597 48.604 188.941 48.724L188.737 47.968C189.305 47.84 189.733 47.668 190.021 47.452C190.317 47.244 190.561 46.92 190.753 46.48L190.993 45.94L188.437 39.964H189.457L191.497 44.944L193.561 39.964H194.533ZM197.539 46.084C196.523 46.084 195.719 45.824 195.127 45.304L195.451 44.584C195.779 44.84 196.111 45.024 196.447 45.136C196.783 45.248 197.159 45.304 197.575 45.304C198.031 45.304 198.375 45.228 198.607 45.076C198.847 44.916 198.967 44.688 198.967 44.392C198.967 44.152 198.887 43.96 198.727 43.816C198.567 43.672 198.303 43.56 197.935 43.48L196.915 43.24C196.411 43.128 196.019 42.928 195.739 42.64C195.467 42.352 195.331 42.008 195.331 41.608C195.331 41.08 195.543 40.652 195.967 40.324C196.391 39.988 196.951 39.82 197.646 39.82C198.071 39.82 198.471 39.888 198.847 40.024C199.223 40.16 199.539 40.356 199.795 40.612L199.471 41.32C198.903 40.848 198.295 40.612 197.646 40.612C197.215 40.612 196.879 40.696 196.639 40.864C196.407 41.024 196.291 41.252 196.291 41.548C196.291 41.796 196.363 41.992 196.507 42.136C196.659 42.28 196.899 42.392 197.227 42.472L198.247 42.724C198.807 42.852 199.223 43.052 199.495 43.324C199.767 43.588 199.903 43.936 199.903 44.368C199.903 44.888 199.691 45.304 199.267 45.616C198.843 45.928 198.267 46.084 197.539 46.084ZM206.504 42.952H202.076C202.084 43.72 202.26 44.3 202.604 44.692C202.956 45.084 203.464 45.28 204.128 45.28C204.832 45.28 205.48 45.044 206.072 44.572L206.396 45.28C206.132 45.528 205.792 45.724 205.376 45.868C204.968 46.012 204.548 46.084 204.116 46.084C203.172 46.084 202.432 45.808 201.896 45.256C201.36 44.696 201.092 43.932 201.092 42.964C201.092 42.348 201.212 41.804 201.452 41.332C201.692 40.852 202.028 40.48 202.46 40.216C202.892 39.952 203.384 39.82 203.936 39.82C204.736 39.82 205.364 40.084 205.82 40.612C206.276 41.132 206.504 41.852 206.504 42.772V42.952ZM203.948 40.576C203.444 40.576 203.032 40.728 202.712 41.032C202.4 41.336 202.2 41.764 202.112 42.316H205.628C205.58 41.748 205.412 41.316 205.124 41.02C204.844 40.724 204.452 40.576 203.948 40.576Z" fill="#FF966E"/>
<path d="M40.9376 818.951C39.5231 817.684 37.222 817.683 35.806 818.949C35.7956 818.959 32.5206 821.903 32.5206 821.903V820.086C32.5206 819.901 32.3531 819.751 32.1469 819.751C31.9407 819.751 31.7732 819.901 31.7732 820.086V822.714C31.7732 822.898 31.9407 823.048 32.1469 823.048H35.0809C35.2871 823.048 35.4546 822.898 35.4546 822.714C35.4546 822.529 35.2871 822.379 35.0809 822.379H33.044L36.3308 819.423L36.3316 819.423C37.4557 818.416 39.2842 818.416 40.4083 819.423C40.9525 819.91 41.2526 820.559 41.2526 821.248C41.2526 821.937 40.9525 822.586 40.412 823.07L35.7628 827.233C35.6928 827.297 35.599 827.331 35.4993 827.331C35.3995 827.331 35.3057 827.297 35.235 827.233L31.1418 823.568C30.8843 823.337 30.5924 823.076 30.5902 823.074C30.046 822.586 29.746 821.937 29.746 821.248C29.746 820.559 30.046 819.91 30.5902 819.423C31.4158 818.682 32.837 818.452 33.8257 818.898C34.0096 818.981 34.3178 819.186 34.3178 819.186C34.4838 819.296 34.7176 819.265 34.8404 819.116C34.9632 818.967 34.9282 818.758 34.7622 818.648C34.7622 818.648 34.4034 818.41 34.1629 818.301C32.8832 817.724 31.1203 818.002 30.0631 818.95C29.3774 819.564 29 820.38 29 821.248C29 822.115 29.3767 822.931 30.0609 823.544C30.0683 823.551 30.3222 823.779 30.6148 824.04L34.7079 827.706C34.9193 827.895 35.2007 828 35.5 828C35.7993 828 36.0807 827.895 36.2921 827.706L40.9369 823.546C41.6225 822.932 42 822.116 42 821.248C42.0007 820.381 41.6233 819.565 40.9376 818.951Z" fill="black"/>
<path d="M51.8261 826.76C51.9648 826.902 52.0341 827.058 52.0341 827.227C52.0341 827.404 51.9601 827.556 51.8122 827.68C51.6735 827.796 51.5255 827.853 51.3683 827.853C51.1648 827.853 51.003 827.782 50.8828 827.64L48.1501 824.853L47.3178 825.573V827.227C47.3178 827.404 47.2531 827.556 47.1236 827.68C47.0034 827.804 46.8508 827.867 46.6658 827.867C46.4716 827.867 46.3098 827.804 46.1803 827.68C46.0601 827.556 46 827.404 46 827.227V818.64C46 818.462 46.0601 818.311 46.1803 818.187C46.3098 818.062 46.4716 818 46.6658 818C46.8508 818 47.0034 818.062 47.1236 818.187C47.2531 818.311 47.3178 818.462 47.3178 818.64V824.053L50.7163 821.053C50.8735 820.92 51.0354 820.853 51.2018 820.853C51.359 820.853 51.5024 820.92 51.6319 821.053C51.7613 821.178 51.8261 821.311 51.8261 821.453C51.8261 821.631 51.7382 821.791 51.5625 821.933L49.1627 823.987L51.8261 826.76ZM59.4246 820.787C59.6188 820.787 59.776 820.849 59.8963 820.973C60.0257 821.089 60.0905 821.244 60.0905 821.44V827.227C60.0905 827.404 60.0257 827.556 59.8963 827.68C59.776 827.804 59.6188 827.867 59.4246 827.867C59.2304 827.867 59.0732 827.809 58.953 827.693C58.8328 827.569 58.7727 827.413 58.7727 827.227V826.88C58.5322 827.191 58.2039 827.458 57.7878 827.68C57.3716 827.893 56.9231 828 56.4422 828C55.8134 828 55.24 827.844 54.7222 827.533C54.2135 827.222 53.8113 826.791 53.5153 826.24C53.2287 825.68 53.0853 825.053 53.0853 824.36C53.0853 823.667 53.2287 823.044 53.5153 822.493C53.8113 821.933 54.2135 821.498 54.7222 821.187C55.2308 820.876 55.7903 820.72 56.4006 820.72C56.8908 820.72 57.3439 820.818 57.76 821.013C58.1854 821.209 58.523 821.458 58.7727 821.76V821.44C58.7727 821.253 58.8328 821.098 58.953 820.973C59.0732 820.849 59.2304 820.787 59.4246 820.787ZM56.5948 826.827C57.0295 826.827 57.4133 826.72 57.7462 826.507C58.0883 826.293 58.3519 826 58.5368 825.627C58.731 825.253 58.8282 824.831 58.8282 824.36C58.8282 823.898 58.731 823.48 58.5368 823.107C58.3519 822.733 58.0883 822.44 57.7462 822.227C57.4133 822.004 57.0295 821.893 56.5948 821.893C56.1602 821.893 55.7718 822 55.4296 822.213C55.0967 822.427 54.8331 822.72 54.6389 823.093C54.454 823.467 54.3615 823.889 54.3615 824.36C54.3615 824.831 54.454 825.253 54.6389 825.627C54.8331 826 55.0967 826.293 55.4296 826.507C55.7718 826.72 56.1602 826.827 56.5948 826.827ZM65.6704 820.72C65.9109 820.72 66.1189 820.782 66.2946 820.907C66.4703 821.022 66.5582 821.169 66.5582 821.347C66.5582 821.56 66.4981 821.724 66.3779 821.84C66.2669 821.947 66.1282 822 65.9617 822C65.8785 822 65.7536 821.973 65.5872 821.92C65.393 821.858 65.2404 821.827 65.1294 821.827C64.8427 821.827 64.5607 821.924 64.2833 822.12C64.0151 822.307 63.7931 822.569 63.6174 822.907C63.451 823.236 63.3677 823.604 63.3677 824.013V827.227C63.3677 827.404 63.303 827.556 63.1735 827.68C63.0533 827.804 62.8961 827.867 62.7019 827.867C62.5077 827.867 62.3505 827.809 62.2303 827.693C62.11 827.569 62.0499 827.413 62.0499 827.227V821.52C62.0499 821.342 62.11 821.191 62.2303 821.067C62.3597 820.942 62.5169 820.88 62.7019 820.88C62.8961 820.88 63.0533 820.942 63.1735 821.067C63.303 821.191 63.3677 821.342 63.3677 821.52V822.2C63.5712 821.764 63.8764 821.413 64.2833 821.147C64.6902 820.871 65.1525 820.729 65.6704 820.72ZM76.1169 820.76C77.7352 820.76 78.5444 821.729 78.5444 823.667V827.227C78.5444 827.413 78.4843 827.569 78.3641 827.693C78.2439 827.809 78.0867 827.867 77.8925 827.867C77.6983 827.867 77.5364 827.804 77.407 827.68C77.2867 827.556 77.2266 827.404 77.2266 827.227V823.68C77.2266 822.516 76.718 821.933 75.7007 821.933C75.3401 821.933 75.0118 822.013 74.7159 822.173C74.4292 822.324 74.2026 822.533 74.0362 822.8C73.8789 823.067 73.8003 823.36 73.8003 823.68V827.227C73.8003 827.404 73.7356 827.556 73.6061 827.68C73.4859 827.804 73.3287 827.867 73.1345 827.867C72.9403 827.867 72.7831 827.809 72.6629 827.693C72.5427 827.569 72.4825 827.413 72.4825 827.227V823.667C72.4825 823.142 72.3669 822.724 72.1358 822.413C71.9046 822.093 71.5208 821.933 70.9844 821.933C70.4388 821.933 69.9857 822.102 69.625 822.44C69.2736 822.769 69.0979 823.178 69.0979 823.667V827.227C69.0979 827.404 69.0332 827.556 68.9037 827.68C68.7835 827.804 68.6263 827.867 68.432 827.867C68.2378 827.867 68.0806 827.809 67.9604 827.693C67.8402 827.569 67.7801 827.413 67.7801 827.227V821.52C67.7801 821.342 67.8402 821.191 67.9604 821.067C68.0899 820.942 68.2471 820.88 68.432 820.88C68.6263 820.88 68.7835 820.942 68.9037 821.067C69.0332 821.191 69.0979 821.342 69.0979 821.52V821.987C69.3383 821.64 69.6574 821.351 70.055 821.12C70.4619 820.88 70.9012 820.76 71.3728 820.76C72.5195 820.76 73.264 821.249 73.6061 822.227C73.8096 821.853 74.1471 821.516 74.6188 821.213C75.0904 820.911 75.5898 820.76 76.1169 820.76ZM86.409 820.787C86.6032 820.787 86.7604 820.849 86.8807 820.973C87.0101 821.089 87.0749 821.244 87.0749 821.44V827.227C87.0749 827.404 87.0101 827.556 86.8807 827.68C86.7604 827.804 86.6032 827.867 86.409 827.867C86.2148 827.867 86.0576 827.809 85.9374 827.693C85.8172 827.569 85.7571 827.413 85.7571 827.227V826.88C85.5166 827.191 85.1883 827.458 84.7722 827.68C84.356 827.893 83.9077 828 83.4268 828C82.7979 828 82.2246 827.844 81.7067 827.533C81.1981 827.222 80.7958 826.791 80.4999 826.24C80.2132 825.68 80.0699 825.053 80.0699 824.36C80.0699 823.667 80.2132 823.044 80.4999 822.493C80.7958 821.933 81.1981 821.498 81.7067 821.187C82.2153 820.876 82.7748 820.72 83.3852 820.72C83.8753 820.72 84.3283 820.818 84.7444 821.013C85.1698 821.209 85.5074 821.458 85.7571 821.76V821.44C85.7571 821.253 85.8172 821.098 85.9374 820.973C86.0576 820.849 86.2148 820.787 86.409 820.787ZM83.5794 826.827C84.014 826.827 84.3976 826.72 84.7306 826.507C85.0727 826.293 85.3363 826 85.5212 825.627C85.7154 825.253 85.8125 824.831 85.8125 824.36C85.8125 823.898 85.7154 823.48 85.5212 823.107C85.3363 822.733 85.0727 822.44 84.7306 822.227C84.3976 822.004 84.014 821.893 83.5794 821.893C83.1447 821.893 82.7563 822 82.4142 822.213C82.0812 822.427 81.8177 822.72 81.6235 823.093C81.4385 823.467 81.3461 823.889 81.3461 824.36C81.3461 824.831 81.4385 825.253 81.6235 825.627C81.8177 826 82.0812 826.293 82.4142 826.507C82.7563 826.72 83.1447 826.827 83.5794 826.827ZM94.9716 826.76C95.1103 826.902 95.1797 827.058 95.1797 827.227C95.1797 827.404 95.1057 827.556 94.9578 827.68C94.819 827.796 94.6711 827.853 94.5139 827.853C94.3104 827.853 94.1486 827.782 94.0284 827.64L91.2957 824.853L90.4634 825.573V827.227C90.4634 827.404 90.3986 827.556 90.2692 827.68C90.1489 827.804 89.9964 827.867 89.8114 827.867C89.6172 827.867 89.4554 827.804 89.3259 827.68C89.2057 827.556 89.1456 827.404 89.1456 827.227V818.64C89.1456 818.462 89.2057 818.311 89.3259 818.187C89.4554 818.062 89.6172 818 89.8114 818C89.9964 818 90.1489 818.062 90.2692 818.187C90.3986 818.311 90.4634 818.462 90.4634 818.64V824.053L93.8619 821.053C94.0191 820.92 94.1809 820.853 94.3474 820.853C94.5046 820.853 94.648 820.92 94.7774 821.053C94.9069 821.178 94.9716 821.311 94.9716 821.453C94.9716 821.631 94.8838 821.791 94.7081 821.933L92.3083 823.987L94.9716 826.76ZM102.071 820.88C102.265 820.88 102.423 820.942 102.543 821.067C102.672 821.191 102.737 821.342 102.737 821.52V825.067C102.737 825.991 102.469 826.711 101.932 827.227C101.405 827.733 100.656 827.987 99.6853 827.987C98.7235 827.987 97.9791 827.733 97.4519 827.227C96.9248 826.711 96.6613 825.991 96.6613 825.067V821.52C96.6613 821.342 96.7214 821.191 96.8416 821.067C96.9711 820.942 97.1283 820.88 97.3132 820.88C97.5074 820.88 97.6646 820.942 97.7849 821.067C97.9143 821.191 97.9791 821.342 97.9791 821.52V825.067C97.9791 826.231 98.5478 826.813 99.6853 826.813C100.249 826.813 100.679 826.667 100.975 826.373C101.271 826.08 101.419 825.644 101.419 825.067V821.52C101.419 821.342 101.479 821.191 101.6 821.067C101.729 820.942 101.886 820.88 102.071 820.88ZM108.328 820.72C108.568 820.72 108.777 820.782 108.952 820.907C109.128 821.022 109.216 821.169 109.216 821.347C109.216 821.56 109.156 821.724 109.035 821.84C108.924 821.947 108.786 822 108.619 822C108.536 822 108.411 821.973 108.245 821.92C108.051 821.858 107.898 821.827 107.787 821.827C107.5 821.827 107.218 821.924 106.941 822.12C106.673 822.307 106.451 822.569 106.275 822.907C106.109 823.236 106.025 823.604 106.025 824.013V827.227C106.025 827.404 105.961 827.556 105.831 827.68C105.711 827.804 105.554 827.867 105.359 827.867C105.165 827.867 105.008 827.809 104.888 827.693C104.768 827.569 104.708 827.413 104.708 827.227V821.52C104.708 821.342 104.768 821.191 104.888 821.067C105.017 820.942 105.175 820.88 105.359 820.88C105.554 820.88 105.711 820.942 105.831 821.067C105.961 821.191 106.025 821.342 106.025 821.52V822.2C106.229 821.764 106.534 821.413 106.941 821.147C107.348 820.871 107.81 820.729 108.328 820.72ZM111.686 827.227C111.686 827.404 111.622 827.556 111.492 827.68C111.372 827.804 111.215 827.867 111.021 827.867C110.836 827.867 110.678 827.804 110.549 827.68C110.429 827.556 110.369 827.404 110.369 827.227V821.453C110.369 821.276 110.429 821.124 110.549 821C110.678 820.876 110.836 820.813 111.021 820.813C111.215 820.813 111.372 820.876 111.492 821C111.622 821.124 111.686 821.276 111.686 821.453V827.227ZM111.021 819.933C110.752 819.933 110.558 819.889 110.438 819.8C110.327 819.702 110.272 819.551 110.272 819.347V819.133C110.272 818.92 110.332 818.769 110.452 818.68C110.581 818.591 110.776 818.547 111.035 818.547C111.293 818.547 111.478 818.596 111.589 818.693C111.71 818.782 111.77 818.929 111.77 819.133V819.347C111.77 819.56 111.71 819.711 111.589 819.8C111.469 819.889 111.28 819.933 111.021 819.933ZM119.962 824.107C119.952 824.267 119.883 824.404 119.754 824.52C119.624 824.627 119.471 824.68 119.296 824.68H114.413C114.478 825.329 114.732 825.849 115.176 826.24C115.629 826.631 116.179 826.827 116.827 826.827C117.271 826.827 117.631 826.764 117.909 826.64C118.186 826.516 118.431 826.356 118.644 826.16C118.783 826.08 118.917 826.04 119.046 826.04C119.203 826.04 119.333 826.093 119.435 826.2C119.545 826.307 119.601 826.431 119.601 826.573C119.601 826.76 119.508 826.929 119.324 827.08C119.055 827.338 118.699 827.556 118.255 827.733C117.812 827.911 117.358 828 116.896 828C116.147 828 115.486 827.849 114.912 827.547C114.348 827.244 113.909 826.822 113.595 826.28C113.289 825.738 113.137 825.124 113.137 824.44C113.137 823.693 113.294 823.04 113.608 822.48C113.932 821.911 114.353 821.476 114.871 821.173C115.398 820.871 115.962 820.72 116.563 820.72C117.155 820.72 117.71 820.867 118.228 821.16C118.746 821.453 119.162 821.858 119.476 822.373C119.791 822.889 119.952 823.467 119.962 824.107ZM116.563 821.893C116.045 821.893 115.597 822.036 115.218 822.32C114.838 822.596 114.589 823.027 114.468 823.613H118.561V823.507C118.514 823.036 118.292 822.649 117.895 822.347C117.506 822.044 117.062 821.893 116.563 821.893ZM125.112 820.72C125.353 820.72 125.561 820.782 125.736 820.907C125.912 821.022 126 821.169 126 821.347C126 821.56 125.94 821.724 125.82 821.84C125.709 821.947 125.57 822 125.404 822C125.32 822 125.195 821.973 125.029 821.92C124.835 821.858 124.682 821.827 124.571 821.827C124.285 821.827 124.002 821.924 123.725 822.12C123.457 822.307 123.235 822.569 123.059 822.907C122.893 823.236 122.81 823.604 122.81 824.013V827.227C122.81 827.404 122.745 827.556 122.615 827.68C122.495 827.804 122.338 827.867 122.144 827.867C121.95 827.867 121.792 827.809 121.672 827.693C121.552 827.569 121.492 827.413 121.492 827.227V821.52C121.492 821.342 121.552 821.191 121.672 821.067C121.802 820.942 121.959 820.88 122.144 820.88C122.338 820.88 122.495 820.942 122.615 821.067C122.745 821.191 122.81 821.342 122.81 821.52V822.2C123.013 821.764 123.318 821.413 123.725 821.147C124.132 820.871 124.594 820.729 125.112 820.72Z" fill="black"/>
<path d="M141.632 821.88C141.984 821.88 142.296 821.968 142.568 822.144C142.84 822.32 143.051 822.568 143.2 822.888C143.349 823.203 143.424 823.568 143.424 823.984C143.424 824.4 143.349 824.765 143.2 825.08C143.051 825.389 142.84 825.629 142.568 825.8C142.301 825.971 141.989 826.056 141.632 826.056C141.317 826.056 141.043 825.987 140.808 825.848C140.573 825.709 140.395 825.512 140.272 825.256V827.728H139.624V823.104C139.624 822.688 139.603 822.312 139.56 821.976H140.176L140.24 822.752C140.352 822.475 140.528 822.261 140.768 822.112C141.013 821.957 141.301 821.88 141.632 821.88ZM141.512 825.52C141.907 825.52 142.211 825.387 142.424 825.12C142.643 824.853 142.752 824.475 142.752 823.984C142.752 823.493 142.643 823.112 142.424 822.84C142.205 822.563 141.901 822.424 141.512 822.424C141.112 822.424 140.805 822.557 140.592 822.824C140.379 823.091 140.272 823.472 140.272 823.968C140.272 824.464 140.379 824.848 140.592 825.12C140.805 825.387 141.112 825.52 141.512 825.52ZM147.789 821.976V826H147.157V825.304C147.029 825.549 146.85 825.736 146.621 825.864C146.392 825.992 146.133 826.056 145.845 826.056C145.37 826.056 145.01 825.923 144.765 825.656C144.52 825.389 144.397 824.995 144.397 824.472V821.976H145.045V824.456C145.045 824.819 145.12 825.085 145.269 825.256C145.418 825.427 145.645 825.512 145.949 825.512C146.306 825.512 146.594 825.397 146.813 825.168C147.032 824.933 147.141 824.627 147.141 824.248V821.976H147.789ZM151.046 821.88C151.398 821.88 151.71 821.965 151.982 822.136C152.254 822.307 152.465 822.549 152.614 822.864C152.763 823.173 152.838 823.536 152.838 823.952C152.838 824.368 152.763 824.736 152.614 825.056C152.465 825.371 152.254 825.616 151.982 825.792C151.71 825.968 151.398 826.056 151.046 826.056C150.731 826.056 150.457 825.987 150.222 825.848C149.987 825.709 149.809 825.512 149.686 825.256V826H149.038V820.112H149.686V822.688C149.803 822.427 149.979 822.227 150.214 822.088C150.454 821.949 150.731 821.88 151.046 821.88ZM150.926 825.52C151.315 825.52 151.619 825.384 151.838 825.112C152.057 824.835 152.166 824.448 152.166 823.952C152.166 823.467 152.057 823.091 151.838 822.824C151.625 822.557 151.321 822.424 150.926 822.424C150.526 822.424 150.219 822.557 150.006 822.824C149.793 823.091 149.686 823.472 149.686 823.968C149.686 824.464 149.793 824.848 150.006 825.12C150.219 825.387 150.526 825.52 150.926 825.52ZM153.835 820.112H154.483V826H153.835V820.112ZM155.741 821.976H156.389V826H155.741V821.976ZM156.469 820.272V821.008H155.677V820.272H156.469ZM159.007 826.056C158.33 826.056 157.794 825.883 157.399 825.536L157.615 825.056C157.834 825.227 158.055 825.349 158.279 825.424C158.503 825.499 158.754 825.536 159.031 825.536C159.335 825.536 159.565 825.485 159.719 825.384C159.879 825.277 159.959 825.125 159.959 824.928C159.959 824.768 159.906 824.64 159.799 824.544C159.693 824.448 159.517 824.373 159.271 824.32L158.591 824.16C158.255 824.085 157.994 823.952 157.807 823.76C157.626 823.568 157.535 823.339 157.535 823.072C157.535 822.72 157.677 822.435 157.959 822.216C158.242 821.992 158.615 821.88 159.079 821.88C159.362 821.88 159.629 821.925 159.879 822.016C160.13 822.107 160.341 822.237 160.511 822.408L160.295 822.88C159.917 822.565 159.511 822.408 159.079 822.408C158.791 822.408 158.567 822.464 158.407 822.576C158.253 822.683 158.175 822.835 158.175 823.032C158.175 823.197 158.223 823.328 158.319 823.424C158.421 823.52 158.581 823.595 158.799 823.648L159.479 823.816C159.853 823.901 160.13 824.035 160.311 824.216C160.493 824.392 160.583 824.624 160.583 824.912C160.583 825.259 160.442 825.536 160.159 825.744C159.877 825.952 159.493 826.056 159.007 826.056ZM163.624 821.88C164.59 821.88 165.072 822.411 165.072 823.472V826H164.424V823.504C164.424 823.131 164.35 822.859 164.2 822.688C164.051 822.512 163.816 822.424 163.496 822.424C163.123 822.424 162.824 822.539 162.6 822.768C162.376 822.997 162.264 823.307 162.264 823.696V826H161.616V820.112H162.264V822.632C162.392 822.387 162.574 822.2 162.808 822.072C163.048 821.944 163.32 821.88 163.624 821.88ZM169.664 823.968H166.712C166.717 824.48 166.835 824.867 167.064 825.128C167.299 825.389 167.637 825.52 168.08 825.52C168.549 825.52 168.981 825.363 169.376 825.048L169.592 825.52C169.416 825.685 169.189 825.816 168.912 825.912C168.64 826.008 168.36 826.056 168.072 826.056C167.443 826.056 166.949 825.872 166.592 825.504C166.235 825.131 166.056 824.621 166.056 823.976C166.056 823.565 166.136 823.203 166.296 822.888C166.456 822.568 166.68 822.32 166.968 822.144C167.256 821.968 167.584 821.88 167.952 821.88C168.485 821.88 168.904 822.056 169.208 822.408C169.512 822.755 169.664 823.235 169.664 823.848V823.968ZM167.96 822.384C167.624 822.384 167.349 822.485 167.136 822.688C166.928 822.891 166.795 823.176 166.736 823.544H169.08C169.048 823.165 168.936 822.877 168.744 822.68C168.557 822.483 168.296 822.384 167.96 822.384ZM174.191 820.112V826H173.551V825.272C173.434 825.523 173.255 825.717 173.015 825.856C172.781 825.989 172.506 826.056 172.191 826.056C171.839 826.056 171.527 825.968 171.255 825.792C170.989 825.616 170.781 825.371 170.631 825.056C170.482 824.736 170.407 824.368 170.407 823.952C170.407 823.536 170.479 823.173 170.623 822.864C170.773 822.549 170.983 822.307 171.255 822.136C171.527 821.965 171.839 821.88 172.191 821.88C172.506 821.88 172.781 821.949 173.015 822.088C173.25 822.221 173.426 822.411 173.543 822.656V820.112H174.191ZM172.319 825.52C172.714 825.52 173.018 825.387 173.231 825.12C173.445 824.848 173.551 824.464 173.551 823.968C173.551 823.477 173.445 823.099 173.231 822.832C173.018 822.56 172.714 822.424 172.319 822.424C171.925 822.424 171.615 822.557 171.391 822.824C171.173 823.091 171.063 823.467 171.063 823.952C171.063 824.448 171.173 824.835 171.391 825.112C171.615 825.384 171.925 825.52 172.319 825.52ZM180.898 821.976V826H180.266V825.304C180.138 825.549 179.96 825.736 179.73 825.864C179.501 825.992 179.242 826.056 178.954 826.056C178.48 826.056 178.12 825.923 177.874 825.656C177.629 825.389 177.506 824.995 177.506 824.472V821.976H178.154V824.456C178.154 824.819 178.229 825.085 178.378 825.256C178.528 825.427 178.754 825.512 179.058 825.512C179.416 825.512 179.704 825.397 179.922 825.168C180.141 824.933 180.25 824.627 180.25 824.248V821.976H180.898ZM184.155 821.88C185.121 821.88 185.603 822.411 185.603 823.472V826H184.955V823.504C184.955 823.131 184.881 822.859 184.731 822.688C184.582 822.512 184.347 822.424 184.027 822.424C183.654 822.424 183.355 822.539 183.131 822.768C182.907 822.997 182.795 823.307 182.795 823.696V826H182.147V823.104C182.147 822.688 182.126 822.312 182.083 821.976H182.699L182.763 822.696C182.886 822.435 183.07 822.235 183.315 822.096C183.561 821.952 183.841 821.88 184.155 821.88ZM190.371 820.112V826H189.731V825.272C189.614 825.523 189.435 825.717 189.195 825.856C188.96 825.989 188.686 826.056 188.371 826.056C188.019 826.056 187.707 825.968 187.435 825.792C187.168 825.616 186.96 825.371 186.811 825.056C186.662 824.736 186.587 824.368 186.587 823.952C186.587 823.536 186.659 823.173 186.803 822.864C186.952 822.549 187.163 822.307 187.435 822.136C187.707 821.965 188.019 821.88 188.371 821.88C188.686 821.88 188.96 821.949 189.195 822.088C189.43 822.221 189.606 822.411 189.723 822.656V820.112H190.371ZM188.499 825.52C188.894 825.52 189.198 825.387 189.411 825.12C189.624 824.848 189.731 824.464 189.731 823.968C189.731 823.477 189.624 823.099 189.411 822.832C189.198 822.56 188.894 822.424 188.499 822.424C188.104 822.424 187.795 822.557 187.571 822.824C187.352 823.091 187.243 823.467 187.243 823.952C187.243 824.448 187.352 824.835 187.571 825.112C187.795 825.384 188.104 825.52 188.499 825.52ZM194.992 823.968H192.04C192.045 824.48 192.163 824.867 192.392 825.128C192.627 825.389 192.965 825.52 193.408 825.52C193.877 825.52 194.309 825.363 194.704 825.048L194.92 825.52C194.744 825.685 194.517 825.816 194.24 825.912C193.968 826.008 193.688 826.056 193.4 826.056C192.771 826.056 192.277 825.872 191.92 825.504C191.563 825.131 191.384 824.621 191.384 823.976C191.384 823.565 191.464 823.203 191.624 822.888C191.784 822.568 192.008 822.32 192.296 822.144C192.584 821.968 192.912 821.88 193.28 821.88C193.813 821.88 194.232 822.056 194.536 822.408C194.84 822.755 194.992 823.235 194.992 823.848V823.968ZM193.288 822.384C192.952 822.384 192.677 822.485 192.464 822.688C192.256 822.891 192.123 823.176 192.064 823.544H194.408C194.376 823.165 194.264 822.877 194.072 822.68C193.885 822.483 193.624 822.384 193.288 822.384ZM197.848 821.88C197.981 821.88 198.104 821.896 198.216 821.928L198.2 822.52C198.077 822.477 197.936 822.456 197.776 822.456C197.386 822.456 197.096 822.579 196.904 822.824C196.717 823.064 196.624 823.357 196.624 823.704V826H195.976V823.104C195.976 822.688 195.954 822.312 195.912 821.976H196.528L196.592 822.72C196.693 822.448 196.856 822.24 197.08 822.096C197.304 821.952 197.56 821.88 197.848 821.88ZM202.648 826.056C202.259 826.056 201.917 825.971 201.624 825.8C201.336 825.629 201.112 825.389 200.952 825.08C200.797 824.765 200.72 824.4 200.72 823.984C200.72 823.568 200.8 823.203 200.96 822.888C201.12 822.568 201.347 822.32 201.64 822.144C201.939 821.968 202.285 821.88 202.68 821.88C202.952 821.88 203.213 821.928 203.464 822.024C203.72 822.115 203.931 822.243 204.096 822.408L203.88 822.888C203.677 822.728 203.48 822.611 203.288 822.536C203.101 822.461 202.909 822.424 202.712 822.424C202.301 822.424 201.979 822.563 201.744 822.84C201.509 823.112 201.392 823.493 201.392 823.984C201.392 824.469 201.507 824.848 201.736 825.12C201.971 825.387 202.296 825.52 202.712 825.52C202.909 825.52 203.101 825.483 203.288 825.408C203.48 825.333 203.677 825.216 203.88 825.056L204.096 825.536C203.925 825.696 203.709 825.824 203.448 825.92C203.192 826.011 202.925 826.056 202.648 826.056ZM206.793 821.88C206.926 821.88 207.049 821.896 207.161 821.928L207.145 822.52C207.022 822.477 206.881 822.456 206.721 822.456C206.332 822.456 206.041 822.579 205.849 822.824C205.662 823.064 205.569 823.357 205.569 823.704V826H204.921V823.104C204.921 822.688 204.9 822.312 204.857 821.976H205.473L205.537 822.72C205.638 822.448 205.801 822.24 206.025 822.096C206.249 821.952 206.505 821.88 206.793 821.88ZM211.109 823.968H208.157C208.163 824.48 208.28 824.867 208.509 825.128C208.744 825.389 209.083 825.52 209.525 825.52C209.995 825.52 210.427 825.363 210.821 825.048L211.037 825.52C210.861 825.685 210.635 825.816 210.357 825.912C210.085 826.008 209.805 826.056 209.517 826.056C208.888 826.056 208.395 825.872 208.037 825.504C207.68 825.131 207.501 824.621 207.501 823.976C207.501 823.565 207.581 823.203 207.741 822.888C207.901 822.568 208.125 822.32 208.413 822.144C208.701 821.968 209.029 821.88 209.397 821.88C209.931 821.88 210.349 822.056 210.653 822.408C210.957 822.755 211.109 823.235 211.109 823.848V823.968ZM209.405 822.384C209.069 822.384 208.795 822.485 208.581 822.688C208.373 822.891 208.24 823.176 208.181 823.544H210.525C210.493 823.165 210.381 822.877 210.189 822.68C210.003 822.483 209.741 822.384 209.405 822.384ZM215.637 821.976V826H214.997V825.272C214.879 825.523 214.701 825.717 214.461 825.856C214.226 825.989 213.951 826.056 213.637 826.056C213.279 826.056 212.965 825.971 212.693 825.8C212.426 825.629 212.218 825.389 212.069 825.08C211.925 824.765 211.853 824.4 211.853 823.984C211.853 823.568 211.927 823.203 212.077 822.888C212.226 822.568 212.434 822.32 212.701 822.144C212.973 821.968 213.285 821.88 213.637 821.88C213.951 821.88 214.226 821.949 214.461 822.088C214.695 822.227 214.874 822.421 214.997 822.672V821.976H215.637ZM213.765 825.52C214.159 825.52 214.463 825.387 214.677 825.12C214.89 824.848 214.997 824.464 214.997 823.968C214.997 823.472 214.89 823.091 214.677 822.824C214.463 822.557 214.159 822.424 213.765 822.424C213.37 822.424 213.061 822.563 212.837 822.84C212.618 823.112 212.509 823.493 212.509 823.984C212.509 824.475 212.618 824.853 212.837 825.12C213.055 825.387 213.365 825.52 213.765 825.52ZM217.754 822.488V824.688C217.754 824.987 217.815 825.197 217.938 825.32C218.06 825.437 218.234 825.496 218.458 825.496C218.607 825.496 218.751 825.472 218.89 825.424V825.976C218.724 826.029 218.538 826.056 218.33 826.056C217.946 826.056 217.644 825.949 217.426 825.736C217.212 825.517 217.106 825.197 217.106 824.776V822.488H216.322V821.976H217.106V820.944L217.754 820.712V821.976H218.906V822.488H217.754ZM219.687 821.976H220.335V826H219.687V821.976ZM220.415 820.272V821.008H219.623V820.272H220.415ZM225.129 821.984L223.393 826H222.777L221.065 821.984H221.745L223.105 825.296L224.481 821.984H225.129ZM229.164 823.968H226.212C226.217 824.48 226.335 824.867 226.564 825.128C226.799 825.389 227.137 825.52 227.58 825.52C228.049 825.52 228.481 825.363 228.876 825.048L229.092 825.52C228.916 825.685 228.689 825.816 228.412 825.912C228.14 826.008 227.86 826.056 227.572 826.056C226.943 826.056 226.449 825.872 226.092 825.504C225.735 825.131 225.556 824.621 225.556 823.976C225.556 823.565 225.636 823.203 225.796 822.888C225.956 822.568 226.18 822.32 226.468 822.144C226.756 821.968 227.084 821.88 227.452 821.88C227.985 821.88 228.404 822.056 228.708 822.408C229.012 822.755 229.164 823.235 229.164 823.848V823.968ZM227.46 822.384C227.124 822.384 226.849 822.485 226.636 822.688C226.428 822.891 226.295 823.176 226.236 823.544H228.58C228.548 823.165 228.436 822.877 228.244 822.68C228.057 822.483 227.796 822.384 227.46 822.384ZM233.921 826.056C233.532 826.056 233.191 825.971 232.897 825.8C232.609 825.629 232.385 825.389 232.225 825.08C232.071 824.765 231.993 824.4 231.993 823.984C231.993 823.568 232.073 823.203 232.233 822.888C232.393 822.568 232.62 822.32 232.913 822.144C233.212 821.968 233.559 821.88 233.953 821.88C234.225 821.88 234.487 821.928 234.737 822.024C234.993 822.115 235.204 822.243 235.369 822.408L235.153 822.888C234.951 822.728 234.753 822.611 234.561 822.536C234.375 822.461 234.183 822.424 233.985 822.424C233.575 822.424 233.252 822.563 233.017 822.84C232.783 823.112 232.665 823.493 232.665 823.984C232.665 824.469 232.78 824.848 233.009 825.12C233.244 825.387 233.569 825.52 233.985 825.52C234.183 825.52 234.375 825.483 234.561 825.408C234.753 825.333 234.951 825.216 235.153 825.056L235.369 825.536C235.199 825.696 234.983 825.824 234.721 825.92C234.465 826.011 234.199 826.056 233.921 826.056ZM237.858 826.056C237.48 826.056 237.146 825.971 236.858 825.8C236.57 825.629 236.346 825.387 236.186 825.072C236.032 824.757 235.954 824.389 235.954 823.968C235.954 823.547 236.032 823.179 236.186 822.864C236.346 822.549 236.57 822.307 236.858 822.136C237.146 821.965 237.48 821.88 237.858 821.88C238.237 821.88 238.57 821.965 238.858 822.136C239.146 822.307 239.368 822.549 239.522 822.864C239.682 823.179 239.762 823.547 239.762 823.968C239.762 824.389 239.682 824.757 239.522 825.072C239.368 825.387 239.146 825.629 238.858 825.8C238.57 825.971 238.237 826.056 237.858 826.056ZM237.858 825.52C238.258 825.52 238.565 825.389 238.778 825.128C238.992 824.861 239.098 824.475 239.098 823.968C239.098 823.477 238.989 823.099 238.77 822.832C238.552 822.56 238.248 822.424 237.858 822.424C237.464 822.424 237.157 822.56 236.938 822.832C236.72 823.099 236.61 823.477 236.61 823.968C236.61 824.475 236.717 824.861 236.93 825.128C237.149 825.389 237.458 825.52 237.858 825.52ZM245.236 821.88C246.127 821.88 246.572 822.411 246.572 823.472V826H245.924V823.504C245.924 823.125 245.858 822.851 245.724 822.68C245.596 822.509 245.386 822.424 245.092 822.424C244.751 822.424 244.484 822.539 244.292 822.768C244.1 822.997 244.004 823.309 244.004 823.704V826H243.356V823.504C243.356 823.131 243.29 822.859 243.156 822.688C243.023 822.512 242.81 822.424 242.516 822.424C242.175 822.424 241.906 822.539 241.708 822.768C241.516 822.997 241.42 823.309 241.42 823.704V826H240.772V823.104C240.772 822.688 240.751 822.312 240.708 821.976H241.324L241.388 822.68C241.5 822.424 241.666 822.227 241.884 822.088C242.108 821.949 242.367 821.88 242.66 821.88C242.98 821.88 243.242 821.944 243.444 822.072C243.647 822.2 243.796 822.397 243.892 822.664C244.015 822.424 244.194 822.235 244.428 822.096C244.668 821.952 244.938 821.88 245.236 821.88ZM252.268 821.88C253.158 821.88 253.604 822.411 253.604 823.472V826H252.956V823.504C252.956 823.125 252.889 822.851 252.756 822.68C252.628 822.509 252.417 822.424 252.124 822.424C251.782 822.424 251.516 822.539 251.324 822.768C251.132 822.997 251.036 823.309 251.036 823.704V826H250.388V823.504C250.388 823.131 250.321 822.859 250.188 822.688C250.054 822.512 249.841 822.424 249.548 822.424C249.206 822.424 248.937 822.539 248.74 822.768C248.548 822.997 248.452 823.309 248.452 823.704V826H247.804V823.104C247.804 822.688 247.782 822.312 247.74 821.976H248.356L248.42 822.68C248.532 822.424 248.697 822.227 248.916 822.088C249.14 821.949 249.398 821.88 249.692 821.88C250.012 821.88 250.273 821.944 250.476 822.072C250.678 822.2 250.828 822.397 250.924 822.664C251.046 822.424 251.225 822.235 251.46 822.096C251.7 821.952 251.969 821.88 252.268 821.88ZM256.499 826.056C256.12 826.056 255.787 825.971 255.499 825.8C255.211 825.629 254.987 825.387 254.827 825.072C254.672 824.757 254.595 824.389 254.595 823.968C254.595 823.547 254.672 823.179 254.827 822.864C254.987 822.549 255.211 822.307 255.499 822.136C255.787 821.965 256.12 821.88 256.499 821.88C256.878 821.88 257.211 821.965 257.499 822.136C257.787 822.307 258.008 822.549 258.163 822.864C258.323 823.179 258.403 823.547 258.403 823.968C258.403 824.389 258.323 824.757 258.163 825.072C258.008 825.387 257.787 825.629 257.499 825.8C257.211 825.971 256.878 826.056 256.499 826.056ZM256.499 825.52C256.899 825.52 257.206 825.389 257.419 825.128C257.632 824.861 257.739 824.475 257.739 823.968C257.739 823.477 257.63 823.099 257.411 822.832C257.192 822.56 256.888 822.424 256.499 822.424C256.104 822.424 255.798 822.56 255.579 822.832C255.36 823.099 255.251 823.477 255.251 823.968C255.251 824.475 255.358 824.861 255.571 825.128C255.79 825.389 256.099 825.52 256.499 825.52ZM261.421 821.88C262.386 821.88 262.869 822.411 262.869 823.472V826H262.221V823.504C262.221 823.131 262.146 822.859 261.997 822.688C261.848 822.512 261.613 822.424 261.293 822.424C260.92 822.424 260.621 822.539 260.397 822.768C260.173 822.997 260.061 823.307 260.061 823.696V826H259.413V823.104C259.413 822.688 259.392 822.312 259.349 821.976H259.965L260.029 822.696C260.152 822.435 260.336 822.235 260.581 822.096C260.826 821.952 261.106 821.88 261.421 821.88ZM265.453 826.056C264.775 826.056 264.239 825.883 263.845 825.536L264.061 825.056C264.279 825.227 264.501 825.349 264.725 825.424C264.949 825.499 265.199 825.536 265.477 825.536C265.781 825.536 266.01 825.485 266.165 825.384C266.325 825.277 266.405 825.125 266.405 824.928C266.405 824.768 266.351 824.64 266.245 824.544C266.138 824.448 265.962 824.373 265.717 824.32L265.037 824.16C264.701 824.085 264.439 823.952 264.253 823.76C264.071 823.568 263.981 823.339 263.981 823.072C263.981 822.72 264.122 822.435 264.405 822.216C264.687 821.992 265.061 821.88 265.525 821.88C265.807 821.88 266.074 821.925 266.325 822.016C266.575 822.107 266.786 822.237 266.957 822.408L266.741 822.88C266.362 822.565 265.957 822.408 265.525 822.408C265.237 822.408 265.013 822.464 264.853 822.576C264.698 822.683 264.621 822.835 264.621 823.032C264.621 823.197 264.669 823.328 264.765 823.424C264.866 823.52 265.026 823.595 265.245 823.648L265.925 823.816C266.298 823.901 266.575 824.035 266.757 824.216C266.938 824.392 267.029 824.624 267.029 824.912C267.029 825.259 266.887 825.536 266.605 825.744C266.322 825.952 265.938 826.056 265.453 826.056ZM270.147 820.112H270.795V826H270.147V820.112ZM272.054 821.976H272.702V826H272.054V821.976ZM272.782 820.272V821.008H271.99V820.272H272.782ZM275.648 826.056C275.259 826.056 274.917 825.971 274.624 825.8C274.336 825.629 274.112 825.389 273.952 825.08C273.797 824.765 273.72 824.4 273.72 823.984C273.72 823.568 273.8 823.203 273.96 822.888C274.12 822.568 274.347 822.32 274.64 822.144C274.939 821.968 275.285 821.88 275.68 821.88C275.952 821.88 276.213 821.928 276.464 822.024C276.72 822.115 276.931 822.243 277.096 822.408L276.88 822.888C276.677 822.728 276.48 822.611 276.288 822.536C276.101 822.461 275.909 822.424 275.712 822.424C275.301 822.424 274.979 822.563 274.744 822.84C274.509 823.112 274.392 823.493 274.392 823.984C274.392 824.469 274.507 824.848 274.736 825.12C274.971 825.387 275.296 825.52 275.712 825.52C275.909 825.52 276.101 825.483 276.288 825.408C276.48 825.333 276.677 825.216 276.88 825.056L277.096 825.536C276.925 825.696 276.709 825.824 276.448 825.92C276.192 826.011 275.925 826.056 275.648 826.056ZM281.289 823.968H278.337C278.342 824.48 278.46 824.867 278.689 825.128C278.924 825.389 279.262 825.52 279.705 825.52C280.174 825.52 280.606 825.363 281.001 825.048L281.217 825.52C281.041 825.685 280.814 825.816 280.537 825.912C280.265 826.008 279.985 826.056 279.697 826.056C279.068 826.056 278.574 825.872 278.217 825.504C277.86 825.131 277.681 824.621 277.681 823.976C277.681 823.565 277.761 823.203 277.921 822.888C278.081 822.568 278.305 822.32 278.593 822.144C278.881 821.968 279.209 821.88 279.577 821.88C280.11 821.88 280.529 822.056 280.833 822.408C281.137 822.755 281.289 823.235 281.289 823.848V823.968ZM279.585 822.384C279.249 822.384 278.974 822.485 278.761 822.688C278.553 822.891 278.42 823.176 278.361 823.544H280.705C280.673 823.165 280.561 822.877 280.369 822.68C280.182 822.483 279.921 822.384 279.585 822.384ZM284.28 821.88C285.246 821.88 285.728 822.411 285.728 823.472V826H285.08V823.504C285.08 823.131 285.006 822.859 284.856 822.688C284.707 822.512 284.472 822.424 284.152 822.424C283.779 822.424 283.48 822.539 283.256 822.768C283.032 822.997 282.92 823.307 282.92 823.696V826H282.272V823.104C282.272 822.688 282.251 822.312 282.208 821.976H282.824L282.888 822.696C283.011 822.435 283.195 822.235 283.44 822.096C283.686 821.952 283.966 821.88 284.28 821.88ZM288.64 826.056C288.251 826.056 287.909 825.971 287.616 825.8C287.328 825.629 287.104 825.389 286.944 825.08C286.789 824.765 286.712 824.4 286.712 823.984C286.712 823.568 286.792 823.203 286.952 822.888C287.112 822.568 287.339 822.32 287.632 822.144C287.931 821.968 288.277 821.88 288.672 821.88C288.944 821.88 289.205 821.928 289.456 822.024C289.712 822.115 289.923 822.243 290.088 822.408L289.872 822.888C289.669 822.728 289.472 822.611 289.28 822.536C289.093 822.461 288.901 822.424 288.704 822.424C288.293 822.424 287.971 822.563 287.736 822.84C287.501 823.112 287.384 823.493 287.384 823.984C287.384 824.469 287.499 824.848 287.728 825.12C287.963 825.387 288.288 825.52 288.704 825.52C288.901 825.52 289.093 825.483 289.28 825.408C289.472 825.333 289.669 825.216 289.872 825.056L290.088 825.536C289.917 825.696 289.701 825.824 289.44 825.92C289.184 826.011 288.917 826.056 288.64 826.056ZM294.281 823.968H291.329C291.334 824.48 291.452 824.867 291.681 825.128C291.916 825.389 292.254 825.52 292.697 825.52C293.166 825.52 293.598 825.363 293.993 825.048L294.209 825.52C294.033 825.685 293.806 825.816 293.529 825.912C293.257 826.008 292.977 826.056 292.689 826.056C292.06 826.056 291.566 825.872 291.209 825.504C290.852 825.131 290.673 824.621 290.673 823.976C290.673 823.565 290.753 823.203 290.913 822.888C291.073 822.568 291.297 822.32 291.585 822.144C291.873 821.968 292.201 821.88 292.569 821.88C293.102 821.88 293.521 822.056 293.825 822.408C294.129 822.755 294.281 823.235 294.281 823.848V823.968ZM292.577 822.384C292.241 822.384 291.966 822.485 291.753 822.688C291.545 822.891 291.412 823.176 291.353 823.544H293.697C293.665 823.165 293.553 822.877 293.361 822.68C293.174 822.483 292.913 822.384 292.577 822.384ZM299.863 826.064C299.324 826.064 298.855 825.947 298.455 825.712C298.06 825.477 297.756 825.141 297.543 824.704C297.329 824.261 297.223 823.741 297.223 823.144C297.223 822.547 297.329 822.032 297.543 821.6C297.756 821.163 298.06 820.827 298.455 820.592C298.855 820.357 299.324 820.24 299.863 820.24C300.257 820.24 300.617 820.301 300.943 820.424C301.273 820.541 301.559 820.72 301.799 820.96L301.551 821.464C301.279 821.229 301.009 821.061 300.743 820.96C300.481 820.859 300.191 820.808 299.871 820.808C299.247 820.808 298.761 821.011 298.415 821.416C298.073 821.821 297.903 822.397 297.903 823.144C297.903 823.896 298.073 824.477 298.415 824.888C298.756 825.293 299.241 825.496 299.871 825.496C300.191 825.496 300.481 825.445 300.743 825.344C301.009 825.243 301.279 825.075 301.551 824.84L301.799 825.344C301.559 825.584 301.273 825.765 300.943 825.888C300.617 826.005 300.257 826.064 299.863 826.064ZM305.245 826.064C304.707 826.064 304.237 825.947 303.837 825.712C303.443 825.477 303.139 825.141 302.925 824.704C302.712 824.261 302.605 823.741 302.605 823.144C302.605 822.547 302.712 822.032 302.925 821.6C303.139 821.163 303.443 820.827 303.837 820.592C304.237 820.357 304.707 820.24 305.245 820.24C305.64 820.24 306 820.301 306.325 820.424C306.656 820.541 306.941 820.72 307.181 820.96L306.933 821.464C306.661 821.229 306.392 821.061 306.125 820.96C305.864 820.859 305.573 820.808 305.253 820.808C304.629 820.808 304.144 821.011 303.797 821.416C303.456 821.821 303.285 822.397 303.285 823.144C303.285 823.896 303.456 824.477 303.797 824.888C304.139 825.293 304.624 825.496 305.253 825.496C305.573 825.496 305.864 825.445 306.125 825.344C306.392 825.243 306.661 825.075 306.933 824.84L307.181 825.344C306.941 825.584 306.656 825.765 306.325 825.888C306 826.005 305.64 826.064 305.245 826.064ZM313.6 823.072C313.925 823.163 314.179 823.328 314.36 823.568C314.541 823.803 314.632 824.096 314.632 824.448C314.632 824.944 314.467 825.328 314.136 825.6C313.805 825.867 313.339 826 312.736 826H310.368V820.304H312.656C313.237 820.304 313.688 820.435 314.008 820.696C314.333 820.952 314.496 821.317 314.496 821.792C314.496 822.096 314.416 822.36 314.256 822.584C314.101 822.803 313.883 822.965 313.6 823.072ZM311.016 822.832H312.552C312.979 822.832 313.301 822.747 313.52 822.576C313.739 822.405 313.848 822.155 313.848 821.824C313.848 821.173 313.416 820.848 312.552 820.848H311.016V822.832ZM312.68 825.456C313.128 825.456 313.456 825.373 313.664 825.208C313.877 825.037 313.984 824.779 313.984 824.432C313.984 823.733 313.549 823.384 312.68 823.384H311.016V825.456H312.68ZM317.752 823.696V826H317.096V823.688L314.856 820.304H315.624L317.432 823.104L319.24 820.304H319.992L317.752 823.696ZM326.481 824.76H325.617V826H324.961V824.76H322.337V824.264L325.081 820.304H325.617V824.216H326.481V824.76ZM324.961 824.216V821.416L323.017 824.216H324.961ZM328.078 825.176V826H327.254V825.176H328.078ZM330.994 826.064C330.343 826.064 329.847 825.819 329.506 825.328C329.17 824.832 329.002 824.107 329.002 823.152C329.002 822.197 329.17 821.475 329.506 820.984C329.847 820.488 330.343 820.24 330.994 820.24C331.644 820.24 332.138 820.488 332.474 820.984C332.815 821.475 332.986 822.195 332.986 823.144C332.986 824.099 332.815 824.824 332.474 825.32C332.138 825.816 331.644 826.064 330.994 826.064ZM330.994 825.512C331.447 825.512 331.78 825.32 331.994 824.936C332.212 824.552 332.322 823.955 332.322 823.144C332.322 822.339 332.215 821.747 332.002 821.368C331.788 820.989 331.452 820.8 330.994 820.8C330.54 820.8 330.204 820.989 329.986 821.368C329.772 821.747 329.666 822.339 329.666 823.144C329.666 823.949 329.772 824.547 329.986 824.936C330.204 825.32 330.54 825.512 330.994 825.512Z" fill="black"/>
<circle cx="516" cy="68" r="15" fill="white"/>
<circle cx="474.5" cy="83.5" r="7.5" fill="white"/>
</svg>
