<svg width="130" height="93" viewBox="0 0 130 93" fill="none" xmlns="http://www.w3.org/2000/svg">
<g clip-path="url(#clip0_105:342)">
<path opacity="0.3" d="M129.185 63.4913C127.881 67.0306 125.152 70.2275 122.222 73.255C119.647 75.9169 116.893 78.489 113.959 80.9722C113.145 81.661 112.319 82.3416 111.48 83.0133L110.897 83.4777C110.38 83.8898 109.855 84.299 109.32 84.7036L109.257 84.753C108.738 85.1509 108.215 85.545 107.687 85.9355C105.962 87.2144 104.137 88.4844 102.121 89.5368C101.434 89.8958 100.725 90.2301 99.9908 90.53C99.5936 90.6931 99.188 90.8456 98.7746 90.9877C98.0967 91.2204 97.3999 91.423 96.6732 91.5898C96.5516 91.6183 96.4288 91.6452 96.3066 91.6714C95.5623 91.8292 94.8083 91.9436 94.0472 92.0229C91.2561 92.3108 88.3733 92.0999 85.5783 91.6063C84.1808 91.3595 82.8054 91.0416 81.4749 90.6803C81.3111 90.6362 81.1486 90.5906 80.9848 90.551C76.453 89.272 72.1987 87.5353 67.6351 86.3139C66.0627 85.8928 64.4592 85.5353 62.8254 85.2414C62.0284 85.0985 61.2267 84.9691 60.4204 84.8539C58.5229 84.5877 56.6012 84.4089 54.6716 84.3184C52.0697 84.1898 49.3831 84.2451 46.9071 84.7582C46.5773 84.8263 46.2517 84.9025 45.9303 84.9878C45.5226 85.0955 45.1226 85.2182 44.7301 85.3565C43.6722 85.7417 42.6426 86.2204 41.6507 86.7866C41.4549 86.8951 41.2613 87.005 41.0678 87.1164C40.4608 87.465 39.8619 87.8217 39.2538 88.168C38.1594 88.8143 37.0204 89.3595 35.848 89.7985C35.2058 90.0274 34.5528 90.2159 33.8919 90.3625C32.1432 90.7574 30.2823 90.9137 28.4133 90.9242C27.5121 90.9242 26.6097 90.9025 25.7175 90.8494H25.69C25.3854 90.8314 25.0797 90.8105 24.7739 90.7851C23.3813 90.6774 21.9934 90.5121 20.626 90.2862C15.941 89.5106 11.4976 88.0454 7.92346 85.8098C3.06895 82.7762 -0.0139209 78.2519 0.448739 73.7318C0.780848 70.4756 2.84335 67.4518 4.80049 64.4915C8.44105 58.979 11.8515 53.3412 13.646 47.3985C15.1015 42.5748 15.5356 37.4745 18.8853 33.1392C19.9583 31.7514 21.3303 30.4851 22.9279 29.3751C24.122 28.5502 25.3736 27.8363 26.6704 27.2404C28.1359 26.563 29.6437 26.0081 31.1813 25.58C32.5139 25.2069 33.8644 24.9204 35.2261 24.7219C35.9659 24.6134 36.7149 24.5294 37.4684 24.4726C38.0486 24.4269 38.6315 24.398 39.2171 24.386H39.3076C39.6657 24.3782 40.0237 24.3782 40.3818 24.386C42.9927 24.4316 45.5964 24.7076 48.1691 25.2117C49.7793 25.5153 51.3757 25.8875 52.9389 26.2971C53.8718 26.5409 54.7964 26.7963 55.7126 27.0633C55.992 27.1448 56.2714 27.2275 56.5474 27.3115C63.0659 29.282 68.8012 32.0034 75.0815 34.2363C75.1133 34.2479 75.1445 34.2595 75.1764 34.2686C76.4653 34.7158 77.7744 35.0868 79.0978 35.3799C80.0696 35.5995 81.0641 35.7895 82.0748 35.9562C83.6231 36.2146 85.2046 36.4188 86.7977 36.5945L87.1494 36.6332C89.4868 36.8917 91.845 37.0842 94.1349 37.3091C94.9481 37.3892 95.7547 37.4719 96.549 37.5676C97.0528 37.6244 97.5526 37.6847 98.0473 37.7484C98.4022 37.7949 98.7584 37.8415 99.1146 37.8906C99.4708 37.9397 99.8471 37.9913 100.214 38.0444C100.452 38.078 100.689 38.1128 100.927 38.1503C102.37 38.3661 103.81 38.6077 105.233 38.8843C106.099 39.0522 106.96 39.2331 107.811 39.4283C108.427 39.5696 109.038 39.7185 109.643 39.8754C110.092 39.99 110.538 40.1105 110.979 40.2372C114.564 41.2541 117.92 42.5876 120.812 44.3877C128.32 49.0511 131.68 56.7228 129.185 63.4913Z" fill="#FFC539"/>
<path opacity="0.6" d="M28.5307 11.7352C29.9105 11.7352 31.0291 10.4727 31.0291 8.91516C31.0291 7.35763 29.9105 6.09503 28.5307 6.09503C27.1508 6.09503 26.0322 7.35763 26.0322 8.91516C26.0322 10.4727 27.1508 11.7352 28.5307 11.7352Z" fill="#FFC539"/>
<path opacity="0.6" d="M79.1446 5.64018C80.5246 5.64018 81.6425 4.37759 81.6425 2.8201C81.6425 1.2626 80.5246 0 79.1446 0C77.7646 0 76.646 1.2626 76.646 2.8201C76.646 4.37759 77.7646 5.64018 79.1446 5.64018Z" fill="#FFC539"/>
<path opacity="0.6" d="M109.166 11.9171C110.524 11.9171 111.624 10.6545 111.624 9.09704C111.624 7.53954 110.524 6.27698 109.166 6.27698C107.808 6.27698 106.708 7.53954 106.708 9.09704C106.708 10.6545 107.808 11.9171 109.166 11.9171Z" fill="#FFC539"/>
<path opacity="0.6" d="M4.15065 20.3774C6.44299 20.3774 8.30128 18.2799 8.30128 15.6924C8.30128 13.105 6.44299 11.0074 4.15065 11.0074C1.85831 11.0074 0 13.105 0 15.6924C0 18.2799 1.85831 20.3774 4.15065 20.3774Z" fill="#FFC539"/>
<path opacity="0.6" d="M8.09972 43.484C10.3921 43.484 12.2504 41.3864 12.2504 38.799C12.2504 36.2116 10.3921 34.114 8.09972 34.114C5.80741 34.114 3.9491 36.2116 3.9491 38.799C3.9491 41.3864 5.80741 43.484 8.09972 43.484Z" fill="#FFC539"/>
<path opacity="0.6" d="M119.563 35.0237C121.856 35.0237 123.714 32.9262 123.714 30.3387C123.714 27.7513 121.856 25.6537 119.563 25.6537C117.27 25.6537 115.412 27.7513 115.412 30.3387C115.412 32.9262 117.27 35.0237 119.563 35.0237Z" fill="#FFC539"/>
<path d="M40.5856 30.948C40.6061 31.3405 40.5858 31.7344 40.5249 32.1217C40.2959 33.32 39.3271 34.1428 38.3893 34.7671C37.4514 35.3914 36.4208 35.9822 35.8632 37.0359C35.191 38.309 35.4051 40.0206 36.1941 41.2098C36.9831 42.399 38.2336 43.1071 39.5206 43.4025C41.868 43.9481 44.4388 43.1819 46.1988 41.3504C47.9588 39.5188 48.8417 36.6567 48.4099 33.9983C47.455 34.1493 46.6042 33.2 46.295 32.1707C45.9858 31.1414 46.0499 30.0257 45.9297 28.9461C45.9209 28.7636 45.8722 28.5864 45.7877 28.4302C45.6538 28.2212 45.4167 28.1361 45.1957 28.0677C44.0918 27.7259 42.2345 26.9778 41.0906 27.2642C40.0599 27.5299 40.5684 29.9728 40.5856 30.948Z" fill="#BE6F72"/>
<path opacity="0.1" d="M40.5856 30.948C40.6061 31.3405 40.5858 31.7344 40.5249 32.1217C40.2959 33.32 39.3271 34.1428 38.3893 34.7671C37.4514 35.3914 36.4208 35.9822 35.8632 37.0359C35.191 38.309 35.4051 40.0206 36.1941 41.2098C36.9831 42.399 38.2336 43.1071 39.5206 43.4025C41.868 43.9481 44.4388 43.1819 46.1988 41.3504C47.9588 39.5188 48.8417 36.6567 48.4099 33.9983C47.455 34.1493 46.6042 33.2 46.295 32.1707C45.9858 31.1414 46.0499 30.0257 45.9297 28.9461C45.9209 28.7636 45.8722 28.5864 45.7877 28.4302C45.6538 28.2212 45.4167 28.1361 45.1957 28.0677C44.0918 27.7259 42.2345 26.9778 41.0906 27.2642C40.0599 27.5299 40.5684 29.9728 40.5856 30.948Z" fill="black"/>
<path d="M39.2515 88.1494C38.16 88.7926 37.0239 89.3356 35.8546 89.7731C35.2141 90.0005 34.5628 90.1882 33.9037 90.3341C33.8571 89.3446 33.9049 88.3521 34.0465 87.3745C34.1355 86.8121 34.2669 86.2548 34.3011 85.6849C34.3496 84.8622 34.1934 84.0402 33.85 83.3117C35.1224 83.1165 36.3309 82.7972 37.6091 82.8914L37.6901 82.8974C37.8421 82.9019 37.9925 82.934 38.1356 82.9916C38.3322 83.0986 38.4993 83.2646 38.6188 83.4703C38.6845 83.5713 38.7452 83.6767 38.8004 83.7859C39.1613 84.4882 39.2984 85.299 39.3269 86.1337C39.3404 86.8068 39.3152 87.48 39.2515 88.1494Z" fill="#BE6F72"/>
<path d="M45.9393 85.0162C45.5336 85.1217 45.1355 85.2428 44.745 85.3782C43.6923 85.7582 42.6677 86.2286 41.6807 86.7858C41.6166 86.4395 41.5852 86.0865 41.5872 85.7335C42.1689 85.2855 42.8252 84.9728 43.5173 84.8143C44.2094 84.6557 44.9229 84.6535 45.6156 84.809C45.7083 84.821 45.7963 84.8607 45.8709 84.9235C45.8979 84.9497 45.921 84.9811 45.9393 85.0162Z" fill="#BE6F72"/>
<path d="M47.8622 78.4845C47.7845 79.3312 47.6703 80.1801 47.4053 80.9759C47.1186 81.83 46.6525 82.658 46.7119 83.5705C46.7382 83.9662 46.857 84.3962 46.8741 84.7881C46.5451 84.8562 46.2203 84.9332 45.8997 85.0185C45.493 85.1262 45.094 85.2496 44.7026 85.3872C43.6473 85.7739 42.6203 86.2526 41.6309 86.8203C41.4355 86.9287 41.2425 87.0387 41.0494 87.1501C40.9694 87.1381 40.8906 87.1239 40.8107 87.1075C40.2395 86.9893 39.6386 86.6999 39.3154 86.1823C39.2414 86.0626 39.1832 85.9317 39.1428 85.7941C38.9566 85.1636 39.1508 84.3783 38.7636 83.8786L38.7453 83.8966L38.7316 83.9071C38.5195 84.1247 38.2865 84.3147 38.0371 84.474C37.4693 84.8375 36.8403 85.0626 36.1909 85.1337C35.5415 85.204 34.8861 85.1195 34.2674 84.8854C34.0223 84.7911 33.7855 84.67 33.5603 84.5256C33.0371 84.1875 32.5322 83.6199 32.5733 82.9415C32.5962 82.5638 32.787 82.201 32.7355 81.8271C32.6978 81.5593 32.5425 81.3372 32.4259 81.1001C31.6617 79.5473 32.5733 77.5504 32.0935 75.863C32.0821 75.8226 32.0695 75.783 32.057 75.7441C32.0216 75.6342 31.9816 75.5279 31.9427 75.4217C31.8445 75.1742 31.7349 74.9311 31.648 74.6775C31.5757 74.4642 31.5185 74.2449 31.4767 74.0214C31.3688 73.3725 31.3305 72.7111 31.3625 72.0518C31.3625 70.3139 31.6366 68.5345 32.0273 66.8599C32.097 66.5623 32.1747 66.1417 32.2775 65.6835C32.3776 65.2008 32.5129 64.7281 32.6818 64.2704C32.9103 63.6751 33.221 63.2003 33.646 63.0876C34.2857 62.9181 35.2635 63.2765 35.9123 63.3646L38.4769 63.7114L43.6048 64.4063C44.4901 64.5266 45.42 64.6652 46.1499 65.2293C46.1979 65.2669 46.2447 65.3057 46.2915 65.3471C46.4844 65.5192 46.6571 65.7183 46.8056 65.9398C46.8582 66.0162 46.9084 66.0964 46.9564 66.1779C47.1228 66.4664 47.2643 66.7724 47.3791 67.0915C48.0153 68.8231 48.0302 70.7551 48.0347 72.6303C48.0347 74.5869 48.0404 76.5421 47.8622 78.4845Z" fill="#3F3D56"/>
<path opacity="0.1" d="M38.0415 84.4209C37.8861 83.7493 37.5582 82.7762 37.5098 82.5114C37.3477 81.6229 37.2301 80.7246 37.1577 79.8211C37.0299 78.2116 36.7998 75.9453 37.3062 74.4141C37.7814 74.6983 38.1991 75.5033 38.419 76.0523C39.2153 78.0433 38.3188 80.4883 39.0668 82.5025C39.1227 82.6229 39.1575 82.7545 39.1692 82.8899C39.1562 83.0619 39.1013 83.2265 39.0105 83.3656L38.7584 83.8353L38.0415 84.4209Z" fill="black"/>
<path d="M54.553 23.0042C55.394 21.4563 56.5457 19.9342 56.4737 18.1244C56.4474 17.4794 56.2601 16.8486 56.1172 16.2165C55.7079 14.3872 55.6809 12.4755 56.0384 10.6325C57.4513 10.3761 58.8975 10.7419 60.0786 11.6541C60.4523 11.9456 60.8065 12.3081 60.971 12.7867C61.123 13.2278 61.0978 13.7193 61.0704 14.1914C61.0075 15.2762 60.9219 16.4333 60.33 17.2872C60.146 17.5542 59.9198 17.78 59.7404 18.0496C59.4788 18.4366 59.3257 18.9087 59.176 19.3692L57.2335 25.3351C56.2532 28.3419 55.1906 31.4868 53.031 33.5674C52.9785 33.6177 51.4314 31.1372 51.3034 30.8883C50.7858 29.8679 51.012 29.437 51.6382 28.5831C52.8734 26.8946 53.5441 24.8578 54.553 23.0042Z" fill="#BE6F72"/>
<path d="M32.238 73.9592C32.2313 74.4054 32.1979 74.8503 32.1379 75.2916C32.1172 75.4547 32.093 75.6162 32.0642 75.7778C31.6718 78.0784 30.6947 80.2661 30.0112 82.5077C29.11 85.4658 28.7142 88.0327 28.4 90.9706C27.4943 90.9706 26.5874 90.9489 25.691 90.8958H25.6633C25.3572 90.8778 25.0499 90.8569 24.7427 90.8314C25.02 88.091 24.5125 85.2167 25.0085 82.474C25.2087 81.3701 25.5506 80.299 25.7565 79.2003C25.82 78.8764 25.8681 78.5496 25.9004 78.2205C25.9292 77.9079 25.9441 77.5833 26.0696 77.3013C26.081 77.2744 26.0941 77.2482 26.1087 77.2228C26.2189 77.0276 26.3556 76.8533 26.5138 76.7059C27.916 75.3245 29.6311 74.4063 31.4693 74.0523C31.7305 74.0122 31.9848 73.9786 32.238 73.9592Z" fill="#FBBEBE"/>
<path opacity="0.1" d="M32.238 73.9592C32.2313 74.4054 32.1979 74.8503 32.1379 75.2916C32.1172 75.4547 32.093 75.6162 32.0642 75.7778C31.6718 78.0784 30.6947 80.2661 30.0112 82.5077C29.11 85.4658 28.7142 88.0327 28.4 90.9706C27.4943 90.9706 26.5874 90.9489 25.691 90.8958H25.6633C25.3572 90.8778 25.0499 90.8569 24.7427 90.8314C25.02 88.091 24.5125 85.2167 25.0085 82.474C25.2087 81.3701 25.5506 80.299 25.7565 79.2003C25.82 78.8764 25.8681 78.5496 25.9004 78.2205C25.9292 77.9079 25.9441 77.5833 26.0696 77.3013C26.081 77.2744 26.0941 77.2482 26.1087 77.2228C26.2189 77.0276 26.3556 76.8533 26.5138 76.7059C27.916 75.3245 29.6311 74.4063 31.4693 74.0523C31.7305 74.0122 31.9848 73.9786 32.238 73.9592Z" fill="black"/>
<path d="M26.4347 79.839C26.4162 80.5571 26.3638 81.2736 26.2778 81.9849C25.972 84.8928 25.9148 87.928 25.7052 90.8801C25.4005 90.8614 25.0947 90.8412 24.789 90.815C23.3963 90.708 22.0082 90.5427 20.6407 90.3161C20.7461 89.6512 20.8522 88.9863 20.9592 88.3221C21.0897 87.5069 21.2203 86.6834 21.1825 85.8569C21.1469 85.0753 20.9614 84.3139 20.8137 83.548C20.4988 81.9071 20.3223 80.1375 19.8035 78.59C19.533 77.7216 19.1011 76.9288 18.5369 76.2639C20.6831 75.3133 22.7457 75.2594 25.0512 75.3597C25.2149 75.3499 25.3775 75.3948 25.5185 75.489C25.6278 75.596 25.709 75.7344 25.7533 75.8899C26.0997 76.8293 26.3172 77.8241 26.3981 78.8376C26.4256 79.1704 26.4379 79.5047 26.4347 79.839Z" fill="#FBBEBE"/>
<path d="M43.7229 30.2932C46.1933 30.2932 48.1959 28.0328 48.1959 25.2444C48.1959 22.456 46.1933 20.1955 43.7229 20.1955C41.2525 20.1955 39.2499 22.456 39.2499 25.2444C39.2499 28.0328 41.2525 30.2932 43.7229 30.2932Z" fill="#BE6F72"/>
<path d="M44.6296 37.048C45.2009 35.9465 45.7014 34.5711 46.8005 34.265C47.4209 34.0907 48.0664 34.3283 48.6708 34.562C48.8459 34.6089 49.0049 34.7131 49.1278 34.8617C49.2171 35.0218 49.265 35.207 49.2661 35.3963C49.4575 37.673 49.451 39.9654 49.2467 42.2407C49.1016 43.8511 48.857 45.4537 48.8136 47.0718C48.7531 49.315 49.0799 51.5581 48.9724 53.7987C48.8913 55.4969 48.5623 57.1654 48.2355 58.8248L46.8645 65.7725C46.8399 65.9875 46.7637 66.1907 46.6439 66.3601C46.5284 66.4799 46.39 66.5683 46.2395 66.6184C44.255 67.4113 42.1453 67.725 40.0469 67.5393C37.9484 67.3535 35.9077 66.6725 34.0566 65.5401C33.5619 65.2327 33.0683 64.8776 32.7461 64.3533C32.2891 63.6094 32.2469 62.6254 32.3954 61.7343C32.5439 60.8433 32.865 60.0025 33.0809 59.1283C33.4145 57.7723 33.4934 56.3569 33.5688 54.9519C33.6693 53.1026 33.7698 51.2417 33.595 49.3989C33.475 48.1294 33.2249 46.8794 33.0364 45.6203C32.7587 43.7226 32.5975 41.8054 32.5542 39.8826C32.5256 38.7346 32.5725 37.46 33.2751 36.6322C33.6179 36.2293 34.0749 35.9865 34.5399 35.7902C35.3203 35.4647 36.192 35.2736 36.9804 35.5706C37.7688 35.8676 38.404 36.8026 38.2178 37.7183C38.132 38.1431 37.8887 38.515 37.8293 38.9464C37.7504 39.5172 38.0178 40.0918 38.4006 40.478C40.4594 42.5804 43.6025 39.042 44.6296 37.048Z" fill="#E3E8F4"/>
<path d="M44.7853 31.8614C45.4137 31.6006 46.0965 31.5557 46.7475 31.732C47.162 31.8433 47.6098 32.0397 47.9921 31.8316C48.1311 31.7566 48.2459 31.6338 48.386 31.5639C48.7649 31.3764 49.2563 31.6066 49.5915 31.3338C49.8028 31.1617 49.8717 30.8489 49.9429 30.5644C50.2877 29.2065 50.9942 28.0004 51.9671 27.1093C51.8465 28.101 51.7593 29.2299 52.3414 29.9876C52.6066 30.3316 52.9786 30.5475 53.3552 30.7157C53.896 30.9575 54.4896 31.1178 55.0603 30.9859C55.6309 30.854 56.1648 30.3678 56.2555 29.72C56.236 30.6937 55.4127 31.3739 55.1819 32.3139C55.0947 32.6656 55.1027 33.0393 55.0419 33.3988C54.8869 34.3169 54.3048 35.0539 53.7961 35.7936C52.1716 38.1726 51.1339 40.9926 50.7879 43.9683C50.7644 44.3215 50.6987 44.6694 50.5927 45.0028C50.4802 45.2585 50.3529 45.5056 50.2115 45.7424C49.37 47.3432 49.6294 49.363 49.9153 51.1914C50.362 54.0556 50.8074 56.8616 51.5307 59.6533C51.6548 60.1305 51.7948 60.6283 52.1106 60.9761C52.0107 62.105 50.9992 62.6197 50.0898 63.1071C49.192 63.5893 48.3637 64.2209 47.6328 64.9807C47.371 65.2523 47.1126 65.5575 47.0173 65.9441C46.9278 66.3074 46.9921 66.707 46.8773 67.06C46.7625 67.413 46.3032 67.6665 46.1011 67.369C45.8485 66.3049 46.2802 65.1915 46.2607 64.0899C46.247 63.3464 46.0311 62.6235 46.0001 61.8799C45.9703 61.0382 46.1907 60.2119 46.4249 59.4128C47.0771 57.1874 47.8647 54.9827 48.0909 52.6539C48.3171 50.3251 47.8945 47.7816 46.4272 46.1201C44.6854 44.139 43.7187 41.4533 41.8518 39.634C41.5555 39.3456 41.2202 38.9875 41.2696 38.5504C41.3037 38.3579 41.379 38.1777 41.489 38.0254C42.1296 37.0065 42.9816 36.175 43.6704 35.2001C44.3594 34.2251 44.9105 33.1027 44.7853 31.8614Z" fill="#3F3D56"/>
<path d="M38.7081 33.9441C38.5936 34.0737 38.5145 34.2527 38.3816 34.3642C38.2265 34.4726 38.0495 34.5346 37.8673 34.5444C37.1932 34.6603 36.5133 34.7292 35.8317 34.7505C35.2589 34.7505 34.6643 34.6935 34.1133 34.8711C33.3447 35.1175 32.7307 35.8046 32.3458 36.5955C31.9609 37.3864 31.7787 38.281 31.631 39.1717C31.3052 41.1341 31.1308 43.1249 31.1097 45.1215C32.054 44.2692 32.8955 43.2807 33.6128 42.181C34.1626 41.3369 34.661 40.4034 35.4456 39.8394C35.8064 39.5801 36.212 39.409 36.5751 39.1562C37.3323 38.6284 37.857 37.7753 38.361 36.9521C38.7322 36.3414 39.8056 35.1486 39.8903 34.4173C39.9625 33.7185 39.109 33.3776 38.7081 33.9441Z" fill="#3F3D56"/>
<path d="M42.6857 21.8039C42.827 21.9002 42.9623 22.0073 43.0908 22.1244C43.8677 22.7395 44.9078 22.6253 45.8472 22.4852C46.1356 22.4437 46.432 22.3969 46.6791 22.2256C47.0762 21.948 47.2627 21.3771 47.2238 20.849C47.1848 20.3209 46.9503 19.8343 46.6642 19.4217C46.2852 18.8756 45.8125 18.4225 45.2746 18.0898C44.7366 17.757 44.1447 17.5515 43.5347 17.4857C43.2189 17.4388 42.8977 17.4775 42.5976 17.5986C42.228 17.7712 41.9499 18.1267 41.609 18.3642C40.6031 19.0649 39.0539 18.7534 38.405 19.872C37.9302 20.6972 38.2689 21.8182 38.0446 22.7668C37.8776 23.4752 37.3959 24.1201 37.4885 24.8428C37.54 25.232 37.7551 25.572 37.9268 25.9198C38.3209 26.7191 38.5033 27.6306 38.452 28.5446C38.8925 28.8976 39.507 28.3488 39.6294 27.7544C39.7518 27.1602 39.6111 26.527 39.7152 25.9275C39.8995 24.8752 40.7187 24.1032 41.0883 23.1378C41.3538 22.4463 41.7863 21.2784 42.6857 21.8039Z" fill="#3F3D56"/>
<path d="M31.8277 33.2889C31.7934 33.5233 31.7718 33.7822 31.8871 33.9806C32.1154 34.3671 32.6384 34.2279 33.0495 34.2859C33.6901 34.3748 34.1628 35.0588 34.2873 35.7776C34.4118 36.4963 34.2633 37.228 34.1012 37.9339C33.7343 39.5338 33.2973 41.1109 32.7903 42.6652C31.4269 42.4836 29.9916 41.8924 29.2677 40.5798C28.6099 39.3856 28.6773 37.8643 28.2594 36.5402C27.9659 35.6075 27.4395 34.796 26.9188 34C27.7558 34.1184 28.3542 33.039 28.4032 32.0883C28.4524 31.1377 28.1874 30.1729 28.3679 29.2441C28.4101 29.0239 31.7089 29.7182 32.0298 29.9693C32.957 30.6945 31.9739 32.2816 31.8277 33.2889Z" fill="#FBBEBE"/>
<path opacity="0.1" d="M31.8277 33.2889C31.7934 33.5233 31.7718 33.7822 31.8871 33.9806C32.1154 34.3671 32.6384 34.2279 33.0495 34.2859C33.6901 34.3748 34.1628 35.0588 34.2873 35.7776C34.4118 36.4963 34.2633 37.228 34.1012 37.9339C33.7343 39.5338 33.2973 41.1109 32.7903 42.6652C31.4269 42.4836 29.9916 41.8924 29.2677 40.5798C28.6099 39.3856 28.6773 37.8643 28.2594 36.5402C27.9659 35.6075 27.4395 34.796 26.9188 34C27.7558 34.1184 28.3542 33.039 28.4032 32.0883C28.4524 31.1377 28.1874 30.1729 28.3679 29.2441C28.4101 29.0239 31.7089 29.7182 32.0298 29.9693C32.957 30.6945 31.9739 32.2816 31.8277 33.2889Z" fill="black"/>
<path d="M31.0695 31.7488C33.5399 31.7488 35.5425 29.4883 35.5425 26.6999C35.5425 23.9115 33.5399 21.6511 31.0695 21.6511C28.5991 21.6511 26.5964 23.9115 26.5964 26.6999C26.5964 29.4883 28.5991 31.7488 31.0695 31.7488Z" fill="#FBBEBE"/>
<path d="M29.7032 32.5384C29.866 32.2518 29.5886 31.8517 29.7158 31.5432C29.7915 31.3574 29.9828 31.2774 30.1307 31.156C30.3161 30.9861 30.464 30.7701 30.5628 30.5249C31.2586 29.019 31.4693 27.288 31.1587 25.6269C31.0533 25.0693 30.9593 24.3285 31.412 24.0781C31.5374 24.0151 31.675 23.9884 31.8119 24.0006C32.6279 24.0303 33.4164 24.646 34.2083 24.4278C34.4786 24.3451 34.72 24.1714 34.9002 23.9299C35.0805 23.6884 35.1909 23.3907 35.2168 23.0765C35.2684 22.2427 34.7137 21.5277 34.1682 20.9663C33.186 19.9493 31.6893 19.7234 30.3554 19.6989L27.8742 19.6524C27.0799 19.6369 26.1895 19.6654 25.6371 20.3068C24.8418 21.2296 25.2417 22.7397 25.1272 24.0187C25.0297 25.0396 24.5763 25.975 23.8665 26.6194C23.3519 27.0814 22.6437 27.5229 22.6529 28.2611C22.6529 28.5193 22.7514 28.7541 22.8144 28.9981C23.0677 29.9635 22.8259 31.0308 22.34 31.8762C21.8541 32.7216 21.1435 33.3721 20.4067 33.9413C20.0124 34.2446 19.6044 34.5363 19.2927 34.948C18.9509 35.4235 18.748 36.0064 18.7116 36.6168C18.6626 37.0833 18.7478 37.5551 18.9546 37.963C19.4394 38.8355 20.6026 38.9632 21.3991 38.4573C22.1956 37.9513 22.6815 36.9937 23.0035 36.0309C23.1961 35.4591 23.392 34.8048 23.8848 34.5479C24.5083 34.2214 25.2371 34.7376 25.6429 35.3636C26.0485 35.9896 26.2984 36.7537 26.8175 37.2622C27.6312 38.0598 29.0156 37.9307 29.7032 36.9937C30.1949 36.3213 30.3037 35.3907 30.2763 34.5195C30.2626 33.81 30.0632 33.1208 29.7032 32.5384Z" fill="#3F3D56"/>
<path d="M31.3406 39.1608C30.8302 39.2835 30.2969 39.0123 29.9173 38.6067C29.5377 38.2012 29.2819 37.6782 29.0158 37.1719C28.3412 35.8949 27.5678 34.6874 26.7047 33.5635C25.9523 32.5859 24.9052 31.5927 23.788 31.8949C23.414 32.0165 23.0669 32.2255 22.7695 32.5084C21.7845 33.3865 21.0136 34.5318 20.5287 35.8368C20.0439 37.142 19.861 38.5643 19.9973 39.9705C20.0845 40.7933 20.283 41.5978 20.3655 42.4244C20.4211 43.1056 20.4373 43.7903 20.4137 44.4739C20.3827 46.5558 20.3197 48.7578 19.323 50.5116C17.778 53.2237 16.9511 56.4628 15.8167 59.4229C15.2043 61.023 14.8373 62.7264 14.4771 64.4209C14.2638 65.4266 14.0508 66.4317 13.8383 67.4365L12.4505 74.0102C12.3071 74.6882 12.1637 75.3985 12.3151 76.0762C12.5445 77.0889 13.3898 77.7964 14.281 78.0851C15.1721 78.3731 16.1161 78.3237 17.0417 78.3327C18.8126 78.3521 20.5972 78.5997 22.2591 79.2923C22.734 79.4897 23.2077 79.7261 23.7135 79.7725C24.2193 79.8196 24.7228 79.6707 25.1964 79.4643C26.4891 78.9011 27.597 77.9146 28.7876 77.1173C29.5312 76.6132 30.3144 76.1861 31.1273 75.8428C31.5356 75.6708 31.9738 75.5085 32.2548 75.1323C32.4669 74.8496 32.5622 74.4802 32.6321 74.1186C33.0198 72.0832 32.7594 69.9743 32.6321 67.8976C32.5048 65.8209 31.4026 63.6267 32.3144 61.816C32.4979 61.4505 32.717 61.0992 32.8111 60.6937C32.9349 60.1642 32.8306 59.5946 32.9349 59.06C33.0118 58.6648 33.1964 58.3096 33.3225 57.9312C33.5428 57.2648 33.5726 56.539 33.5703 55.8273C33.5651 54.265 33.4191 52.7072 33.1345 51.178C32.7732 49.2408 33.9683 47.3256 34.653 45.4955C34.8985 44.8407 35.246 44.2221 35.3481 43.5208C35.4398 42.888 35.3217 42.2436 35.2334 41.6095C35.1016 40.6266 35.0478 39.6326 35.0728 38.6391C35.0946 37.7479 35.1784 36.84 34.9891 35.9734C34.7999 35.1069 34.2596 34.2661 33.4832 34.0879C33.3961 34.0591 33.3045 34.0524 33.2148 34.0683C33.1252 34.0841 33.0398 34.1221 32.9647 34.1796C32.8751 34.2785 32.8119 34.4038 32.7824 34.5412C32.5301 35.4116 32.5793 36.3493 32.4383 37.2533C32.2972 38.1573 32.1321 38.9696 31.3406 39.1608Z" fill="#8C95E3"/>
<path d="M20.5348 44.6708C20.5816 44.3119 20.4346 43.8352 20.1157 43.8481C19.8218 43.8611 19.6908 44.2795 19.692 44.6151C19.6931 44.9507 19.733 45.3354 19.5245 45.5712C19.34 45.7797 19.0347 45.7733 18.8206 45.943C18.745 46.0043 18.6835 46.0854 18.6413 46.1794C18.5991 46.2735 18.5773 46.3776 18.5779 46.4833C18.5779 46.6634 18.6497 46.8356 18.6543 47.0157C18.6589 47.1958 18.5529 47.4044 18.3957 47.3927C18.315 47.5468 18.2813 47.727 18.3001 47.9051C18.3188 48.0832 18.3889 48.2493 18.4993 48.3773C18.5814 48.468 18.6884 48.5458 18.7158 48.6727C18.7244 48.7618 18.7183 48.8518 18.6976 48.9383C18.6498 49.2946 18.8661 49.6936 19.1816 49.7324C19.0051 49.8763 19.0404 50.2131 19.2022 50.3802C19.3639 50.5473 19.5963 50.5797 19.8138 50.5797C20.3076 50.5766 20.7959 50.4617 21.2501 50.2415C21.4058 50.1832 21.5433 50.0753 21.6466 49.9306C21.6945 49.8561 21.7175 49.7645 21.7114 49.6724C21.7053 49.5803 21.6706 49.4936 21.6136 49.428C21.8345 49.4695 22.0999 49.4928 22.2446 49.2984C22.4462 49.0264 22.2298 48.6235 22.0168 48.3605C22.1051 48.3455 22.1876 48.3014 22.2541 48.2336C22.3206 48.1657 22.368 48.0772 22.3906 47.9789C22.4132 47.8806 22.4099 47.777 22.3811 47.6808C22.3523 47.5847 22.2992 47.5002 22.2286 47.4381C22.1557 47.3772 22.0566 47.3241 22.0464 47.2217C22.0361 47.1194 22.1124 47.0533 22.1443 46.9626C22.2172 46.7592 22.0509 46.5519 21.8903 46.4289C21.5099 46.1412 20.9495 46.1464 20.6112 45.8562C20.2729 45.566 20.4859 45.0595 20.5348 44.6708Z" fill="#BE6F72"/>
<path d="M44.1571 25.1085C43.8779 25.14 43.5969 25.1473 43.3166 25.1304C43.2688 25.1246 43.2209 25.14 43.1832 25.1733C43.1455 25.2065 43.121 25.2551 43.1149 25.3084L42.5787 29.8085C42.5375 30.1352 42.418 30.4433 42.2329 30.7C42.0803 30.9044 41.9668 31.1416 41.8996 31.3971C41.8323 31.6525 41.8128 31.9208 41.842 32.185V39.8293C41.842 39.8293 41.8075 40.8485 42.5073 40.8485C43.3448 40.9663 44.1923 40.9663 45.0299 40.8485C45.0299 40.8485 45.5902 40.7298 45.5902 39.7893V32.2624C45.633 31.9998 45.6242 31.73 45.5645 31.4715C45.5047 31.2131 45.3955 30.9724 45.2443 30.7659C45.0654 30.5081 44.9497 30.2026 44.9089 29.8795L44.3519 25.2852C44.3456 25.2335 44.322 25.1866 44.2858 25.1537C44.2496 25.1209 44.2036 25.1047 44.1571 25.1085Z" fill="#3F3D56"/>
<path opacity="0.1" d="M44.1571 25.1085C43.8779 25.14 43.5969 25.1473 43.3166 25.1304C43.2688 25.1246 43.2209 25.14 43.1832 25.1733C43.1455 25.2065 43.121 25.2551 43.1149 25.3084L42.5787 29.8085C42.5375 30.1352 42.418 30.4433 42.2329 30.7C42.0803 30.9044 41.9668 31.1416 41.8996 31.3971C41.8323 31.6525 41.8128 31.9208 41.842 32.185V39.8293C41.842 39.8293 41.8075 40.8485 42.5073 40.8485C43.3448 40.9663 44.1923 40.9663 45.0299 40.8485C45.0299 40.8485 45.5902 40.7298 45.5902 39.7893V32.2624C45.633 31.9998 45.6242 31.73 45.5645 31.4715C45.5047 31.2131 45.3955 30.9724 45.2443 30.7659C45.0654 30.5081 44.9497 30.2026 44.9089 29.8795L44.3519 25.2852C44.3456 25.2335 44.322 25.1866 44.2858 25.1537C44.2496 25.1209 44.2036 25.1047 44.1571 25.1085Z" fill="black"/>
<path d="M44.1864 32.2946H43.3399C42.639 32.2946 42.0707 32.9358 42.0707 33.7269V37.3213C42.0707 38.1123 42.639 38.7535 43.3399 38.7535H44.1864C44.8875 38.7535 45.4557 38.1123 45.4557 37.3213V33.7269C45.4557 32.9358 44.8875 32.2946 44.1864 32.2946Z" fill="#FFC539"/>
<path d="M55.4655 5.57289C55.2183 5.72494 54.9607 5.85479 54.6952 5.96122C54.6491 5.97659 54.6103 6.01138 54.5867 6.05824C54.5632 6.1051 54.5568 6.16036 54.5691 6.21234L55.6262 10.6134C55.7018 10.9329 55.6986 11.2693 55.617 11.5869C55.5457 11.842 55.5223 12.1108 55.5482 12.3765C55.574 12.6423 55.6486 12.8991 55.7673 13.1311L58.4068 20.2091C58.4068 20.2091 58.726 21.1669 59.3749 20.8641C60.1918 20.6105 60.9768 20.2425 61.7113 19.769C61.7113 19.769 62.189 19.4169 61.8651 18.547L59.2662 11.5777C59.215 11.3161 59.1138 11.07 58.9694 10.8564C58.825 10.6427 58.641 10.4666 58.4299 10.3403C58.1756 10.1792 57.9631 9.9468 57.8134 9.66588L55.7118 5.65315C55.688 5.60673 55.649 5.57244 55.6031 5.55748C55.5572 5.54251 55.5079 5.54804 55.4655 5.57289Z" fill="#3F3D56"/>
<path d="M57.9658 12.2645L57.1869 12.6313C56.5419 12.9349 56.2372 13.771 56.5064 14.4987L57.7294 17.8052C57.9985 18.5329 58.7395 18.8767 59.3845 18.573L60.1635 18.2063C60.8085 17.9026 61.1131 17.0666 60.844 16.3388L59.6211 13.0323C59.3519 12.3046 58.6108 11.9609 57.9658 12.2645Z" fill="#FFC539"/>
<path d="M23.3528 32.7011C22.1205 33.2743 21.6332 35.0576 21.9222 36.525C22.211 37.9925 23.0811 39.2153 23.9294 40.3788L26.3071 43.6527C26.9639 44.5585 27.6827 45.5123 28.6846 45.828C30.1497 46.29 31.6148 45.2366 32.8815 44.2842C36.6627 41.44 40.7045 39.0642 44.9369 37.1979C45.3506 37.0168 45.7748 36.833 46.1153 36.5095C46.8215 35.8392 47.0198 34.6034 46.6266 33.6626C46.2334 32.7218 45.3174 32.1097 44.3946 32.102C43.4718 32.0942 42.5742 32.6454 42.0193 33.4788C41.7544 33.8761 41.5608 34.3303 41.3051 34.734C40.6586 35.7486 39.6497 36.3762 38.6627 36.943C36.2828 38.3137 33.8329 39.5236 31.3259 40.5663C30.8673 40.7553 30.3503 40.9351 29.9181 40.6854C29.6533 40.5314 29.4745 40.2402 29.314 39.9556C28.5827 38.6561 28.001 37.2567 27.583 35.7913C27.27 34.6914 27.0167 33.493 26.2646 32.7114C25.1985 31.6038 23.268 31.869 22.469 33.2291C22.469 33.2291 21.5324 34.7755 22.1056 35.4225C22.6788 36.0695 23.3528 32.7011 23.3528 32.7011Z" fill="#FBBEBE"/>
<path d="M87.5855 27.3636C87.7526 27.8651 87.7571 28.4143 87.7331 28.9493C87.7032 29.6015 87.5582 30.3674 87.02 30.6161C86.6697 30.7747 86.2368 30.6548 85.9254 30.8946C85.5478 31.1834 85.566 31.8047 85.6245 32.3127C85.7857 33.7088 85.9677 35.1565 86.643 36.3374C87.0064 36.9703 87.4971 37.4976 87.995 38.0017C88.9882 39.0098 90.077 39.9947 91.3809 40.3312C91.5934 40.3986 91.817 40.4092 92.0335 40.3622C92.2473 40.2878 92.441 40.1549 92.5977 39.9754C93.3536 39.1942 93.743 38.079 94.2467 37.0683C94.6029 36.3452 95.0274 35.6502 95.2276 34.8535C95.3927 34.1574 95.3816 33.4233 95.1964 32.7338C95.0105 32.0443 94.6575 31.427 94.1765 30.9513C93.9536 30.736 93.7059 30.5555 93.4901 30.3325C92.924 29.7549 92.5944 28.9261 92.4592 28.0804C92.324 27.2347 92.3448 26.3645 92.4105 25.502C91.2652 25.4028 90.1283 25.5588 89.011 25.8102C88.5137 25.9223 87.8143 25.9739 87.3645 26.2408C86.8582 26.5437 87.4471 26.9317 87.5855 27.3636Z" fill="#FBBEBE"/>
<path opacity="0.1" d="M87.5855 27.3636C87.7526 27.8651 87.7571 28.4143 87.7331 28.9493C87.7032 29.6015 87.5582 30.3674 87.02 30.6161C86.6697 30.7747 86.2368 30.6548 85.9254 30.8946C85.5478 31.1834 85.566 31.8047 85.6245 32.3127C85.7857 33.7088 85.9677 35.1565 86.643 36.3374C87.0064 36.9703 87.4971 37.4976 87.995 38.0017C88.9882 39.0098 90.077 39.9947 91.3809 40.3312C91.5934 40.3986 91.817 40.4092 92.0335 40.3622C92.2473 40.2878 92.441 40.1549 92.5977 39.9754C93.3536 39.1942 93.743 38.079 94.2467 37.0683C94.6029 36.3452 95.0274 35.6502 95.2276 34.8535C95.3927 34.1574 95.3816 33.4233 95.1964 32.7338C95.0105 32.0443 94.6575 31.427 94.1765 30.9513C93.9536 30.736 93.7059 30.5555 93.4901 30.3325C92.924 29.7549 92.5944 28.9261 92.4592 28.0804C92.324 27.2347 92.3448 26.3645 92.4105 25.502C91.2652 25.4028 90.1283 25.5588 89.011 25.8102C88.5137 25.9223 87.8143 25.9739 87.3645 26.2408C86.8582 26.5437 87.4471 26.9317 87.5855 27.3636Z" fill="black"/>
<path d="M81.1701 31.1665C79.3111 30.4461 78.4225 27.6319 76.4758 27.3163C76.169 27.2659 75.8544 27.2852 75.5534 27.2051C74.4322 26.9051 73.9505 25.4411 73.6262 24.193C72.5342 20.0324 71.1074 15.9611 69.0807 12.2726C68.226 10.7207 66.8733 9.44549 66.2565 7.74611C66.1148 7.35811 66.0426 6.9158 65.7872 6.60929C65.5317 6.30277 64.9856 6.2588 64.8471 6.64938C64.8084 6.78773 64.7998 6.93454 64.8219 7.07746L64.9558 8.68761L62.6271 8.45097C62.4117 8.40946 62.1905 8.42718 61.9825 8.50265C61.7578 8.62965 61.5787 8.84019 61.4753 9.0989C60.6875 10.7711 61.5268 12.962 62.9167 14.0199C64.5402 15.255 66.8584 15.4425 67.9374 17.2855C68.5783 18.3822 68.5913 19.7932 69.0131 21.0179C69.2153 21.6038 69.5091 22.1418 69.7437 22.7096C70.1916 23.7921 70.4204 24.969 70.7675 26.0967C71.2641 27.7095 72.0005 29.2123 72.7344 30.7061C73.2999 31.8597 73.8797 33.034 74.7494 33.916C75.322 34.4954 75.9954 34.9248 76.6682 35.3386C78.3237 36.3604 80.2763 37.3432 82.03 36.5595C82.1308 34.7929 81.7382 32.8232 81.1701 31.1665Z" fill="#FBBEBE"/>
<path d="M86.864 86.7522C86.723 88.4455 85.8143 89.9781 85.6017 91.6078C84.2016 91.3595 82.823 91.0409 81.4892 90.6774C81.3254 90.6332 81.1622 90.5876 80.9984 90.548C81.7531 88.2129 81.0959 85.5981 81.2955 83.1113C81.315 82.8727 81.3423 82.6341 81.3793 82.3985C83.109 81.7313 84.6709 80.8413 86.4844 81.1008C86.5202 81.5159 86.5566 81.9325 86.5923 82.3476C86.6651 83.1771 86.7366 84.005 86.8081 84.833C86.8809 85.4695 86.8998 86.112 86.864 86.7522Z" fill="#FBBEBE"/>
<path d="M98.8098 91.0244C98.1325 91.257 97.4363 91.4612 96.7096 91.628C96.5887 91.6564 96.4659 91.6841 96.3437 91.7095C95.6001 91.8681 94.8467 91.9833 94.0862 92.0626C94.0082 90.2608 92.9416 88.6041 92.7862 86.7545C92.7544 86.2945 92.7583 85.8323 92.7986 85.3738C92.8122 85.192 92.8285 85.011 92.8434 84.8293L93.1658 81.1001C93.4232 81.0634 93.6819 81.0492 93.9406 81.0574C95.4285 81.0971 96.7818 81.8271 98.256 82.3962C98.3658 83.1831 98.4042 83.9804 98.3704 84.7762C98.3145 86.8008 98.0272 88.8502 98.6908 90.708C98.7285 90.8128 98.7695 90.9175 98.8098 91.0244Z" fill="#FBBEBE"/>
<path d="M79.4444 62.6906C79.6452 64.4519 78.8457 66.1383 78.4993 67.8698C78.2698 69.0152 78.2386 70.1941 78.2081 71.3692L78.0267 78.4075C78.0085 79.1113 77.9923 79.8286 78.1827 80.5032C78.5656 81.857 79.746 82.771 80.9745 83.0963C82.2023 83.4217 83.4874 83.2564 84.7386 83.0709C85.3522 82.9789 85.9918 82.8719 86.5001 82.4725C87.1989 81.9243 87.5037 80.9467 87.7676 80.035L88.5119 77.4614C89.3686 79.6334 89.0065 82.0081 89.52 84.3125C89.5532 84.5256 89.6318 84.7268 89.7495 84.8981C89.9659 85.1688 90.3228 85.2115 90.6478 85.2376C92.8955 85.4157 95.1744 85.5922 97.3857 85.1083C97.9934 84.9789 98.6278 84.7702 99.0477 84.2564C99.5365 83.658 99.621 82.7784 99.6152 81.9669C99.5846 79.1764 98.6889 76.4838 98.4894 73.7025C98.4029 72.5106 98.4458 71.3124 98.4075 70.1167C98.3782 69.2174 98.3035 68.3207 98.1839 67.4308C98.1462 67.0232 98.0467 66.6259 97.8907 66.2558C97.5462 65.5327 96.8319 65.1401 96.1552 64.8354C90.8974 62.4311 85.115 62.4543 79.4444 62.6906Z" fill="#8C95E3"/>
<path d="M89.1384 28.019C91.8535 28.019 94.0544 25.5142 94.0544 22.4243C94.0544 19.3344 91.8535 16.8296 89.1384 16.8296C86.4234 16.8296 84.2218 19.3344 84.2218 22.4243C84.2218 25.5142 86.4234 28.019 89.1384 28.019Z" fill="#FBBEBE"/>
<path d="M93.4505 32.2246C93.0845 33.1295 92.5086 34.0344 91.6513 34.2645C90.8628 34.4778 90.0276 34.0499 89.4471 33.4126C88.866 32.7753 88.4864 31.9479 88.0834 31.1555C87.7896 30.5763 87.4627 29.992 86.9661 29.6275C86.2868 29.131 85.41 29.1439 84.6085 29.29C83.8077 29.4362 83.0128 29.6973 82.199 29.6378C81.1856 29.5615 80.1528 28.9914 79.1966 29.3715C79.5067 30.9332 79.3955 32.6499 79.3598 34.2503C79.3656 34.4974 79.3351 34.744 79.2681 34.9794C79.1849 35.199 79.0718 35.403 78.934 35.5844L78.0162 36.9172C79.001 37.7472 79.8525 38.8305 80.1963 40.1607C80.3907 40.9183 80.3309 41.7223 80.3237 42.511C80.3023 44.8263 80.7482 47.1325 80.6071 49.4427C80.442 52.1483 79.4826 54.7054 78.988 57.3594C78.5642 59.6378 78.4842 61.9802 78.7514 64.2885C83.8948 66.2936 89.1943 67.32 94.6315 67.6562C95.5922 67.7156 96.6296 67.7247 97.4181 67.1028C98.0733 66.5857 98.4405 65.7002 98.5653 64.8082C98.6908 63.9162 98.6043 63.0087 98.5172 62.1116C98.2806 59.6855 98.0447 57.2594 97.8094 54.8334C97.6748 53.4527 97.5409 52.0643 97.628 50.6798C97.693 49.6456 97.8815 48.6308 98.0687 47.6186L99.216 41.4057C99.3804 40.5227 99.5455 39.6333 99.8705 38.8098C100.136 38.1376 100.505 37.5171 100.799 36.8629C101.149 36.0786 101.39 35.2385 101.514 34.3719C101.564 34.1203 101.561 33.8591 101.505 33.6091C101.382 33.1851 101.007 32.9304 100.658 32.7223C98.5231 31.4587 96.2357 30.5549 93.8684 30.0398C93.7079 30.8013 93.7391 31.5149 93.4505 32.2246Z" fill="#E3E8F4"/>
<path d="M92.9877 28.4622C93.5629 27.2259 94.638 26.3588 95.2627 25.151C95.6078 24.4661 95.8002 23.6982 95.8249 22.9119C95.8496 22.1257 95.7047 21.3444 95.4031 20.6344C95.1834 20.1311 94.885 19.6691 94.7128 19.1426C94.521 18.5438 94.5022 17.8844 94.2805 17.2985C93.9757 16.4959 93.3153 15.9178 92.597 15.5849C91.8781 15.2519 91.102 15.1319 90.3279 15.0158L87.7149 14.6208C87.3366 14.5641 86.9446 14.5073 86.5767 14.6208C86.2088 14.7345 85.8663 15.0713 85.8364 15.4997C85.8006 16.0068 86.1971 16.4791 86.1055 16.9772C86.0717 17.1528 85.98 17.3308 86.0327 17.5011C86.0801 17.615 86.1614 17.7064 86.2628 17.7593C86.8829 18.1464 87.6232 18.1812 88.2947 18.4341C88.9661 18.6871 89.6402 19.322 89.5726 20.1117C89.5355 20.5363 89.2918 20.9776 89.4575 21.3583C89.6161 21.7106 90.0321 21.7751 90.3649 21.8848C91.44 22.2345 92.194 23.543 92.038 24.7884C91.9899 25.1755 91.8651 25.5458 91.8404 25.9343C91.7559 27.2944 91.947 27.6828 92.937 28.4738L92.9877 28.4622Z" fill="#3F3D56"/>
<path d="M99.6411 34.3576C99.6463 34.6153 99.6047 34.8714 99.5189 35.1101C99.1607 35.9684 98.0655 35.9142 97.3394 36.4008C96.4359 37.0074 96.2364 38.3612 96.1538 39.5408C96.0596 40.8766 95.9952 42.2318 96.2383 43.5418C96.4814 44.8518 97.0664 46.1295 98.0434 46.8975C99.2329 47.828 100.85 47.8603 102.208 47.2937C103.566 46.7271 104.7 45.6314 105.684 44.4337C106.618 43.2979 107.454 42.0318 107.955 40.5902C108.044 40.332 108.122 40.0584 108.05 39.8003C107.944 39.4131 107.568 39.2375 107.264 39.0259C106.551 38.5419 106.077 37.6979 105.83 36.806C105.583 35.9142 105.542 34.9656 105.534 34.0298C105.525 33.058 105.522 31.9958 104.972 31.2459C104.422 30.4961 103.468 30.2857 102.598 30.2934C101.887 30.2934 99.9186 30.3696 99.4337 31.0679C99.0359 31.6486 99.6697 33.5265 99.6411 34.3576Z" fill="#BE6F72"/>
<path opacity="0.1" d="M99.6411 34.3576C99.6463 34.6153 99.6047 34.8714 99.5189 35.1101C99.1607 35.9684 98.0655 35.9142 97.3394 36.4008C96.4359 37.0074 96.2364 38.3612 96.1538 39.5408C96.0596 40.8766 95.9952 42.2318 96.2383 43.5418C96.4814 44.8518 97.0664 46.1295 98.0434 46.8975C99.2329 47.828 100.85 47.8603 102.208 47.2937C103.566 46.7271 104.7 45.6314 105.684 44.4337C106.618 43.2979 107.454 42.0318 107.955 40.5902C108.044 40.332 108.122 40.0584 108.05 39.8003C107.944 39.4131 107.568 39.2375 107.264 39.0259C106.551 38.5419 106.077 37.6979 105.83 36.806C105.583 35.9142 105.542 34.9656 105.534 34.0298C105.525 33.058 105.522 31.9958 104.972 31.2459C104.422 30.4961 103.468 30.2857 102.598 30.2934C101.887 30.2934 99.9186 30.3696 99.4337 31.0679C99.0359 31.6486 99.6697 33.5265 99.6411 34.3576Z" fill="black"/>
<path d="M93.5623 68.989C93.5974 69.1859 93.6793 69.3682 93.7996 69.5162C93.9127 69.6169 94.044 69.6873 94.185 69.7217C97.9342 70.966 101.94 70.4698 105.821 69.962C105.29 68.1323 104.755 66.282 104.608 64.3632C104.486 62.7803 104.623 61.1328 104.127 59.6481C103.981 59.2088 95.4584 61.231 94.6179 61.3951C94.187 61.4791 93.691 61.4507 93.3862 61.837C93.0183 62.3048 92.9877 63.4186 92.9487 64.0014C92.8389 65.685 93.1463 67.3803 93.5623 68.989Z" fill="#BE6F72"/>
<path d="M102.096 89.5457C101.41 89.9062 100.703 90.242 99.97 90.5435C99.5742 90.7073 99.1692 90.8598 98.7565 91.0027C98.0805 91.2361 97.3856 91.4402 96.6602 91.6078C96.2462 90.4163 95.8321 89.2249 95.4181 88.0326C95.1126 87.1553 94.8077 86.2743 94.5529 85.3775C94.3755 84.7657 94.2299 84.1419 94.1168 83.5106C93.7424 81.3641 93.8399 79.1457 94.4002 77.0522C95.9836 77.391 97.5319 77.6117 99.0912 77.8682C99.9245 77.9984 100.76 78.1509 101.605 78.3319C101.672 78.9572 101.732 79.5825 101.785 80.2078C101.868 81.1733 101.936 82.1389 101.988 83.1045C102.105 85.2496 102.14 87.3969 102.096 89.5457Z" fill="#BE6F72"/>
<path opacity="0.1" d="M102.096 89.5457C101.41 89.9062 100.703 90.242 99.97 90.5435C99.5742 90.7073 99.1692 90.8598 98.7565 91.0027C98.0805 91.2361 97.3856 91.4402 96.6602 91.6078C96.2462 90.4163 95.8321 89.2249 95.4181 88.0326C95.1126 87.1553 94.8077 86.2743 94.5529 85.3775C94.3755 84.7657 94.2299 84.1419 94.1168 83.5106C93.7424 81.3641 93.8399 79.1457 94.4002 77.0522C95.9836 77.391 97.5319 77.6117 99.0912 77.8682C99.9245 77.9984 100.76 78.1509 101.605 78.3319C101.672 78.9572 101.732 79.5825 101.785 80.2078C101.868 81.1733 101.936 82.1389 101.988 83.1045C102.105 85.2496 102.14 87.3969 102.096 89.5457Z" fill="black"/>
<path d="M110.898 83.9557C110.908 84.6961 110.72 85.4523 110.547 86.1785C110.534 86.2301 110.523 86.2803 110.511 86.3319C110.098 86.1868 109.742 85.8861 109.503 85.4807C109.379 85.2601 109.288 85.0192 109.232 84.7664C108.715 85.1628 108.193 85.5548 107.667 85.9437C105.945 87.2167 104.125 88.4807 102.114 89.527C101.429 89.8845 100.721 90.2174 99.9889 90.5158C99.8368 89.916 99.6918 89.3116 99.5547 88.7043C99.4052 88.0783 99.2875 87.4433 99.203 86.8023C99.036 85.3461 99.1653 83.8667 99.582 82.4755L99.634 82.308C99.8277 81.6894 100.079 81.0956 100.382 80.5346C100.666 80.0208 101.23 80.1068 101.804 80.2781C102.065 80.3536 102.329 80.4449 102.569 80.5017C104.062 80.854 105.612 80.4897 107.138 80.5862C107.866 80.6274 108.578 80.8316 109.234 81.1868C109.969 81.6019 110.56 82.2377 110.793 83.1157C110.826 83.2421 110.85 83.3708 110.868 83.5017C110.887 83.652 110.897 83.8031 110.898 83.9557Z" fill="#BE6F72"/>
<path d="M83.36 24.4347C80.9992 21.8434 78.316 19.6472 75.5704 17.5936C74.856 17.086 74.169 16.5309 73.5125 15.9313C72.8267 15.2834 72.2287 14.5229 71.5001 13.9399C70.7721 13.3568 69.8705 12.9565 68.9963 13.1482C68.1214 13.34 67.344 14.2884 67.472 15.2809C67.5864 16.1541 68.2793 16.7528 68.9196 17.2542C70.1318 18.2038 71.3493 19.1562 72.6675 19.9012C73.1257 20.1364 73.5697 20.4047 73.9974 20.7045C74.8183 21.3315 75.4163 22.2592 76.0371 23.1312C78.3803 26.4295 81.2507 29.1986 84.4981 31.2937C84.5365 31.3197 85.8891 28.0119 85.8319 27.583C85.7065 26.5971 83.982 25.1187 83.36 24.4347Z" fill="#BE6F72"/>
<path d="M103.598 66.1438C101.771 66.2736 100.019 66.9717 98.2325 67.4168C96.4457 67.8619 94.5041 68.0345 92.8453 67.1573L93.8541 74.9543C93.91 75.3881 93.9685 75.8316 93.8853 76.2587C93.8086 76.6663 93.6091 77.05 93.626 77.4666C93.6526 78.1263 94.1993 78.5892 94.7134 78.8944C96.2084 79.7882 97.8835 80.225 99.5728 80.1621C99.448 80.7328 99.292 81.2975 99.1666 81.8682C100.008 82.8921 101.386 82.9609 102.588 83.2855C103.505 83.5308 104.365 83.9564 105.264 84.2556C106.35 84.6191 107.478 84.7971 108.611 84.7844C109.375 84.7747 110.186 84.6542 110.779 84.1142C111.509 83.4486 111.736 82.3169 111.895 81.2713C111.983 80.6872 112.065 80.0956 112.009 79.5069C111.95 78.8293 111.718 78.1883 111.489 77.5601L109.919 73.2457C109.634 72.4671 109.346 71.6769 109.002 70.9255C107.879 68.4951 106.016 65.9738 103.598 66.1438Z" fill="#3F3D56"/>
<path d="M105.022 39.3717C105.158 38.9697 105.408 38.6299 105.734 38.4061C106.06 38.1822 106.443 38.0869 106.822 38.1351C107.281 38.2074 107.689 38.4905 108.083 38.767L110.272 40.3072C110.635 40.5506 110.984 40.8208 111.314 41.1161C112.824 42.5271 113.407 44.8466 113.573 47.0497C113.739 49.2529 113.573 51.4935 113.961 53.6604C113.038 54.5236 112.013 55.2537 111.089 56.1155C110.605 56.5665 110.115 57.0201 109.749 57.6003C109.457 58.0564 109.25 58.5784 108.946 59.0216C108.449 59.7221 107.727 60.1741 106.937 60.2802C107.437 60.6084 107.718 61.2454 107.853 61.8799C107.989 62.5143 108.025 63.1721 108.176 63.8065C108.382 64.6684 108.809 65.4553 108.95 66.334C109.049 66.94 109.006 67.5616 109.041 68.1766C109.22 71.3592 111.436 74.1412 111.293 77.3253C110.246 76.8967 109.257 76.3103 108.351 75.5818C107.943 75.2527 107.548 74.896 107.162 74.5405L104.242 71.8722C102.822 70.58 101.388 69.2594 100.259 67.6365C99.5501 66.6183 98.9722 65.4915 98.2618 64.4759C97.5507 63.4602 96.6758 62.5376 95.5903 62.1112C95.431 62.3812 95.1476 62.5686 94.9884 62.8386C94.9604 62.8813 94.9383 62.9283 94.9221 62.9782C94.9026 63.0987 94.9156 63.2229 94.9598 63.3348C95.0878 63.8575 95.1645 64.3944 95.1892 64.9359L95.2614 65.9076C95.288 66.1651 95.288 66.4253 95.2614 66.6829C95.1522 67.5137 94.469 68.1585 93.7319 68.2877C93.6253 68.3137 93.5148 68.3097 93.4102 68.2761C93.2048 68.1986 93.091 67.9544 93.0293 67.7218C92.7394 66.6183 93.184 65.454 93.2197 64.3053C93.2249 64.0138 93.2158 63.7222 93.1931 63.4318L93.1242 62.2856C92.4586 62.1292 92.0757 61.323 91.8989 60.5826C91.4218 58.5836 90.9415 56.5148 91.2177 54.4681C91.2912 53.9201 91.4199 53.3646 91.3328 52.8166C91.2177 52.084 90.7504 51.4896 90.504 50.7996C89.7013 48.55 91.4062 46.1077 91.2476 43.6926C91.1813 42.6783 90.6106 41.7971 90.2668 40.8564C90.0887 40.3081 89.8579 39.7833 89.5784 39.2916C89.2281 38.7269 88.7542 38.2746 88.2947 37.8198C86.8751 36.4157 85.5283 34.9203 84.2614 33.3412C83.6108 33.2651 83.0011 32.95 82.5246 32.4444C82.2224 32.1213 81.9734 31.6949 81.9656 31.2258C81.9572 30.7568 82.2646 30.2645 82.6806 30.24C82.9237 30.2258 83.1506 30.3615 83.3878 30.4208C84.1308 30.6043 84.8783 29.988 85.2098 29.214C85.5413 28.4399 85.5413 27.5497 85.5354 26.6916C85.8981 26.619 86.2719 26.653 86.6196 26.7904C86.968 26.9278 87.2787 27.164 87.5218 27.476C88.0347 28.104 88.3681 28.8871 88.7718 29.6081C88.9356 29.9284 89.1468 30.2154 89.3951 30.457C89.947 30.9507 90.7413 31.0436 91.2223 31.62C91.4667 31.9146 91.6019 32.3048 91.8255 32.6201C92.454 33.5079 93.6039 33.6164 94.4625 34.2005C95.3212 34.7845 95.9185 35.8518 96.8695 36.1981C97.214 36.3274 97.5884 36.3441 97.929 36.4876C98.7155 36.8171 99.1958 37.7591 99.305 38.6958C99.4136 39.6327 99.2277 40.5799 99.0398 41.5025L98.5985 43.6617C98.501 44.1398 98.4269 44.7148 98.7395 45.0559C98.8877 45.1938 99.0613 45.2923 99.2472 45.3441C100.05 45.6387 100.944 45.9281 101.698 45.5107C102.055 45.3118 102.335 44.9758 102.59 44.632C103.709 43.1461 104.453 41.2001 105.022 39.3717Z" fill="#2D3CB9"/>
<path d="M114.072 83.2683C113.912 84.4463 113.33 85.6041 112.376 86.1434C111.805 86.4575 111.145 86.5084 110.54 86.2848C110.122 86.1404 109.761 85.839 109.519 85.4329C109.394 85.213 109.301 84.9721 109.245 84.7186C109.245 84.7059 109.239 84.6917 109.237 84.679C109.15 84.2235 109.114 83.7582 109.129 83.293C109.129 82.5705 109.167 81.8495 109.245 81.1322C109.309 80.5287 109.416 79.9311 109.564 79.3462C109.779 78.5107 110.089 77.7067 110.373 76.9004C110.521 76.4763 110.663 76.05 110.78 75.614C110.85 75.3567 110.911 75.0912 110.959 74.8234L110.976 74.7272C110.986 74.6731 110.994 74.619 111.002 74.565C111.117 73.8314 111.151 73.0721 111.448 72.4094C112.141 70.8534 113.492 71.2511 113.697 72.686C113.713 72.7973 113.722 72.9094 113.724 73.0219C113.755 74.8376 113.108 76.6125 113.404 78.4344C113.487 78.8795 113.592 79.3185 113.718 79.7501C113.822 80.148 113.916 80.5503 113.987 80.9587C114.133 81.7179 114.161 82.4987 114.072 83.2683Z" fill="#BE6F72"/>
<path d="M114.638 63.0267C114.669 63.7754 114.638 64.5333 114.771 65.2678C115.081 67.0038 116.258 68.5403 116.128 70.3048C116.096 70.7349 115.955 71.1974 115.623 71.4099C115.291 71.6223 114.743 71.6055 114.633 72.033C114.603 72.1522 114.619 72.2818 114.585 72.3996C114.512 72.6509 114.241 72.7585 114.013 72.752C113.784 72.7455 113.555 72.6601 113.318 72.682C112.489 72.7611 112.185 74.0177 111.446 74.4491C110.948 74.7393 110.302 74.5787 109.891 74.1499C109.48 73.721 109.301 73.0526 109.333 72.4191C109.357 71.941 109.491 71.4798 109.561 71.0082C109.691 70.1675 109.623 69.3059 109.556 68.4561C109.456 67.2111 109.353 65.9506 108.992 64.7704C108.822 64.2133 108.595 63.6809 108.447 63.116C108.237 62.3167 108.189 61.4759 108.167 60.6429C108.122 58.8901 108.229 57.0155 109.153 55.606C109.847 54.5488 110.843 53.6899 111.628 52.7118C112.12 52.099 112.262 51.9073 112.806 52.4268C113.253 52.853 113.721 53.4412 113.771 54.019C113.909 55.4997 113.771 56.9559 114.016 58.4639C114.261 59.9719 114.574 61.4785 114.638 63.0267Z" fill="#2D3CB9"/>
<path d="M102.799 34.5689C106.026 34.5689 108.642 31.616 108.642 27.9735C108.642 24.331 106.026 21.3781 102.799 21.3781C99.5722 21.3781 96.9559 24.331 96.9559 27.9735C96.9559 31.616 99.5722 34.5689 102.799 34.5689Z" fill="#BE6F72"/>
<path d="M108.127 40.549C108.254 40.3462 108.406 40.128 108.623 40.0854C108.787 40.0715 108.95 40.1104 109.095 40.1978L110.627 40.9221C111.04 40.1482 111.285 39.2734 111.338 38.3708C111.37 37.8169 111.331 37.2552 111.425 36.7104C111.564 35.9021 111.987 35.1778 112.085 34.3618C112.163 33.7033 112.022 33.0409 111.938 32.3837C111.678 30.354 111.957 28.283 111.808 26.2391C111.659 24.1953 110.934 22.0054 109.324 21.0668C108.868 20.8086 108.376 20.6536 107.902 20.4496C106.844 19.9939 105.897 19.2643 104.852 18.7712C103.808 18.2779 102.58 18.0519 101.568 18.6188C100.554 19.1856 99.9648 20.7802 100.623 21.8209C100.84 22.163 101.157 22.4057 101.46 22.6523C102.077 23.152 102.706 23.7692 102.849 24.6136C103.105 26.1333 101.709 27.325 101.315 28.8111C101.17 29.3915 101.157 30.0041 101.278 30.5916C101.447 31.4722 101.863 32.3037 101.848 33.2049C101.837 34.1926 101.314 35.0874 101.216 36.07C101.181 36.4302 101.202 36.7956 101.163 37.1546C101.093 37.628 100.968 38.0893 100.794 38.527C99.8816 41.1093 98.9566 43.7187 97.6007 46.0402C99.0528 46.0681 100.488 45.6884 101.778 44.935C101.593 45.9302 101.237 46.8749 100.732 47.7161C101.893 47.5641 103.009 47.1232 104.001 46.425C103.761 47.4008 103.412 48.3384 102.963 49.2152C103.002 49.1403 103.72 48.957 103.852 48.8717C104.124 48.6967 104.343 48.4324 104.479 48.1138C104.867 47.3288 105.109 46.3824 105.468 45.5664C106.236 43.8173 107.125 42.1396 108.127 40.549Z" fill="#3F3D56"/>
<path d="M63.8224 1.00121C63.5432 1.03287 63.2622 1.04024 62.9819 1.02327C62.9341 1.0174 62.8862 1.03287 62.8485 1.06636C62.8108 1.09985 62.7862 1.14868 62.7801 1.20234L62.244 5.7283C62.2028 6.05684 62.0833 6.36668 61.8982 6.62493C61.7455 6.83044 61.6321 7.06907 61.5649 7.32599C61.4976 7.58293 61.4781 7.85263 61.5073 8.11845V15.8066C61.5073 15.8066 61.4727 16.8317 62.1726 16.8317C63.0101 16.9501 63.8576 16.9501 64.6952 16.8317C64.6952 16.8317 65.2555 16.7124 65.2555 15.7664V8.19631C65.2984 7.93222 65.2893 7.66079 65.2295 7.40087C65.1697 7.14096 65.0605 6.89878 64.9096 6.69111C64.7307 6.43193 64.615 6.12463 64.5741 5.79967L64.0172 1.17898C64.0109 1.12703 63.9873 1.07974 63.9511 1.04672C63.9148 1.0137 63.8688 0.997425 63.8224 1.00121Z" fill="#3F3D56"/>
<path d="M63.8517 8.27838H63.0051C62.3042 8.27838 61.736 8.91959 61.736 9.7106V13.305C61.736 14.096 62.3042 14.7372 63.0051 14.7372H63.8517C64.5527 14.7372 65.121 14.096 65.121 13.305V9.7106C65.121 8.91959 64.5527 8.27838 63.8517 8.27838Z" fill="#FFC539"/>
<path d="M71.7516 7.64209C71.4786 7.67358 71.2037 7.68091 70.9294 7.664C70.8826 7.65817 70.8358 7.67358 70.7987 7.70686C70.7617 7.74014 70.7376 7.78868 70.7318 7.84201L70.2072 12.3422C70.1669 12.6688 70.0499 12.9769 69.8686 13.2336C69.7191 13.438 69.6079 13.6752 69.5423 13.9307C69.4766 14.1861 69.4571 14.4544 69.4857 14.7187V22.3629C69.4857 22.3629 69.4519 23.3821 70.137 23.3821C70.9567 23.4999 71.7861 23.4999 72.6057 23.3821C72.6057 23.3821 73.1543 23.2634 73.1543 22.3228V14.7961C73.1959 14.5334 73.1875 14.2636 73.129 14.0051C73.0705 13.7467 72.9639 13.506 72.8157 13.2995C72.6408 13.0417 72.5277 12.7362 72.4874 12.4131L71.9427 7.81883C71.9362 7.76714 71.9135 7.72017 71.8777 7.68734C71.8426 7.6545 71.7971 7.63827 71.7516 7.64209Z" fill="#3F3D56"/>
<path d="M71.7503 14.8282H70.9033C70.2026 14.8282 69.6345 15.4695 69.6345 16.2605V19.8548C69.6345 20.6459 70.2026 21.2871 70.9033 21.2871H71.7503C72.451 21.2871 73.0191 20.6459 73.0191 19.8548V16.2605C73.0191 15.4695 72.451 14.8282 71.7503 14.8282Z" fill="#FFC539"/>
</g>
<defs>
<clipPath id="clip0_105:342">
<rect width="130" height="92.7439" fill="white"/>
</clipPath>
</defs>
</svg>
