<svg width="170" height="147" viewBox="0 0 170 147" fill="none" xmlns="http://www.w3.org/2000/svg">
<g clip-path="url(#clip0_105:1318)">
<path d="M170 71.4168C170 104.121 141.096 131.69 101.656 140.154C95.2513 141.525 88.7442 142.371 82.2003 142.684C81.882 142.7 81.5636 142.716 81.243 142.727C79.54 142.797 77.8241 142.833 76.0953 142.834C73.0895 142.834 70.1193 142.727 67.1846 142.515C65.5566 142.399 63.9422 142.252 62.3415 142.073C46.7734 140.335 32.4468 135.692 20.346 128.89C18.834 128.041 17.3576 127.158 15.9168 126.241C13.2785 124.569 10.7314 122.759 8.28619 120.818C-7.87764 107.992 5.59868 80.6161 14.0228 63.381C36.76 16.8639 24.2341 0 76.0953 0C127.957 0 170 31.9735 170 71.4168Z" fill="#FFEEC4"/>
<path d="M132.833 29.4422C116.714 29.1544 116.717 5.30652 132.834 5.02112C148.952 5.30886 148.95 29.1568 132.833 29.4422Z" fill="white"/>
<path d="M102.35 64.9808C86.2312 64.6931 86.2338 40.8452 102.351 40.5598C118.469 40.8475 118.466 64.6954 102.35 64.9808Z" fill="white"/>
<path d="M134.148 101.068C118.029 100.781 118.031 76.9327 134.148 76.6473C150.267 76.935 150.264 100.783 134.148 101.068Z" fill="white"/>
<path d="M132.833 29.4422C116.714 29.1544 116.717 5.30652 132.834 5.02112C148.952 5.30886 148.95 29.1568 132.833 29.4422ZM132.833 5.76113C117.691 6.03151 117.694 28.434 132.834 28.7021C147.975 28.4318 147.973 6.0293 132.833 5.76113Z" fill="#E6E6E6"/>
<path d="M62.2847 141.903C62.2485 141.788 62.2234 141.67 62.2098 141.55L57.5281 114.975C57.5212 114.907 57.5106 114.839 57.4964 114.772C57.3973 114.287 57.1504 113.845 56.7894 113.506C56.4284 113.166 55.971 112.946 55.4796 112.875L28.7838 112.99C28.2787 112.915 27.7626 113.002 27.311 113.24C26.8594 113.477 26.4959 113.852 26.2736 114.31C25.8394 115.211 25.4142 116.125 24.9981 117.051C23.3132 120.784 21.7626 124.73 20.3461 128.89C32.4468 135.692 46.7735 140.335 62.3416 142.073L62.2847 141.903Z" fill="#2F2E41"/>
<path d="M88.3445 70.7895C88.2788 71.0769 88.236 71.3689 88.2165 71.6629L65.2394 84.8594L59.6545 81.6585L53.7007 89.4183L63.0345 96.0413C63.7886 96.5763 64.6966 96.8534 65.6223 96.831C66.548 96.8085 67.4414 96.4877 68.1684 95.9168L91.8617 77.3081C92.931 77.7021 94.0954 77.7627 95.2001 77.4819C96.3048 77.201 97.2975 76.5919 98.046 75.7357C98.7946 74.8795 99.2635 73.8167 99.3905 72.6886C99.5176 71.5606 99.2966 70.4208 98.757 69.4208C98.2175 68.4208 97.3849 67.6081 96.3701 67.0907C95.3552 66.5733 94.2062 66.3758 93.0758 66.5244C91.9455 66.6729 90.8873 67.1606 90.0422 67.9225C89.197 68.6844 88.6048 69.6844 88.3445 70.7896V70.7895Z" fill="#FFB8B8"/>
<path d="M64.9246 83.5407C64.8548 83.2032 64.713 82.8846 64.5085 82.6065C64.3041 82.3284 64.042 82.0973 63.7399 81.9291L53.1967 76.0595C51.7957 74.9833 50.0232 74.5041 48.2678 74.7269C46.5125 74.9497 44.9175 75.8564 43.8325 77.2481C42.7476 78.6399 42.2612 80.4031 42.4801 82.1513C42.6989 83.8995 43.6051 85.4899 45 86.574L53.4059 95.264C53.6458 95.5121 53.9366 95.7058 54.2585 95.832C54.5804 95.9581 54.9258 96.0138 55.2713 95.9951C55.6167 95.9764 55.954 95.8838 56.2603 95.7237C56.5666 95.5635 56.8346 95.3396 57.0461 95.067L58.6831 92.9528L59.2425 92.233L64.472 85.4852C64.663 85.2389 64.8029 84.9573 64.8836 84.6567C64.9859 84.2932 64.9999 83.9107 64.9246 83.5407Z" fill="#8C95E3"/>
<path d="M49.6592 65.6433C54.7896 60.5357 54.7896 52.2547 49.6592 47.1471C44.5288 42.0395 36.2108 42.0395 31.0804 47.1471C25.95 52.2547 25.95 60.5357 31.0804 65.6433C36.2108 70.7509 44.5288 70.7509 49.6592 65.6433Z" fill="#FFB8B8"/>
<path d="M56.9805 105.898C57.5079 105.113 60.8617 99.8116 59.5929 93.598C59.4997 93.1374 59.3829 92.6818 59.2428 92.233C58.6448 90.3627 57.6898 88.6249 56.4301 87.115C56.4461 86.6985 56.4416 86.2888 56.4166 85.8814V85.8791C56.2312 83.0481 55.0247 80.379 53.0193 78.3634C51.0139 76.3477 48.3445 75.1212 45.5027 74.9096L30.8099 73.7982C28.9187 73.6447 27.0184 73.951 25.2725 74.6907C23.5266 75.4305 21.9874 76.5815 20.7874 78.0447C20.511 78.3783 20.2522 78.7258 20.012 79.086C20.0117 79.086 20.0114 79.0861 20.0111 79.0862C20.0108 79.0863 20.0106 79.0865 20.0104 79.0867C20.0102 79.0869 20.01 79.0871 20.0099 79.0874C20.0098 79.0877 20.0097 79.088 20.0098 79.0883C19.0833 80.4802 18.4686 82.0544 18.2073 83.7038C17.946 85.3532 18.0443 87.0392 18.4954 88.6475L18.6205 89.1953L20.1871 96.0336L22.8064 107.476L24.9983 117.051L25.2302 118.061C25.3525 118.59 25.6509 119.061 26.077 119.4C26.5031 119.738 27.0317 119.923 27.5766 119.924C27.7077 119.924 27.8385 119.914 27.9678 119.892L56.3984 115.252C56.7996 115.188 57.1777 115.023 57.4966 114.772C57.688 114.62 57.8558 114.441 57.9945 114.24C58.1798 113.973 58.3081 113.671 58.3714 113.353C58.4348 113.035 58.4318 112.707 58.3628 112.39L56.9805 105.898Z" fill="#8C95E3"/>
<path d="M1.02789 144.52C0.545665 143.835 0.220122 143.054 0.0741884 142.23C-0.0717454 141.407 -0.0345198 140.561 0.183243 139.753C0.401005 138.946 0.794009 138.195 1.33457 137.555C1.87513 136.915 2.5501 136.401 3.31193 136.048L19.4993 86.5009L28.8802 90.9323L11.1686 139.176C11.6784 140.49 11.6865 141.943 11.1914 143.262C10.6963 144.581 9.73249 145.674 8.48251 146.332C7.23253 146.991 5.78327 147.17 4.40933 146.836C3.0354 146.502 1.83226 145.678 1.02789 144.52Z" fill="#FFB8B8"/>
<path d="M28.7701 74.7964C27.0359 74.277 25.1685 74.4307 23.5436 75.2265C21.9187 76.0224 20.6567 77.4013 20.0117 79.086C20.0114 79.086 20.0111 79.086 20.0109 79.0861C20.0106 79.0862 20.0103 79.0864 20.0101 79.0866C20.0099 79.0868 20.0098 79.0871 20.0096 79.0874C20.0095 79.0876 20.0095 79.0879 20.0095 79.0882C19.9503 79.2399 19.8958 79.3983 19.8481 79.5568L18.477 82.452L14.3343 91.2008C14.1759 91.5341 14.0917 91.8976 14.0873 92.2663C14.083 92.635 14.1586 93.0003 14.309 93.3373C14.4595 93.6742 14.6812 93.9749 14.9591 94.2187C15.2369 94.4626 15.5644 94.6438 15.919 94.7501L16.7263 94.9923L20.1868 96.0336L26.3282 97.8807L28.3745 98.4964C28.7291 98.6031 29.1025 98.6323 29.4695 98.5823C29.8364 98.5322 30.1882 98.404 30.5009 98.2064C30.8136 98.0087 31.0798 97.7463 31.2814 97.437C31.483 97.1277 31.6152 96.7787 31.6691 96.4139L33.5609 83.6381C34.0983 81.8332 33.8961 79.8898 32.9983 78.233C32.1006 76.5761 30.5803 75.3405 28.7701 74.7964Z" fill="#8C95E3"/>
<path d="M52.4329 51.6392C47.7517 55.7159 40.5653 56.6625 34.9803 53.938C37.4891 56.9011 42.2538 71.528 42.2538 71.528C42.2538 71.528 28.8004 70.1204 26.8996 69.7158C15.673 67.3258 19.7537 38.3802 31.7163 38.5263C33.7425 38.5511 35.5137 38.795 36.8622 40.3006C37.7573 37.8027 40.6035 36.3313 43.2605 36.5218C45.9175 36.7123 48.3204 38.3011 50.0296 40.3352C51.3936 41.9821 52.3781 43.9067 52.9138 45.9734C53.4495 48.0402 53.5233 50.1988 53.13 52.297L52.4329 51.6392Z" fill="#2F2E41"/>
<path d="M102.35 64.9808C86.2313 64.6931 86.2339 40.8452 102.351 40.5598C118.469 40.8475 118.467 64.6954 102.35 64.9808ZM102.35 41.2998C87.2082 41.5701 87.2106 63.9726 102.351 64.2408C117.492 63.9704 117.49 41.568 102.35 41.2998Z" fill="#E6E6E6"/>
<path d="M134.148 101.068C118.029 100.781 118.031 76.9327 134.148 76.6473C150.267 76.935 150.264 100.783 134.148 101.068ZM134.148 77.3873C119.006 77.6577 119.008 100.06 134.148 100.328C149.29 100.058 149.287 77.6555 134.148 77.3873Z" fill="#E6E6E6"/>
<path d="M135.453 10.9723C132.429 11.0588 126.549 9.98277 126.546 14.6239C126.633 17.6341 125.552 23.488 130.214 23.491C133.238 23.4047 139.118 24.4807 139.121 19.8395C139.034 16.8293 140.115 10.9754 135.453 10.9723Z" fill="#58B893"/>
<path d="M136.239 14.6237C135.221 14.6364 135.225 13.045 136.242 13.0621C137.26 13.0496 137.256 14.6407 136.239 14.6237Z" fill="white"/>
<path d="M132.833 15.1451C135.553 15.1054 135.553 19.3583 132.833 19.3183C130.114 19.3576 130.114 15.1054 132.833 15.1451ZM132.833 14.102C128.755 14.0427 128.754 20.4212 132.834 20.3614C136.913 20.4207 136.912 14.0422 132.833 14.102V14.102Z" fill="white"/>
<path d="M112.006 90.9166C111.933 90.9188 111.86 90.8991 111.798 90.8603C111.736 90.8214 111.687 90.765 111.657 90.6982C111.627 90.6315 111.617 90.5574 111.63 90.4854C111.642 90.4133 111.676 90.3465 111.726 90.2934L112.964 88.9918C113.002 88.9509 113.023 88.8964 113.022 88.8402C113.02 88.784 112.996 88.7307 112.955 88.6921L111.641 87.4535C111.604 87.4193 111.575 87.3782 111.555 87.3327C111.534 87.2872 111.523 87.2382 111.522 87.1884C111.52 87.1386 111.529 87.089 111.547 87.0424C111.564 86.9959 111.591 86.9533 111.626 86.9171C111.695 86.8445 111.79 86.8021 111.891 86.799C111.992 86.7959 112.089 86.8325 112.163 86.9007L113.931 88.546C113.966 88.5784 113.994 88.6174 114.014 88.6607C114.033 88.704 114.044 88.7508 114.046 88.7982C114.047 88.8457 114.039 88.893 114.022 88.9373C114.004 88.9816 113.979 89.0221 113.946 89.0564L112.264 90.8032C112.196 90.8734 112.104 90.9142 112.006 90.9166Z" fill="#CCCCCC"/>
<path d="M110.655 89.0222C110.614 89.0592 110.562 89.0804 110.507 89.0818L106.384 89.195C106.354 89.1959 106.324 89.1909 106.296 89.1803C106.268 89.1697 106.243 89.1537 106.221 89.1333C106.199 89.1128 106.182 89.0883 106.17 89.0612C106.157 89.034 106.151 89.0048 106.15 88.975C106.149 88.9453 106.154 88.9157 106.165 88.8879C106.175 88.8601 106.192 88.8347 106.212 88.8131C106.233 88.7915 106.257 88.7742 106.285 88.7621C106.312 88.75 106.341 88.7433 106.371 88.7425L110.494 88.6294C110.541 88.6281 110.586 88.6409 110.625 88.6661C110.664 88.6913 110.694 88.7277 110.711 88.7705C110.729 88.8132 110.733 88.8602 110.723 88.9052C110.712 88.9502 110.689 88.991 110.655 89.0222Z" fill="#CCCCCC"/>
<path d="M80.174 54.8291C80.1006 54.8313 80.0282 54.8116 79.966 54.7728C79.9038 54.7339 79.8546 54.6775 79.8246 54.6108C79.7947 54.544 79.7853 54.4699 79.7976 54.3979C79.81 54.3258 79.8436 54.259 79.8941 54.206L81.1314 52.9043C81.1701 52.8634 81.191 52.8089 81.1895 52.7527C81.1879 52.6965 81.164 52.6433 81.1231 52.6046L79.8085 51.366C79.7721 51.3318 79.7429 51.2908 79.7225 51.2453C79.7021 51.1998 79.6909 51.1507 79.6895 51.1009C79.6881 51.0511 79.6966 51.0015 79.7145 50.9549C79.7323 50.9084 79.7592 50.8658 79.7937 50.8296C79.863 50.757 79.9583 50.7146 80.0588 50.7115C80.1594 50.7085 80.2571 50.745 80.3307 50.8132L82.0992 52.4585C82.1341 52.4909 82.1621 52.5299 82.1817 52.5732C82.2013 52.6165 82.2121 52.6633 82.2134 52.7108C82.2147 52.7582 82.2066 52.8055 82.1894 52.8498C82.1722 52.8941 82.1464 52.9346 82.1134 52.9689L80.4318 54.7158C80.3642 54.7859 80.2716 54.8267 80.174 54.8291Z" fill="#CCCCCC"/>
<path d="M78.8227 52.9347C78.7823 52.9717 78.7299 52.9929 78.675 52.9943L74.5516 53.1075C74.5218 53.1084 74.492 53.1033 74.4641 53.0927C74.4362 53.0821 74.4106 53.0662 74.3889 53.0457C74.3672 53.0253 74.3498 53.0008 74.3376 52.9737C74.3254 52.9465 74.3187 52.9172 74.3178 52.8875C74.317 52.8578 74.3221 52.8282 74.3328 52.8004C74.3434 52.7726 74.3595 52.7472 74.3801 52.7256C74.4006 52.704 74.4252 52.6867 74.4525 52.6745C74.4798 52.6624 74.5092 52.6558 74.5391 52.655L78.6625 52.5418C78.7088 52.5406 78.7544 52.5534 78.7931 52.5786C78.8319 52.6038 78.862 52.6402 78.8794 52.6829C78.8968 52.7257 78.9007 52.7727 78.8906 52.8176C78.8805 52.8626 78.8568 52.9035 78.8227 52.9347Z" fill="#CCCCCC"/>
<path d="M110.642 19.2905C110.568 19.2926 110.496 19.273 110.434 19.2341C110.372 19.1952 110.323 19.1389 110.293 19.0721C110.263 19.0054 110.253 18.9313 110.266 18.8592C110.278 18.7872 110.311 18.7204 110.362 18.6673L111.599 17.3657C111.638 17.3248 111.659 17.2703 111.657 17.2141C111.656 17.1579 111.632 17.1046 111.591 17.066L110.276 15.8274C110.24 15.7932 110.211 15.7521 110.19 15.7066C110.17 15.6611 110.159 15.6121 110.157 15.5623C110.156 15.5125 110.164 15.4629 110.182 15.4163C110.2 15.3698 110.227 15.3272 110.262 15.291C110.331 15.2184 110.426 15.176 110.527 15.1729C110.627 15.1698 110.725 15.2064 110.799 15.2746L112.567 16.9198C112.602 16.9523 112.63 16.9913 112.65 17.0346C112.669 17.0779 112.68 17.1246 112.681 17.1721C112.683 17.2196 112.674 17.2669 112.657 17.3112C112.64 17.3555 112.614 17.396 112.581 17.4303L110.9 19.1771C110.832 19.2473 110.739 19.288 110.642 19.2905Z" fill="#CCCCCC"/>
<path d="M109.29 17.396C109.25 17.4331 109.198 17.4543 109.143 17.4557L105.019 17.5689C104.99 17.5697 104.96 17.5647 104.932 17.5541C104.904 17.5435 104.878 17.5275 104.857 17.5071C104.835 17.4867 104.818 17.4622 104.805 17.435C104.793 17.4079 104.786 17.3786 104.786 17.3489C104.785 17.3191 104.79 17.2895 104.801 17.2617C104.811 17.234 104.827 17.2085 104.848 17.187C104.868 17.1654 104.893 17.148 104.92 17.1359C104.948 17.1238 104.977 17.1172 105.007 17.1164L109.13 17.0032C109.177 17.0019 109.222 17.0148 109.261 17.04C109.3 17.0652 109.33 17.1016 109.347 17.1443C109.365 17.187 109.369 17.234 109.358 17.279C109.348 17.324 109.325 17.3648 109.29 17.396Z" fill="#CCCCCC"/>
<path d="M106.42 134.658C105.354 136.862 103.616 138.646 101.657 140.154C95.2514 141.525 88.7443 142.371 82.2003 142.684C81.882 142.7 81.5636 142.716 81.2431 142.727C79.54 142.797 77.8241 142.833 76.0954 142.834C73.0896 142.834 70.1193 142.727 67.1847 142.515C67.0729 141.843 67.0576 141.158 67.1392 140.482C67.4643 137.836 69.4812 135.405 72.0982 134.843C74.7153 134.282 77.6983 135.837 78.4919 138.381C78.9308 133.474 79.4332 128.362 82.0548 124.184C84.4263 120.401 88.5349 117.694 92.9891 117.21C95.6069 116.938 98.2479 117.42 100.599 118.597C100.815 118.706 101.029 118.819 101.24 118.937C102.652 119.733 103.897 120.791 104.908 122.054C107.686 125.553 108.366 130.642 106.42 134.658Z" fill="white"/>
<path d="M101.24 118.937C101.246 118.996 101.236 119.056 101.211 119.11C101.186 119.165 101.148 119.212 101.1 119.247C93.208 125.643 86.7669 133.631 82.2004 142.684C81.8821 142.7 81.5637 142.716 81.2432 142.727C81.6478 141.91 82.0677 141.101 82.5028 140.301C84.7625 136.156 87.4208 132.239 90.4403 128.605C93.4593 124.968 96.83 121.636 100.504 118.656C100.533 118.632 100.565 118.613 100.599 118.597C100.663 118.57 100.733 118.557 100.802 118.56C100.872 118.563 100.94 118.582 101.002 118.614C101.063 118.647 101.116 118.693 101.158 118.748C101.199 118.804 101.227 118.869 101.24 118.937Z" fill="#F2F2F2"/>
<path fill-rule="evenodd" clip-rule="evenodd" d="M109.108 52.81C109.109 54.4255 108.53 55.9881 107.476 57.2168C106.422 58.4454 104.963 59.2595 103.36 59.5125V54.7725H104.947L105.25 52.81H103.36C103.297 51.1756 103.233 50.2589 105.329 50.4784V48.8102C102.189 48.122 100.88 49.7066 101.232 52.81H99.5019V54.7725H101.232V59.5102C93.0878 58.263 94.045 45.9965 102.294 46.0282C103.189 46.028 104.075 46.2033 104.901 46.544C105.728 46.8848 106.479 47.3843 107.112 48.014C107.745 48.6438 108.247 49.3914 108.589 50.2143C108.932 51.0372 109.108 51.9192 109.108 52.81Z" fill="#58B893"/>
<path d="M137.778 84C138.102 84 138.413 84.1288 138.642 84.358C138.871 84.5872 139 84.8981 139 85.2222V93.7778C139 94.1019 138.871 94.4128 138.642 94.642C138.413 94.8712 138.102 95 137.778 95H129.222C128.898 95 128.587 94.8712 128.358 94.642C128.129 94.4128 128 94.1019 128 93.7778V85.2222C128 84.8981 128.129 84.5872 128.358 84.358C128.587 84.1288 128.898 84 129.222 84H137.778ZM137.472 93.4722V90.2333C137.472 89.705 137.262 89.1982 136.889 88.8246C136.515 88.451 136.008 88.2411 135.48 88.2411C134.961 88.2411 134.356 88.5589 134.062 89.0356V88.3572H132.357V93.4722H134.062V90.4594C134.062 89.9889 134.441 89.6039 134.912 89.6039C135.139 89.6039 135.356 89.694 135.517 89.8545C135.677 90.0149 135.767 90.2325 135.767 90.4594V93.4722H137.472ZM130.371 87.3978C130.643 87.3978 130.905 87.2896 131.097 87.0971C131.29 86.9045 131.398 86.6434 131.398 86.3711C131.398 85.8028 130.939 85.3383 130.371 85.3383C130.097 85.3383 129.835 85.4471 129.641 85.6408C129.447 85.8345 129.338 86.0972 129.338 86.3711C129.338 86.9394 129.803 87.3978 130.371 87.3978ZM131.221 93.4722V88.3572H129.528V93.4722H131.221Z" fill="#58B893"/>
</g>
<defs>
<clipPath id="clip0_105:1318">
<rect width="170" height="147" fill="white"/>
</clipPath>
</defs>
</svg>
