<svg width="23" height="19" viewBox="0 0 23 19" fill="none" xmlns="http://www.w3.org/2000/svg">
<path d="M21.1204 1.80596C18.6179 -0.600928 14.5465 -0.602198 12.0414 1.80342C12.0229 1.82116 6.22877 7.41526 6.22877 7.41526V3.96329C6.22877 3.61239 5.93244 3.32735 5.56756 3.32735C5.20272 3.32735 4.90636 3.61239 4.90636 3.96329V8.95568C4.90636 9.30658 5.20272 9.59159 5.56756 9.59159H10.7584C11.1233 9.59159 11.4197 9.30658 11.4197 8.95568C11.4197 8.60479 11.1233 8.31975 10.7584 8.31975H7.15475L12.9699 2.70411L12.9713 2.70284C14.9601 0.789998 18.1951 0.789998 20.1839 2.70284C21.1468 3.62886 21.6776 4.86144 21.6776 6.17129C21.6776 7.48114 21.1468 8.71373 20.1905 9.6334L11.965 17.5432C11.8411 17.6636 11.6752 17.7294 11.4987 17.7294C11.3222 17.7294 11.1562 17.6636 11.0311 17.5432L3.78942 10.5784C3.33368 10.1401 2.81737 9.64353 2.81342 9.63973C1.85059 8.71373 1.31978 7.48114 1.31978 6.17129C1.31978 4.86144 1.85059 3.62886 2.81342 2.70284C4.27414 1.29671 6.78856 0.859672 8.53775 1.70715C8.86306 1.86423 9.40838 2.25313 9.40838 2.25313C9.7021 2.46215 10.1157 2.40261 10.333 2.12012C10.5503 1.83763 10.4884 1.43986 10.1947 1.23084C10.1947 1.23084 9.55984 0.778598 9.1344 0.572112C6.87022 -0.524922 3.75124 0.00459243 1.88088 1.80469C0.667794 2.9714 0 4.52193 0 6.17129C0 7.81938 0.666476 9.36866 1.87693 10.5341C1.8901 10.5468 2.33925 10.98 2.85689 11.4766L10.0986 18.4414C10.4726 18.8011 10.9705 19 11.5 19C12.0295 19 12.5274 18.8011 12.9014 18.4414L21.1191 10.5379C22.3322 9.37118 23 7.82066 23 6.17129C23.0013 4.52449 22.3335 2.97266 21.1204 1.80596Z" fill="#FF966E"/>
</svg>
