<svg width="400" height="282" viewBox="0 0 400 282" fill="none" xmlns="http://www.w3.org/2000/svg">
<g clip-path="url(#clip0_105:1813)">
<path d="M204.288 281.292C216.319 281.292 226.072 271.539 226.072 259.508C226.072 247.477 216.319 237.724 204.288 237.724C192.257 237.724 182.505 247.477 182.505 259.508C182.505 271.539 192.257 281.292 204.288 281.292Z" fill="#FF966E"/>
<path d="M334.424 280.067C346.611 276.407 359.567 272.591 369.232 263.89C377.868 256.115 383.699 244.243 380.121 232.583C376.551 220.947 365.856 213.188 354.814 209.329C348.551 207.14 341.999 205.926 335.449 204.972C328.329 203.935 321.178 203.085 314.03 202.268C285.087 198.958 256.036 196.935 226.875 196.201C212.487 195.839 198.101 195.848 183.71 196.056C170.858 196.243 157.322 196.238 145.4 190.776C136.128 186.528 127.713 178.8 125.13 168.645C122.148 156.922 127.648 144.985 135.539 136.495C139.698 132.019 144.559 128.253 149.573 124.79C155.013 121.032 160.643 117.541 166.394 114.282C177.722 107.867 189.565 102.407 201.8 97.9595C207.836 95.7649 213.961 93.8714 220.14 92.1247C225.357 90.6497 230.59 89.1726 235.633 87.163C245.38 83.2781 254.651 76.6975 257.129 65.9092C259.478 55.6845 255.518 44.5847 248.575 36.9889C240.542 28.2012 228.43 24.3489 216.818 23.7256C203.782 23.0259 191.046 26.2885 178.793 30.4292C165.725 34.8456 152.938 39.9236 139.593 43.5008C126.36 47.0446 112.871 49.552 99.2483 51.0003C92.5795 51.7104 85.7093 52.5122 79.0008 51.9686C73.3786 51.513 67.785 49.8595 63.6415 45.8694C60.0887 42.4481 57.9722 37.746 58.6998 32.7839C58.832 31.8827 60.2011 32.2658 60.0698 33.1616C59.184 39.2019 63.2899 44.7678 68.3495 47.6189C74.197 50.9141 81.3126 50.9185 87.8229 50.5417C101.939 49.6891 115.96 47.6623 129.739 44.4823C143.279 41.3897 156.336 36.9687 169.378 32.246C181.764 27.7608 194.427 23.3831 207.66 22.4116C219.142 21.5686 231.22 23.2414 241.223 29.2417C250.014 34.5152 256.478 43.3097 258.538 53.4016C260.551 63.2632 257.763 73.1891 250.298 80.0709C242.569 87.1961 231.971 90.2424 222.095 93.048C209.568 96.6065 197.31 100.766 185.445 106.167C173.419 111.626 161.885 118.11 150.971 125.549C140.436 132.748 130.039 141.806 126.707 154.649C125.155 160.632 125.442 166.977 128.039 172.627C130.348 177.652 134.151 181.878 138.581 185.138C149.151 192.916 162.473 194.513 175.241 194.672C189.581 194.85 203.921 194.366 218.266 194.602C247.499 195.081 276.673 196.861 305.787 199.94C313.082 200.712 320.369 201.566 327.645 202.5C334.191 203.341 340.758 204.177 347.193 205.671C358.635 208.327 369.769 213.433 376.881 223.134C380.037 227.34 381.993 232.323 382.539 237.552C383.036 243.009 381.7 248.477 379.233 253.332C373.772 264.077 363.543 270.911 352.679 275.401C346.861 277.806 340.825 279.628 334.802 281.437C333.924 281.701 333.549 280.33 334.424 280.067L334.424 280.067Z" fill="#F2F2F2"/>
<path d="M59.617 44.2774C65.8939 44.2774 70.9823 39.189 70.9823 32.9121C70.9823 26.6352 65.8939 21.5468 59.617 21.5468C53.3401 21.5468 48.2517 26.6352 48.2517 32.9121C48.2517 39.189 53.3401 44.2774 59.617 44.2774Z" fill="#FEF0EB"/>
<path d="M138.464 65.8241C144.741 65.8241 149.829 60.7357 149.829 54.4588C149.829 48.1819 144.741 43.0935 138.464 43.0935C132.187 43.0935 127.099 48.1819 127.099 54.4588C127.099 60.7357 132.187 65.8241 138.464 65.8241Z" fill="#58B893"/>
<path d="M205.235 22.7306C211.512 22.7306 216.6 17.6422 216.6 11.3653C216.6 5.08842 211.512 0 205.235 0C198.958 0 193.87 5.08842 193.87 11.3653C193.87 17.6422 198.958 22.7306 205.235 22.7306Z" fill="#FEF0EB"/>
<path d="M246.908 71.0332C253.185 71.0332 258.273 65.9448 258.273 59.6679C258.273 53.391 253.185 48.3026 246.908 48.3026C240.631 48.3026 235.543 53.391 235.543 59.6679C235.543 65.9448 240.631 71.0332 246.908 71.0332Z" fill="#58B893"/>
<path d="M190.555 126.913C196.832 126.913 201.92 121.824 201.92 115.547C201.92 109.27 196.832 104.182 190.555 104.182C184.278 104.182 179.19 109.27 179.19 115.547C179.19 121.824 184.278 126.913 190.555 126.913Z" fill="#58B893"/>
<path d="M119.048 153.905C125.325 153.905 130.413 148.817 130.413 142.54C130.413 136.263 125.325 131.175 119.048 131.175C112.771 131.175 107.683 136.263 107.683 142.54C107.683 148.817 112.771 153.905 119.048 153.905Z" fill="#FEF0EB"/>
<path d="M194.817 196.052C201.094 196.052 206.182 190.963 206.182 184.686C206.182 178.409 201.094 173.321 194.817 173.321C188.54 173.321 183.452 178.409 183.452 184.686C183.452 190.963 188.54 196.052 194.817 196.052Z" fill="#F2F2F2"/>
<path d="M276.268 219.729C282.545 219.729 287.634 214.641 287.634 208.364C287.634 202.087 282.545 196.999 276.268 196.999C269.991 196.999 264.903 202.087 264.903 208.364C264.903 214.641 269.991 219.729 276.268 219.729Z" fill="#F2F2F2"/>
<path d="M371.453 214.52C377.73 214.52 382.818 209.432 382.818 203.155C382.818 196.878 377.73 191.79 371.453 191.79C365.176 191.79 360.088 196.878 360.088 203.155C360.088 209.432 365.176 214.52 371.453 214.52Z" fill="#58B893"/>
<path d="M201.955 32.2033C167.91 32.4438 140.035 60.1098 139.551 94.152C139.546 94.4663 139.544 96.6763 139.545 99.5667C139.545 103.805 141.229 107.869 144.225 110.866C147.222 113.863 151.286 115.547 155.524 115.547H155.524C157.625 115.547 159.705 115.132 161.646 114.328C163.587 113.523 165.35 112.344 166.834 110.857C168.319 109.371 169.497 107.607 170.299 105.665C171.102 103.724 171.514 101.643 171.512 99.5422C171.51 97.576 171.509 96.2151 171.509 96.1316C171.508 90.8704 172.877 85.6995 175.48 81.1277C178.084 76.5558 181.833 72.7404 186.358 70.0568C190.883 67.3732 196.029 65.9138 201.289 65.8222C206.55 65.7306 211.743 67.0099 216.359 69.5343C220.975 72.0587 224.855 75.7413 227.616 80.2197C230.377 84.6981 231.925 89.8182 232.107 95.0762C232.289 100.334 231.099 105.549 228.654 110.208C226.21 114.867 222.594 118.809 218.164 121.646L218.17 121.653C218.17 121.653 195.426 136.295 188.492 156.381L188.498 156.383C187.278 160.498 186.66 164.767 186.663 169.059C186.663 170.823 186.767 186.259 186.968 198.788C187.038 203.11 188.804 207.232 191.886 210.264C194.969 213.296 199.119 214.995 203.442 214.994H203.443C205.615 214.994 207.766 214.564 209.772 213.73C211.777 212.895 213.598 211.672 215.13 210.131C216.661 208.59 217.872 206.762 218.694 204.751C219.516 202.74 219.933 200.587 219.919 198.414C219.85 186.941 219.812 173.58 219.812 172.611C219.812 160.277 231.71 147.988 241.484 139.974C252.738 130.746 260.837 118.171 264.09 103.985C264.81 101.064 265.206 98.0733 265.273 95.0661C265.273 86.7724 263.632 78.5607 260.444 70.904C257.257 63.2474 252.586 56.2973 246.7 50.454C240.814 44.6107 233.83 39.9897 226.151 36.8574C218.472 33.7251 210.248 32.1434 201.955 32.2033Z" fill="#FF966E"/>
<path d="M399.436 281.889H0.563932C0.414672 281.889 0.271676 281.829 0.166285 281.723C0.060895 281.618 0.00170898 281.474 0.00170898 281.325C0.00170898 281.176 0.060895 281.033 0.166285 280.927C0.271676 280.821 0.414672 280.762 0.563932 280.761H399.436C399.586 280.761 399.729 280.821 399.835 280.927C399.941 281.032 400 281.176 400 281.325C400 281.475 399.941 281.618 399.835 281.724C399.729 281.83 399.586 281.889 399.436 281.889Z" fill="#3F3D56"/>
<path d="M297.605 129.278C305.451 129.278 311.812 122.918 311.812 115.072C311.812 107.226 305.451 100.865 297.605 100.865C289.759 100.865 283.398 107.226 283.398 115.072C283.398 122.918 289.759 129.278 297.605 129.278Z" fill="#2F2E41"/>
<path d="M271.353 275.67H265.547L262.785 253.277H271.354L271.353 275.67Z" fill="#A0616A"/>
<path d="M261.4 274.011H272.597V281.06H254.35C254.35 280.135 254.533 279.218 254.887 278.363C255.241 277.507 255.761 276.73 256.415 276.076C257.07 275.421 257.847 274.902 258.702 274.547C259.558 274.193 260.474 274.011 261.4 274.011Z" fill="#2F2E41"/>
<path d="M316.34 275.67H310.535L307.773 253.277H316.342L316.34 275.67Z" fill="#A0616A"/>
<path d="M306.388 274.011H317.585V281.06H299.338C299.338 280.135 299.52 279.218 299.875 278.363C300.229 277.507 300.748 276.73 301.403 276.076C302.058 275.421 302.835 274.902 303.69 274.547C304.545 274.193 305.462 274.011 306.388 274.011Z" fill="#2F2E41"/>
<path d="M295.446 129.362C301.87 129.362 307.077 124.154 307.077 117.731C307.077 111.307 301.87 106.1 295.446 106.1C289.022 106.1 283.815 111.307 283.815 117.731C283.815 124.154 289.022 129.362 295.446 129.362Z" fill="#A0616A"/>
<path d="M302.378 166.884L307.583 154.926C308.847 152.121 309.209 148.993 308.619 145.974C308.03 142.954 306.518 140.192 304.291 138.068C303.834 137.616 303.349 137.194 302.838 136.803C300.27 134.795 297.105 133.7 293.845 133.692C291.653 133.701 289.488 134.182 287.499 135.103C287.329 135.179 287.163 135.26 286.992 135.34C286.666 135.496 286.344 135.667 286.031 135.842C283.993 137.013 282.257 138.646 280.966 140.61C279.675 142.575 278.863 144.815 278.596 147.151L276.299 166.396C275.722 167.907 255.113 222.46 262.32 264.109C262.397 264.554 262.614 264.963 262.939 265.275C263.265 265.588 263.682 265.788 264.129 265.847L271.436 266.842C271.97 266.915 272.511 266.783 272.951 266.473C273.392 266.162 273.698 265.697 273.809 265.17L286.069 206.729C286.146 206.365 286.341 206.038 286.626 205.8C286.91 205.561 287.266 205.425 287.636 205.412C288.007 205.4 288.372 205.512 288.671 205.731C288.971 205.949 289.188 206.263 289.289 206.62L306.612 268.078C306.735 268.524 307.002 268.918 307.37 269.198C307.739 269.479 308.19 269.631 308.653 269.631C308.791 269.63 308.929 269.617 309.065 269.593L317.991 267.874C318.51 267.777 318.974 267.49 319.292 267.068C319.61 266.647 319.759 266.122 319.71 265.596C318.399 250.968 311.428 177.695 302.378 166.884Z" fill="#2F2E41"/>
<path d="M250.245 127.41C250.164 128.101 250.236 128.802 250.456 129.463C250.675 130.123 251.037 130.728 251.515 131.234C251.993 131.74 252.577 132.134 253.224 132.39C253.871 132.646 254.567 132.757 255.262 132.715L261.763 148.339L266.681 141.049L259.753 127.33C259.606 126.167 259.036 125.099 258.154 124.328C257.271 123.557 256.136 123.137 254.964 123.147C253.792 123.156 252.664 123.596 251.794 124.382C250.925 125.167 250.373 126.245 250.245 127.41L250.245 127.41Z" fill="#A0616A"/>
<path d="M294.801 182.615C295.492 182.533 296.157 182.3 296.748 181.932C297.34 181.565 297.843 181.072 298.224 180.489C298.604 179.906 298.852 179.247 298.95 178.558C299.048 177.869 298.994 177.166 298.791 176.5L312.47 166.537L304.235 163.453L292.508 173.387C291.412 173.802 290.506 174.604 289.962 175.643C289.417 176.681 289.273 177.882 289.556 179.02C289.838 180.157 290.528 181.152 291.495 181.814C292.462 182.477 293.638 182.762 294.801 182.615Z" fill="#A0616A"/>
<path d="M272.502 158.755C271.978 158.754 271.454 158.703 270.94 158.601C269.696 158.364 268.529 157.825 267.542 157.031C266.556 156.236 265.779 155.212 265.282 154.047L256.174 142.941C255.981 142.706 255.841 142.433 255.763 142.139C255.684 141.846 255.669 141.539 255.719 141.239C255.769 140.94 255.882 140.654 256.052 140.402C256.221 140.15 256.442 139.937 256.7 139.777L263.18 135.766C263.419 135.617 263.686 135.518 263.963 135.473C264.241 135.429 264.525 135.44 264.799 135.505C265.072 135.571 265.33 135.69 265.558 135.856C265.785 136.022 265.977 136.231 266.123 136.471L272.543 147.048L284.837 137.962C285.816 137.449 286.947 137.305 288.023 137.556C289.099 137.808 290.049 138.438 290.699 139.332C291.349 140.227 291.655 141.325 291.562 142.426C291.469 143.527 290.983 144.558 290.193 145.331L277.922 156.524C276.481 157.954 274.532 158.755 272.502 158.755Z" fill="#2F2E41"/>
<path d="M305.722 175.458C305.705 175.458 305.689 175.458 305.672 175.458C305.373 175.451 305.079 175.381 304.809 175.253C304.539 175.124 304.299 174.941 304.104 174.714L298.343 167.993C298.146 167.764 298.001 167.496 297.916 167.207C297.831 166.918 297.808 166.614 297.85 166.315C297.891 166.016 297.995 165.73 298.155 165.474C298.315 165.219 298.528 165 298.779 164.833L309.567 157.641L299.793 145.891C299.225 144.943 299.016 143.822 299.206 142.733C299.395 141.644 299.97 140.66 300.826 139.96C301.681 139.26 302.76 138.891 303.865 138.921C304.969 138.951 306.027 139.377 306.843 140.122L318.722 151.73C319.657 152.584 320.37 153.652 320.802 154.842C321.233 156.033 321.369 157.31 321.197 158.565C321.026 159.82 320.553 161.014 319.819 162.046C319.085 163.077 318.111 163.915 316.981 164.487L307.273 174.789C307.073 175 306.833 175.169 306.566 175.284C306.3 175.399 306.012 175.458 305.722 175.458Z" fill="#2F2E41"/>
<path d="M292.488 150.692C292.396 150.692 292.304 150.686 292.212 150.675C291.811 150.626 291.432 150.463 291.12 150.205C290.809 149.948 290.578 149.606 290.455 149.221L286.125 135.948C286.017 135.612 286.034 135.249 286.172 134.925C286.311 134.6 286.563 134.337 286.88 134.184L287.021 134.118C287.148 134.057 287.274 133.997 287.403 133.94C289.422 133.004 291.619 132.515 293.845 132.508C296.734 132.514 299.558 133.362 301.972 134.95C302.295 135.166 302.521 135.499 302.601 135.88C302.681 136.26 302.608 136.657 302.399 136.984L294.277 149.707C294.087 150.009 293.823 150.258 293.51 150.431C293.197 150.603 292.846 150.693 292.488 150.692Z" fill="#E6E6E6"/>
<path d="M308.805 108.729C311.373 108.729 313.454 106.648 313.454 104.081C313.454 101.513 311.373 99.4319 308.805 99.4319C306.238 99.4319 304.157 101.513 304.157 104.081C304.157 106.648 306.238 108.729 308.805 108.729Z" fill="#2F2E41"/>
<path d="M292.87 98.9709C289.604 98.9709 286.472 100.268 284.163 102.577C281.854 104.886 280.557 108.018 280.557 111.283V116.492H286.964L290.028 111.283L290.948 116.492H310.391L305.182 111.283C305.182 108.018 303.885 104.886 301.576 102.577C299.267 100.268 296.135 98.9709 292.87 98.9709Z" fill="#2F2E41"/>
<path d="M311.195 100.896C311.709 99.2888 312.773 97.9141 314.201 97.0137C315.628 96.1133 317.327 95.745 318.999 95.9734C321.962 96.4687 324.304 98.8501 325.7 101.51C327.096 104.17 327.74 107.146 328.678 110C329.617 112.853 330.947 115.722 333.316 117.569C335.684 119.416 339.319 119.917 341.645 118.017C341.38 119.997 340.498 121.844 339.125 123.295C337.753 124.747 335.958 125.731 333.996 126.107C332.034 126.483 330.003 126.232 328.191 125.391C326.379 124.549 324.877 123.159 323.898 121.418C322.671 119.234 322.354 116.674 321.99 114.195C321.626 111.717 321.153 109.152 319.687 107.12C318.222 105.089 315.478 103.761 313.15 104.687L311.195 100.896Z" fill="#2F2E41"/>
<path d="M160.036 107.989C155.798 107.988 151.734 106.304 148.737 103.308C145.74 100.311 144.057 96.2462 144.056 92.0081C144.056 89.1177 144.058 86.9077 144.063 86.5934C144.197 76.693 146.691 66.9674 151.336 58.2234C143.704 68.6713 139.507 81.2329 139.327 94.1703C139.323 94.4846 139.321 96.6946 139.321 99.585C139.321 103.823 141.005 107.888 144.001 110.884C146.998 113.881 151.062 115.565 155.3 115.566C158.783 115.564 162.17 114.426 164.947 112.324C167.724 110.223 169.738 107.272 170.685 103.921C167.759 106.544 163.966 107.993 160.036 107.989Z" fill="#3F3D56"/>
<path d="M203.038 65.8756C207.937 66.1096 212.707 67.5292 216.937 70.0126C221.167 72.4959 224.731 75.9687 227.323 80.1329C229.915 84.2971 231.458 89.0282 231.819 93.92C232.18 98.8117 231.348 103.718 229.395 108.218C232.22 104.9 234.296 101.013 235.482 96.8201C236.669 92.6276 236.937 88.2286 236.269 83.923C235.6 79.6174 234.012 75.5065 231.611 71.8706C229.21 68.2347 226.053 65.1592 222.356 62.8538C218.659 60.5484 214.508 59.0673 210.187 58.5115C205.865 57.9557 201.475 58.3383 197.314 59.6331C193.154 60.928 189.322 63.1047 186.079 66.0148C182.836 68.9249 180.259 72.5 178.523 76.4964C181.524 72.9672 185.294 70.1741 189.544 68.3327C193.795 66.4913 198.411 65.6506 203.038 65.8756Z" fill="#3F3D56"/>
<path d="M207.954 207.435C203.631 207.436 199.48 205.737 196.398 202.706C193.316 199.674 191.549 195.552 191.479 191.229C191.279 178.701 191.175 163.265 191.175 161.5C191.172 157.209 191.79 152.939 193.009 148.824L193.004 148.823C193.724 146.757 194.593 144.747 195.605 142.808C192.498 146.949 190.025 151.53 188.268 156.4L188.274 156.401C187.055 160.516 186.437 164.786 186.439 169.077C186.439 170.841 186.543 186.277 186.744 198.806C186.814 203.129 188.581 207.251 191.663 210.282C194.745 213.314 198.895 215.013 203.219 215.012C206.783 215.011 210.252 213.855 213.104 211.716C215.956 209.578 218.037 206.572 219.036 203.15C216.007 205.912 212.054 207.441 207.954 207.435Z" fill="#3F3D56"/>
<path d="M59.924 275.886L65.7293 275.885L68.4916 253.492L59.9226 253.493L59.924 275.886Z" fill="#FFB8B8"/>
<path d="M76.9265 281.276L58.6801 281.277L58.6798 274.227L69.8765 274.226C71.7462 274.226 73.5393 274.969 74.8615 276.291C76.1836 277.613 76.9264 279.406 76.9265 281.276L76.9265 281.276Z" fill="#2F2E41"/>
<path d="M39.0876 275.886L44.8929 275.885L47.6552 253.492L39.0862 253.493L39.0876 275.886Z" fill="#FFB8B8"/>
<path d="M56.0901 281.276L37.8437 281.277L37.8434 274.227L49.04 274.226C50.9097 274.226 52.7029 274.969 54.025 276.291C55.3472 277.613 56.09 279.406 56.0901 281.276L56.0901 281.276Z" fill="#2F2E41"/>
<path d="M44.1611 268.999L38.4903 268.7C38.1979 268.685 37.9114 268.612 37.6475 268.485C37.3836 268.358 37.1475 268.18 36.9529 267.961C36.7583 267.743 36.609 267.487 36.5137 267.21C36.4185 266.934 36.3791 266.641 36.3979 266.348L43.1757 191.306L74.3882 199.729L77.3953 198.908L67.9914 265.341C67.9112 265.84 67.6631 266.298 67.2878 266.637C66.9126 266.977 66.4327 267.179 65.9275 267.209L59.8145 267.493C59.5088 267.51 59.2029 267.464 58.9162 267.356C58.6295 267.249 58.3681 267.084 58.1486 266.87C57.9291 266.657 57.7563 266.4 57.6411 266.117C57.5259 265.833 57.4707 265.528 57.4791 265.222L58.5868 225.351C58.5919 225.166 58.5279 224.987 58.4072 224.847C58.2865 224.708 58.118 224.619 57.9348 224.597C57.7516 224.576 57.567 224.624 57.4174 224.732C57.2679 224.84 57.1642 225 57.1267 225.18L46.4448 267.238C46.3439 267.737 46.0732 268.185 45.6786 268.507C45.284 268.829 44.7901 269.004 44.281 269.002C44.2413 269.002 44.2013 269.001 44.1611 268.999Z" fill="#2F2E41"/>
<path d="M60.9664 129.906C67.3901 129.906 72.5974 124.698 72.5974 118.275C72.5974 111.851 67.3901 106.644 60.9664 106.644C54.5428 106.644 49.3354 111.851 49.3354 118.275C49.3354 124.698 54.5428 129.906 60.9664 129.906Z" fill="#FFB8B8"/>
<path d="M41.6014 152.446L42.8803 180.039L43.3426 190.077C43.361 190.514 43.5094 190.936 43.7688 191.288C44.0281 191.64 44.3866 191.907 44.7985 192.055L74.7915 202.92C75.0338 203.01 75.2905 203.055 75.549 203.052C75.8444 203.054 76.1371 202.996 76.4096 202.882C76.682 202.767 76.9287 202.599 77.1349 202.388C77.341 202.176 77.5024 201.925 77.6093 201.65C77.7163 201.374 77.7667 201.08 77.7575 200.785L76.5279 151.172C76.4471 147.102 74.9487 143.187 72.2911 140.103C69.6334 137.018 65.9829 134.958 61.9691 134.277C61.6789 134.233 61.3838 134.188 61.0886 134.149C58.5997 133.84 56.0733 134.08 53.6871 134.853C51.301 135.625 49.1131 136.911 47.2774 138.62C45.3766 140.368 43.883 142.513 42.9022 144.902C41.9214 147.291 41.4773 149.866 41.6014 152.446L41.6014 152.446Z" fill="#58B893"/>
<path d="M89.1192 197.413C88.4098 197.193 87.7617 196.81 87.2266 196.295C86.6914 195.78 86.2841 195.147 86.0371 194.447C85.7902 193.746 85.7103 192.998 85.804 192.261C85.8977 191.524 86.1623 190.819 86.5768 190.203L76.4058 176.678L85.1827 176.135L93.4957 189.062C94.3857 189.75 95.0049 190.729 95.2449 191.828C95.4849 192.927 95.3303 194.075 94.8081 195.072C94.286 196.068 93.4297 196.849 92.3895 197.277C91.3492 197.705 90.1915 197.754 89.1192 197.413H89.1192Z" fill="#FFB8B8"/>
<path d="M81.9679 187.755C81.6985 187.646 81.4534 187.484 81.2468 187.28C81.0403 187.075 80.8764 186.831 80.7646 186.563L65.4412 150.054C65.1405 149.34 64.9837 148.573 64.9796 147.797C64.9755 147.022 65.1242 146.253 65.4174 145.535C65.7105 144.817 66.1422 144.164 66.6879 143.613C67.2335 143.062 67.8824 142.624 68.5974 142.324C69.3125 142.024 70.0796 141.867 70.8551 141.864C71.6305 141.861 72.3991 142.01 73.1168 142.304C73.8345 142.597 74.4873 143.029 75.0378 143.576C75.5884 144.122 76.026 144.771 76.3256 145.486L91.6489 181.995C91.8754 182.536 91.8779 183.145 91.656 183.688C91.434 184.232 91.0056 184.665 90.4648 184.892L83.662 187.747C83.3942 187.861 83.1066 187.92 82.8158 187.921C82.525 187.923 82.2368 187.866 81.9679 187.755L81.9679 187.755Z" fill="#58B893"/>
<path d="M57.2271 186.468L71.9448 158.287C72.2286 157.745 72.7158 157.338 73.2995 157.155C73.8832 156.971 74.5158 157.027 75.0584 157.31L96.4212 168.467C96.9631 168.751 97.3704 169.238 97.5536 169.822C97.7367 170.405 97.6809 171.038 97.3983 171.58L82.6806 199.761C82.3967 200.303 81.9095 200.71 81.3258 200.894C80.7421 201.077 80.1096 201.021 79.567 200.738L58.2042 189.581C57.6623 189.297 57.255 188.81 57.0718 188.227C56.8886 187.643 56.9445 187.01 57.2271 186.468Z" fill="#3F3D56"/>
<path d="M67.0971 173.593C66.8355 172.897 66.415 172.273 65.8692 171.769C65.3234 171.266 64.6673 170.896 63.9535 170.691C63.2396 170.486 62.4877 170.45 61.7577 170.588C61.0277 170.725 60.3398 171.03 59.749 171.48L45.6473 162.126L45.6233 170.92L59.0182 178.455C59.7576 179.302 60.7719 179.863 61.8832 180.037C62.9945 180.212 64.1317 179.99 65.0956 179.41C66.0594 178.83 66.7883 177.929 67.1542 176.865C67.5202 175.802 67.5 174.643 67.0971 173.593Z" fill="#FFB8B8"/>
<path d="M49.2678 175.57L37.743 166.441C36.4962 166.023 35.3697 165.308 34.46 164.358C33.5504 163.408 32.8848 162.252 32.5205 160.988C32.1562 159.724 32.1039 158.391 32.3683 157.103C32.6326 155.814 33.2056 154.609 34.0382 153.591L44.5024 139.877C45.2295 138.989 46.2522 138.391 47.3835 138.195C48.5147 137.998 49.6789 138.215 50.6634 138.806C51.6478 139.397 52.3866 140.323 52.7448 141.414C53.103 142.505 53.0566 143.688 52.6142 144.748L44.3346 158.291L56.5021 164.062C56.7851 164.197 57.0363 164.389 57.2393 164.628C57.4422 164.866 57.5922 165.145 57.6794 165.446C57.7666 165.747 57.789 166.062 57.7451 166.372C57.7012 166.683 57.592 166.98 57.4247 167.244L52.5131 175.017C52.3471 175.28 52.1278 175.504 51.8694 175.677C51.6111 175.849 51.3195 175.965 51.0135 176.017C51.0013 176.019 50.9891 176.021 50.9769 176.023C50.6762 176.068 50.3694 176.052 50.0754 175.974C49.7814 175.896 49.5065 175.759 49.2678 175.57Z" fill="#58B893"/>
<path d="M52.1777 126.063C52.1278 125.917 52.112 125.761 52.1315 125.608C52.1509 125.455 52.2052 125.309 52.29 125.18C52.3749 125.051 52.4881 124.943 52.621 124.865C52.7539 124.786 52.903 124.74 53.0568 124.728C53.3718 124.745 53.6801 124.826 53.963 124.965C54.246 125.105 54.4977 125.3 54.7029 125.54C55.1239 126.025 55.6139 126.446 56.1573 126.789C56.72 127.072 57.483 127.032 57.8038 126.491C58.105 125.983 57.8986 125.303 57.7163 124.714C57.2523 123.213 56.9926 121.657 56.9444 120.087C56.8919 118.335 57.1391 116.506 58.1092 115.139C59.3612 113.375 61.6 112.706 63.7187 112.754C65.8374 112.803 67.9217 113.457 70.0203 113.87C70.7448 114.013 71.5965 114.086 72.081 113.525C72.5963 112.927 72.4071 111.961 72.1879 111.155C71.6192 109.063 71.0158 106.9 69.6945 105.211C68.2658 103.455 66.225 102.306 63.983 101.995C61.8306 101.729 59.6457 101.977 57.6079 102.719C54.2877 103.766 51.3662 105.801 49.2341 108.553C47.0362 111.479 46.0864 115.157 46.5925 118.781C47.087 121.938 48.7599 124.791 51.274 126.763L52.1777 126.063Z" fill="#2F2E41"/>
<path d="M199.489 275.978C196.394 274.631 193.655 272.582 191.488 269.994C189.321 267.407 187.785 264.351 187.001 261.068C186.217 257.785 186.207 254.365 186.971 251.077C187.736 247.79 189.253 244.725 191.405 242.124C188.91 243.946 186.832 246.277 185.307 248.963C183.782 251.65 182.846 254.63 182.561 257.705C182.275 260.781 182.648 263.882 183.653 266.803C184.658 269.724 186.272 272.398 188.39 274.647C190.507 276.896 193.078 278.669 195.933 279.849C198.788 281.028 201.861 281.587 204.949 281.487C208.036 281.388 211.067 280.634 213.84 279.274C216.614 277.914 219.066 275.979 221.035 273.599C217.964 275.843 214.359 277.244 210.579 277.661C206.799 278.079 202.975 277.498 199.489 275.978Z" fill="#3F3D56"/>
</g>
<defs>
<clipPath id="clip0_105:1813">
<rect width="400" height="281.889" fill="white"/>
</clipPath>
</defs>
</svg>
