<svg width="400" height="169" viewBox="0 0 400 169" fill="none" xmlns="http://www.w3.org/2000/svg">
<g clip-path="url(#clip0_105:1867)">
<path d="M122.042 1.56996C127.85 -0.890078 135.132 -0.619568 139.884 3.52857C133.128 4.71615 127.009 8.25524 122.611 13.5197C120.923 15.5561 119.256 17.997 116.659 18.502C115.043 18.8163 113.355 18.2754 111.976 17.3772C110.596 16.4789 109.473 15.246 108.367 14.0272L107.982 13.8842C111.696 8.78544 116.233 4.02999 122.042 1.56996Z" fill="#F0F0F0"/>
<path d="M139.811 3.63883C134.699 2.57947 129.382 3.158 124.617 5.29225C123.583 5.73349 122.625 6.33496 121.778 7.07451C120.977 7.82159 120.39 8.76966 120.079 9.82024C119.769 10.794 119.565 11.8259 119.024 12.7073C118.74 13.1544 118.365 13.5365 117.923 13.8285C117.482 14.1205 116.983 14.3158 116.461 14.4016C115.164 14.6494 113.856 14.4166 112.585 14.1445C111.174 13.8424 109.712 13.5062 108.278 13.8606C108.104 13.9035 108.047 13.6312 108.221 13.5884C110.717 12.9719 113.131 14.3448 115.629 14.2209C116.794 14.1631 117.95 13.7537 118.648 12.7723C119.258 11.9142 119.469 10.8503 119.775 9.86162C120.063 8.8323 120.599 7.8893 121.336 7.11498C122.143 6.3347 123.076 5.69732 124.096 5.23014C126.376 4.14174 128.813 3.41858 131.317 3.08715C134.174 2.69305 137.076 2.79046 139.9 3.37519C140.075 3.41145 139.985 3.67485 139.811 3.63883L139.811 3.63883Z" fill="white"/>
<path d="M126.111 4.51512C125.861 3.66701 125.921 2.75782 126.28 1.9499C126.639 1.14198 127.274 0.487955 128.07 0.104618C128.232 0.0276066 128.359 0.274885 128.197 0.351997C127.455 0.707591 126.864 1.31688 126.531 2.06989C126.198 2.8229 126.146 3.67004 126.383 4.4584C126.434 4.62978 126.162 4.68551 126.111 4.51512Z" fill="white"/>
<path d="M120.171 9.30613C121.749 10.1855 123.602 10.4375 125.358 10.0118C125.532 9.96952 125.589 10.2417 125.415 10.284C123.586 10.7235 121.659 10.4574 120.018 9.53869C119.862 9.45102 120.015 9.21893 120.171 9.30613Z" fill="white"/>
<path d="M134.075 3.04821C134.103 3.39648 134.217 3.73231 134.407 4.02552C134.597 4.31873 134.857 4.56014 135.163 4.72809C135.321 4.81374 135.167 5.04574 135.011 4.96065C134.673 4.77352 134.387 4.50654 134.176 4.18306C133.965 3.85957 133.837 3.48941 133.802 3.10493C133.796 3.06896 133.804 3.03194 133.824 3.00139C133.844 2.97085 133.875 2.94907 133.91 2.94048C133.946 2.93315 133.984 2.94036 134.015 2.96053C134.045 2.9807 134.067 3.01221 134.075 3.04821Z" fill="white"/>
<path d="M139.316 24.8789C139.216 24.8282 139.116 24.7775 139.014 24.7279C137.669 24.0535 136.271 23.4894 134.835 23.0413C134.724 23.0049 134.612 22.9696 134.5 22.9365C131.028 21.8937 127.392 21.5047 123.778 21.7892C122.34 21.9038 120.913 22.1276 119.508 22.4587C117.569 22.916 115.503 23.5662 113.582 23.3622C113.382 23.3432 113.183 23.3118 112.986 23.2681L107.837 14.3653C107.835 14.3392 107.832 14.3141 107.83 14.2879L107.608 13.9419C107.68 13.9197 107.754 13.8983 107.825 13.8762C107.866 13.8631 107.909 13.8521 107.95 13.8391C107.978 13.8311 108.006 13.8231 108.031 13.8143C108.04 13.8116 108.049 13.8089 108.056 13.8074C108.081 13.7985 108.105 13.7929 108.128 13.7852C108.543 13.6643 108.96 13.5461 109.378 13.4306C109.38 13.4295 109.38 13.4295 109.383 13.4303C112.563 12.5197 115.84 11.9896 119.144 11.8511C119.243 11.8483 119.344 11.8442 119.445 11.8454C120.923 11.8112 122.402 11.8979 123.867 12.1045C124.668 12.2203 125.463 12.3766 126.249 12.5727C128.278 13.0834 130.214 13.9102 131.986 15.0226C135.519 17.2407 138.303 20.5639 139.247 24.572C139.271 24.6745 139.294 24.7752 139.316 24.8789Z" fill="#F0F0F0"/>
<path d="M139.191 24.9243C135.747 21.0002 131.153 18.2612 126.064 17.0963C124.972 16.8261 123.845 16.7296 122.724 16.8103C121.634 16.9242 120.595 17.3279 119.714 17.9794C118.88 18.5703 118.096 19.2713 117.133 19.6493C116.638 19.8355 116.108 19.9148 115.58 19.882C115.051 19.8492 114.536 19.705 114.067 19.459C112.883 18.8763 111.978 17.9029 111.127 16.9203C110.182 15.8293 109.218 14.681 107.859 14.1002C107.694 14.0298 107.813 13.7784 107.977 13.8487C110.342 14.8593 111.443 17.4091 113.512 18.814C114.477 19.4695 115.646 19.8381 116.794 19.4747C117.798 19.157 118.607 18.4348 119.446 17.8292C120.296 17.1811 121.292 16.751 122.347 16.5765C123.46 16.4389 124.589 16.4919 125.685 16.733C128.161 17.2367 130.542 18.1265 132.741 19.3698C135.259 20.7748 137.518 22.6002 139.42 24.767C139.538 24.9012 139.308 25.0576 139.191 24.9243H139.191Z" fill="white"/>
<path d="M127.725 17.3751C128.036 16.5477 128.631 15.8579 129.404 15.429C130.177 15 131.078 14.8597 131.944 15.0333C132.12 15.069 132.072 15.3431 131.897 15.3073C131.09 15.1442 130.251 15.2749 129.532 15.6759C128.813 16.0768 128.261 16.7215 127.976 17.4937C127.914 17.6615 127.663 17.5419 127.725 17.3751V17.3751Z" fill="white"/>
<path d="M120.097 17.6238C120.828 19.2765 122.156 20.5929 123.814 21.3105C123.979 21.3814 123.86 21.6328 123.696 21.5619C121.971 20.812 120.593 19.4393 119.836 17.7178C119.764 17.5536 120.026 17.4606 120.097 17.6238V17.6238Z" fill="white"/>
<path d="M134.966 20.999C134.779 21.294 134.668 21.6309 134.643 21.9795C134.619 22.328 134.681 22.6772 134.824 22.9958C134.898 23.1589 134.636 23.2518 134.563 23.0897C134.406 22.737 134.337 22.3513 134.364 21.9661C134.391 21.581 134.511 21.2082 134.715 20.8804C134.731 20.8479 134.76 20.8229 134.794 20.8106C134.829 20.7982 134.866 20.7994 134.9 20.814C134.933 20.8298 134.959 20.8582 134.971 20.8928C134.984 20.9275 134.982 20.9656 134.966 20.999V20.999Z" fill="white"/>
<path d="M341.605 164.131H337.047L334.878 146.548L341.606 146.549L341.605 164.131Z" fill="#A0616A"/>
<path d="M342.768 168.549L328.07 168.549V168.363C328.07 166.846 328.672 165.391 329.745 164.318C330.818 163.245 332.273 162.642 333.79 162.642H333.791L342.768 162.643L342.768 168.549Z" fill="#2F2E41"/>
<path d="M377.098 162.158L372.59 162.839L367.818 145.779L373.727 144.773L377.098 162.158Z" fill="#A0616A"/>
<path d="M378.908 166.353L364.375 168.549L364.347 168.366C364.121 166.865 364.499 165.337 365.399 164.115C366.3 162.894 367.648 162.081 369.149 161.854L369.149 161.854L378.025 160.512L378.908 166.353Z" fill="#2F2E41"/>
<path d="M247.077 168.55H110.872V32.3447H247.077V168.55Z" fill="white"/>
<path d="M247.077 168.55H110.872V32.3447H247.077V168.55ZM112.885 166.537H245.065V34.3571H112.885V166.537Z" fill="#F0F0F0"/>
<path d="M226.308 90.8972H138.956V93.9808H226.308V90.8972Z" fill="#FF966E"/>
<path d="M226.308 98.9144H138.956V101.998H226.308V98.9144Z" fill="#FF966E"/>
<path d="M226.308 106.932H138.956V110.016H226.308V106.932Z" fill="#FF966E"/>
<path d="M133.654 94.9031C134.765 94.9031 135.666 94.0021 135.666 92.8907C135.666 91.7792 134.765 90.8782 133.654 90.8782C132.542 90.8782 131.641 91.7792 131.641 92.8907C131.641 94.0021 132.542 94.9031 133.654 94.9031Z" fill="#FF966E"/>
<path d="M226.308 56.3508H138.956V59.4344H226.308V56.3508Z" fill="#F0F0F0"/>
<path d="M226.308 64.3681H138.956V67.4517H226.308V64.3681Z" fill="#F0F0F0"/>
<path d="M226.308 72.3853H138.956V75.4689H226.308V72.3853Z" fill="#F0F0F0"/>
<path d="M133.654 60.0213C134.765 60.0213 135.666 59.1203 135.666 58.0089C135.666 56.8975 134.765 55.9965 133.654 55.9965C132.542 55.9965 131.641 56.8975 131.641 58.0089C131.641 59.1203 132.542 60.0213 133.654 60.0213Z" fill="#58B893"/>
<path d="M226.308 125.779H138.956V128.863H226.308V125.779Z" fill="#F0F0F0"/>
<path d="M226.308 133.797H138.956V136.88H226.308V133.797Z" fill="#F0F0F0"/>
<path d="M226.308 141.814H138.956V144.898H226.308V141.814Z" fill="#F0F0F0"/>
<path d="M133.654 129.45C134.765 129.45 135.666 128.549 135.666 127.438C135.666 126.326 134.765 125.425 133.654 125.425C132.542 125.425 131.641 126.326 131.641 127.438C131.641 128.549 132.542 129.45 133.654 129.45Z" fill="#58B893"/>
<path d="M320.192 114.744H240.941C239.753 114.741 238.791 112.773 238.79 110.343V51.3844C238.79 48.9548 239.753 46.9871 240.941 46.9831H320.192C321.379 46.9861 322.341 48.9543 322.343 51.3844V110.342C322.341 112.772 321.377 114.741 320.192 114.744Z" fill="white"/>
<path d="M320.192 114.744H240.941C239.753 114.741 238.791 112.773 238.79 110.343V51.3844C238.79 48.9548 239.753 46.9871 240.941 46.9831H320.192C321.379 46.9861 322.341 48.9543 322.343 51.3844V110.342C322.341 112.772 321.377 114.741 320.192 114.744ZM240.941 48.7435C240.228 48.7435 239.651 49.9267 239.65 51.3844V110.342C239.65 111.8 240.228 112.982 240.941 112.983H320.192C320.904 112.983 321.482 111.801 321.483 110.342V51.3844C321.483 49.9267 320.904 48.745 320.192 48.7435L240.941 48.7435Z" fill="#E6E6E6"/>
<path d="M291.296 95.0565H269.964V96.6599H291.296V95.0565Z" fill="#FF966E"/>
<path d="M293.956 99.2228H267.109V100.826H293.956V99.2228Z" fill="#FF966E"/>
<path d="M294.495 74.8301C294.494 77.2399 293.868 79.6083 292.679 81.704C291.489 83.7997 289.776 85.5511 287.707 86.787C285.639 88.0229 283.285 88.7011 280.875 88.7555C278.466 88.8098 276.084 88.2384 273.962 87.097L273.959 87.0943C271.791 85.9264 269.971 84.2046 268.686 82.1044C267.4 80.0042 266.694 77.6007 266.639 75.1388C266.585 72.6769 267.184 70.2445 268.376 68.0896C269.567 65.9346 271.309 64.1341 273.423 62.8715C275.538 61.6089 277.949 60.9293 280.411 60.902C282.874 60.8748 285.299 61.5007 287.441 62.7161C289.583 63.9316 291.364 65.6931 292.603 67.8211C293.842 69.9491 294.495 72.3676 294.495 74.8301Z" fill="#58B893"/>
<path d="M280.637 74.1543C282.728 74.1543 284.424 72.459 284.424 70.3678C284.424 68.2766 282.728 66.5813 280.637 66.5813C278.546 66.5813 276.851 68.2766 276.851 70.3678C276.851 72.459 278.546 74.1543 280.637 74.1543Z" fill="white"/>
<path d="M287.103 81.9777C282.87 83.4635 278.254 83.4457 274.032 81.9271L274.03 81.9252L276.851 76.3568H284.424L287.103 81.9777Z" fill="white"/>
<path d="M224.732 135.827H284.197V109.753H283.281V134.911H224.732V135.827Z" fill="#3F3D56"/>
<path d="M283.739 119.009C286.518 119.009 288.771 116.756 288.771 113.977C288.771 111.199 286.518 108.946 283.739 108.946C280.96 108.946 278.707 111.199 278.707 113.977C278.707 116.756 280.96 119.009 283.739 119.009Z" fill="#3F3D56"/>
<path d="M114.775 78.636H35.5243C34.337 78.6329 33.3747 76.6648 33.3732 74.2346V15.2761C33.3732 12.8464 34.337 10.8788 35.5243 10.8747H114.775C115.963 10.8778 116.925 12.8459 116.926 15.2761V74.2341C116.925 76.6637 115.961 78.6329 114.775 78.636Z" fill="white"/>
<path d="M114.775 78.636H35.5243C34.337 78.6329 33.3747 76.6648 33.3732 74.2346V15.2761C33.3732 12.8464 34.337 10.8788 35.5243 10.8747H114.775C115.963 10.8778 116.925 12.8459 116.926 15.2761V74.2341C116.925 76.6637 115.961 78.6329 114.775 78.636ZM35.5243 12.6351C34.8117 12.6351 34.2344 13.8184 34.2334 15.276V74.2341C34.2334 75.6918 34.8116 76.8735 35.5243 76.875H114.775C115.488 76.875 116.065 75.6922 116.066 74.2341V15.2761C116.066 13.8184 115.488 12.6367 114.775 12.6352L35.5243 12.6351Z" fill="#E6E6E6"/>
<path d="M92.7436 29.2937C89.2171 25.5495 84.3623 23.3383 79.2228 23.1353V42.8146L92.7436 29.2937Z" fill="#3F3D56"/>
<path d="M92.7436 31.7442L79.2228 45.265H98.1185C98.1252 40.2359 96.2013 35.3961 92.7436 31.7442Z" fill="#E4E4E4"/>
<path d="M98.1387 46.679C98.1395 47.9056 98.026 49.1296 97.7997 50.3351C97.7821 50.4306 97.7636 50.5251 97.7441 50.6196C97.3175 52.7224 96.5473 54.7406 95.4646 56.5932C95.4071 56.6925 95.3476 56.7919 95.2882 56.8893V56.8903C94.2212 58.6461 92.8868 60.2247 91.3331 61.5692C91.2562 61.6364 91.1792 61.7027 91.1013 61.7679C87.7625 64.5769 83.5823 66.1922 79.2223 66.3582V46.679H98.1387Z" fill="#F0F0F0"/>
<path d="M77.3111 66.3753C77.5727 66.3753 77.8327 66.3686 78.0918 66.3585V46.6785L63.7797 60.9906C67.4327 64.4543 72.277 66.382 77.3111 66.3753Z" fill="#58B893"/>
<path d="M77.338 25.5682C74.7514 25.5682 72.1901 26.0777 69.8004 27.0675C67.4107 28.0574 65.2393 29.5082 63.4103 31.3372C61.5813 33.1663 60.1304 35.3376 59.1406 37.7273C58.1507 40.1171 57.6412 42.6784 57.6412 45.265H78.1391V25.5857C77.8733 25.5751 77.6065 25.5682 77.338 25.5682Z" fill="#FF966E"/>
<path d="M72.6388 46.679L68.4976 50.8202L68.3622 50.9556L68.3592 50.9586L64.748 54.5688L64.6107 54.7062L60.7091 58.6077L60.5717 58.7451V58.7461L58.3263 60.9906C56.3766 59.1519 54.8237 56.9337 53.7634 54.4725C52.7031 52.0112 52.1577 49.359 52.1608 46.679H72.6388Z" fill="#FF966E"/>
<path d="M139.183 100.521H79.7183V74.4472H80.633V99.6055H139.183V100.521Z" fill="#3F3D56"/>
<path d="M80.1757 83.7032C82.9546 83.7032 85.2073 81.4504 85.2073 78.6715C85.2073 75.8926 82.9546 73.6399 80.1757 73.6399C77.3968 73.6399 75.144 75.8926 75.144 78.6715C75.144 81.4504 77.3968 83.7032 80.1757 83.7032Z" fill="#3F3D56"/>
<path d="M363.043 76.9977L357.982 78.3238L358.319 86.5294L358.361 101.469C357.862 101.814 357.48 102.302 357.265 102.869C357.049 103.436 357.011 104.055 357.155 104.644C357.3 105.233 357.619 105.764 358.072 106.167C358.524 106.571 359.089 106.827 359.69 106.903C360.292 106.978 360.902 106.869 361.441 106.591C361.979 106.312 362.42 105.876 362.705 105.341C362.991 104.806 363.107 104.197 363.039 103.595C362.97 102.992 362.721 102.425 362.323 101.967L363.878 86.9726L363.043 76.9977Z" fill="#A0616A"/>
<path d="M364.459 81.9316L357.061 79.4403L357.044 79.3289C357.033 79.2588 355.948 72.2521 355.961 67.4451C355.946 66.9096 356.048 66.3774 356.261 65.8855C356.473 65.3936 356.789 64.9538 357.189 64.5969C357.744 64.0899 358.436 63.7561 359.179 63.6367C359.922 63.5172 360.683 63.6172 361.37 63.9245C362.104 64.227 362.734 64.7343 363.187 65.3859C363.64 66.0375 363.896 66.8056 363.924 67.5987L364.459 81.9316Z" fill="#58B893"/>
<path d="M350.696 81.2443L339.381 78.3154L334.151 95.9308L333.965 161.555L342.618 161.501L346.235 108.387L369.287 157.466L378.582 156.35L358.318 103.739C358.318 103.739 359.434 94.4436 355.902 89.796L356.645 84.9624L350.696 81.2443Z" fill="#2F2E41"/>
<path d="M356.981 86.2641L356.124 86.2507L338.736 79.3003L347.055 60.7722L351.004 61.4901L350.285 58.614L359.012 56.4808L360.53 62.5543L362.771 64.5909C363.335 65.1043 363.738 65.7705 363.931 66.5086C364.124 67.2467 364.098 68.0249 363.857 68.7487L358.696 84.2326C358.739 84.4822 358.726 84.738 358.659 84.9823C358.593 85.2265 358.473 85.4533 358.31 85.6467C358.147 85.8401 357.943 85.9956 357.714 86.1022C357.484 86.2089 357.234 86.2641 356.981 86.2641L356.981 86.2641Z" fill="#58B893"/>
<path d="M343.904 72.39L339.329 69.8509L333.902 76.0146L323.608 86.8421C323.009 86.7468 322.395 86.8355 321.848 87.0965C321.301 87.3575 320.846 87.7785 320.543 88.3037C320.24 88.829 320.104 89.4338 320.152 90.0382C320.201 90.6425 320.432 91.2179 320.814 91.6883C321.197 92.1586 321.713 92.5017 322.295 92.6722C322.877 92.8428 323.497 92.8326 324.073 92.6431C324.648 92.4537 325.153 92.0938 325.52 91.6112C325.887 91.1286 326.099 90.546 326.128 89.9403L337.614 80.1769L343.904 72.39Z" fill="#A0616A"/>
<path d="M341.517 76.9349L337.892 70.022L337.956 69.9295C337.997 69.8713 342.054 64.0567 345.386 60.5915C345.745 60.1943 346.187 59.8802 346.68 59.6711C347.173 59.4621 347.706 59.3632 348.241 59.3812C348.993 59.399 349.724 59.6359 350.343 60.0628C350.963 60.4897 351.444 61.0881 351.728 61.7846C352.049 62.5101 352.155 63.3128 352.032 64.0967C351.909 64.8805 351.563 65.6125 351.035 66.2049L341.517 76.9349Z" fill="#58B893"/>
<path d="M352.555 55.3504C356.384 55.3504 359.489 52.2461 359.489 48.4166C359.489 44.5871 356.384 41.4827 352.555 41.4827C348.725 41.4827 345.621 44.5871 345.621 48.4166C345.621 52.2461 348.725 55.3504 352.555 55.3504Z" fill="#A0616A"/>
<path d="M344.211 44.3507C345.377 42.2632 345.823 41.3912 347.327 40.1219C348.656 38.9993 350.292 38.6696 351.611 39.7333C353.171 39.0591 354.907 38.9062 356.561 39.2974C358.215 39.6885 359.699 40.6028 360.792 41.9045C361.886 43.2061 362.53 44.8256 362.629 46.5225C362.728 48.2193 362.278 49.903 361.344 51.3234C360.411 52.7438 359.044 53.8251 357.446 54.4067C355.849 54.9884 354.107 55.0393 352.479 54.5519C350.85 54.0646 349.423 53.065 348.407 51.7016C347.392 50.3381 346.844 48.6837 346.844 46.9839C346.846 46.6854 346.864 46.3872 346.898 46.0908C345.752 45.9297 345.358 44.5117 344.211 44.3507Z" fill="#2F2E41"/>
<path d="M37.5495 104.968C37.8759 104.772 38.1553 104.506 38.3681 104.19C38.5808 103.875 38.7217 103.516 38.7809 103.14C38.84 102.764 38.8159 102.379 38.7104 102.013C38.6048 101.647 38.4203 101.309 38.1698 101.022L41.5549 67.0538L35.9026 67.4289L34.3367 100.877C33.8827 101.33 33.6105 101.933 33.5717 102.573C33.5329 103.213 33.7302 103.845 34.1262 104.35C34.5222 104.854 35.0895 105.195 35.7204 105.309C36.3513 105.423 37.0021 105.302 37.5495 104.968V104.968Z" fill="#FFB8B8"/>
<path d="M33.6127 65.7955L35.0946 77.0583L34.8888 83.961L41.1055 84.5302L42.3514 78.7891L43.0378 63.59C43.0896 62.4437 42.7049 61.3203 41.9613 60.4463C41.2177 59.5722 40.1704 59.0126 39.0305 58.88C37.8479 58.7425 36.6587 59.0755 35.7194 59.8072C34.7802 60.5388 34.1663 61.6103 34.0102 62.7906L33.6127 65.7955Z" fill="#2F2E41"/>
<path d="M57.4197 164.894H61.1907L62.9844 150.349H57.4189L57.4197 164.894Z" fill="#FFB7B7"/>
<path d="M56.4579 163.663L63.8844 163.663H63.8847C65.1398 163.663 66.3436 164.161 67.2311 165.049C68.1186 165.936 68.6173 167.14 68.6174 168.395V168.549L56.4581 168.55L56.4579 163.663Z" fill="#2F2E41"/>
<path d="M26.2822 164.894H30.0531L31.8469 150.349H26.2814L26.2822 164.894Z" fill="#FFB7B7"/>
<path d="M25.3199 163.663L32.7464 163.663H32.7467C34.0019 163.663 35.2056 164.161 36.0932 165.049C36.9807 165.936 37.4794 167.14 37.4795 168.395V168.549L25.3202 168.55L25.3199 163.663Z" fill="#2F2E41"/>
<path d="M40.9458 53.5263C45.4612 53.5263 49.1217 49.8658 49.1217 45.3504C49.1217 40.8349 45.4612 37.1745 40.9458 37.1745C36.4304 37.1745 32.7699 40.8349 32.7699 45.3504C32.7699 49.8658 36.4304 53.5263 40.9458 53.5263Z" fill="#FFB8B8"/>
<path d="M42.0022 56.8455L36.3283 57.4939C34.9486 59.4506 34.054 61.7073 33.7183 64.0779C33.3826 66.4485 33.6155 68.8649 34.3977 71.1277L38.6789 83.5127C38.6789 83.5127 32.7359 95.427 32.7359 106.489C32.7359 117.551 21.4176 157.036 21.4176 157.036L37.3491 158.697L44.3006 116.635L53.8801 158.528L64.8159 156.748L58.7927 101.821L54.8126 83.7424L54.643 74.9259C54.643 74.9259 56.3354 68.3104 52.0998 64.0748L46.9286 56.869L42.0022 56.8455Z" fill="#2F2E41"/>
<path d="M82.0012 85.9703C81.9846 85.5534 81.8769 85.1452 81.6854 84.7745C81.494 84.4037 81.2237 84.0795 80.8934 83.8245C80.5631 83.5696 80.1809 83.3901 79.7738 83.2989C79.3666 83.2076 78.9444 83.2067 78.5369 83.2963L47.6834 62.154L45.0669 67.7822L76.379 86.9028C76.5748 87.5775 77.0113 88.1568 77.6058 88.5311C78.2002 88.9054 78.9113 89.0487 79.6043 88.9338C80.2973 88.8188 80.9241 88.4537 81.3659 87.9075C81.8076 87.3613 82.0337 86.6721 82.0012 85.9703H82.0012Z" fill="#FFB8B8"/>
<path d="M42.2918 69.1218L53.8934 73.6297L60.4172 77.4628L64.2382 71.7898L59.3784 67.569L45.1368 58.9046C44.0626 58.2511 42.7807 58.0291 41.5493 58.2832C40.3179 58.5373 39.2286 59.2488 38.5009 60.2742C37.746 61.338 37.4396 62.656 37.6479 63.9437C37.8561 65.2314 38.5624 66.3856 39.6141 67.1573L42.2918 69.1218Z" fill="#2F2E41"/>
<path d="M50.4766 42.4302H38.4624V37.1933C41.0994 36.1456 43.6798 35.2547 45.2397 37.1933C46.6286 37.1933 47.9606 37.745 48.9427 38.7271C49.9248 39.7093 50.4766 41.0413 50.4766 42.4302V42.4302Z" fill="#2F2E41"/>
<path d="M40.6055 36.6704C33.4233 36.7022 31.4128 45.6731 31.4128 50.752C31.4128 53.5845 32.6938 54.5976 34.7067 54.9403L35.4176 51.149L37.0826 55.1035C37.648 55.1063 38.242 55.0954 38.8578 55.0839L39.4223 53.9215L40.6812 55.0631C45.723 55.0706 53.0498 54.6204 49.798 50.7521C45.4418 45.5699 46.8658 36.6427 40.6055 36.6704Z" fill="#2F2E41"/>
<path d="M369.821 64.8631C369.503 63.6609 369.456 62.4034 369.682 61.1807C370.017 58.8194 370.77 56.5414 371.46 54.2582C372.149 51.975 372.781 49.6468 372.861 47.2632C372.94 44.8795 372.423 42.4085 371.002 40.4933C369.581 38.5781 367.158 37.3231 364.8 37.6832C362.547 38.0273 360.58 40.0592 360.569 42.3136C360.165 43.0433 360.686 44.0396 361.428 44.4724C362.206 44.9264 363.144 44.9866 364.007 45.2448C364.854 45.5188 365.635 45.9648 366.302 46.5549C366.969 47.145 367.507 47.8664 367.881 48.674C368.621 50.3044 368.818 52.1294 368.443 53.8802C368.103 55.5769 367.321 57.1469 366.736 58.775C366.149 60.403 365.758 62.1905 366.228 63.8555C366.619 65.0852 367.441 66.1321 368.543 66.8035C369.645 67.4749 370.953 67.7255 372.225 67.5091C371.644 67.2881 371.124 66.9334 370.706 66.4736C370.288 66.0139 369.985 65.4621 369.821 64.8631Z" fill="#2F2E41"/>
<path d="M399.599 168.754H0.401204C0.294798 168.754 0.19275 168.712 0.11751 168.636C0.0422692 168.561 0 168.459 0 168.353C0 168.246 0.0422692 168.144 0.11751 168.069C0.19275 167.994 0.294798 167.951 0.401204 167.951H399.599C399.705 167.951 399.807 167.994 399.883 168.069C399.958 168.144 400 168.246 400 168.353C400 168.459 399.958 168.561 399.883 168.636C399.807 168.712 399.705 168.754 399.599 168.754Z" fill="#CACACA"/>
<path d="M308.511 149.249C307.733 142.989 303.853 136.821 297.883 134.784C300.238 141.227 300.237 148.296 297.882 154.739C296.965 157.22 295.686 159.884 296.549 162.385C297.086 163.942 298.399 165.132 299.867 165.877C301.335 166.621 302.965 166.976 304.574 167.324L304.891 167.585C307.445 161.818 309.29 155.509 308.511 149.249Z" fill="#F0F0F0"/>
<path d="M297.824 134.903C301.301 138.798 303.462 143.69 304 148.884C304.135 150 304.094 151.13 303.878 152.233C303.633 153.301 303.106 154.284 302.352 155.079C301.664 155.835 300.873 156.528 300.381 157.438C300.136 157.907 299.993 158.423 299.961 158.952C299.93 159.48 300.01 160.01 300.197 160.505C300.632 161.751 301.488 162.767 302.36 163.731C303.328 164.802 304.351 165.898 304.763 167.318C304.812 167.49 305.076 167.402 305.027 167.231C304.311 164.761 301.913 163.358 300.77 161.134C300.237 160.096 300.013 158.892 300.513 157.796C300.95 156.838 301.765 156.122 302.468 155.363C303.215 154.598 303.763 153.662 304.064 152.636C304.336 151.548 304.421 150.421 304.314 149.304C304.115 146.785 303.521 144.314 302.554 141.98C301.465 139.31 299.928 136.846 298.008 134.694C297.889 134.561 297.706 134.77 297.824 134.903H297.824Z" fill="white"/>
<path d="M303.924 147.201C304.783 146.992 305.54 146.485 306.06 145.77C306.58 145.055 306.828 144.178 306.761 143.297C306.747 143.118 306.47 143.132 306.484 143.31C306.548 144.131 306.316 144.948 305.831 145.613C305.345 146.278 304.638 146.747 303.837 146.937C303.663 146.978 303.751 147.242 303.924 147.201V147.201Z" fill="white"/>
<path d="M302.751 154.742C301.199 153.815 300.054 152.338 299.543 150.604C299.492 150.433 299.228 150.52 299.279 150.691C299.814 152.494 301.009 154.029 302.626 154.99C302.78 155.081 302.904 154.832 302.751 154.742L302.751 154.742Z" fill="white"/>
<path d="M301.207 139.573C300.892 139.723 300.544 139.792 300.195 139.774C299.846 139.756 299.507 139.652 299.208 139.471C299.055 139.378 298.931 139.627 299.083 139.719C299.414 139.918 299.788 140.033 300.174 140.053C300.559 140.073 300.944 139.999 301.294 139.837C301.329 139.824 301.357 139.799 301.373 139.766C301.39 139.734 301.393 139.696 301.383 139.661C301.371 139.626 301.346 139.597 301.313 139.581C301.28 139.564 301.242 139.561 301.207 139.573Z" fill="white"/>
<path d="M279.686 145.965C279.779 146.026 279.873 146.087 279.967 146.15C281.224 146.977 282.413 147.905 283.52 148.924C283.606 149.001 283.693 149.081 283.778 149.161C286.419 151.645 288.576 154.597 290.139 157.868C290.76 159.171 291.281 160.518 291.697 161.9C292.272 163.807 292.743 165.921 293.882 167.482C293.998 167.646 294.125 167.803 294.262 167.951H304.546C304.57 167.939 304.593 167.93 304.617 167.918L305.027 167.937C305.011 167.864 304.992 167.789 304.976 167.716C304.966 167.674 304.954 167.632 304.945 167.59C304.938 167.562 304.931 167.533 304.926 167.508C304.924 167.498 304.922 167.489 304.919 167.482C304.915 167.456 304.907 167.432 304.903 167.409C304.8 166.989 304.693 166.569 304.584 166.149C304.584 166.147 304.584 166.147 304.581 166.144C303.778 162.936 302.596 159.834 301.062 156.904C301.015 156.817 300.968 156.728 300.916 156.641C300.206 155.344 299.39 154.107 298.478 152.943C297.977 152.307 297.443 151.697 296.88 151.115C295.422 149.614 293.737 148.352 291.887 147.375C288.198 145.428 283.928 144.681 279.986 145.871C279.885 145.902 279.786 145.932 279.686 145.965Z" fill="#F0F0F0"/>
<path d="M279.709 146.096C284.83 147.113 289.501 149.718 293.057 153.541C293.837 154.35 294.485 155.277 294.977 156.288C295.424 157.289 295.595 158.391 295.472 159.479C295.377 160.497 295.163 161.527 295.318 162.549C295.405 163.072 295.602 163.57 295.894 164.011C296.187 164.452 296.57 164.826 297.018 165.109C298.115 165.842 299.411 166.138 300.687 166.383C302.105 166.654 303.582 166.914 304.765 167.8C304.908 167.907 305.066 167.678 304.923 167.571C302.865 166.031 300.106 166.354 297.854 165.266C296.804 164.759 295.899 163.932 295.639 162.756C295.411 161.728 295.631 160.666 295.736 159.636C295.871 158.576 295.745 157.498 295.368 156.498C294.93 155.465 294.319 154.514 293.561 153.687C291.886 151.796 289.923 150.18 287.746 148.898C285.269 147.422 282.558 146.381 279.73 145.819C279.555 145.784 279.535 146.061 279.709 146.096L279.709 146.096Z" fill="white"/>
<path d="M291.984 152.242C292.544 151.558 292.843 150.697 292.828 149.813C292.812 148.93 292.483 148.08 291.899 147.416C291.78 147.283 291.566 147.461 291.685 147.595C292.23 148.212 292.537 149.003 292.55 149.826C292.563 150.649 292.281 151.45 291.756 152.084C291.641 152.221 291.871 152.379 291.984 152.242Z" fill="white"/>
<path d="M295.587 158.969C293.79 159.164 291.987 158.674 290.535 157.597C290.391 157.491 290.233 157.719 290.377 157.826C291.889 158.943 293.768 159.449 295.637 159.243C295.815 159.223 295.764 158.95 295.587 158.969Z" fill="white"/>
<path d="M285.222 147.788C285.06 148.097 284.824 148.362 284.535 148.558C284.245 148.754 283.912 148.875 283.564 148.91C283.386 148.928 283.437 149.201 283.614 149.184C283.998 149.143 284.366 149.009 284.686 148.793C285.006 148.577 285.268 148.287 285.45 147.946C285.47 147.915 285.477 147.878 285.471 147.842C285.464 147.806 285.444 147.774 285.415 147.753C285.385 147.732 285.347 147.724 285.311 147.73C285.275 147.737 285.243 147.757 285.222 147.788Z" fill="white"/>
<path d="M77.0686 149.249C77.8471 142.989 81.7266 136.821 87.6967 134.784C85.3423 141.227 85.3428 148.296 87.6981 154.739C88.6155 157.22 89.8942 159.884 89.0313 162.385C88.4944 163.942 87.181 165.132 85.7128 165.877C84.2446 166.621 82.6152 166.976 81.0061 167.324L80.6895 167.585C78.1352 161.818 76.2901 155.509 77.0686 149.249Z" fill="#F0F0F0"/>
<path d="M87.7562 134.903C84.2795 138.798 82.1186 143.69 81.5805 148.884C81.4448 150 81.4859 151.13 81.7022 152.233C81.9476 153.301 82.4746 154.284 83.2282 155.079C83.916 155.835 84.7071 156.528 85.1992 157.438C85.4442 157.907 85.5872 158.423 85.6188 158.952C85.6505 159.48 85.57 160.01 85.3827 160.505C84.9482 161.751 84.0919 162.767 83.2199 163.731C82.2517 164.802 81.2291 165.898 80.8176 167.318C80.7677 167.49 80.5038 167.402 80.5536 167.231C81.2696 164.761 83.6667 163.358 84.8099 161.134C85.3434 160.096 85.5673 158.892 85.0672 157.796C84.6299 156.838 83.8148 156.122 83.1117 155.363C82.3652 154.598 81.8173 153.662 81.516 152.636C81.2442 151.548 81.1596 150.421 81.2659 149.304C81.4652 146.785 82.0591 144.314 83.0261 141.98C84.115 139.31 85.6525 136.846 87.5722 134.694C87.6911 134.561 87.8743 134.77 87.7562 134.903H87.7562Z" fill="white"/>
<path d="M81.6551 147.201C80.796 146.992 80.039 146.485 79.5193 145.77C78.9997 145.055 78.7511 144.178 78.8181 143.297C78.8323 143.118 79.11 143.132 79.0958 143.31C79.0319 144.131 79.2635 144.948 79.7488 145.613C80.2341 146.278 80.9412 146.747 81.7423 146.937C81.9163 146.978 81.8282 147.242 81.6551 147.201V147.201Z" fill="white"/>
<path d="M82.8287 154.742C84.3804 153.815 85.5258 152.338 86.0366 150.604C86.0871 150.433 86.3511 150.52 86.3006 150.691C85.7657 152.494 84.5706 154.029 82.9538 154.99C82.7996 155.081 82.6754 154.832 82.8287 154.742L82.8287 154.742Z" fill="white"/>
<path d="M84.3727 139.573C84.6883 139.723 85.0362 139.792 85.3852 139.774C85.7341 139.756 86.0732 139.652 86.372 139.471C86.525 139.378 86.649 139.627 86.4971 139.719C86.166 139.918 85.7914 140.033 85.4059 140.053C85.0204 140.073 84.6357 139.999 84.2856 139.837C84.2513 139.824 84.2231 139.799 84.2066 139.766C84.1902 139.734 84.1868 139.696 84.1972 139.661C84.2089 139.626 84.2339 139.597 84.2668 139.581C84.2996 139.564 84.3377 139.561 84.3727 139.573Z" fill="white"/>
<path d="M105.894 145.965C105.8 146.026 105.707 146.087 105.613 146.15C104.355 146.977 103.167 147.905 102.06 148.924C101.973 149.001 101.887 149.081 101.802 149.161C99.161 151.645 97.0041 154.597 95.4409 157.868C94.82 159.171 94.2992 160.518 93.8828 161.9C93.3079 163.807 92.8363 165.921 91.6982 167.482C91.5813 167.646 91.4544 167.803 91.3181 167.951H81.0336C81.0102 167.939 80.9867 167.93 80.9632 167.918L80.5526 167.937C80.5691 167.864 80.5878 167.789 80.6043 167.716C80.6137 167.674 80.6254 167.632 80.6348 167.59C80.6418 167.562 80.6489 167.533 80.6536 167.508C80.6559 167.498 80.6583 167.489 80.6606 167.482C80.6653 167.456 80.6724 167.432 80.6771 167.409C80.7803 166.989 80.8867 166.569 80.9961 166.149C80.9961 166.147 80.9961 166.147 80.9984 166.144C81.8021 162.936 82.9836 159.834 84.5181 156.904C84.5651 156.817 84.6119 156.728 84.6636 156.641C85.3742 155.344 86.1895 154.107 87.1016 152.943C87.6031 152.307 88.1364 151.697 88.6996 151.115C90.1575 149.614 91.8425 148.352 93.6927 147.375C97.3814 145.428 101.652 144.681 105.594 145.871C105.695 145.902 105.793 145.932 105.894 145.965Z" fill="#F0F0F0"/>
<path d="M105.871 146.096C100.75 147.113 96.0793 149.718 92.5228 153.541C91.7426 154.35 91.0948 155.277 90.6033 156.288C90.1563 157.289 89.9854 158.391 90.1083 159.479C90.2025 160.497 90.4167 161.527 90.2619 162.549C90.1749 163.072 89.9785 163.57 89.6855 164.011C89.3926 164.452 89.0097 164.826 88.5619 165.109C87.4647 165.842 86.1694 166.138 84.8926 166.383C83.475 166.654 81.9982 166.914 80.8151 167.8C80.6717 167.907 80.5137 167.678 80.6568 167.571C82.7152 166.031 85.4737 166.354 87.7256 165.266C88.7763 164.759 89.6806 163.932 89.9409 162.756C90.1685 161.728 89.9485 160.666 89.8442 159.636C89.7088 158.576 89.835 157.498 90.2119 156.498C90.6504 155.465 91.2614 154.514 92.0188 153.687C93.6942 151.796 95.6565 150.18 97.8338 148.899C100.311 147.422 103.022 146.381 105.85 145.819C106.025 145.784 106.045 146.061 105.871 146.096H105.871Z" fill="white"/>
<path d="M93.5955 152.242C93.0351 151.558 92.736 150.697 92.7517 149.813C92.7673 148.93 93.0967 148.08 93.6809 147.416C93.7996 147.283 94.0131 147.461 93.8943 147.595C93.3491 148.212 93.0424 149.003 93.0295 149.826C93.0167 150.649 93.2984 151.45 93.824 152.084C93.9381 152.221 93.7089 152.379 93.5955 152.242Z" fill="white"/>
<path d="M89.9926 158.969C91.7893 159.164 93.5933 158.674 95.0448 157.597C95.1886 157.491 95.3467 157.719 95.2031 157.826C93.6905 158.943 91.8122 159.449 89.9429 159.243C89.7648 159.223 89.8154 158.95 89.9926 158.969Z" fill="white"/>
<path d="M100.358 147.788C100.52 148.097 100.756 148.362 101.045 148.558C101.334 148.754 101.668 148.875 102.015 148.91C102.194 148.928 102.143 149.201 101.966 149.184C101.582 149.143 101.214 149.009 100.894 148.793C100.574 148.577 100.311 148.287 100.129 147.946C100.11 147.915 100.102 147.878 100.109 147.842C100.115 147.806 100.135 147.774 100.165 147.753C100.195 147.732 100.232 147.724 100.269 147.73C100.305 147.737 100.337 147.757 100.358 147.788H100.358Z" fill="white"/>
</g>
<defs>
<clipPath id="clip0_105:1867">
<rect width="400" height="168.754" fill="white"/>
</clipPath>
</defs>
</svg>
